P3
64 64
255
245 203 236 245 203 236 245 203 236 245 203 236 245 203 236 245 203 236 
245 203 236 245 203 236 245 203 236 245 203 236 245 203 236 245 203 236 
245 203 236 245 203 236 245 203 236 245 203 236 245 203 236 245 203 236 
245 203 236 245 203 236 245 203 236 245 203 236 245 203 236 245 203 236 
245 203 236 245 203 236 245 203 236 245 203 236 161 97  82  243 131 41  
235 127 40  235 127 40  235 127 40  235 127 40  238 128 40  206 116 62  
245 203 236 245 203 236 245 203 236 245 203 236 245 203 236 245 203 236 
245 203 236 245 203 236 245 203 236 245 203 236 245 203 236 245 203 236 
245 203 236 245 203 236 245 203 236 245 203 236 245 203 236 245 203 236 
245 203 236 245 203 236 245 203 236 245 203 236 245 203 236 245 203 236 
245 203 236 245 203 236 245 203 236 245 203 236 
245 203 236 245 203 236 245 203 236 245 203 236 245 203 236 245 203 236 
245 203 236 245 203 236 245 203 236 245 203 236 245 203 236 245 203 236 
245 203 236 245 203 236 245 203 236 245 203 236 245 203 236 245 203 236 
245 203 236 245 203 236 245 203 236 245 203 236 245 203 236 245 203 236 
245 203 236 245 203 236 245 203 236 245 203 236 138 66  40  109 52  7   
7   3   0   7   3   0   7   3   0   7   3   0   47  22  3   192 92  29  
245 203 236 245 203 236 245 203 236 245 203 236 245 203 236 245 203 236 
245 203 236 245 203 236 245 203 236 245 203 236 245 203 236 245 203 236 
245 203 236 245 203 236 245 203 236 245 203 236 245 203 236 245 203 236 
245 203 236 245 203 236 245 203 236 245 203 236 245 203 236 245 203 236 
245 203 236 245 203 236 245 203 236 245 203 236 
245 203 236 245 203 236 245 203 236 245 203 236 245 203 236 245 203 236 
245 203 236 245 203 236 245 203 236 245 203 236 245 203 236 245 203 236 
245 203 236 245 203 236 245 203 236 245 203 236 245 203 236 245 203 236 
57  44  95  206 122 57  255 123 17  255 123 17  255 123 17  255 123 17  
255 123 17  255 123 17  255 123 17  255 123 17  255 123 17  112 54  7   
0   0   0   0   0   0   0   0   0   0   0   0   47  23  3   255 123 17  
255 123 17  255 123 17  255 123 17  255 123 17  255 123 17  255 123 17  
255 123 17  255 123 17  228 124 40  82  66  97  245 203 236 245 203 236 
245 203 236 245 203 236 245 203 236 245 203 236 245 203 236 245 203 236 
245 203 236 245 203 236 245 203 236 245 203 236 245 203 236 245 203 236 
245 203 236 245 203 236 245 203 236 245 203 236 
245 203 236 245 203 236 245 203 236 245 203 236 245 203 236 245 203 236 
245 203 236 245 203 236 245 203 236 245 203 236 245 203 236 245 203 236 
245 203 236 245 203 236 245 203 236 245 203 236 245 203 236 60  47  96  
207 123 57  255 123 17  255 123 17  255 123 17  255 123 17  255 123 17  
255 123 17  255 123 17  255 123 17  255 123 17  255 123 17  119 57  7   
0   0   0   0   0   0   0   0   0   0   0   0   54  26  3   255 123 17  
255 123 17  255 123 17  255 123 17  255 123 17  255 123 17  255 123 17  
255 123 17  255 123 17  255 123 17  228 124 40  85  67  97  245 203 236 
245 203 236 245 203 236 245 203 236 245 203 236 245 203 236 245 203 236 
245 203 236 245 203 236 245 203 236 245 203 236 245 203 236 245 203 236 
245 203 236 245 203 236 245 203 236 245 203 236 
245 203 236 245 203 236 245 203 236 245 203 236 245 203 236 245 203 236 
245 203 236 245 203 236 245 203 236 245 203 236 245 203 236 245 203 236 
245 203 236 245 203 236 245 203 236 245 203 236 58  44  93  208 124 58  
255 123 17  255 123 17  255 123 17  255 123 17  255 123 17  255 123 17  
255 123 17  255 123 17  255 123 17  255 123 17  255 123 17  127 61  8   
0   0   0   0   0   0   0   0   0   0   0   0   61  29  4   255 123 17  
255 123 17  255 123 17  255 123 17  255 123 17  255 123 17  255 123 17  
255 123 17  255 123 17  255 123 17  255 123 17  229 124 40  85  68  97  
245 203 236 245 203 236 245 203 236 245 203 236 245 203 236 245 203 236 
245 203 236 245 203 236 245 203 236 245 203 236 245 203 236 245 203 236 
245 203 236 245 203 236 245 203 236 245 203 236 
245 203 236 245 203 236 245 203 236 245 203 236 245 203 236 245 203 236 
245 203 236 245 203 236 245 203 236 245 203 236 245 203 236 245 203 236 
245 203 236 245 203 236 245 203 236 56  43  93  209 125 58  255 123 17  
255 123 17  255 123 17  255 123 17  255 123 17  255 123 17  255 123 17  
255 123 17  255 123 17  255 123 17  255 123 17  255 123 17  134 65  8   
0   0   0   0   0   0   0   0   0   0   0   0   69  33  4   255 123 17  
255 123 17  255 123 17  255 123 17  255 123 17  255 123 17  255 123 17  
255 123 17  255 123 17  255 123 17  255 123 17  255 123 17  230 125 40  
87  70  100 245 203 236 245 203 236 245 203 236 245 203 236 245 203 236 
245 203 236 245 203 236 245 203 236 245 203 236 245 203 236 245 203 236 
245 203 236 245 203 236 245 203 236 245 203 236 
245 203 236 245 203 236 245 203 236 245 203 236 245 203 236 245 203 236 
245 203 236 245 203 236 245 203 236 245 203 236 245 203 236 245 203 236 
245 203 236 245 203 236 57  44  93  209 125 58  255 123 17  255 123 17  
255 123 17  255 123 17  255 123 17  255 123 17  255 123 17  255 123 17  
255 123 17  255 123 17  255 123 17  255 123 17  255 123 17  142 68  9   
0   0   0   0   0   0   0   0   0   0   0   0   76  36  5   255 123 17  
255 123 17  255 123 17  255 123 17  255 123 17  255 123 17  255 123 17  
255 123 17  255 123 17  255 123 17  255 123 17  255 123 17  255 123 17  
232 127 42  83  65  95  245 203 236 245 203 236 245 203 236 245 203 236 
245 203 236 245 203 236 245 203 236 245 203 236 245 203 236 245 203 236 
245 203 236 245 203 236 245 203 236 245 203 236 
245 203 236 245 203 236 245 203 236 245 203 236 245 203 236 245 203 236 
245 203 236 245 203 236 245 203 236 245 203 236 245 203 236 245 203 236 
245 203 236 60  46  94  214 128 61  255 123 17  255 123 17  255 123 17  
255 123 17  255 123 17  255 123 17  255 123 17  255 123 17  255 123 17  
255 123 17  255 123 17  255 123 17  255 123 17  255 123 17  149 72  10  
0   0   0   0   0   0   0   0   0   0   0   0   83  40  5   255 123 17  
255 123 17  255 123 17  255 123 17  255 123 17  255 123 17  255 123 17  
255 123 17  255 123 17  255 123 17  255 123 17  255 123 17  255 123 17  
255 123 17  232 126 41  85  67  95  245 203 236 245 203 236 245 203 236 
245 203 236 245 203 236 245 203 236 245 203 236 245 203 236 245 203 236 
245 203 236 245 203 236 245 203 236 245 203 236 
245 203 236 245 203 236 245 203 236 245 203 236 245 203 236 245 203 236 
245 203 236 245 203 236 245 203 236 245 203 236 245 203 236 245 203 236 
56  43  91  212 126 59  255 123 17  255 123 17  255 123 17  255 123 17  
255 123 17  255 123 17  255 123 17  255 123 17  255 123 17  255 123 17  
255 123 17  255 123 17  255 123 17  255 123 17  255 123 17  157 75  10  
0   0   0   0   0   0   0   0   0   0   0   0   90  43  6   255 123 17  
255 123 17  255 123 17  255 123 17  255 123 17  255 123 17  255 123 17  
255 123 17  255 123 17  255 123 17  255 123 17  255 123 17  255 123 17  
255 123 17  255 123 17  232 126 41  84  67  95  245 203 236 245 203 236 
245 203 236 245 203 236 245 203 236 245 203 236 245 203 236 245 203 236 
245 203 236 245 203 236 245 203 236 245 203 236 
245 203 236 245 203 236 245 203 236 245 203 236 245 203 236 245 203 236 
245 203 236 245 203 236 245 203 236 245 203 236 245 203 236 56  43  91  
212 126 59  255 123 17  255 123 17  255 123 17  255 123 17  255 123 17  
255 123 17  255 123 17  255 123 17  255 123 17  255 123 17  255 123 17  
255 123 17  255 123 17  255 123 17  255 123 17  255 123 17  164 79  11  
0   0   0   0   0   0   0   0   0   0   0   0   97  47  6   255 123 17  
255 123 17  255 123 17  255 123 17  255 123 17  255 123 17  255 123 17  
255 123 17  255 123 17  255 123 17  255 123 17  255 123 17  255 123 17  
255 123 17  255 123 17  255 123 17  235 129 44  87  70  98  245 203 236 
245 203 236 245 203 236 245 203 236 245 203 236 245 203 236 245 203 236 
245 203 236 245 203 236 245 203 236 245 203 236 
245 203 236 245 203 236 245 203 236 245 203 236 245 203 236 245 203 236 
245 203 236 245 203 236 245 203 236 245 203 236 60  46  94  214 127 59  
255 123 17  255 123 17  255 123 17  255 123 17  255 123 17  255 123 17  
255 123 17  255 123 17  255 123 17  255 123 17  255 123 17  255 123 17  
255 123 17  255 123 17  255 123 17  255 123 17  255 123 17  171 82  11  
0   0   0   0   0   0   0   0   0   0   0   0   104 50  7   255 123 17  
255 123 17  255 123 17  255 123 17  255 123 17  255 123 17  255 123 17  
255 123 17  255 123 17  255 123 17  255 123 17  255 123 17  255 123 17  
255 123 17  255 123 17  255 123 17  255 123 17  236 129 43  84  65  92  
245 203 236 245 203 236 245 203 236 245 203 236 245 203 236 245 203 236 
245 203 236 245 203 236 245 203 236 245 203 236 
245 203 236 245 203 236 245 203 236 245 203 236 245 203 236 245 203 236 
245 203 236 245 203 236 245 203 236 73  60  103 218 131 63  255 123 17  
255 123 17  255 123 17  255 123 17  255 123 17  255 123 17  255 123 17  
255 123 17  255 123 17  255 123 17  255 123 17  255 123 17  255 123 17  
255 123 17  255 123 17  255 123 17  255 123 17  255 123 17  179 86  11  
0   0   0   0   0   0   0   0   0   0   0   0   111 54  7   255 123 17  
255 123 17  255 123 17  255 123 17  255 123 17  255 123 17  255 123 17  
255 123 17  255 123 17  255 123 17  255 123 17  255 123 17  255 123 17  
255 123 17  255 123 17  255 123 17  255 123 17  255 123 17  235 128 42  
83  65  92  245 203 236 245 203 236 245 203 236 245 203 236 245 203 236 
245 203 236 245 203 236 245 203 236 245 203 236 
245 203 236 245 203 236 245 203 236 245 203 236 245 203 236 245 203 236 
245 203 236 245 203 236 98  88  121 221 135 65  255 123 17  255 123 17  
255 123 17  255 123 17  255 123 17  255 123 17  255 123 17  255 123 17  
255 123 17  255 123 17  255 123 17  255 123 17  255 123 17  255 123 17  
255 123 17  255 123 17  255 123 17  255 123 17  255 123 17  186 90  12  
0   0   0   0   0   0   0   0   0   0   0   0   118 57  7   255 123 17  
255 123 17  255 123 17  255 123 17  255 123 17  255 123 17  255 123 17  
255 123 17  255 123 17  255 123 17  255 123 17  255 123 17  255 123 17  
255 123 17  255 123 17  255 123 17  255 123 17  255 123 17  255 123 17  
236 129 43  88  69  96  245 203 236 245 203 236 245 203 236 245 203 236 
245 203 236 245 203 236 245 203 236 245 203 236 
245 203 236 245 203 236 245 203 236 245 203 236 245 203 236 245 203 236 
245 203 236 99  89  122 221 134 64  255 123 17  255 123 17  255 123 17  
255 123 17  255 123 17  255 123 17  255 123 17  255 123 17  255 123 17  
255 123 17  255 123 17  255 123 17  255 123 17  255 123 17  255 123 17  
255 123 17  255 123 17  255 123 17  255 123 17  255 123 17  194 93  12  
0   0   0   0   0   0   0   0   0   0   0   0   126 60  8   255 123 17  
255 123 17  255 123 17  255 123 17  255 123 17  255 123 17  255 123 17  
255 123 17  255 123 17  255 123 17  255 123 17  255 123 17  255 123 17  
255 123 17  255 123 17  255 123 17  255 123 17  255 123 17  255 123 17  
255 123 17  238 130 44  100 82  104 245 203 236 245 203 236 245 203 236 
245 203 236 245 203 236 245 203 236 245 203 236 
245 203 236 245 203 236 245 203 236 245 203 236 245 203 236 245 203 236 
104 93  125 224 136 66  255 123 17  255 123 17  255 123 17  255 123 17  
255 123 17  255 123 17  255 123 17  255 123 17  255 123 17  255 123 17  
255 123 17  255 123 17  255 123 17  255 123 17  255 123 17  255 123 17  
255 123 17  255 123 17  255 123 17  255 123 17  255 123 17  202 97  13  
0   0   0   0   0   0   0   0   0   0   0   0   133 64  8   255 123 17  
255 123 17  255 123 17  255 123 17  255 123 17  255 123 17  255 123 17  
255 123 17  255 123 17  255 123 17  255 123 17  255 123 17  255 123 17  
255 123 17  255 123 17  255 123 17  255 123 17  255 123 17  255 123 17  
255 123 17  255 123 17  239 131 44  125 110 122 245 203 236 245 203 236 
245 203 236 245 203 236 245 203 236 245 203 236 
245 203 236 245 203 236 245 203 236 245 203 236 245 203 236 101 91  125 
225 137 67  255 123 17  255 123 17  255 123 17  255 123 17  255 123 17  
255 123 17  255 123 17  255 123 17  255 123 17  255 123 17  255 123 17  
255 123 17  255 123 17  255 123 17  255 123 17  255 123 17  255 123 17  
255 123 17  255 123 17  255 123 17  255 123 17  255 123 17  209 101 14  
0   0   0   0   0   0   0   0   0   0   0   0   140 67  9   255 123 17  
255 123 17  255 123 17  255 123 17  255 123 17  255 123 17  255 123 17  
255 123 17  255 123 17  255 123 17  255 123 17  255 123 17  255 123 17  
255 123 17  255 123 17  255 123 17  255 123 17  255 123 17  255 123 17  
255 123 17  255 123 17  255 123 17  238 130 43  126 111 123 245 203 236 
245 203 236 245 203 236 245 203 236 245 203 236 
245 203 236 245 203 236 245 203 236 245 203 236 98  88  120 224 136 65  
255 123 17  255 123 17  255 123 17  255 123 17  255 123 17  255 123 17  
255 123 17  255 123 17  255 123 17  255 123 17  255 123 17  255 123 17  
255 123 17  255 123 17  255 123 17  255 123 17  255 123 17  255 123 17  
255 123 17  255 123 17  255 123 17  255 123 17  255 123 17  217 104 14  
0   0   0   0   0   0   0   0   0   0   0   0   146 70  9   255 123 17  
255 123 17  255 123 17  255 123 17  255 123 17  255 123 17  255 123 17  
255 123 17  255 123 17  255 123 17  255 123 17  255 123 17  255 123 17  
255 123 17  255 123 17  255 123 17  255 123 17  255 123 17  255 123 17  
255 123 17  255 123 17  255 123 17  255 123 17  242 133 47  130 115 127 
245 203 236 245 203 236 245 203 236 245 203 236 
245 203 236 245 203 236 245 203 236 103 84  108 224 135 61  255 123 17  
255 123 17  255 123 17  255 123 17  255 123 17  255 123 17  255 123 17  
255 123 17  255 123 17  255 123 17  255 123 17  255 123 17  255 123 17  
255 123 17  255 123 17  255 123 17  255 123 17  255 123 17  255 123 17  
255 123 17  255 123 17  255 123 17  255 123 17  255 123 17  223 107 14  
1   0   0   0   0   0   0   0   0   0   0   0   104 50  6   255 123 17  
255 123 17  255 123 17  255 123 17  255 123 17  255 123 17  255 123 17  
255 123 17  255 123 17  255 123 17  255 123 17  255 123 17  255 123 17  
255 123 17  255 123 17  255 123 17  255 123 17  255 123 17  255 123 17  
255 123 17  255 123 17  255 123 17  255 123 17  255 123 17  241 133 45  
130 114 126 245 203 236 245 203 236 245 203 236 
245 203 236 245 203 236 102 83  108 228 119 32  255 123 17  255 123 17  
255 123 17  255 123 17  255 123 17  255 123 17  255 123 17  255 123 17  
255 123 17  255 123 17  255 123 17  255 123 17  255 123 17  255 123 17  
255 123 17  255 123 17  255 123 17  255 123 17  255 123 17  255 123 17  
255 123 17  255 123 17  255 123 17  255 123 17  255 123 17  227 109 15  
4   1   0   0   0   0   0   0   0   0   0   0   5   2   0   135 65  9   
236 114 15  255 123 17  255 123 17  255 123 17  255 123 17  255 123 17  
255 123 17  255 123 17  255 123 17  255 123 17  255 123 17  255 123 17  
255 123 17  255 123 17  255 123 17  255 123 17  255 123 17  255 123 17  
255 123 17  255 123 17  255 123 17  255 123 17  255 123 17  255 123 17  
241 132 45  125 109 121 245 203 236 245 203 236 
245 203 236 76  54  90  228 120 32  255 123 17  255 123 17  255 123 17  
255 123 17  255 123 17  255 123 17  255 123 17  255 123 17  255 123 17  
255 123 17  255 123 17  255 123 17  255 123 17  255 123 17  255 123 17  
255 123 17  255 123 17  255 123 17  255 123 17  255 123 17  255 123 17  
255 123 17  255 123 17  255 123 17  255 123 17  255 123 17  232 112 15  
6   3   0   0   0   0   0   0   0   0   0   0   0   0   0   0   0   0   
68  32  4   255 123 17  255 123 17  255 123 17  255 123 17  255 123 17  
255 123 17  255 123 17  255 123 17  255 123 17  255 123 17  255 123 17  
255 123 17  255 123 17  255 123 17  255 123 17  255 123 17  255 123 17  
255 123 17  255 123 17  255 123 17  255 123 17  255 123 17  255 123 17  
255 123 17  241 129 39  109 77  84  245 203 236 
245 203 236 88  41  46  255 123 17  255 123 17  255 123 17  255 123 17  
255 123 17  255 123 17  255 123 17  255 123 17  255 123 17  255 123 17  
255 123 17  255 123 17  255 123 17  255 123 17  255 123 17  255 123 17  
255 123 17  255 123 17  255 123 17  255 123 17  255 123 17  255 123 17  
255 123 17  255 123 17  255 123 17  255 123 17  255 123 17  245 118 16  
127 61  8   122 59  8   122 59  8   122 59  8   122 59  8   122 59  8   
156 75  10  255 123 17  255 123 17  255 123 17  255 123 17  255 123 17  
255 123 17  255 123 17  255 123 17  255 123 17  255 123 17  255 123 17  
255 123 17  255 123 17  255 123 17  255 123 17  255 123 17  255 123 17  
255 123 17  255 123 17  255 123 17  255 123 17  255 123 17  255 123 17  
255 123 17  255 123 17  136 65  32  245 203 236 
245 203 236 88  41  46  255 123 17  255 123 17  255 123 17  255 123 17  
255 123 17  255 123 17  255 123 17  255 123 17  255 123 17  255 123 17  
255 123 17  255 123 17  255 123 17  255 123 17  255 123 17  255 123 17  
255 123 17  255 123 17  255 123 17  255 123 17  255 123 17  255 123 17  
255 123 17  255 123 17  255 123 17  255 123 17  255 123 17  255 123 17  
255 123 17  255 123 17  255 123 17  255 123 17  255 123 17  255 123 17  
255 123 17  255 123 17  255 123 17  255 123 17  255 123 17  255 123 17  
255 123 17  255 123 17  255 123 17  255 123 17  255 123 17  255 123 17  
255 123 17  255 123 17  255 123 17  255 123 17  255 123 17  255 123 17  
255 123 17  255 123 17  255 123 17  255 123 17  255 123 17  255 123 17  
255 123 17  255 123 17  136 65  32  245 203 236 
245 203 236 88  41  46  255 123 17  255 123 17  255 123 17  255 123 17  
255 123 17  255 123 17  255 123 17  255 123 17  255 123 17  255 123 17  
255 123 17  255 123 17  255 123 17  255 123 17  255 123 17  255 123 17  
255 123 17  255 123 17  255 123 17  255 123 17  255 123 17  255 123 17  
255 123 17  255 123 17  255 123 17  255 123 17  255 123 17  255 123 17  
255 123 17  255 123 17  255 123 17  255 123 17  255 123 17  255 123 17  
255 123 17  255 123 17  255 123 17  255 123 17  255 123 17  255 123 17  
255 123 17  255 123 17  255 123 17  255 123 17  255 123 17  255 123 17  
255 123 17  255 123 17  255 123 17  255 123 17  255 123 17  255 123 17  
255 123 17  255 123 17  255 123 17  255 123 17  255 123 17  255 123 17  
255 123 17  255 123 17  136 65  32  245 203 236 
245 203 236 88  41  46  255 123 17  255 123 17  255 123 17  255 123 17  
255 123 17  255 123 17  255 123 17  255 123 17  255 123 17  255 123 17  
255 123 17  255 123 17  255 123 17  255 123 17  255 123 17  255 123 17  
255 123 17  255 123 17  255 123 17  255 123 17  255 123 17  255 123 17  
255 123 17  255 123 17  255 123 17  255 123 17  255 123 17  255 123 17  
255 123 17  255 123 17  255 123 17  255 123 17  255 123 17  255 123 17  
255 123 17  255 123 17  255 123 17  255 123 17  255 123 17  255 123 17  
255 123 17  255 123 17  255 123 17  255 123 17  255 123 17  255 123 17  
255 123 17  255 123 17  255 123 17  255 123 17  255 123 17  255 123 17  
255 123 17  255 123 17  255 123 17  255 123 17  255 123 17  255 123 17  
255 123 17  255 123 17  136 65  32  245 203 236 
245 203 236 88  41  46  255 123 17  255 123 17  255 123 17  255 123 17  
255 123 17  255 123 17  255 123 17  255 123 17  255 123 17  255 123 17  
255 123 17  255 123 17  255 123 17  255 123 17  255 123 17  255 123 17  
255 123 17  255 123 17  255 123 17  255 123 17  255 123 17  255 123 17  
255 123 17  255 123 17  255 123 17  255 123 17  255 123 17  255 123 17  
255 123 17  255 123 17  255 123 17  255 123 17  255 123 17  255 123 17  
255 123 17  255 123 17  255 123 17  255 123 17  255 123 17  255 123 17  
255 123 17  255 123 17  255 123 17  255 123 17  255 123 17  255 123 17  
255 123 17  255 123 17  255 123 17  255 123 17  255 123 17  255 123 17  
255 123 17  255 123 17  255 123 17  255 123 17  255 123 17  255 123 17  
255 123 17  255 123 17  136 65  32  245 203 236 
245 203 236 88  41  46  255 123 17  255 123 17  255 123 17  255 123 17  
255 123 17  255 123 17  255 123 17  255 123 17  255 123 17  255 123 17  
255 123 17  255 123 17  255 123 17  255 123 17  255 123 17  255 123 17  
255 123 17  255 123 17  255 123 17  255 123 17  255 123 17  255 123 17  
255 123 17  255 123 17  255 123 17  255 123 17  255 123 17  255 123 17  
255 123 17  255 123 17  255 123 17  255 123 17  255 123 17  255 123 17  
255 123 17  255 123 17  255 123 17  255 123 17  255 123 17  255 123 17  
255 123 17  255 123 17  255 123 17  255 123 17  255 123 17  255 123 17  
255 123 17  255 123 17  255 123 17  255 123 17  255 123 17  255 123 17  
255 123 17  255 123 17  255 123 17  255 123 17  255 123 17  255 123 17  
255 123 17  255 123 17  136 65  32  245 203 236 
245 203 236 88  41  46  255 123 17  255 123 17  255 123 17  255 123 17  
255 123 17  255 123 17  255 123 17  255 123 17  255 123 17  255 123 17  
255 123 17  255 123 17  255 123 17  255 123 17  255 123 17  255 123 17  
254 122 16  184 89  12  211 102 14  255 123 17  255 123 17  255 123 17  
255 123 17  255 123 17  255 123 17  255 123 17  255 123 17  255 123 17  
255 123 17  255 123 17  255 123 17  255 123 17  255 123 17  255 123 17  
255 123 17  255 123 17  255 123 17  255 123 17  255 123 17  255 123 17  
255 123 17  255 123 17  255 123 17  255 123 17  255 123 17  255 123 17  
255 123 17  255 123 17  255 123 17  255 123 17  255 123 17  255 123 17  
255 123 17  255 123 17  255 123 17  255 123 17  255 123 17  255 123 17  
255 123 17  255 123 17  136 65  32  245 203 236 
73  33  71  122 58  40  255 123 17  255 123 17  255 123 17  255 123 17  
255 123 17  255 123 17  255 123 17  255 123 17  255 123 17  255 123 17  
255 123 17  255 123 17  255 123 17  255 123 17  255 123 17  255 123 17  
207 100 13  0   0   0   105 50  6   255 123 17  255 123 17  255 123 17  
255 123 17  255 123 17  255 123 17  255 123 17  255 123 17  255 123 17  
255 123 17  255 123 17  255 123 17  255 123 17  255 123 17  255 123 17  
255 123 17  255 123 17  255 123 17  255 123 17  255 123 17  255 123 17  
255 123 17  255 123 17  255 123 17  255 123 17  255 123 17  255 123 17  
255 123 17  255 123 17  255 123 17  255 123 17  255 123 17  255 123 17  
255 123 17  255 123 17  255 123 17  255 123 17  255 123 17  255 123 17  
255 123 17  255 123 17  136 65  32  245 203 236 
223 107 23  165 80  11  169 81  11  176 85  11  183 88  12  191 92  12  
198 95  13  205 98  13  212 102 14  219 105 14  226 109 15  233 112 15  
236 113 15  239 115 15  241 116 16  244 118 16  246 119 16  224 108 14  
57  27  3   0   0   0   105 50  6   255 123 17  255 123 17  255 123 17  
255 123 17  255 123 17  255 123 17  255 123 17  255 123 17  255 123 17  
255 123 17  255 123 17  255 123 17  255 123 17  255 123 17  255 123 17  
255 123 17  255 123 17  255 123 17  255 123 17  255 123 17  255 123 17  
255 123 17  255 123 17  255 123 16  255 122 16  255 123 15  255 122 16  
255 123 16  255 122 16  255 122 16  255 122 16  255 121 15  255 122 16  
255 122 15  255 122 16  255 121 16  255 122 16  255 122 16  255 123 17  
255 122 16  255 123 17  229 110 19  210 100 27  
211 101 22  8   4   0   0   0   0   0   0   0   0   0   0   0   0   0   
0   0   0   0   0   0   0   0   0   0   0   0   0   0   0   0   0   0   
4   2   0   8   4   0   12  6   0   17  8   1   20  9   1   6   3   0   
0   0   0   0   0   0   105 50  6   255 123 17  255 123 17  255 123 17  
255 123 17  255 123 17  255 123 17  255 123 17  255 123 17  255 123 17  
255 123 17  255 123 17  255 123 17  255 123 17  255 123 17  255 123 17  
255 123 17  255 123 17  255 123 17  255 123 17  255 123 17  255 123 17  
255 123 17  246 118 16  137 66  9   125 60  8   119 57  7   112 54  7   
105 50  7   98  47  6   91  44  6   84  40  5   77  37  5   70  34  4   
64  30  4   57  27  3   50  24  3   43  20  2   36  17  2   29  14  1   
22  11  1   16  7   1   9   4   0   19  9   1   
211 101 22  8   4   0   0   0   0   0   0   0   0   0   0   0   0   0   
0   0   0   0   0   0   0   0   0   0   0   0   0   0   0   0   0   0   
0   0   0   0   0   0   0   0   0   0   0   0   0   0   0   0   0   0   
0   0   0   0   0   0   105 50  6   255 123 17  255 123 17  255 123 17  
255 123 17  255 123 17  255 123 17  255 123 17  255 123 17  255 123 17  
255 123 17  255 123 17  255 123 17  255 123 17  255 123 17  255 123 17  
255 123 17  255 123 17  255 123 17  255 123 17  255 123 17  255 123 17  
255 123 17  237 113 15  11  5   0   0   0   0   0   0   0   0   0   0   
0   0   0   0   0   0   0   0   0   0   0   0   0   0   0   0   0   0   
0   0   0   0   0   0   0   0   0   0   0   0   0   0   0   0   0   0   
0   0   0   0   0   0   0   0   0   14  6   0   
211 101 22  8   4   0   0   0   0   0   0   0   0   0   0   0   0   0   
0   0   0   0   0   0   0   0   0   0   0   0   0   0   0   0   0   0   
0   0   0   0   0   0   0   0   0   0   0   0   0   0   0   0   0   0   
0   0   0   0   0   0   105 50  6   255 123 17  255 123 17  255 123 17  
255 123 17  255 123 17  255 123 17  255 123 17  255 123 17  255 123 17  
255 123 17  255 123 17  255 123 17  255 123 17  255 123 17  255 123 17  
255 123 17  255 123 17  255 123 17  255 123 17  255 123 17  255 123 17  
255 123 17  237 113 15  11  5   0   0   0   0   0   0   0   0   0   0   
0   0   0   0   0   0   0   0   0   0   0   0   0   0   0   0   0   0   
0   0   0   0   0   0   0   0   0   0   0   0   0   0   0   0   0   0   
0   0   0   0   0   0   0   0   0   14  6   0   
211 101 22  8   4   0   0   0   0   0   0   0   0   0   0   0   0   0   
0   0   0   0   0   0   0   0   0   0   0   0   0   0   0   0   0   0   
0   0   0   0   0   0   0   0   0   0   0   0   0   0   0   0   0   0   
0   0   0   0   0   0   105 50  6   255 123 17  255 123 17  255 123 17  
255 123 17  255 123 17  255 123 17  255 123 17  255 123 17  255 123 17  
255 123 17  255 123 17  255 123 17  255 123 17  255 123 17  255 123 17  
255 123 17  255 123 17  255 123 17  255 123 17  255 123 17  255 123 17  
255 123 17  237 113 15  11  5   0   0   0   0   0   0   0   0   0   0   
0   0   0   0   0   0   0   0   0   0   0   0   0   0   0   0   0   0   
0   0   0   0   0   0   0   0   0   0   0   0   0   0   0   0   0   0   
0   0   0   0   0   0   0   0   0   14  6   0   
211 101 22  8   4   0   0   0   0   4   1   0   10  5   0   17  8   1   
23  11  1   30  14  2   37  18  2   44  21  2   50  24  3   58  28  3   
65  31  4   72  35  4   79  38  5   87  42  5   94  45  6   101 49  6   
108 52  7   116 55  7   177 85  11  255 123 17  255 123 17  255 123 17  
255 123 17  255 123 17  255 123 17  255 123 17  255 123 17  255 123 17  
255 123 17  255 123 17  255 123 17  255 123 17  255 123 17  255 123 17  
255 123 17  255 123 17  255 123 17  255 123 17  255 123 17  255 123 17  
255 123 17  237 113 15  11  5   0   0   0   0   2   1   0   33  16  2   
42  20  2   35  17  2   28  13  1   22  10  1   16  8   1   14  7   0   
12  5   0   10  4   0   7   3   0   5   2   0   3   1   0   1   0   0   
0   0   0   0   0   0   0   0   0   14  6   0   
212 102 29  224 108 18  247 119 16  250 120 16  251 121 16  251 121 16  
252 121 16  253 122 16  253 122 16  254 122 16  255 123 17  255 123 17  
255 123 17  255 123 17  255 123 17  255 123 17  255 123 17  255 123 17  
255 123 17  255 123 17  255 123 17  255 123 17  255 123 17  255 123 17  
255 123 17  255 123 17  255 123 17  255 123 17  255 123 17  255 123 17  
255 123 17  255 123 17  255 123 17  255 123 17  255 123 17  255 123 17  
255 123 17  255 123 17  255 123 17  255 123 17  255 123 17  255 123 17  
255 123 17  237 113 15  11  5   0   2   1   0   167 80  11  253 122 16  
255 123 17  255 123 16  255 122 15  255 122 16  253 122 15  248 119 15  
244 117 15  240 115 15  235 113 15  231 111 14  226 108 14  222 107 13  
217 103 13  210 100 13  199 95  13  193 93  14  
245 203 236 92  43  46  255 123 17  255 123 17  255 123 17  255 123 17  
255 123 17  255 123 17  255 123 17  255 123 17  255 123 17  255 123 17  
255 123 17  255 123 17  255 123 17  255 123 17  255 123 17  255 123 17  
255 123 17  255 123 17  255 123 17  255 123 17  255 123 17  255 123 17  
255 123 17  255 123 17  255 123 17  255 123 17  255 123 17  255 123 17  
255 123 17  255 123 17  255 123 17  255 123 17  255 123 17  255 123 17  
255 123 17  255 123 17  255 123 17  255 123 17  255 123 17  255 123 17  
255 123 17  237 114 15  14  7   0   79  38  5   253 121 16  255 123 17  
255 123 17  255 123 17  255 123 17  255 123 17  255 123 17  255 123 17  
255 123 17  255 123 17  255 123 17  255 123 17  255 123 17  255 123 17  
255 123 17  255 122 16  140 67  30  245 203 236 
245 203 236 88  41  46  255 123 17  255 123 17  255 123 17  255 123 17  
255 123 17  255 123 17  255 123 17  255 123 17  255 123 17  255 123 17  
255 123 17  255 123 17  255 123 17  255 123 17  255 123 17  255 123 17  
255 123 17  255 123 17  255 123 17  255 123 17  255 123 17  255 123 17  
255 123 17  255 123 17  255 123 17  255 123 17  255 123 17  255 123 17  
255 123 17  255 123 17  255 123 17  255 123 17  255 123 17  255 123 17  
255 123 17  255 123 17  255 123 17  255 123 17  255 123 17  255 123 17  
255 123 17  253 121 16  237 114 14  245 117 16  255 123 16  255 123 17  
255 123 17  255 123 17  255 123 17  255 123 17  255 123 17  255 123 17  
255 123 17  255 123 17  255 123 17  255 123 17  255 123 17  255 123 17  
255 123 17  255 123 17  136 65  32  245 203 236 
245 203 236 88  41  46  255 123 17  255 123 17  255 123 17  255 123 17  
255 123 17  255 123 17  255 123 17  255 123 17  255 123 17  255 123 17  
255 123 17  255 123 17  255 123 17  255 123 17  255 123 17  255 123 17  
255 123 17  255 123 17  255 123 17  255 123 17  255 123 17  255 123 17  
255 123 17  255 123 17  255 123 17  255 123 17  255 123 17  255 123 17  
255 123 17  255 123 17  255 123 17  255 123 17  255 123 17  255 123 17  
255 123 17  255 123 17  255 123 17  255 123 17  255 123 17  255 123 17  
255 123 17  255 123 17  255 123 17  255 123 17  255 123 17  255 123 17  
255 123 17  255 123 17  255 123 17  255 123 17  255 123 17  255 123 17  
255 123 17  255 123 17  255 123 17  255 123 17  255 123 17  255 123 17  
255 123 17  255 123 17  136 65  32  245 203 236 
245 203 236 88  41  46  255 123 17  255 123 17  255 123 17  255 123 17  
255 123 17  255 123 17  255 123 17  255 123 17  255 123 17  255 123 17  
255 123 17  255 123 17  255 123 17  255 123 17  255 123 17  255 123 17  
255 123 17  255 123 17  255 123 17  255 123 17  255 123 17  255 123 17  
255 123 17  255 123 17  255 123 17  255 123 17  255 123 17  255 123 17  
255 123 17  255 123 17  255 123 17  255 123 17  255 123 17  255 123 17  
255 123 17  255 123 17  255 123 17  255 123 17  255 123 17  255 123 17  
255 123 17  255 123 17  255 123 17  255 123 17  255 123 17  255 123 17  
255 123 17  255 123 17  255 123 17  255 123 17  255 123 17  255 123 17  
255 123 17  255 123 17  255 123 17  255 123 17  255 123 17  255 123 17  
255 123 17  255 123 17  136 65  32  245 203 236 
245 203 236 88  41  46  255 123 17  255 123 17  255 123 17  255 123 17  
255 123 17  255 123 17  255 123 17  255 123 17  255 123 17  255 123 17  
255 123 17  255 123 17  255 123 17  255 123 17  255 123 17  255 123 17  
255 123 17  255 123 17  255 123 17  255 123 17  255 123 17  255 123 17  
255 123 17  255 123 17  255 123 17  255 123 17  255 123 17  255 123 17  
255 123 17  255 123 17  255 123 17  255 123 17  255 123 17  255 123 17  
255 123 17  255 123 17  255 123 17  255 123 17  255 123 17  255 123 17  
255 123 17  255 123 17  255 123 17  255 123 17  255 123 17  255 123 17  
255 123 17  255 123 17  255 123 17  255 123 17  255 123 17  255 123 17  
255 123 17  255 123 17  255 123 17  255 123 17  255 123 17  255 123 17  
255 123 17  255 123 17  136 65  32  245 203 236 
245 203 236 88  41  46  255 123 17  255 123 17  255 123 17  255 123 17  
255 123 17  255 123 17  255 123 17  255 123 17  255 123 17  255 123 17  
255 123 17  255 123 17  255 123 17  255 123 17  255 123 17  255 123 17  
255 123 17  255 123 17  255 123 17  255 123 17  255 123 17  255 123 17  
255 123 17  255 123 17  255 123 17  255 123 17  255 123 17  255 123 17  
255 123 17  255 123 17  255 123 17  255 123 17  255 123 17  255 123 17  
255 123 17  255 123 17  255 123 17  255 123 17  255 123 17  255 123 17  
255 123 17  255 123 17  255 123 17  255 123 17  255 123 17  255 123 17  
255 123 17  255 123 17  255 123 17  255 123 17  255 123 17  255 123 17  
255 123 17  255 123 17  255 123 17  255 123 17  255 123 17  255 123 17  
255 123 17  255 123 17  136 65  32  245 203 236 
245 203 236 88  41  46  255 123 17  255 123 17  255 123 17  255 123 17  
255 123 17  255 123 17  255 123 17  255 123 17  255 123 17  255 123 17  
255 123 17  255 123 17  255 123 17  255 123 17  255 123 17  255 123 17  
255 123 17  255 123 17  255 123 17  255 123 17  255 123 17  255 123 17  
255 123 17  255 123 17  255 123 17  255 123 17  255 123 17  255 123 17  
255 123 17  255 123 17  255 123 17  255 123 17  255 123 17  255 123 17  
255 123 17  255 123 17  255 123 17  255 123 17  255 123 17  255 123 17  
255 123 17  255 123 17  255 123 17  255 123 17  255 123 17  255 123 17  
255 123 17  255 123 17  255 123 17  255 123 17  255 123 17  255 123 17  
255 123 17  255 123 17  255 123 17  255 123 17  255 123 17  255 123 17  
255 123 17  255 123 17  136 65  32  245 203 236 
245 203 236 88  41  46  255 123 17  255 123 17  255 123 17  255 123 17  
255 123 17  255 123 17  255 123 17  255 123 17  255 123 17  255 123 17  
255 123 17  255 123 17  255 123 17  255 123 17  255 123 17  255 123 17  
255 123 17  255 123 17  255 123 17  255 123 17  255 123 17  255 123 17  
255 123 17  255 123 17  255 123 17  255 123 17  255 123 17  255 123 17  
255 123 17  255 123 17  255 123 17  255 123 17  255 123 17  255 123 17  
255 123 17  255 123 17  255 123 17  255 123 17  255 123 17  255 123 17  
255 123 17  255 123 17  255 123 17  255 123 17  255 123 17  255 123 17  
255 123 17  255 123 17  255 123 17  255 123 17  255 123 17  255 123 17  
255 123 17  255 123 17  255 123 17  255 123 17  255 123 17  255 123 17  
255 123 17  255 123 17  136 65  32  245 203 236 
245 203 236 88  41  46  255 123 17  255 123 17  255 123 17  255 123 17  
255 123 17  255 123 17  255 123 17  255 123 17  255 123 17  255 123 17  
255 123 17  255 123 17  255 123 17  255 123 17  255 123 17  255 123 17  
255 123 17  255 123 17  255 123 17  255 123 17  255 123 17  255 123 17  
255 123 17  255 123 17  255 123 17  180 87  12  122 59  8   122 59  8   
122 59  8   122 59  8   122 59  8   122 59  8   223 107 14  255 123 17  
255 123 17  255 123 17  255 123 17  255 123 17  255 123 17  255 123 17  
255 123 17  255 123 17  255 123 17  255 123 17  255 123 17  255 123 17  
255 123 17  255 123 17  255 123 17  255 123 17  255 123 17  255 123 17  
255 123 17  255 123 17  255 123 17  255 123 17  255 123 17  255 123 17  
255 123 17  255 123 17  136 65  32  245 203 236 
245 203 236 73  52  88  230 122 34  255 123 17  255 123 17  255 123 17  
255 123 17  255 123 17  255 123 17  255 123 17  255 123 17  255 123 17  
255 123 17  255 123 17  255 123 17  255 123 17  255 123 17  255 123 17  
255 123 17  255 123 17  255 123 17  255 123 17  255 123 17  255 123 17  
255 123 17  255 123 17  255 123 17  114 55  7   0   0   0   0   0   0   
0   0   0   0   0   0   0   0   0   0   0   0   189 91  12  255 123 17  
255 123 17  255 123 17  255 123 17  255 123 17  255 123 17  255 123 17  
255 123 17  255 123 17  255 123 17  255 123 17  255 123 17  255 123 17  
255 123 17  255 123 17  255 123 17  255 123 17  255 123 17  255 123 17  
255 123 17  255 123 17  255 123 17  255 123 17  255 123 17  255 123 17  
255 123 17  242 120 22  109 77  84  245 203 236 
245 203 236 245 203 236 100 81  106 230 121 34  255 123 17  255 123 17  
255 123 17  255 123 17  255 123 17  255 123 17  255 123 17  255 123 17  
255 123 17  255 123 17  255 123 17  255 123 17  255 123 17  255 123 17  
255 123 17  255 123 17  255 123 17  255 123 17  255 123 17  255 123 17  
255 123 17  255 123 17  255 123 17  242 117 16  158 76  10  15  7   1   
0   0   0   0   0   0   0   0   0   0   0   0   181 87  12  255 123 17  
255 123 17  255 123 17  255 123 17  255 123 17  255 123 17  255 123 17  
255 123 17  255 123 17  255 123 17  255 123 17  255 123 17  255 123 17  
255 123 17  255 123 17  255 123 17  255 123 17  255 123 17  255 123 17  
255 123 17  255 123 17  255 123 17  255 123 17  255 123 17  255 123 17  
243 121 22  123 92  92  245 203 236 245 203 236 
245 203 236 245 203 236 245 203 236 101 82  106 226 118 31  255 123 17  
255 123 17  255 123 17  255 123 17  255 123 17  255 123 17  255 123 17  
255 123 17  255 123 17  255 123 17  255 123 17  255 123 17  255 123 17  
255 123 17  255 123 17  255 123 17  255 123 17  255 123 17  255 123 17  
255 123 17  255 123 17  255 123 17  255 123 17  255 123 17  152 73  10  
0   0   0   0   0   0   0   0   0   0   0   0   174 83  11  255 123 17  
255 123 17  255 123 17  255 123 17  255 123 17  255 123 17  255 123 17  
255 123 17  255 123 17  255 123 17  255 123 17  255 123 17  255 123 17  
255 123 17  255 123 17  255 123 17  255 123 17  255 123 17  255 123 17  
255 123 17  255 123 17  255 123 17  255 123 17  255 123 17  243 120 22  
128 97  97  245 203 236 245 203 236 245 203 236 
245 203 236 245 203 236 245 203 236 245 203 236 96  78  103 226 118 31  
255 123 17  255 123 17  255 123 17  255 123 17  255 123 17  255 123 17  
255 123 17  255 123 17  255 123 17  255 123 17  255 123 17  255 123 17  
255 123 17  255 123 17  255 123 17  255 123 17  255 123 17  255 123 17  
255 123 17  255 123 17  255 123 17  255 123 17  255 123 17  197 95  13  
0   0   0   0   0   0   0   0   0   0   0   0   166 80  11  255 123 17  
255 123 17  255 123 17  255 123 17  255 123 17  255 123 17  255 123 17  
255 123 17  255 123 17  255 123 17  255 123 17  255 123 17  255 123 17  
255 123 17  255 123 17  255 123 17  255 123 17  255 123 17  255 123 17  
255 123 17  255 123 17  255 123 17  255 123 17  241 120 22  129 99  100 
245 203 236 245 203 236 245 203 236 245 203 236 
245 203 236 245 203 236 245 203 236 245 203 236 245 203 236 98  80  106 
227 119 32  255 123 17  255 123 17  255 123 17  255 123 17  255 123 17  
255 123 17  255 123 17  255 123 17  255 123 17  255 123 17  255 123 17  
255 123 17  255 123 17  255 123 17  255 123 17  255 123 17  255 123 17  
255 123 17  255 123 17  255 123 17  255 123 17  255 123 17  191 92  12  
0   0   0   0   0   0   0   0   0   0   0   0   159 76  10  255 123 17  
255 123 17  255 123 17  255 123 17  255 123 17  255 123 17  255 123 17  
255 123 17  255 123 17  255 123 17  255 123 17  255 123 17  255 123 17  
255 123 17  255 123 17  255 123 17  255 123 17  255 123 17  255 123 17  
255 123 17  255 123 17  255 123 17  239 132 45  126 103 109 245 203 236 
245 203 236 245 203 236 245 203 236 245 203 236 
245 203 236 245 203 236 245 203 236 245 203 236 245 203 236 245 203 236 
101 83  108 227 120 34  255 123 17  255 123 17  255 123 17  255 123 17  
255 123 17  255 123 17  255 123 17  255 123 17  255 123 17  255 123 17  
255 123 17  255 123 17  255 123 17  255 123 17  255 123 17  255 123 17  
255 123 17  255 123 17  255 123 17  255 123 17  255 123 17  184 88  12  
0   0   0   0   0   0   0   0   0   0   0   0   151 73  10  255 123 17  
255 123 17  255 123 17  255 123 17  255 123 17  255 123 17  255 123 17  
255 123 17  255 123 17  255 123 17  255 123 17  255 123 17  255 123 17  
255 123 17  255 123 17  255 123 17  255 123 17  255 123 17  255 123 17  
255 123 17  255 123 17  240 133 47  123 108 120 245 203 236 245 203 236 
245 203 236 245 203 236 245 203 236 245 203 236 
245 203 236 245 203 236 245 203 236 245 203 236 245 203 236 245 203 236 
245 203 236 97  87  120 223 136 66  255 123 17  255 123 17  255 123 17  
255 123 17  255 123 17  255 123 17  255 123 17  255 123 17  255 123 17  
255 123 17  255 123 17  255 123 17  255 123 17  255 123 17  255 123 17  
255 123 17  255 123 17  255 123 17  255 123 17  255 123 17  176 85  11  
0   0   0   0   0   0   0   0   0   0   0   0   143 69  9   255 123 17  
255 123 17  255 123 17  255 123 17  255 123 17  255 123 17  255 123 17  
255 123 17  255 123 17  255 123 17  255 123 17  255 123 17  255 123 17  
255 123 17  255 123 17  255 123 17  255 123 17  255 123 17  255 123 17  
255 123 17  239 132 47  128 112 125 245 203 236 245 203 236 245 203 236 
245 203 236 245 203 236 245 203 236 245 203 236 
245 203 236 245 203 236 245 203 236 245 203 236 245 203 236 245 203 236 
245 203 236 245 203 236 96  86  119 223 136 67  255 123 17  255 123 17  
255 123 17  255 123 17  255 123 17  255 123 17  255 123 17  255 123 17  
255 123 17  255 123 17  255 123 17  255 123 17  255 123 17  255 123 17  
255 123 17  255 123 17  255 123 17  255 123 17  255 123 17  169 81  11  
0   0   0   0   0   0   0   0   0   0   0   0   136 65  9   255 123 17  
255 123 17  255 123 17  255 123 17  255 123 17  255 123 17  255 123 17  
255 123 17  255 123 17  255 123 17  255 123 17  255 123 17  255 123 17  
255 123 17  255 123 17  255 123 17  255 123 17  255 123 17  255 123 17  
238 131 45  129 114 127 245 203 236 245 203 236 245 203 236 245 203 236 
245 203 236 245 203 236 245 203 236 245 203 236 
245 203 236 245 203 236 245 203 236 245 203 236 245 203 236 245 203 236 
245 203 236 245 203 236 245 203 236 100 90  123 224 137 68  255 123 17  
255 123 17  255 123 17  255 123 17  255 123 17  255 123 17  255 123 17  
255 123 17  255 123 17  255 123 17  255 123 17  255 123 17  255 123 17  
255 123 17  255 123 17  255 123 17  255 123 17  255 123 17  162 78  10  
0   0   0   0   0   0   0   0   0   0   0   0   128 62  8   255 123 17  
255 123 17  255 123 17  255 123 17  255 123 17  255 123 17  255 123 17  
255 123 17  255 123 17  255 123 17  255 123 17  255 123 17  255 123 17  
255 123 17  255 123 17  255 123 17  255 123 17  255 123 17  238 131 45  
123 108 122 245 203 236 245 203 236 245 203 236 245 203 236 245 203 236 
245 203 236 245 203 236 245 203 236 245 203 236 
245 203 236 245 203 236 245 203 236 245 203 236 245 203 236 245 203 236 
245 203 236 245 203 236 245 203 236 245 203 236 103 91  125 220 135 65  
255 123 17  255 123 17  255 123 17  255 123 17  255 123 17  255 123 17  
255 123 17  255 123 17  255 123 17  255 123 17  255 123 17  255 123 17  
255 123 17  255 123 17  255 123 17  255 123 17  255 123 17  155 75  10  
0   0   0   0   0   0   0   0   0   0   0   0   121 58  8   255 123 17  
255 123 17  255 123 17  255 123 17  255 123 17  255 123 17  255 123 17  
255 123 17  255 123 17  255 123 17  255 123 17  255 123 17  255 123 17  
255 123 17  255 123 17  255 123 17  255 123 17  237 131 45  124 109 123 
245 203 236 245 203 236 245 203 236 245 203 236 245 203 236 245 203 236 
245 203 236 245 203 236 245 203 236 245 203 236 
245 203 236 245 203 236 245 203 236 245 203 236 245 203 236 245 203 236 
245 203 236 245 203 236 245 203 236 245 203 236 245 203 236 96  86  121 
220 134 66  255 123 17  255 123 17  255 123 17  255 123 17  255 123 17  
255 123 17  255 123 17  255 123 17  255 123 17  255 123 17  255 123 17  
255 123 17  255 123 17  255 123 17  255 123 17  255 123 17  148 71  9   
0   0   0   0   0   0   0   0   0   0   0   0   114 55  7   255 123 17  
255 123 17  255 123 17  255 123 17  255 123 17  255 123 17  255 123 17  
255 123 17  255 123 17  255 123 17  255 123 17  255 123 17  255 123 17  
255 123 17  255 123 17  255 123 17  237 131 47  90  73  99  245 203 236 
245 203 236 245 203 236 245 203 236 245 203 236 245 203 236 245 203 236 
245 203 236 245 203 236 245 203 236 245 203 236 
245 203 236 245 203 236 245 203 236 245 203 236 245 203 236 245 203 236 
245 203 236 245 203 236 245 203 236 245 203 236 245 203 236 245 203 236 
97  87  121 220 134 66  255 123 17  255 123 17  255 123 17  255 123 17  
255 123 17  255 123 17  255 123 17  255 123 17  255 123 17  255 123 17  
255 123 17  255 123 17  255 123 17  255 123 17  255 123 17  141 68  9   
0   0   0   0   0   0   0   0   0   0   0   0   106 51  7   255 123 17  
255 123 17  255 123 17  255 123 17  255 123 17  255 123 17  255 123 17  
255 123 17  255 123 17  255 123 17  255 123 17  255 123 17  255 123 17  
255 123 17  255 123 17  234 128 43  82  65  93  245 203 236 245 203 236 
245 203 236 245 203 236 245 203 236 245 203 236 245 203 236 245 203 236 
245 203 236 245 203 236 245 203 236 245 203 236 
245 203 236 245 203 236 245 203 236 245 203 236 245 203 236 245 203 236 
245 203 236 245 203 236 245 203 236 245 203 236 245 203 236 245 203 236 
245 203 236 75  62  105 215 130 63  255 123 17  255 123 17  255 123 17  
255 123 17  255 123 17  255 123 17  255 123 17  255 123 17  255 123 17  
255 123 17  255 123 17  255 123 17  255 123 17  255 123 17  134 64  8   
0   0   0   0   0   0   0   0   0   0   0   0   99  47  6   255 123 17  
255 123 17  255 123 17  255 123 17  255 123 17  255 123 17  255 123 17  
255 123 17  255 123 17  255 123 17  255 123 17  255 123 17  255 123 17  
255 123 17  234 128 43  83  65  93  245 203 236 245 203 236 245 203 236 
245 203 236 245 203 236 245 203 236 245 203 236 245 203 236 245 203 236 
245 203 236 245 203 236 245 203 236 245 203 236 
245 203 236 245 203 236 245 203 236 245 203 236 245 203 236 245 203 236 
245 203 236 245 203 236 245 203 236 245 203 236 245 203 236 245 203 236 
245 203 236 245 203 236 55  42  91  211 126 60  255 123 17  255 123 17  
255 123 17  255 123 17  255 123 17  255 123 17  255 123 17  255 123 17  
255 123 17  255 123 17  255 123 17  255 123 17  255 123 17  127 61  8   
0   0   0   0   0   0   0   0   0   0   0   0   91  44  6   255 123 17  
255 123 17  255 123 17  255 123 17  255 123 17  255 123 17  255 123 17  
255 123 17  255 123 17  255 123 17  255 123 17  255 123 17  255 123 17  
234 128 44  81  63  93  245 203 236 245 203 236 245 203 236 245 203 236 
245 203 236 245 203 236 245 203 236 245 203 236 245 203 236 245 203 236 
245 203 236 245 203 236 245 203 236 245 203 236 
245 203 236 245 203 236 245 203 236 245 203 236 245 203 236 245 203 236 
245 203 236 245 203 236 245 203 236 245 203 236 245 203 236 245 203 236 
245 203 236 245 203 236 245 203 236 54  41  91  211 126 60  255 123 17  
255 123 17  255 123 17  255 123 17  255 123 17  255 123 17  255 123 17  
255 123 17  255 123 17  255 123 17  255 123 17  255 123 17  120 58  8   
0   0   0   0   0   0   0   0   0   0   0   0   83  40  5   255 123 17  
255 123 17  255 123 17  255 123 17  255 123 17  255 123 17  255 123 17  
255 123 17  255 123 17  255 123 17  255 123 17  255 123 17  232 127 42  
85  68  98  245 203 236 245 203 236 245 203 236 245 203 236 245 203 236 
245 203 236 245 203 236 245 203 236 245 203 236 245 203 236 245 203 236 
245 203 236 245 203 236 245 203 236 245 203 236 
245 203 236 245 203 236 245 203 236 245 203 236 245 203 236 245 203 236 
245 203 236 245 203 236 245 203 236 245 203 236 245 203 236 245 203 236 
245 203 236 245 203 236 245 203 236 245 203 236 55  41  90  211 127 61  
255 123 17  255 123 17  255 123 17  255 123 17  255 123 17  255 123 17  
255 123 17  255 123 17  255 123 17  255 123 17  255 123 17  113 54  7   
0   0   0   0   0   0   0   0   0   0   0   0   76  36  5   255 123 17  
255 123 17  255 123 17  255 123 17  255 123 17  255 123 17  255 123 17  
255 123 17  255 123 17  255 123 17  255 123 17  231 126 42  83  66  95  
245 203 236 245 203 236 245 203 236 245 203 236 245 203 236 245 203 236 
245 203 236 245 203 236 245 203 236 245 203 236 245 203 236 245 203 236 
245 203 236 245 203 236 245 203 236 245 203 236 
245 203 236 245 203 236 245 203 236 245 203 236 245 203 236 245 203 236 
245 203 236 245 203 236 245 203 236 245 203 236 245 203 236 245 203 236 
245 203 236 245 203 236 245 203 236 245 203 236 245 203 236 57  44  93  
208 125 59  255 123 17  255 123 17  255 123 17  255 123 17  255 123 17  
255 123 17  255 123 17  255 123 17  255 123 17  255 123 17  106 51  7   
0   0   0   0   0   0   0   0   0   0   0   0   68  33  4   255 123 17  
255 123 17  255 123 17  255 123 17  255 123 17  255 123 17  255 123 17  
255 123 17  255 123 17  255 123 17  230 126 42  82  64  94  245 203 236 
245 203 236 245 203 236 245 203 236 245 203 236 245 203 236 245 203 236 
245 203 236 245 203 236 245 203 236 245 203 236 245 203 236 245 203 236 
245 203 236 245 203 236 245 203 236 245 203 236 
245 203 236 245 203 236 245 203 236 245 203 236 245 203 236 245 203 236 
245 203 236 245 203 236 245 203 236 245 203 236 245 203 236 245 203 236 
245 203 236 245 203 236 245 203 236 245 203 236 245 203 236 245 203 236 
55  42  93  208 124 59  255 123 17  255 123 17  255 123 17  255 123 17  
255 123 17  255 123 17  255 123 17  255 123 17  255 123 17  98  47  6   
0   0   0   0   0   0   0   0   0   0   0   0   61  29  4   255 123 17  
255 123 17  255 123 17  255 123 17  255 123 17  255 123 17  255 123 17  
255 123 17  255 123 17  230 126 42  80  64  95  245 203 236 245 203 236 
245 203 236 245 203 236 245 203 236 245 203 236 245 203 236 245 203 236 
245 203 236 245 203 236 245 203 236 245 203 236 245 203 236 245 203 236 
245 203 236 245 203 236 245 203 236 245 203 236 
245 203 236 245 203 236 245 203 236 245 203 236 245 203 236 245 203 236 
245 203 236 245 203 236 245 203 236 245 203 236 245 203 236 245 203 236 
245 203 236 245 203 236 245 203 236 245 203 236 245 203 236 245 203 236 
245 203 236 245 203 236 245 203 236 245 203 236 245 203 236 245 203 236 
245 203 236 245 203 236 245 203 236 245 203 236 149 71  38  97  46  6   
8   3   0   8   3   0   8   3   0   8   3   0   60  29  4   181 86  32  
245 203 236 245 203 236 245 203 236 245 203 236 245 203 236 245 203 236 
245 203 236 245 203 236 245 203 236 245 203 236 245 203 236 245 203 236 
245 203 236 245 203 236 245 203 236 245 203 236 245 203 236 245 203 236 
245 203 236 245 203 236 245 203 236 245 203 236 245 203 236 245 203 236 
245 203 236 245 203 236 245 203 236 245 203 236 
245 203 236 245 203 236 245 203 236 245 203 236 245 203 236 245 203 236 
245 203 236 245 203 236 245 203 236 245 203 236 245 203 236 245 203 236 
245 203 236 245 203 236 245 203 236 245 203 236 245 203 236 245 203 236 
245 203 236 245 203 236 245 203 236 245 203 236 245 203 236 245 203 236 
245 203 236 245 203 236 245 203 236 245 203 236 135 64  52  218 105 23  
211 101 22  211 101 22  211 101 22  211 101 22  215 103 23  166 79  43  
245 203 236 245 203 236 245 203 236 245 203 236 245 203 236 245 203 236 
245 203 236 245 203 236 245 203 236 245 203 236 245 203 236 245 203 236 
245 203 236 245 203 236 245 203 236 245 203 236 245 203 236 245 203 236 
245 203 236 245 203 236 245 203 236 245 203 236 245 203 236 245 203 236 
245 203 236 245 203 236 245 203 236 245 203 236 
