P3
64 64
255
245 203 236 245 203 236 245 203 236 245 203 236 245 203 236 245 203 236 
245 203 236 245 203 236 245 203 236 245 203 236 245 203 236 245 203 236 
245 203 236 245 203 236 245 203 236 245 203 236 245 203 236 245 203 236 
245 203 236 245 203 236 245 203 236 245 203 236 245 203 236 84  122 134 
99  241 159 95  231 152 95  231 152 95  231 152 95  231 152 95  231 152 
95  231 152 95  231 152 95  231 152 95  231 152 95  231 152 95  231 152 
95  231 152 95  231 152 95  231 152 99  242 159 87  179 145 245 203 236 
245 203 236 245 203 236 245 203 236 245 203 236 245 203 236 245 203 236 
245 203 236 245 203 236 245 203 236 245 203 236 245 203 236 245 203 236 
245 203 236 245 203 236 245 203 236 245 203 236 245 203 236 245 203 236 
245 203 236 245 203 236 245 203 236 245 203 236 
245 203 236 245 203 236 245 203 236 245 203 236 245 203 236 245 203 236 
245 203 236 245 203 236 245 203 236 245 203 236 245 203 236 245 203 236 
245 203 236 245 203 236 245 203 236 245 203 236 245 203 236 245 203 236 
245 203 236 245 203 236 245 203 236 245 203 236 245 203 236 45  101 99  
45  136 84  2   7   4   2   7   4   2   7   4   2   7   4   2   7   4   
2   7   4   2   7   4   2   7   4   2   7   4   2   7   4   2   7   4   
2   7   4   2   7   4   4   14  8   70  208 128 36  69  85  245 203 236 
245 203 236 245 203 236 245 203 236 245 203 236 245 203 236 245 203 236 
245 203 236 245 203 236 245 203 236 245 203 236 245 203 236 245 203 236 
245 203 236 245 203 236 245 203 236 245 203 236 245 203 236 245 203 236 
245 203 236 245 203 236 245 203 236 245 203 236 
245 203 236 245 203 236 245 203 236 245 203 236 245 203 236 245 203 236 
245 203 236 245 203 236 245 203 236 245 203 236 245 203 236 245 203 236 
245 203 236 245 203 236 245 203 236 245 203 236 245 203 236 245 203 236 
57  47  97  98  203 144 84  250 154 84  250 154 84  250 154 84  250 154 
53  158 97  18  54  33  18  54  33  18  54  33  18  54  33  18  54  33  
18  54  33  14  42  26  0   0   0   0   0   0   0   0   0   0   0   0   
0   0   0   0   0   0   35  105 64  83  249 153 84  250 154 84  250 154 
84  250 154 84  250 154 93  225 149 73  75  106 245 203 236 245 203 236 
245 203 236 245 203 236 245 203 236 245 203 236 245 203 236 245 203 236 
245 203 236 245 203 236 245 203 236 245 203 236 245 203 236 245 203 236 
245 203 236 245 203 236 245 203 236 245 203 236 
245 203 236 245 203 236 245 203 236 245 203 236 245 203 236 245 203 236 
245 203 236 245 203 236 245 203 236 245 203 236 245 203 236 245 203 236 
245 203 236 245 203 236 245 203 236 245 203 236 245 203 236 59  50  99  
98  204 144 84  250 154 84  250 154 84  250 154 84  250 154 84  250 154 
84  250 154 84  250 154 84  250 154 84  250 154 84  250 154 84  250 154 
84  250 154 42  126 78  0   0   0   0   0   0   0   0   0   0   0   0   
0   0   0   5   16  10  76  228 140 84  250 154 84  250 154 84  250 154 
84  250 154 84  250 154 84  250 154 94  226 149 73  77  106 245 203 236 
245 203 236 245 203 236 245 203 236 245 203 236 245 203 236 245 203 236 
245 203 236 245 203 236 245 203 236 245 203 236 245 203 236 245 203 236 
245 203 236 245 203 236 245 203 236 245 203 236 
245 203 236 245 203 236 245 203 236 245 203 236 245 203 236 245 203 236 
245 203 236 245 203 236 245 203 236 245 203 236 245 203 236 245 203 236 
245 203 236 245 203 236 245 203 236 245 203 236 56  48  95  100 207 146 
84  250 154 84  250 154 84  250 154 84  250 154 84  250 154 84  250 154 
84  250 154 84  250 154 84  250 154 84  250 154 84  250 154 84  250 154 
80  239 147 8   25  15  0   0   0   0   0   0   0   0   0   0   0   0   
0   0   0   45  135 83  84  250 154 84  250 154 84  250 154 84  250 154 
84  250 154 84  250 154 84  250 154 84  250 154 93  226 149 74  79  107 
245 203 236 245 203 236 245 203 236 245 203 236 245 203 236 245 203 236 
245 203 236 245 203 236 245 203 236 245 203 236 245 203 236 245 203 236 
245 203 236 245 203 236 245 203 236 245 203 236 
245 203 236 245 203 236 245 203 236 245 203 236 245 203 236 245 203 236 
245 203 236 245 203 236 245 203 236 245 203 236 245 203 236 245 203 236 
245 203 236 245 203 236 245 203 236 56  46  95  99  208 146 84  250 154 
84  250 154 84  250 154 84  250 154 84  250 154 84  250 154 84  250 154 
84  250 154 84  250 154 84  250 154 84  250 154 84  250 154 84  250 154 
51  154 95  0   0   0   0   0   0   0   0   0   0   0   0   0   0   0   
11  35  21  80  239 147 84  250 154 84  250 154 84  250 154 84  250 154 
84  250 154 84  250 154 84  250 154 84  250 154 84  250 154 92  227 149 
77  81  110 245 203 236 245 203 236 245 203 236 245 203 236 245 203 236 
245 203 236 245 203 236 245 203 236 245 203 236 245 203 236 245 203 236 
245 203 236 245 203 236 245 203 236 245 203 236 
245 203 236 245 203 236 245 203 236 245 203 236 245 203 236 245 203 236 
245 203 236 245 203 236 245 203 236 245 203 236 245 203 236 245 203 236 
245 203 236 245 203 236 56  48  96  99  208 146 84  250 154 84  250 154 
84  250 154 84  250 154 84  250 154 84  250 154 84  250 154 84  250 154 
84  250 154 84  250 154 84  250 154 84  250 154 84  250 154 83  247 152 
15  47  28  0   0   0   0   0   0   0   0   0   0   0   0   0   0   0   
55  164 101 84  250 154 84  250 154 84  250 154 84  250 154 84  250 154 
84  250 154 84  250 154 84  250 154 84  250 154 84  250 154 84  250 154 
94  229 151 73  78  106 245 203 236 245 203 236 245 203 236 245 203 236 
245 203 236 245 203 236 245 203 236 245 203 236 245 203 236 245 203 236 
245 203 236 245 203 236 245 203 236 245 203 236 
245 203 236 245 203 236 245 203 236 245 203 236 245 203 236 245 203 236 
245 203 236 245 203 236 245 203 236 245 203 236 245 203 236 245 203 236 
245 203 236 59  51  98  103 213 150 84  250 154 84  250 154 84  250 154 
84  250 154 84  250 154 84  250 154 84  250 154 84  250 154 84  250 154 
84  250 154 84  250 154 84  250 154 84  250 154 84  250 154 60  181 111 
0   0   0   0   0   0   0   0   0   0   0   0   0   0   0   19  58  35  
83  247 152 84  250 154 84  250 154 84  250 154 84  250 154 84  250 154 
84  250 154 84  250 154 84  250 154 84  250 154 84  250 154 84  250 154 
84  250 154 94  230 151 74  80  106 245 203 236 245 203 236 245 203 236 
245 203 236 245 203 236 245 203 236 245 203 236 245 203 236 245 203 236 
245 203 236 245 203 236 245 203 236 245 203 236 
245 203 236 245 203 236 245 203 236 245 203 236 245 203 236 245 203 236 
245 203 236 245 203 236 245 203 236 245 203 236 245 203 236 245 203 236 
55  48  94  101 213 149 84  250 154 84  250 154 84  250 154 84  250 154 
84  250 154 84  250 154 84  250 154 84  250 154 84  250 154 84  250 154 
84  250 154 84  250 154 84  250 154 84  250 154 84  250 154 24  71  44  
0   0   0   0   0   0   0   0   0   0   0   0   0   2   1   64  192 118 
84  250 154 84  250 154 84  250 154 84  250 154 84  250 154 84  250 154 
84  250 154 84  250 154 84  250 154 84  250 154 84  250 154 84  250 154 
84  250 154 84  250 154 94  231 152 75  81  107 245 203 236 245 203 236 
245 203 236 245 203 236 245 203 236 245 203 236 245 203 236 245 203 236 
245 203 236 245 203 236 245 203 236 245 203 236 
245 203 236 245 203 236 245 203 236 245 203 236 245 203 236 245 203 236 
245 203 236 245 203 236 245 203 236 245 203 236 245 203 236 55  48  94  
101 213 149 84  250 154 84  250 154 84  250 154 84  250 154 84  250 154 
84  250 154 84  250 154 84  250 154 84  250 154 84  250 154 84  250 154 
84  250 154 84  250 154 84  250 154 84  250 154 70  208 128 0   2   1   
0   0   0   0   0   0   0   0   0   0   0   0   28  84  51  84  250 154 
84  250 154 84  250 154 84  250 154 84  250 154 84  250 154 84  250 154 
84  250 154 84  250 154 84  250 154 84  250 154 84  250 154 84  250 154 
84  250 154 84  250 154 84  250 154 96  233 154 78  84  110 245 203 236 
245 203 236 245 203 236 245 203 236 245 203 236 245 203 236 245 203 236 
245 203 236 245 203 236 245 203 236 245 203 236 
245 203 236 245 203 236 245 203 236 245 203 236 245 203 236 245 203 236 
245 203 236 245 203 236 245 203 236 245 203 236 59  52  98  101 213 149 
84  250 154 84  250 154 84  250 154 84  250 154 84  250 154 84  250 154 
84  250 154 84  250 154 84  250 154 84  250 154 84  250 154 84  250 154 
84  250 154 84  250 154 84  250 154 84  250 154 33  99  61  0   0   0   
0   0   0   0   0   0   0   0   0   3   9   5   72  214 132 84  250 154 
84  250 154 84  250 154 84  250 154 84  250 154 84  250 154 84  250 154 
84  250 154 84  250 154 84  250 154 84  250 154 84  250 154 84  250 154 
84  250 154 84  250 154 84  250 154 84  250 154 96  233 154 73  81  105 
245 203 236 245 203 236 245 203 236 245 203 236 245 203 236 245 203 236 
245 203 236 245 203 236 245 203 236 245 203 236 
245 203 236 245 203 236 245 203 236 245 203 236 245 203 236 245 203 236 
245 203 236 245 203 236 245 203 236 73  68  108 105 219 154 84  250 154 
84  250 154 84  250 154 84  250 154 84  250 154 84  250 154 84  250 154 
84  250 154 84  250 154 84  250 154 84  250 154 84  250 154 84  250 154 
84  250 154 84  250 154 84  250 154 76  226 139 3   11  6   0   0   0   
0   0   0   0   0   0   0   0   0   38  114 70  84  250 154 84  250 154 
84  250 154 84  250 154 84  250 154 84  250 154 84  250 154 84  250 154 
84  250 154 84  250 154 84  250 154 84  250 154 84  250 154 84  250 154 
84  250 154 84  250 154 84  250 154 84  250 154 84  250 154 96  234 154 
74  81  105 245 203 236 245 203 236 245 203 236 245 203 236 245 203 236 
245 203 236 245 203 236 245 203 236 245 203 236 
245 203 236 245 203 236 245 203 236 245 203 236 245 203 236 245 203 236 
245 203 236 245 203 236 99  96  126 105 220 154 84  250 154 84  250 154 
84  250 154 84  250 154 84  250 154 84  250 154 84  250 154 84  250 154 
84  250 154 84  250 154 84  250 154 84  250 154 84  250 154 84  250 154 
84  250 154 84  250 154 84  250 154 47  140 86  0   0   0   0   0   0   
0   0   0   0   0   0   7   22  14  77  231 142 84  250 154 84  250 154 
84  250 154 84  250 154 84  250 154 84  250 154 84  250 154 84  250 154 
84  250 154 84  250 154 84  250 154 84  250 154 84  250 154 84  250 154 
84  250 154 84  250 154 84  250 154 84  250 154 84  250 154 84  250 154 
97  235 155 78  86  110 245 203 236 245 203 236 245 203 236 245 203 236 
245 203 236 245 203 236 245 203 236 245 203 236 
245 203 236 245 203 236 245 203 236 245 203 236 245 203 236 245 203 236 
245 203 236 101 98  127 106 221 154 84  250 154 84  250 154 84  250 154 
84  250 154 84  250 154 84  250 154 84  250 154 84  250 154 84  250 154 
84  250 154 84  250 154 84  250 154 84  250 154 84  250 154 84  250 154 
84  250 154 84  250 154 84  250 154 21  63  39  0   0   0   0   0   0   
0   0   0   0   0   0   48  144 88  84  250 154 84  250 154 84  250 154 
84  250 154 84  250 154 84  250 154 84  250 154 84  250 154 84  250 154 
84  250 154 84  250 154 84  250 154 84  250 154 84  250 154 84  250 154 
84  250 154 84  250 154 84  250 154 84  250 154 84  250 154 84  250 154 
84  250 154 98  236 156 90  100 118 245 203 236 245 203 236 245 203 236 
245 203 236 245 203 236 245 203 236 245 203 236 
245 203 236 245 203 236 245 203 236 245 203 236 245 203 236 245 203 236 
106 103 131 108 225 157 84  250 154 84  250 154 84  250 154 84  250 154 
84  250 154 84  250 154 84  250 154 84  250 154 84  250 154 84  250 154 
84  250 154 84  250 154 84  250 154 84  250 154 84  250 154 84  250 154 
84  250 154 84  250 154 84  250 154 10  31  19  0   0   0   0   0   0   
0   0   0   11  33  20  82  245 151 84  250 154 84  250 154 84  250 154 
84  250 154 84  250 154 84  250 154 84  250 154 84  250 154 84  250 154 
84  250 154 84  250 154 84  250 154 84  250 154 84  250 154 84  250 154 
84  250 154 84  250 154 84  250 154 84  250 154 84  250 154 84  250 154 
84  250 154 84  250 154 98  238 157 113 125 134 245 203 236 245 203 236 
245 203 236 245 203 236 245 203 236 245 203 236 
245 203 236 245 203 236 245 203 236 245 203 236 245 203 236 103 101 129 
108 225 158 84  250 154 84  250 154 84  250 154 84  250 154 84  250 154 
84  250 154 84  250 154 84  250 154 84  250 154 84  250 154 84  250 154 
84  250 154 84  250 154 84  250 154 84  250 154 84  250 154 84  250 154 
84  250 154 84  250 154 84  250 154 15  45  28  0   0   0   0   0   0   
0   0   0   37  110 68  84  250 154 84  250 154 84  250 154 84  250 154 
84  250 154 84  250 154 84  250 154 84  250 154 84  250 154 84  250 154 
84  250 154 84  250 154 84  250 154 84  250 154 84  250 154 84  250 154 
84  250 154 84  250 154 84  250 154 84  250 154 84  250 154 84  250 154 
84  250 154 84  250 154 84  250 154 97  237 156 115 128 137 245 203 236 
245 203 236 245 203 236 245 203 236 245 203 236 
245 203 236 245 203 236 245 203 236 245 203 236 100 99  126 107 225 157 
84  250 154 84  250 154 84  250 154 84  250 154 84  250 154 84  250 154 
84  250 154 84  250 154 84  250 154 84  250 154 84  250 154 84  250 154 
84  250 154 84  250 154 84  250 154 84  250 154 84  250 154 84  250 154 
84  250 154 84  250 154 84  250 154 37  111 68  0   0   0   0   0   0   
0   0   0   38  114 70  84  250 154 84  250 154 84  250 154 84  250 154 
84  250 154 84  250 154 84  250 154 84  250 154 84  250 154 84  250 154 
84  250 154 84  250 154 84  250 154 84  250 154 84  250 154 84  250 154 
84  250 154 84  250 154 84  250 154 84  250 154 84  250 154 84  250 154 
84  250 154 84  250 154 84  250 154 84  250 154 99  239 158 118 132 140 
245 203 236 245 203 236 245 203 236 245 203 236 
245 203 236 245 203 236 245 203 236 92  103 122 105 225 157 84  250 154 
84  250 154 84  250 154 84  250 154 84  250 154 84  250 154 84  250 154 
84  250 154 84  250 154 84  250 154 84  250 154 84  250 154 84  250 154 
84  250 154 84  250 154 84  250 154 84  250 154 84  250 154 84  250 154 
84  250 154 84  250 154 84  250 154 74  220 135 5   17  10  0   0   0   
0   0   0   13  39  24  82  245 151 84  250 154 84  250 154 84  250 154 
84  250 154 68  205 126 82  246 151 84  250 154 84  250 154 84  250 154 
84  250 154 84  250 154 84  250 154 84  250 154 84  250 154 84  250 154 
84  250 154 84  250 154 84  250 154 84  250 154 84  250 154 84  250 154 
84  250 154 84  250 154 84  250 154 84  250 154 84  250 154 98  240 158 
117 131 138 245 203 236 245 203 236 245 203 236 
245 203 236 245 203 236 92  104 123 85  228 145 84  250 154 84  250 154 
84  250 154 84  250 154 84  250 154 84  250 154 84  250 154 84  250 154 
84  250 154 84  250 154 84  250 154 84  250 154 84  250 154 84  250 154 
84  250 154 84  250 154 84  250 154 84  250 154 84  250 154 84  250 154 
84  250 154 84  250 154 84  250 154 84  250 154 64  191 118 5   16  10  
0   0   0   0   0   0   31  92  56  79  237 146 84  250 154 82  245 151 
54  161 99  4   12  7   30  90  55  83  248 153 84  250 154 84  250 154 
84  250 154 84  250 154 84  250 154 84  250 154 84  250 154 84  250 154 
84  250 154 84  250 154 84  250 154 84  250 154 84  250 154 84  250 154 
84  250 154 84  250 154 84  250 154 84  250 154 84  250 154 84  250 154 
98  241 158 112 127 133 245 203 236 245 203 236 
245 203 236 60  67  100 86  228 146 84  250 154 84  250 154 84  250 154 
84  250 154 84  250 154 84  250 154 84  250 154 84  250 154 84  250 154 
84  250 154 84  250 154 84  250 154 84  250 154 84  250 154 84  250 154 
84  250 154 84  250 154 84  250 154 84  250 154 84  250 154 84  250 154 
84  250 154 84  250 154 84  250 154 84  250 154 84  250 154 72  217 133 
26  80  49  1   5   3   0   0   0   6   19  11  17  51  31  7   23  14  
0   1   1   18  54  33  66  199 122 83  249 153 84  250 154 84  250 154 
84  250 154 84  250 154 84  250 154 84  250 154 84  250 154 84  250 154 
84  250 154 84  250 154 84  250 154 84  250 154 84  250 154 84  250 154 
84  250 154 84  250 154 84  250 154 84  250 154 84  250 154 84  250 154 
84  250 154 94  241 156 75  106 111 245 203 236 
245 203 236 38  78  87  84  250 154 84  250 154 84  250 154 84  250 154 
84  250 154 84  250 154 84  250 154 84  250 154 84  250 154 84  250 154 
84  250 154 84  250 154 84  250 154 84  250 154 84  250 154 84  250 154 
84  250 154 84  250 154 84  250 154 84  250 154 84  250 154 84  250 154 
84  250 154 84  250 154 84  250 154 84  250 154 84  250 154 84  250 154 
83  249 153 71  213 131 49  148 91  38  113 69  33  100 61  42  126 77  
63  188 115 82  246 151 84  250 154 84  250 154 84  250 154 84  250 154 
84  250 154 84  250 154 84  250 154 84  250 154 84  250 154 84  250 154 
84  250 154 84  250 154 84  250 154 84  250 154 84  250 154 84  250 154 
84  250 154 84  250 154 84  250 154 84  250 154 84  250 154 84  250 154 
84  250 154 84  250 154 50  129 101 245 203 236 
245 203 236 38  78  87  84  250 154 84  250 154 84  250 154 84  250 154 
84  250 154 84  250 154 84  250 154 84  250 154 84  250 154 84  250 154 
84  250 154 84  250 154 84  250 154 84  250 154 84  250 154 84  250 154 
84  250 154 84  250 154 84  250 154 84  250 154 84  250 154 84  250 154 
84  250 154 84  250 154 84  250 154 84  250 154 84  250 154 84  250 154 
84  250 154 84  250 154 84  250 154 84  250 154 84  250 154 84  250 154 
84  250 154 84  250 154 84  250 154 84  250 154 84  250 154 84  250 154 
84  250 154 84  250 154 84  250 154 84  250 154 84  250 154 84  250 154 
84  250 154 84  250 154 84  250 154 84  250 154 84  250 154 84  250 154 
84  250 154 84  250 154 84  250 154 84  250 154 84  250 154 84  250 154 
84  250 154 84  250 154 50  129 101 245 203 236 
245 203 236 38  78  87  84  250 154 84  250 154 84  250 154 84  250 154 
84  250 154 84  250 154 84  250 154 84  250 154 84  250 154 84  250 154 
84  250 154 84  250 154 84  250 154 84  250 154 84  250 154 84  250 154 
84  250 154 84  250 154 84  250 154 84  250 154 84  250 154 84  250 154 
84  250 154 84  250 154 84  250 154 84  250 154 84  250 154 84  250 154 
84  250 154 84  250 154 84  250 154 84  250 154 84  250 154 84  250 154 
84  250 154 84  250 154 84  250 154 84  250 154 84  250 154 84  250 154 
84  250 154 84  250 154 84  250 154 84  250 154 84  250 154 84  250 154 
84  250 154 84  250 154 84  250 154 84  250 154 84  250 154 84  250 154 
84  250 154 84  250 154 84  250 154 84  250 154 84  250 154 84  250 154 
84  250 154 84  250 154 50  129 101 245 203 236 
74  209 142 63  176 123 84  250 154 84  250 154 84  250 154 84  250 154 
84  250 154 84  250 154 84  250 154 84  250 154 84  250 154 84  250 154 
84  250 154 84  250 154 84  250 154 84  250 154 84  250 154 84  250 154 
84  250 154 84  250 154 84  250 154 84  250 154 84  250 154 84  250 154 
84  250 154 84  250 154 84  250 154 84  250 154 84  250 154 84  250 154 
84  250 154 84  250 154 84  250 154 84  250 154 84  250 154 84  250 154 
84  250 154 84  250 154 84  250 154 84  250 154 84  250 154 84  250 154 
84  250 154 84  250 154 84  250 154 84  250 154 84  250 154 84  250 154 
84  250 154 84  250 154 84  250 154 84  250 154 84  250 154 84  250 154 
84  250 154 84  250 154 84  250 154 84  250 154 84  250 154 84  250 154 
84  250 154 83  250 153 72  216 133 71  211 130 
73  209 137 42  127 78  79  235 145 84  250 154 84  250 154 84  250 154 
84  250 154 84  250 154 84  250 154 84  250 154 84  250 154 84  250 154 
84  250 154 84  250 154 84  250 154 84  250 154 84  250 154 84  250 154 
75  223 137 82  245 151 84  250 154 84  250 154 84  250 154 84  250 154 
84  250 154 84  250 154 84  250 154 84  250 154 84  250 154 84  250 154 
84  250 154 84  250 154 84  250 154 84  250 154 84  250 154 84  250 154 
84  250 154 84  250 154 84  250 154 84  250 154 84  250 154 84  250 154 
84  250 154 84  250 154 84  250 154 84  250 154 84  250 154 84  250 154 
84  250 154 84  250 154 84  250 154 84  250 154 84  250 154 84  250 154 
84  250 154 84  250 154 84  250 154 84  250 154 84  250 154 84  250 154 
84  250 154 83  249 153 14  42  26  4   12  7   
71  206 135 2   8   5   7   21  13  49  146 90  81  243 149 84  250 154 
84  250 154 84  250 154 84  250 154 84  250 154 84  250 154 84  250 154 
84  250 154 84  250 154 84  250 154 84  250 154 84  250 154 76  228 140 
12  38  23  39  116 71  83  249 153 84  250 154 84  250 154 84  250 154 
84  250 154 84  250 154 84  250 154 84  250 154 84  250 154 84  250 154 
84  250 154 84  250 154 84  250 154 84  250 154 84  250 154 84  250 154 
84  250 154 84  250 154 84  250 154 84  250 154 84  250 154 84  250 154 
84  250 154 84  250 154 84  250 154 84  250 154 84  250 154 83  250 154 
83  250 153 83  250 154 83  250 153 83  250 153 84  250 153 84  250 154 
84  250 154 84  250 154 84  250 154 84  250 154 84  250 154 84  250 154 
84  250 154 83  249 153 14  42  26  4   12  7   
71  206 135 2   8   5   0   0   0   0   0   0   14  41  25  57  171 105 
83  247 152 84  250 154 84  250 154 84  250 154 84  250 154 84  250 154 
84  250 154 84  250 154 84  250 154 84  250 154 84  250 154 80  239 147 
25  74  45  2   7   4   72  214 132 84  250 154 84  250 154 84  250 154 
84  250 154 84  250 154 84  250 154 84  250 154 84  250 154 84  250 154 
84  250 154 84  250 154 84  250 154 84  250 154 84  250 154 84  250 154 
84  250 154 84  250 154 84  250 154 84  250 154 84  250 154 84  250 154 
84  250 154 84  250 154 84  250 154 84  250 154 84  249 153 79  236 145 
52  154 95  35  107 65  34  103 63  49  146 90  74  222 137 83  248 153 
83  249 153 84  250 154 84  250 154 84  250 154 84  250 154 84  250 154 
84  250 154 83  249 153 14  42  26  4   12  7   
71  206 135 2   8   5   0   0   0   0   0   0   0   0   0   0   0   0   
21  63  38  66  196 121 83  249 153 84  250 154 84  250 154 84  250 154 
84  250 154 84  250 154 84  250 154 84  250 154 84  250 154 84  250 154 
77  231 142 4   14  8   43  130 80  84  250 154 84  250 154 84  250 154 
84  250 154 84  250 154 84  250 154 84  250 154 84  250 154 84  250 154 
84  250 154 84  250 154 84  250 154 84  250 154 84  250 154 84  250 154 
84  250 154 84  250 154 84  250 154 84  250 154 84  250 154 84  250 154 
84  250 154 84  250 154 84  250 154 83  250 153 61  183 112 8   24  15  
0   0   0   0   0   0   0   0   0   0   0   0   1   3   2   25  76  47  
61  183 112 83  247 151 84  249 153 83  250 153 84  250 154 84  250 154 
84  250 154 83  249 153 14  42  26  4   12  7   
71  206 135 2   8   5   0   0   0   0   0   0   0   0   0   0   0   0   
0   0   0   0   2   1   29  87  53  72  216 133 84  250 154 84  250 154 
84  250 154 84  250 154 84  250 154 84  250 154 84  250 154 84  250 154 
84  250 154 22  67  41  28  83  51  84  250 154 84  250 154 84  250 154 
84  250 154 84  250 154 84  250 154 84  250 154 84  250 154 84  250 154 
84  250 154 84  250 154 84  250 154 84  250 154 84  250 154 84  250 154 
84  250 154 84  250 154 84  250 154 84  250 154 84  250 154 84  250 154 
84  250 154 84  250 154 83  250 153 63  190 117 3   9   5   0   0   0   
0   0   0   0   0   0   0   0   0   0   0   0   0   0   0   0   0   0   
0   0   0   14  43  26  49  148 91  78  236 145 83  250 153 83  249 154 
84  250 154 83  249 153 14  42  26  4   12  7   
71  206 135 2   8   5   0   0   0   0   0   0   0   0   0   0   0   0   
0   0   0   0   0   0   0   0   0   2   8   5   38  113 70  77  230 141 
84  250 154 84  250 154 84  250 154 84  250 154 84  250 154 84  250 154 
83  249 153 25  74  46  25  74  46  84  250 154 84  250 154 84  250 154 
84  250 154 84  250 154 84  250 154 84  250 154 84  250 154 84  250 154 
84  250 154 84  250 154 84  250 154 84  250 154 84  250 154 84  250 154 
84  250 154 84  250 154 84  250 154 84  250 154 84  250 154 84  250 154 
84  250 154 83  250 153 80  239 147 12  36  22  0   0   0   0   0   0   
0   0   0   0   0   0   0   0   0   0   0   0   0   0   0   0   0   0   
0   0   0   0   0   0   0   0   0   6   20  12  37  112 69  70  213 131 
83  248 153 83  248 153 14  42  26  4   12  7   
71  206 135 2   8   5   0   0   0   0   0   0   0   0   0   0   0   0   
0   0   0   0   0   0   0   0   0   0   0   0   0   0   0   7   21  12  
46  139 85  81  241 148 84  250 154 84  250 154 84  250 154 84  250 154 
73  220 135 4   12  7   31  95  58  84  250 154 84  250 154 84  250 154 
84  250 154 84  250 154 84  250 154 84  250 154 84  250 154 84  250 154 
84  250 154 84  250 154 84  250 154 84  250 154 84  250 154 84  250 154 
84  250 154 84  250 154 84  250 154 84  250 154 84  250 154 84  250 154 
84  250 154 83  250 154 51  153 94  0   0   0   0   0   0   8   23  14  
22  67  41  14  42  26  0   1   0   0   0   0   0   0   0   0   0   0   
0   0   0   0   0   0   0   0   0   0   0   0   0   0   0   1   5   3   
25  77  47  61  182 112 13  41  25  4   12  7   
71  206 135 2   8   5   3   9   5   1   5   3   0   0   0   0   0   0   
0   0   0   0   0   0   0   0   0   0   0   0   0   0   0   0   0   0   
0   0   0   12  36  22  54  161 99  81  243 150 83  249 153 64  190 117 
12  38  23  0   0   0   49  146 90  84  250 154 84  250 154 84  250 154 
84  250 154 84  250 154 84  250 154 84  250 154 84  250 154 84  250 154 
84  250 154 84  250 154 84  250 154 84  250 154 84  250 154 84  250 154 
84  250 154 84  250 154 84  250 154 84  250 154 84  250 154 84  250 154 
84  250 154 82  250 153 24  73  45  0   0   0   38  115 71  79  241 148 
83  249 152 84  249 153 64  192 117 20  61  37  0   0   0   0   0   0   
0   0   0   0   0   0   0   0   0   0   0   0   0   0   0   0   0   0   
0   0   0   0   0   0   0   0   0   4   12  7   
71  206 135 2   8   5   16  50  30  75  224 138 40  120 74  7   23  14  
0   0   0   0   0   0   0   0   0   0   0   0   0   0   0   0   0   0   
0   0   0   0   0   0   0   0   0   1   5   3   4   12  7   0   0   0   
0   0   0   3   10  6   75  225 138 84  250 154 84  250 154 84  250 154 
84  250 154 84  250 154 84  250 154 84  250 154 84  250 154 84  250 154 
84  250 154 84  250 154 84  250 154 84  250 154 84  250 154 84  250 154 
84  250 154 84  250 154 84  250 154 84  250 154 84  250 154 84  250 154 
84  250 154 83  249 153 9   28  17  24  71  44  82  248 153 83  250 154 
84  250 154 84  250 154 83  250 154 83  247 153 58  173 106 15  45  28  
0   0   0   0   0   0   0   0   0   0   0   0   0   0   0   0   0   0   
0   0   0   0   0   0   0   0   0   4   12  7   
71  206 135 2   8   5   16  50  30  84  250 154 84  250 154 80  238 147 
51  152 93  15  46  28  0   0   0   0   0   0   0   0   0   0   0   0   
0   0   0   0   0   0   0   0   0   0   0   0   0   0   0   0   0   0   
0   0   0   38  113 70  83  249 153 84  250 154 84  250 154 84  250 154 
84  250 154 84  250 154 84  250 154 84  250 154 84  250 154 84  250 154 
84  250 154 84  250 154 84  250 154 84  250 154 84  250 154 84  250 154 
84  250 154 84  250 154 84  250 154 84  250 154 84  250 154 84  250 154 
84  250 154 81  245 150 5   17  10  45  136 84  83  250 153 84  250 154 
84  250 154 84  250 154 84  250 154 83  250 153 83  250 154 80  244 150 
51  153 94  10  30  18  0   0   0   0   0   0   0   0   0   0   0   0   
0   0   0   0   0   0   0   0   0   4   12  7   
71  206 135 2   8   5   16  50  30  84  250 154 84  250 154 84  250 154 
84  250 154 82  246 151 61  183 112 25  74  46  1   3   2   0   0   0   
0   0   0   0   0   0   0   0   0   0   0   0   0   0   0   0   0   0   
19  57  35  80  239 147 84  250 154 84  250 154 84  250 154 84  250 154 
84  250 154 84  250 154 84  250 154 84  250 154 84  250 154 84  250 154 
84  250 154 84  250 154 84  250 154 84  250 154 84  250 154 84  250 154 
84  250 154 84  250 154 84  250 154 84  250 154 84  250 154 84  250 154 
84  250 154 82  249 153 10  31  19  38  113 69  83  250 154 84  250 154 
84  250 154 84  250 154 84  250 154 84  250 154 84  250 154 84  250 154 
83  249 153 79  238 146 44  133 82  5   17  10  0   0   0   0   0   0   
0   0   0   0   0   0   0   0   0   4   12  7   
71  206 135 2   8   5   16  50  30  84  250 154 84  250 154 84  250 154 
84  250 154 84  250 154 84  250 154 84  250 154 70  211 130 35  106 65  
5   16  10  0   0   0   0   0   0   0   0   0   0   1   1   29  86  53  
78  234 144 84  250 154 84  250 154 84  250 154 84  250 154 84  250 154 
84  250 154 84  250 154 84  250 154 84  250 154 84  250 154 84  250 154 
84  250 154 84  250 154 84  250 154 84  250 154 84  250 154 84  250 154 
84  250 154 84  250 154 84  250 154 84  250 154 84  250 154 84  250 154 
84  250 154 83  249 153 30  89  55  10  30  18  78  236 145 83  249 153 
84  250 154 84  250 154 84  250 154 84  250 154 84  250 154 84  250 154 
84  250 154 83  250 153 83  250 153 75  229 140 38  113 70  2   8   5   
0   0   0   0   0   0   0   0   0   4   12  7   
71  206 135 2   8   5   16  50  30  84  250 154 84  250 154 84  250 154 
84  250 154 84  250 154 84  250 154 84  250 154 84  250 154 83  249 153 
80  240 148 59  178 109 47  141 87  51  154 95  70  211 130 83  249 153 
84  250 154 84  250 154 84  250 154 84  250 154 84  250 154 84  250 154 
84  250 154 84  250 154 84  250 154 84  250 154 84  250 154 84  250 154 
84  250 154 84  250 154 84  250 154 84  250 154 84  250 154 84  250 154 
84  250 154 84  250 154 84  250 154 84  250 154 84  250 154 84  250 154 
84  250 154 83  250 153 65  193 118 1   3   2   22  67  41  80  242 148 
83  249 154 84  250 154 84  250 154 84  250 154 84  250 154 84  250 154 
84  250 154 84  250 154 84  250 154 83  249 153 83  250 153 72  218 134 
31  92  56  1   4   2   0   0   0   4   12  7   
71  206 135 2   8   5   16  50  30  84  250 154 84  250 154 84  250 154 
84  250 154 84  250 154 84  250 154 84  250 154 84  250 154 84  250 154 
84  250 154 84  250 154 84  250 154 84  250 154 84  250 154 84  250 154 
84  250 154 84  250 154 84  250 154 84  250 154 84  250 154 84  250 154 
84  250 154 84  250 154 84  250 154 84  250 154 84  250 154 84  250 154 
84  250 154 84  250 154 84  250 154 84  250 154 84  250 154 84  250 154 
84  250 154 84  250 154 84  250 154 84  250 154 84  250 154 84  250 154 
84  250 154 84  250 154 83  248 152 37  110 68  44  132 81  82  248 153 
83  250 153 84  250 154 84  250 154 84  250 154 84  250 154 84  250 154 
84  250 154 84  250 154 84  250 154 84  250 154 84  250 154 83  249 153 
83  249 153 67  202 123 24  72  44  4   14  8   
71  206 135 3   9   6   17  51  31  84  250 154 84  250 154 84  250 154 
84  250 154 84  250 154 84  250 154 84  250 154 84  250 154 84  250 154 
84  250 154 84  250 154 84  250 154 84  250 154 84  250 154 84  250 154 
84  250 154 84  250 154 84  250 154 84  250 154 84  250 154 84  250 154 
84  250 154 84  250 154 84  250 154 84  250 154 84  250 154 84  250 154 
84  250 154 84  250 154 84  250 154 84  250 154 84  250 154 84  250 154 
84  250 154 84  250 154 84  250 154 84  250 154 84  250 154 84  250 154 
84  250 154 84  250 154 84  250 153 81  246 151 83  247 153 83  250 153 
84  250 154 84  250 154 84  250 154 84  250 154 84  250 154 84  250 154 
84  250 154 84  250 154 84  250 154 84  250 154 84  250 154 84  250 154 
84  250 154 83  250 153 72  209 135 63  187 115 
70  190 136 76  222 143 84  250 154 84  250 154 84  250 154 84  250 154 
84  250 154 84  250 154 84  250 154 84  250 154 84  250 154 84  250 154 
84  250 154 84  250 154 84  250 154 84  250 154 84  250 154 84  250 154 
84  250 154 84  250 154 84  250 154 84  250 154 84  250 154 84  250 154 
84  250 154 84  250 154 84  250 154 84  250 154 84  250 154 84  250 154 
84  250 154 84  250 154 84  250 154 84  250 154 84  250 154 84  250 154 
84  250 154 84  250 154 84  250 154 84  250 154 84  250 154 84  250 154 
84  250 154 84  250 154 84  250 154 83  249 153 84  250 153 84  250 154 
84  250 154 84  250 154 84  250 154 84  250 154 84  250 154 84  250 154 
84  250 154 84  250 154 84  250 154 84  250 154 84  250 154 84  250 154 
84  250 154 84  250 154 50  129 101 40  64  100 
245 203 236 38  78  87  84  250 154 84  250 154 84  250 154 84  250 154 
84  250 154 84  250 154 84  250 154 84  250 154 84  250 154 84  250 154 
84  250 154 84  250 154 84  250 154 84  250 154 84  250 154 84  250 154 
84  250 154 84  250 154 84  250 154 84  250 154 84  250 154 84  250 154 
84  250 154 84  250 154 84  250 154 84  250 154 84  250 154 84  250 154 
84  250 154 84  250 154 84  250 154 84  250 154 84  250 154 84  250 154 
84  250 154 84  250 154 84  250 154 84  250 154 84  250 154 84  250 154 
84  250 154 84  250 154 84  250 154 84  250 154 84  250 154 84  250 154 
84  250 154 84  250 154 84  250 154 84  250 154 84  250 154 84  250 154 
84  250 154 84  250 154 84  250 154 84  250 154 84  250 154 84  250 154 
84  250 154 84  250 154 50  129 101 245 203 236 
245 203 236 38  78  87  84  250 154 84  250 154 84  250 154 84  250 154 
84  250 154 84  250 154 84  250 154 84  250 154 84  250 154 84  250 154 
84  250 154 84  250 154 84  250 154 84  250 154 84  250 154 84  250 154 
84  250 154 84  250 154 84  250 154 84  250 154 84  250 154 84  250 154 
84  250 154 84  250 154 84  250 154 84  250 154 84  250 154 84  250 154 
84  250 154 84  250 154 84  250 154 84  250 154 84  250 154 84  250 154 
84  250 154 84  250 154 84  250 154 84  250 154 84  250 154 84  250 154 
84  250 154 84  250 154 84  250 154 84  250 154 84  250 154 84  250 154 
84  250 154 84  250 154 84  250 154 84  250 154 84  250 154 84  250 154 
84  250 154 84  250 154 84  250 154 84  250 154 84  250 154 84  250 154 
84  250 154 84  250 154 50  129 101 245 203 236 
245 203 236 38  78  87  84  250 154 84  250 154 84  250 154 84  250 154 
84  250 154 84  250 154 84  250 154 84  250 154 84  250 154 84  250 154 
84  250 154 84  250 154 84  250 154 84  250 154 84  250 154 84  250 154 
84  250 154 84  250 154 84  250 154 84  250 154 84  250 154 84  250 154 
84  250 154 84  250 154 84  250 154 84  250 154 84  250 154 84  250 154 
84  250 154 84  250 154 84  250 154 84  250 154 84  250 154 84  250 154 
84  250 154 84  250 154 84  250 154 84  250 154 84  250 154 84  250 154 
84  250 154 84  250 154 84  250 154 84  250 154 84  250 154 84  250 154 
84  250 154 84  250 154 84  250 154 84  250 154 84  250 154 84  250 154 
84  250 154 84  250 154 84  250 154 84  250 154 84  250 154 84  250 154 
84  250 154 84  250 154 50  129 101 245 203 236 
245 203 236 38  78  87  84  250 154 84  250 154 84  250 154 84  250 154 
84  250 154 84  250 154 84  250 154 84  250 154 84  250 154 84  250 154 
84  250 154 84  250 154 84  250 154 84  250 154 84  250 154 84  250 154 
84  250 154 84  250 154 84  250 154 84  250 154 84  250 154 84  250 154 
84  250 154 84  250 154 83  249 153 70  209 129 47  141 87  36  108 66  
38  115 70  48  144 89  69  206 127 83  249 153 84  250 154 84  250 154 
84  250 154 84  250 154 84  250 154 84  250 154 84  250 154 84  250 154 
84  250 154 84  250 154 84  250 154 84  250 154 84  250 154 84  250 154 
84  250 154 84  250 154 84  250 154 84  250 154 84  250 154 84  250 154 
84  250 154 84  250 154 84  250 154 84  250 154 84  250 154 84  250 154 
84  250 154 84  250 154 50  129 101 245 203 236 
245 203 236 60  55  100 94  213 145 84  250 154 84  250 154 84  250 154 
84  250 154 84  250 154 84  250 154 84  250 154 84  250 154 84  250 154 
84  250 154 84  250 154 84  250 154 84  250 154 84  250 154 84  250 154 
84  250 154 84  250 154 84  250 154 84  250 154 84  250 154 84  250 154 
84  250 154 75  224 138 28  86  53  1   4   2   4   12  8   14  43  26  
8   24  14  0   0   0   0   2   1   20  62  38  66  198 122 84  250 154 
84  250 154 84  250 154 84  250 154 84  250 154 84  250 154 84  250 154 
84  250 154 84  250 154 84  250 154 84  250 154 84  250 154 84  250 154 
84  250 154 84  250 154 84  250 154 84  250 154 84  250 154 84  250 154 
84  250 154 84  250 154 84  250 154 84  250 154 84  250 154 84  250 154 
84  250 154 86  228 146 76  88  111 245 203 236 
245 203 236 245 203 236 74  70  111 94  214 145 84  250 154 84  250 154 
84  250 154 84  250 154 84  250 154 84  250 154 84  250 154 84  250 154 
84  250 154 84  250 154 84  250 154 84  250 154 84  250 154 84  250 154 
84  250 154 84  250 154 84  250 154 84  250 154 84  250 154 84  250 154 
84  250 154 45  135 83  0   2   1   40  120 74  79  236 145 84  250 154 
81  243 149 42  127 78  0   0   0   0   0   0   2   6   4   54  161 99  
83  249 153 84  250 154 84  250 154 84  250 154 84  250 154 84  250 154 
84  250 154 84  250 154 84  250 154 84  250 154 84  250 154 84  250 154 
84  250 154 84  250 154 84  250 154 84  250 154 84  250 154 84  250 154 
84  250 154 84  250 154 84  250 154 84  250 154 84  250 154 84  250 154 
84  227 144 86  98  117 245 203 236 245 203 236 
245 203 236 245 203 236 245 203 236 73  68  110 90  208 140 84  250 154 
84  250 154 84  250 154 84  250 154 84  250 154 84  250 154 84  250 154 
84  250 154 84  250 154 84  250 154 84  250 154 84  250 154 84  250 154 
84  250 154 84  250 154 84  250 154 84  250 154 84  250 154 84  250 154 
84  250 154 84  250 154 66  196 121 83  249 153 84  250 154 84  250 154 
84  250 154 84  250 154 27  81  50  0   0   0   0   0   0   1   4   2   
63  188 116 84  250 154 84  250 154 84  250 154 84  250 154 84  250 154 
84  250 154 84  250 154 84  250 154 84  250 154 84  250 154 84  250 154 
84  250 154 84  250 154 84  250 154 84  250 154 84  250 154 84  250 154 
84  250 154 84  250 154 84  250 154 84  250 154 84  250 154 86  228 146 
91  102 121 245 203 236 245 203 236 245 203 236 
245 203 236 245 203 236 245 203 236 245 203 236 70  66  107 89  206 140 
84  250 154 84  250 154 84  250 154 84  250 154 84  250 154 84  250 154 
84  250 154 84  250 154 84  250 154 84  250 154 84  250 154 84  250 154 
84  250 154 84  250 154 84  250 154 84  250 154 84  250 154 84  250 154 
84  250 154 84  250 154 84  250 154 84  250 154 84  250 154 84  250 154 
84  250 154 84  250 154 54  162 100 0   0   0   0   0   0   0   0   0   
21  63  39  83  249 153 84  250 154 84  250 154 84  250 154 84  250 154 
84  250 154 84  250 154 84  250 154 84  250 154 84  250 154 84  250 154 
84  250 154 84  250 154 84  250 154 84  250 154 84  250 154 84  250 154 
84  250 154 84  250 154 84  250 154 84  250 154 87  227 146 90  101 121 
245 203 236 245 203 236 245 203 236 245 203 236 
245 203 236 245 203 236 245 203 236 245 203 236 245 203 236 73  68  110 
92  209 142 84  250 154 84  250 154 84  250 154 84  250 154 84  250 154 
84  250 154 84  250 154 84  250 154 84  250 154 84  250 154 84  250 154 
84  250 154 84  250 154 84  250 154 84  250 154 84  250 154 84  250 154 
84  250 154 84  250 154 84  250 154 84  250 154 84  250 154 84  250 154 
84  250 154 84  250 154 54  161 99  0   0   0   0   0   0   0   0   0   
3   11  7   78  234 144 84  250 154 84  250 154 84  250 154 84  250 154 
84  250 154 84  250 154 84  250 154 84  250 154 84  250 154 84  250 154 
84  250 154 84  250 154 84  250 154 84  250 154 84  250 154 84  250 154 
84  250 154 84  250 154 84  250 154 107 224 156 96  97  123 245 203 236 
245 203 236 245 203 236 245 203 236 245 203 236 
245 203 236 245 203 236 245 203 236 245 203 236 245 203 236 245 203 236 
73  67  111 98  208 145 84  250 154 84  250 154 84  250 154 84  250 154 
84  250 154 84  250 154 84  250 154 84  250 154 84  250 154 84  250 154 
84  250 154 84  250 154 84  250 154 84  250 154 84  250 154 84  250 154 
84  250 154 84  250 154 84  250 154 84  250 154 84  250 154 84  250 154 
84  250 154 84  250 154 27  81  50  0   0   0   0   0   0   0   0   0   
1   4   2   75  225 139 84  250 154 84  250 154 84  250 154 84  250 154 
84  250 154 84  250 154 84  250 154 84  250 154 84  250 154 84  250 154 
84  250 154 84  250 154 84  250 154 84  250 154 84  250 154 84  250 154 
84  250 154 84  250 154 107 223 156 100 97  126 245 203 236 245 203 236 
245 203 236 245 203 236 245 203 236 245 203 236 
245 203 236 245 203 236 245 203 236 245 203 236 245 203 236 245 203 236 
245 203 236 75  65  111 120 204 156 84  250 154 84  250 154 84  250 154 
84  250 154 84  250 154 84  250 154 84  250 154 84  250 154 84  250 154 
84  250 154 84  250 154 84  250 154 84  250 154 84  250 154 84  250 154 
84  250 154 84  250 154 84  250 154 84  250 154 84  250 154 84  250 154 
84  250 154 65  195 120 0   1   0   0   0   0   0   0   0   0   0   0   
6   20  12  81  241 148 84  250 154 84  250 154 84  250 154 84  250 154 
84  250 154 84  250 154 84  250 154 84  250 154 84  250 154 84  250 154 
84  250 154 84  250 154 84  250 154 84  250 154 84  250 154 84  250 154 
84  250 154 110 225 158 104 101 130 245 203 236 245 203 236 245 203 236 
245 203 236 245 203 236 245 203 236 245 203 236 
245 203 236 245 203 236 245 203 236 245 203 236 245 203 236 245 203 236 
245 203 236 245 203 236 75  64  111 120 203 156 83  249 153 84  250 154 
84  250 154 84  250 154 84  250 154 84  250 154 84  250 154 84  250 154 
84  250 154 84  250 154 84  250 154 84  250 154 84  250 154 84  250 154 
84  250 154 84  250 154 84  250 154 84  250 154 84  250 154 84  250 154 
82  246 152 20  60  37  0   0   0   0   0   0   0   0   0   0   0   0   
29  87  54  84  250 154 84  250 154 84  250 154 84  250 154 84  250 154 
84  250 154 84  250 154 84  250 154 84  250 154 84  250 154 84  250 154 
84  250 154 84  250 154 84  250 154 84  250 154 84  250 154 84  250 154 
106 221 155 102 99  129 245 203 236 245 203 236 245 203 236 245 203 236 
245 203 236 245 203 236 245 203 236 245 203 236 
245 203 236 245 203 236 245 203 236 245 203 236 245 203 236 245 203 236 
245 203 236 245 203 236 245 203 236 77  67  114 123 206 159 83  249 153 
84  250 154 84  250 154 84  250 154 84  250 154 84  250 154 84  250 154 
84  250 154 84  250 154 84  250 154 84  250 154 84  250 154 84  250 154 
84  250 154 84  250 154 84  250 154 84  250 154 84  250 154 84  250 154 
56  168 103 0   0   0   0   0   0   0   0   0   0   0   0   0   0   0   
62  185 114 84  250 154 84  250 154 84  250 154 84  250 154 84  250 154 
84  250 154 84  250 154 84  250 154 84  250 154 84  250 154 84  250 154 
84  250 154 84  250 154 84  250 154 84  250 154 84  250 154 105 219 153 
100 96  127 245 203 236 245 203 236 245 203 236 245 203 236 245 203 236 
245 203 236 245 203 236 245 203 236 245 203 236 
245 203 236 245 203 236 245 203 236 245 203 236 245 203 236 245 203 236 
245 203 236 245 203 236 245 203 236 245 203 236 76  66  113 119 200 154 
84  250 154 84  250 154 84  250 154 84  250 154 84  250 154 84  250 154 
84  250 154 84  250 154 84  250 154 84  250 154 84  250 154 84  250 154 
84  250 154 84  250 154 84  250 154 84  250 154 84  250 154 80  240 148 
12  36  22  0   0   0   0   0   0   0   0   0   0   0   0   16  49  30  
83  247 152 84  250 154 84  250 154 84  250 154 84  250 154 84  250 154 
84  250 154 84  250 154 84  250 154 84  250 154 84  250 154 84  250 154 
84  250 154 84  250 154 84  250 154 84  250 154 107 219 155 99  95  126 
245 203 236 245 203 236 245 203 236 245 203 236 245 203 236 245 203 236 
245 203 236 245 203 236 245 203 236 245 203 236 
245 203 236 245 203 236 245 203 236 245 203 236 245 203 236 245 203 236 
245 203 236 245 203 236 245 203 236 245 203 236 245 203 236 75  64  112 
119 199 154 83  249 153 84  250 154 84  250 154 84  250 154 84  250 154 
84  250 154 84  250 154 84  250 154 84  250 154 84  250 154 84  250 154 
84  250 154 84  250 154 84  250 154 84  250 154 84  250 154 46  138 85  
0   0   0   0   0   0   0   0   0   0   0   0   0   0   0   53  158 97  
84  250 154 84  250 154 84  250 154 84  250 154 84  250 154 84  250 154 
84  250 154 84  250 154 84  250 154 84  250 154 84  250 154 84  250 154 
84  250 154 84  250 154 84  250 154 104 216 153 59  52  98  245 203 236 
245 203 236 245 203 236 245 203 236 245 203 236 245 203 236 245 203 236 
245 203 236 245 203 236 245 203 236 245 203 236 
245 203 236 245 203 236 245 203 236 245 203 236 245 203 236 245 203 236 
245 203 236 245 203 236 245 203 236 245 203 236 245 203 236 245 203 236 
74  63  111 119 199 154 84  249 154 84  250 154 84  250 154 84  250 154 
84  250 154 84  250 154 84  250 154 84  250 154 84  250 154 84  250 154 
84  250 154 84  250 154 84  250 154 84  250 154 77  230 142 6   18  11  
0   0   0   0   0   0   0   0   0   0   0   0   8   26  16  81  242 149 
84  250 154 84  250 154 84  250 154 84  250 154 84  250 154 84  250 154 
84  250 154 84  250 154 84  250 154 84  250 154 84  250 154 84  250 154 
84  250 154 84  250 154 101 212 149 55  48  94  245 203 236 245 203 236 
245 203 236 245 203 236 245 203 236 245 203 236 245 203 236 245 203 236 
245 203 236 245 203 236 245 203 236 245 203 236 
245 203 236 245 203 236 245 203 236 245 203 236 245 203 236 245 203 236 
245 203 236 245 203 236 245 203 236 245 203 236 245 203 236 245 203 236 
245 203 236 50  37  94  106 184 144 84  250 154 84  250 154 84  250 154 
84  250 154 84  250 154 84  250 154 84  250 154 84  250 154 84  250 154 
84  250 154 84  250 154 84  250 154 84  250 154 36  109 67  0   0   0   
0   0   0   0   0   0   0   0   0   0   0   0   43  129 79  84  250 154 
84  250 154 84  250 154 84  250 154 84  250 154 84  250 154 84  250 154 
84  250 154 84  250 154 84  250 154 84  250 154 84  250 154 84  250 154 
84  250 154 102 212 149 55  47  94  245 203 236 245 203 236 245 203 236 
245 203 236 245 203 236 245 203 236 245 203 236 245 203 236 245 203 236 
245 203 236 245 203 236 245 203 236 245 203 236 
245 203 236 245 203 236 245 203 236 245 203 236 245 203 236 245 203 236 
245 203 236 245 203 236 245 203 236 245 203 236 245 203 236 245 203 236 
245 203 236 245 203 236 245 203 236 104 179 141 84  250 154 84  250 154 
84  250 154 84  250 154 84  250 154 84  250 154 84  250 154 84  250 154 
84  250 154 84  250 154 84  250 154 70  210 129 2   7   4   0   0   0   
0   0   0   0   0   0   0   0   0   4   13  8   76  228 140 84  250 154 
84  250 154 84  250 154 84  250 154 84  250 154 84  250 154 84  250 154 
84  250 154 84  250 154 84  250 154 84  250 154 84  250 154 84  250 154 
102 211 149 54  46  94  245 203 236 245 203 236 245 203 236 245 203 236 
245 203 236 245 203 236 245 203 236 245 203 236 245 203 236 245 203 236 
245 203 236 245 203 236 245 203 236 245 203 236 
245 203 236 245 203 236 245 203 236 245 203 236 245 203 236 245 203 236 
245 203 236 245 203 236 245 203 236 245 203 236 245 203 236 245 203 236 
245 203 236 245 203 236 245 203 236 245 203 236 104 179 141 84  249 154 
84  250 154 84  250 154 84  250 154 84  250 154 84  250 154 84  250 154 
84  250 154 84  250 154 83  249 153 26  79  49  0   0   0   0   0   0   
0   0   0   0   0   0   0   0   0   34  102 62  84  250 154 84  250 154 
84  250 154 84  250 154 84  250 154 84  250 154 84  250 154 84  250 154 
84  250 154 84  250 154 84  250 154 84  250 154 84  250 154 100 208 147 
59  49  98  245 203 236 245 203 236 245 203 236 245 203 236 245 203 236 
245 203 236 245 203 236 245 203 236 245 203 236 245 203 236 245 203 236 
245 203 236 245 203 236 245 203 236 245 203 236 
245 203 236 245 203 236 245 203 236 245 203 236 245 203 236 245 203 236 
245 203 236 245 203 236 245 203 236 245 203 236 245 203 236 245 203 236 
245 203 236 245 203 236 245 203 236 245 203 236 245 203 236 103 177 140 
83  249 153 84  250 154 84  250 154 84  250 154 84  250 154 84  250 154 
84  250 154 84  250 154 62  186 114 0   2   1   0   0   0   0   0   0   
0   0   0   0   0   0   1   4   2   70  208 128 84  250 154 84  250 154 
84  250 154 84  250 154 84  250 154 84  250 154 84  250 154 84  250 154 
84  250 154 84  250 154 84  250 154 84  250 154 99  206 146 56  47  96  
245 203 236 245 203 236 245 203 236 245 203 236 245 203 236 245 203 236 
245 203 236 245 203 236 245 203 236 245 203 236 245 203 236 245 203 236 
245 203 236 245 203 236 245 203 236 245 203 236 
245 203 236 245 203 236 245 203 236 245 203 236 245 203 236 245 203 236 
245 203 236 245 203 236 245 203 236 245 203 236 245 203 236 245 203 236 
245 203 236 245 203 236 245 203 236 245 203 236 245 203 236 245 203 236 
101 173 137 84  250 154 84  250 154 84  250 154 84  250 154 84  250 154 
84  250 154 83  247 152 17  51  31  0   0   0   0   0   0   0   0   0   
0   0   0   0   0   0   25  74  45  83  249 153 84  250 154 84  250 154 
84  250 154 84  250 154 84  250 154 84  250 154 84  250 154 84  250 154 
84  250 154 84  250 154 84  250 154 100 206 146 55  46  95  245 203 236 
245 203 236 245 203 236 245 203 236 245 203 236 245 203 236 245 203 236 
245 203 236 245 203 236 245 203 236 245 203 236 245 203 236 245 203 236 
245 203 236 245 203 236 245 203 236 245 203 236 
245 203 236 245 203 236 245 203 236 245 203 236 245 203 236 245 203 236 
245 203 236 245 203 236 245 203 236 245 203 236 245 203 236 245 203 236 
245 203 236 245 203 236 245 203 236 245 203 236 245 203 236 245 203 236 
245 203 236 96  167 132 73  219 135 73  219 135 73  219 135 73  219 135 
80  238 147 53  158 97  0   0   0   0   0   0   0   0   0   0   0   0   
0   0   0   0   0   0   10  30  18  18  54  33  18  54  33  18  54  33  
18  54  33  18  54  33  18  54  33  40  122 75  79  235 145 73  219 135 
73  219 135 73  219 135 93  195 138 55  45  95  245 203 236 245 203 236 
245 203 236 245 203 236 245 203 236 245 203 236 245 203 236 245 203 236 
245 203 236 245 203 236 245 203 236 245 203 236 245 203 236 245 203 236 
245 203 236 245 203 236 245 203 236 245 203 236 
245 203 236 245 203 236 245 203 236 245 203 236 245 203 236 245 203 236 
245 203 236 245 203 236 245 203 236 245 203 236 245 203 236 245 203 236 
245 203 236 245 203 236 245 203 236 245 203 236 245 203 236 245 203 236 
245 203 236 245 203 236 245 203 236 245 203 236 245 203 236 245 203 236 
72  208 136 12  38  23  2   7   4   2   7   4   2   7   4   2   7   4   
2   7   4   2   7   4   2   7   4   2   7   4   2   7   4   2   7   4   
2   7   4   2   7   4   2   7   4   30  91  56  56  137 118 245 203 236 
245 203 236 245 203 236 245 203 236 245 203 236 245 203 236 245 203 236 
245 203 236 245 203 236 245 203 236 245 203 236 245 203 236 245 203 236 
245 203 236 245 203 236 245 203 236 245 203 236 245 203 236 245 203 236 
245 203 236 245 203 236 245 203 236 245 203 236 
245 203 236 245 203 236 245 203 236 245 203 236 245 203 236 245 203 236 
245 203 236 245 203 236 245 203 236 245 203 236 245 203 236 245 203 236 
245 203 236 245 203 236 245 203 236 245 203 236 245 203 236 245 203 236 
245 203 236 245 203 236 245 203 236 245 203 236 245 203 236 82  139 136 
101 246 162 95  231 152 95  231 152 95  231 152 95  231 152 95  231 152 
95  231 152 95  231 152 95  231 152 95  231 152 95  231 152 95  231 152 
95  231 152 95  231 152 95  231 152 97  238 156 89  162 143 245 203 236 
245 203 236 245 203 236 245 203 236 245 203 236 245 203 236 245 203 236 
245 203 236 245 203 236 245 203 236 245 203 236 245 203 236 245 203 236 
245 203 236 245 203 236 245 203 236 245 203 236 245 203 236 245 203 236 
245 203 236 245 203 236 245 203 236 245 203 236 
