P3
64 64
255
245 203 236 245 203 236 245 203 236 245 203 236 245 203 236 245 203 236 
245 203 236 245 203 236 245 203 236 245 203 236 245 203 236 245 203 236 
245 203 236 245 203 236 245 203 236 245 203 236 245 203 236 245 203 236 
245 203 236 245 203 236 245 203 236 245 203 236 245 203 236 245 203 236 
245 203 236 245 203 236 245 203 236 245 203 236 92  99  98  143 168 109 
169 205 110 170 208 104 170 209 103 169 207 105 163 195 111 122 140 104 
58  52  91  245 203 236 245 203 236 245 203 236 245 203 236 245 203 236 
245 203 236 245 203 236 245 203 236 245 203 236 245 203 236 245 203 236 
245 203 236 245 203 236 245 203 236 245 203 236 245 203 236 245 203 236 
245 203 236 245 203 236 245 203 236 245 203 236 245 203 236 245 203 236 
245 203 236 245 203 236 245 203 236 245 203 236 
245 203 236 245 203 236 245 203 236 245 203 236 245 203 236 245 203 236 
245 203 236 245 203 236 245 203 236 245 203 236 245 203 236 245 203 236 
245 203 236 245 203 236 245 203 236 245 203 236 245 203 236 245 203 236 
245 203 236 245 203 236 73  77  79  73  79  77  73  79  77  73  79  77  
73  79  77  73  79  77  98  110 90  169 205 108 108 133 65  39  48  23  
8   10  5   2   2   1   0   0   0   3   4   2   18  22  10  72  89  43  
154 189 94  128 149 101 73  79  77  73  79  77  73  79  77  73  79  77  
73  79  77  73  79  77  72  71  87  245 203 236 245 203 236 245 203 236 
245 203 236 245 203 236 245 203 236 245 203 236 245 203 236 245 203 236 
245 203 236 245 203 236 245 203 236 245 203 236 245 203 236 245 203 236 
245 203 236 245 203 236 245 203 236 245 203 236 
245 203 236 245 203 236 245 203 236 245 203 236 245 203 236 245 203 236 
245 203 236 245 203 236 245 203 236 245 203 236 245 203 236 245 203 236 
245 203 236 245 203 236 245 203 236 245 203 236 245 203 236 245 203 236 
50  38  93  163 187 122 201 247 121 201 247 121 201 247 121 201 247 121 
201 247 121 200 246 120 134 165 81  19  24  11  0   0   0   0   0   0   
0   0   0   0   0   0   0   0   0   0   0   0   0   0   0   0   0   0   
3   3   1   93  115 56  197 243 119 201 247 121 201 247 121 201 247 121 
201 247 121 201 247 121 198 242 122 118 126 112 245 203 236 245 203 236 
245 203 236 245 203 236 245 203 236 245 203 236 245 203 236 245 203 236 
245 203 236 245 203 236 245 203 236 245 203 236 245 203 236 245 203 236 
245 203 236 245 203 236 245 203 236 245 203 236 
245 203 236 245 203 236 245 203 236 245 203 236 245 203 236 245 203 236 
245 203 236 245 203 236 245 203 236 245 203 236 245 203 236 245 203 236 
245 203 236 245 203 236 245 203 236 245 203 236 245 203 236 245 203 236 
166 190 124 201 247 121 201 247 121 201 247 121 201 247 121 201 247 121 
201 247 121 118 145 71  1   2   0   0   0   0   0   0   0   0   0   0   
0   0   0   0   0   0   0   0   0   0   0   0   0   0   0   0   0   0   
0   0   0   0   0   0   80  98  48  200 246 120 201 247 121 201 247 121 
201 247 121 201 247 121 201 247 121 199 243 123 117 125 111 245 203 236 
245 203 236 245 203 236 245 203 236 245 203 236 245 203 236 245 203 236 
245 203 236 245 203 236 245 203 236 245 203 236 245 203 236 245 203 236 
245 203 236 245 203 236 245 203 236 245 203 236 
245 203 236 245 203 236 245 203 236 245 203 236 245 203 236 245 203 236 
245 203 236 245 203 236 245 203 236 245 203 236 245 203 236 245 203 236 
245 203 236 245 203 236 245 203 236 245 203 236 245 203 236 165 190 124 
200 246 120 201 247 121 201 247 121 201 247 121 201 247 121 201 247 121 
167 206 100 4   5   2   0   0   0   0   0   0   0   0   0   0   0   0   
0   0   0   0   0   0   0   0   0   0   0   0   0   0   0   0   0   0   
0   0   0   0   0   0   0   0   0   133 163 80  201 247 121 201 247 121 
201 247 121 201 247 121 201 247 121 201 247 121 198 242 122 118 125 112 
245 203 236 245 203 236 245 203 236 245 203 236 245 203 236 245 203 236 
245 203 236 245 203 236 245 203 236 245 203 236 245 203 236 245 203 236 
245 203 236 245 203 236 245 203 236 245 203 236 
245 203 236 245 203 236 245 203 236 245 203 236 245 203 236 245 203 236 
245 203 236 245 203 236 245 203 236 245 203 236 245 203 236 245 203 236 
245 203 236 245 203 236 245 203 236 245 203 236 164 188 124 201 247 121 
201 247 121 201 247 121 201 247 121 201 247 121 201 247 121 201 247 121 
85  104 51  0   0   0   0   0   0   0   0   0   0   0   0   0   0   0   
0   0   0   0   0   0   0   0   0   0   0   0   0   0   0   0   0   0   
0   1   0   32  39  19  107 132 64  181 223 109 201 247 121 201 247 121 
201 247 121 201 247 121 201 247 121 201 247 121 201 247 121 197 241 122 
122 129 116 245 203 236 245 203 236 245 203 236 245 203 236 245 203 236 
245 203 236 245 203 236 245 203 236 245 203 236 245 203 236 245 203 236 
245 203 236 245 203 236 245 203 236 245 203 236 
245 203 236 245 203 236 245 203 236 245 203 236 245 203 236 245 203 236 
245 203 236 245 203 236 245 203 236 245 203 236 245 203 236 245 203 236 
245 203 236 245 203 236 245 203 236 164 188 124 201 247 121 201 247 121 
201 247 121 201 247 121 201 247 121 201 247 121 201 247 121 201 247 121 
44  55  27  0   0   0   0   0   0   0   0   0   0   0   0   21  26  12  
99  122 60  127 157 77  115 142 69  61  75  36  12  15  7   76  93  45  
153 188 92  199 244 119 201 247 121 201 247 121 201 247 121 201 247 121 
201 247 121 201 247 121 201 247 121 201 247 121 201 247 121 201 247 121 
199 242 123 117 124 112 245 203 236 245 203 236 245 203 236 245 203 236 
245 203 236 245 203 236 245 203 236 245 203 236 245 203 236 245 203 236 
245 203 236 245 203 236 245 203 236 245 203 236 
245 203 236 245 203 236 245 203 236 245 203 236 245 203 236 245 203 236 
245 203 236 245 203 236 245 203 236 245 203 236 245 203 236 245 203 236 
245 203 236 245 203 236 170 195 130 200 246 120 201 247 121 201 247 121 
201 247 121 201 247 121 201 247 121 201 247 121 201 247 121 201 247 121 
42  52  25  0   0   0   0   0   0   0   0   0   29  36  17  183 225 110 
201 247 121 201 247 121 201 247 121 200 246 120 196 241 118 200 246 120 
201 247 121 201 247 121 201 247 121 201 247 121 201 247 121 201 247 121 
201 247 121 201 247 121 201 247 121 201 247 121 201 247 121 201 247 121 
201 247 121 200 243 124 116 123 111 245 203 236 245 203 236 245 203 236 
245 203 236 245 203 236 245 203 236 245 203 236 245 203 236 245 203 236 
245 203 236 245 203 236 245 203 236 245 203 236 
245 203 236 245 203 236 245 203 236 245 203 236 245 203 236 245 203 236 
245 203 236 245 203 236 245 203 236 245 203 236 245 203 236 245 203 236 
245 203 236 165 189 126 201 247 121 201 247 121 201 247 121 201 247 121 
201 247 121 201 247 121 201 247 121 201 247 121 201 247 121 201 247 121 
75  92  45  0   0   0   0   0   0   0   0   0   124 152 74  201 247 121 
201 247 121 201 247 121 201 247 121 201 247 121 201 247 121 201 247 121 
201 247 121 201 247 121 201 247 121 201 247 121 201 247 121 201 247 121 
201 247 121 201 247 121 201 247 121 201 247 121 201 247 121 201 247 121 
201 247 121 201 247 121 199 242 124 119 125 114 245 203 236 245 203 236 
245 203 236 245 203 236 245 203 236 245 203 236 245 203 236 245 203 236 
245 203 236 245 203 236 245 203 236 245 203 236 
245 203 236 245 203 236 245 203 236 245 203 236 245 203 236 245 203 236 
245 203 236 245 203 236 245 203 236 245 203 236 245 203 236 245 203 236 
166 189 127 201 247 121 201 247 121 201 247 121 201 247 121 201 247 121 
201 247 121 201 247 121 201 247 121 201 247 121 201 247 121 201 247 121 
144 177 87  0   0   0   0   0   0   0   0   0   158 195 95  201 247 121 
201 247 121 201 247 121 201 247 121 201 247 121 201 247 121 201 247 121 
201 247 121 201 247 121 201 247 121 201 247 121 201 247 121 201 247 121 
201 247 121 201 247 121 201 247 121 201 247 121 201 247 121 201 247 121 
201 247 121 201 247 121 201 247 121 200 243 124 120 127 116 245 203 236 
245 203 236 245 203 236 245 203 236 245 203 236 245 203 236 245 203 236 
245 203 236 245 203 236 245 203 236 245 203 236 
245 203 236 245 203 236 245 203 236 245 203 236 245 203 236 245 203 236 
245 203 236 245 203 236 245 203 236 245 203 236 245 203 236 169 192 129 
201 247 121 201 247 121 201 247 121 201 247 121 201 247 121 201 247 121 
201 247 121 201 247 121 201 247 121 201 247 121 201 247 121 201 247 121 
200 246 120 59  73  35  0   0   0   0   0   0   141 173 85  201 247 121 
201 247 121 201 247 121 201 247 121 201 247 121 201 247 121 201 247 121 
201 247 121 201 247 121 201 247 121 201 247 121 201 247 121 201 247 121 
201 247 121 201 247 121 201 247 121 201 247 121 201 247 121 201 247 121 
201 247 121 201 247 121 201 247 121 201 247 121 201 245 125 116 122 112 
245 203 236 245 203 236 245 203 236 245 203 236 245 203 236 245 203 236 
245 203 236 245 203 236 245 203 236 245 203 236 
245 203 236 245 203 236 245 203 236 245 203 236 245 203 236 245 203 236 
245 203 236 245 203 236 245 203 236 68  57  106 170 193 131 200 246 120 
201 247 121 201 247 121 201 247 121 201 247 121 201 247 121 201 247 121 
201 247 121 201 247 121 201 247 121 201 247 121 201 247 121 201 247 121 
201 247 121 185 227 111 40  49  24  0   0   0   32  39  19  174 214 105 
201 247 121 201 247 121 201 247 121 201 247 121 201 247 121 201 247 121 
201 247 121 201 247 121 201 247 121 201 247 121 201 247 121 201 247 121 
201 247 121 201 247 121 201 247 121 201 247 121 201 247 121 201 247 121 
201 247 121 201 247 121 201 247 121 201 247 121 201 247 121 200 243 124 
115 121 112 245 203 236 245 203 236 245 203 236 245 203 236 245 203 236 
245 203 236 245 203 236 245 203 236 245 203 236 
245 203 236 245 203 236 245 203 236 245 203 236 245 203 236 245 203 236 
245 203 236 245 203 236 78  68  113 177 201 137 201 247 121 201 247 121 
201 247 121 201 247 121 201 247 121 201 247 121 201 247 121 201 247 121 
201 247 121 201 247 121 201 247 121 201 247 121 201 247 121 201 247 121 
201 247 121 201 247 121 135 166 81  0   0   0   0   0   0   11  14  6   
87  107 52  193 237 116 201 247 121 201 247 121 201 247 121 201 247 121 
201 247 121 201 247 121 201 247 121 201 247 121 201 247 121 201 247 121 
201 247 121 201 247 121 201 247 121 201 247 121 201 247 121 201 247 121 
201 247 121 201 247 121 201 247 121 201 247 121 201 247 121 201 247 121 
200 243 125 121 127 118 245 203 236 245 203 236 245 203 236 245 203 236 
245 203 236 245 203 236 245 203 236 245 203 236 
245 203 236 245 203 236 245 203 236 245 203 236 245 203 236 245 203 236 
245 203 236 80  69  115 178 202 137 201 247 121 201 247 121 201 247 121 
201 247 121 201 247 121 201 247 121 201 247 121 201 247 121 201 247 121 
201 247 121 201 247 121 201 247 121 201 247 121 201 247 121 201 247 121 
201 247 121 183 225 110 17  21  10  0   0   0   0   0   0   11  13  6   
110 135 66  196 241 118 201 247 121 201 247 121 201 247 121 201 247 121 
201 247 121 201 247 121 201 247 121 201 247 121 201 247 121 201 247 121 
201 247 121 201 247 121 201 247 121 201 247 121 201 247 121 201 247 121 
201 247 121 201 247 121 201 247 121 201 247 121 201 247 121 201 247 121 
201 247 121 200 244 125 129 135 123 245 203 236 245 203 236 245 203 236 
245 203 236 245 203 236 245 203 236 245 203 236 
245 203 236 245 203 236 245 203 236 245 203 236 245 203 236 245 203 236 
80  70  116 183 207 141 200 246 120 201 247 121 201 247 121 201 247 121 
201 247 121 201 247 121 201 247 121 201 247 121 201 247 121 201 247 121 
201 247 121 201 247 121 201 247 121 201 247 121 201 247 121 201 247 121 
201 247 121 112 138 67  0   0   0   0   0   0   2   3   1   150 185 90  
201 247 121 201 247 121 201 247 121 201 247 121 201 247 121 201 247 121 
201 247 121 201 247 121 201 247 121 201 247 121 201 247 121 201 247 121 
201 247 121 201 247 121 201 247 121 201 247 121 201 247 121 201 247 121 
201 247 121 201 247 121 201 247 121 201 247 121 201 247 121 201 247 121 
201 247 121 201 247 121 201 244 126 144 152 134 245 203 236 245 203 236 
245 203 236 245 203 236 245 203 236 245 203 236 
245 203 236 245 203 236 245 203 236 245 203 236 245 203 236 77  66  112 
181 205 141 201 247 121 201 247 121 201 247 121 201 247 121 201 247 121 
201 247 121 201 247 121 201 247 121 201 247 121 201 247 121 201 247 121 
201 247 121 201 247 121 201 247 121 201 247 121 201 247 121 201 247 121 
201 247 121 92  114 55  0   0   0   0   0   0   49  60  29  200 246 120 
201 247 121 201 247 121 201 247 121 201 247 121 201 247 121 201 247 121 
201 247 121 201 247 121 201 247 121 201 247 121 201 247 121 201 247 121 
201 247 121 201 247 121 201 247 121 201 247 121 201 247 121 201 247 121 
201 247 121 201 247 121 201 247 121 201 247 121 201 247 121 201 247 121 
201 247 121 201 247 121 201 247 121 200 243 126 146 154 137 245 203 236 
245 203 236 245 203 236 245 203 236 245 203 236 
245 203 236 245 203 236 245 203 236 245 203 236 75  64  111 179 202 139 
201 247 121 201 247 121 201 247 121 201 247 121 201 247 121 201 247 121 
201 247 121 201 247 121 201 247 121 201 247 121 201 247 121 201 247 121 
201 247 121 201 247 121 201 247 121 201 247 121 201 247 121 201 247 121 
201 247 121 124 153 74  0   0   0   0   0   0   64  78  38  201 247 121 
201 247 121 201 247 121 201 247 121 201 247 121 201 247 121 201 247 121 
201 247 121 201 247 121 201 247 121 201 247 121 201 247 121 201 247 121 
201 247 121 201 247 121 201 247 121 201 247 121 201 247 121 201 247 121 
201 247 121 201 247 121 201 247 121 201 247 121 201 247 121 201 247 121 
201 247 121 201 247 121 201 247 121 201 247 121 201 244 127 149 157 140 
245 203 236 245 203 236 245 203 236 245 203 236 
245 203 236 245 203 236 245 203 236 75  66  109 178 206 130 200 246 120 
201 247 121 201 247 121 201 247 121 201 247 121 201 247 121 201 247 121 
201 247 121 201 247 121 201 247 121 201 247 121 201 247 121 201 247 121 
201 247 121 201 247 121 201 247 121 201 247 121 201 247 121 201 247 121 
201 247 121 188 231 113 21  27  13  0   0   0   17  20  10  188 231 113 
201 247 121 201 247 121 201 247 121 201 247 121 200 246 120 201 247 121 
201 247 121 201 247 121 201 247 121 201 247 121 201 247 121 201 247 121 
201 247 121 201 247 121 201 247 121 201 247 121 201 247 121 201 247 121 
201 247 121 201 247 121 201 247 121 201 247 121 201 247 121 201 247 121 
201 247 121 201 247 121 201 247 121 201 247 121 201 247 121 202 245 127 
147 154 138 245 203 236 245 203 236 245 203 236 
245 203 236 245 203 236 75  66  110 174 205 119 201 247 121 201 247 121 
201 247 121 201 247 121 201 247 121 201 247 121 201 247 121 201 247 121 
201 247 121 201 247 121 201 247 121 201 247 121 201 247 121 201 247 121 
201 247 121 201 247 121 201 247 121 201 247 121 201 247 121 201 247 121 
201 247 121 201 247 121 151 185 91  12  15  7   0   0   0   56  69  34  
182 224 110 201 247 121 201 247 121 193 237 116 90  111 54  83  102 50  
185 227 111 201 247 121 201 247 121 201 247 121 201 247 121 201 247 121 
201 247 121 201 247 121 201 247 121 201 247 121 201 247 121 201 247 121 
201 247 121 201 247 121 201 247 121 201 247 121 201 247 121 201 247 121 
201 247 121 201 247 121 201 247 121 201 247 121 201 247 121 201 247 121 
201 244 127 143 151 134 245 203 236 245 203 236 
245 203 236 245 203 236 164 195 113 201 247 121 201 247 121 201 247 121 
201 247 121 201 247 121 201 247 121 201 247 121 201 247 121 201 247 121 
201 247 121 201 247 121 201 247 121 201 247 121 201 247 121 201 247 121 
201 247 121 201 247 121 201 247 121 201 247 121 201 247 121 201 247 121 
201 247 121 201 247 121 201 247 121 162 200 98  39  49  24  0   0   0   
12  15  7   59  73  36  62  77  37  21  26  12  0   0   0   25  31  15  
141 174 85  201 247 121 201 247 121 201 247 121 201 247 121 201 247 121 
201 247 121 201 247 121 201 247 121 201 247 121 201 247 121 201 247 121 
201 247 121 201 247 121 201 247 121 201 247 121 201 247 121 201 247 121 
201 247 121 201 247 121 201 247 121 201 247 121 201 247 121 201 247 121 
201 247 121 200 244 124 106 115 99  245 203 236 
245 203 236 245 203 236 177 217 106 201 247 121 201 247 121 201 247 121 
201 247 121 201 247 121 201 247 121 201 247 121 201 247 121 201 247 121 
201 247 121 201 247 121 201 247 121 201 247 121 201 247 121 201 247 121 
201 247 121 201 247 121 201 247 121 201 247 121 201 247 121 201 247 121 
201 247 121 201 247 121 201 247 121 201 247 121 199 245 120 150 184 90  
96  118 58  70  86  42  69  85  41  92  114 55  141 174 85  196 241 118 
201 247 121 201 247 121 201 247 121 201 247 121 201 247 121 201 247 121 
201 247 121 201 247 121 201 247 121 201 247 121 201 247 121 201 247 121 
201 247 121 201 247 121 201 247 121 201 247 121 201 247 121 201 247 121 
201 247 121 201 247 121 201 247 121 201 247 121 201 247 121 201 247 121 
201 247 121 201 247 121 111 130 85  245 203 236 
245 203 236 245 203 236 177 217 106 201 247 121 201 247 121 201 247 121 
201 247 121 201 247 121 201 247 121 201 247 121 201 247 121 201 247 121 
201 247 121 201 247 121 201 247 121 201 247 121 201 247 121 201 247 121 
201 247 121 201 247 121 201 247 121 201 247 121 201 247 121 201 247 121 
201 247 121 201 247 121 201 247 121 201 247 121 201 247 121 201 247 121 
201 247 121 201 247 121 201 247 121 201 247 121 201 247 121 201 247 121 
201 247 121 201 247 121 201 247 121 201 247 121 201 247 121 201 247 121 
201 247 121 201 247 121 201 247 121 201 247 121 201 247 121 201 247 121 
201 247 121 201 247 121 201 247 121 201 247 121 201 247 121 201 247 121 
201 247 121 201 247 121 201 247 121 201 247 121 201 247 121 201 247 121 
201 247 121 201 247 121 111 130 85  245 203 236 
245 203 236 245 203 236 177 217 106 201 247 121 201 247 121 201 247 121 
201 247 121 201 247 121 201 247 121 201 247 121 201 247 121 201 247 121 
201 247 121 201 247 121 201 247 121 201 247 121 201 247 121 201 247 121 
201 247 121 201 247 121 201 247 121 201 247 121 201 247 121 201 247 121 
201 247 121 201 247 121 201 247 121 201 247 121 201 247 121 201 247 121 
201 247 121 201 247 121 201 247 121 201 247 121 201 247 121 201 247 121 
201 247 121 201 247 121 201 247 121 201 247 121 201 247 121 201 247 121 
201 247 121 201 247 121 201 247 121 201 247 121 201 247 121 201 247 121 
201 247 121 201 247 121 201 247 121 201 247 121 201 247 121 201 247 121 
201 247 121 201 247 121 201 247 121 201 247 121 201 247 121 201 247 121 
201 247 121 201 247 121 111 130 85  245 203 236 
245 203 236 245 203 236 177 217 106 201 247 121 201 247 121 201 247 121 
201 247 121 201 247 121 201 247 121 201 247 121 201 247 121 201 247 121 
201 247 121 201 247 121 201 247 121 201 247 121 201 247 121 201 247 121 
201 247 121 201 247 121 201 247 121 201 247 121 201 247 121 201 247 121 
201 247 121 201 247 121 201 247 121 201 247 121 201 247 121 201 247 121 
201 247 121 201 247 121 201 247 121 201 247 121 201 247 121 201 247 121 
201 247 121 201 247 121 201 247 121 201 247 121 201 247 121 201 247 121 
201 247 121 201 247 121 201 247 121 201 247 121 201 247 121 201 247 121 
201 247 121 201 247 121 201 247 121 201 247 121 201 247 121 201 247 121 
201 247 121 201 247 121 201 247 121 201 247 121 201 247 121 201 247 121 
201 247 121 201 247 121 111 130 85  245 203 236 
245 203 236 245 203 236 177 217 106 201 247 121 165 203 99  170 209 102 
201 247 121 201 247 121 201 247 121 201 247 121 201 247 121 201 247 121 
201 247 121 201 247 121 201 247 121 201 247 121 201 247 121 201 247 121 
201 247 121 201 247 121 201 247 121 201 247 121 201 247 121 201 247 121 
201 247 121 201 247 121 201 247 121 201 247 121 201 247 121 201 247 121 
201 247 121 201 247 121 201 247 121 201 247 121 201 247 121 201 247 121 
201 247 121 201 247 121 201 247 121 201 247 121 201 247 121 201 247 121 
201 247 121 201 247 121 201 247 121 201 247 121 201 247 121 201 247 121 
201 247 121 201 247 121 201 247 121 201 247 121 201 247 121 201 247 120 
199 246 120 194 237 116 181 221 108 186 229 111 200 247 120 200 247 121 
201 247 121 201 247 121 111 130 85  245 203 236 
245 203 236 245 203 236 178 218 107 127 156 76  8   10  4   80  99  48  
201 247 121 201 247 121 201 247 121 201 247 121 201 247 121 201 247 121 
201 247 121 201 247 121 201 247 121 201 247 121 201 247 121 201 247 121 
201 247 121 201 247 121 201 247 121 201 247 121 201 247 121 201 247 121 
201 247 121 201 247 121 201 247 121 201 247 121 201 247 121 201 247 121 
201 247 121 201 247 121 201 247 121 201 247 121 201 247 121 201 247 121 
201 247 121 201 247 121 201 247 121 201 247 121 201 247 121 201 247 121 
201 247 121 201 247 121 201 247 121 200 247 121 201 246 120 199 246 120 
200 245 119 201 247 120 200 247 120 200 247 121 200 246 120 168 206 100 
71  87  42  15  19  9   4   5   2   8   9   4   48  59  29  147 181 88  
199 246 120 201 247 120 111 130 85  245 203 236 
245 203 236 88  93  97  140 173 84  3   3   1   0   0   0   14  17  8   
190 234 114 201 247 121 201 247 121 201 247 121 201 247 121 201 247 121 
201 247 121 201 247 121 201 247 121 201 247 121 201 247 121 201 247 121 
201 247 121 201 247 121 201 247 121 201 247 121 201 247 121 201 247 121 
201 247 121 201 247 121 201 247 121 201 247 121 201 247 121 201 247 121 
201 247 121 201 247 121 201 247 121 201 247 121 201 247 121 201 247 121 
201 247 121 201 247 121 201 247 121 201 247 121 201 247 121 201 247 121 
201 247 121 201 247 121 201 247 121 198 244 118 133 163 80  63  78  38  
43  53  26  80  98  48  176 216 104 200 246 119 126 155 76  8   10  4   
0   0   0   0   0   0   0   0   0   0   0   0   0   0   0   3   3   1   
112 138 67  201 246 120 110 130 84  245 203 236 
245 203 236 168 204 109 20  25  12  0   0   0   0   0   0   0   0   0   
126 155 76  201 247 121 201 247 121 201 247 121 201 247 121 201 247 121 
201 247 121 201 247 121 201 247 121 201 247 121 201 247 121 201 247 121 
197 242 118 147 181 88  201 247 121 201 247 121 201 247 121 201 247 121 
201 247 121 201 247 121 201 247 121 201 247 121 201 247 121 201 247 121 
201 247 121 201 247 121 201 247 121 201 247 121 201 247 121 201 247 121 
201 247 121 201 247 121 201 247 121 201 247 121 201 247 121 201 247 121 
201 247 121 200 246 120 194 240 116 66  82  40  0   0   0   0   0   0   
0   0   0   0   0   0   15  18  9   96  118 57  3   4   1   0   0   0   
0   0   0   0   0   0   0   0   0   0   0   0   0   0   0   0   0   0   
1   2   1   146 179 87  138 165 95  245 203 236 
180 189 168 118 145 71  0   0   0   0   0   0   0   0   0   0   0   0   
49  61  29  201 247 121 201 247 121 201 247 121 201 247 121 201 247 121 
201 247 121 201 247 121 201 247 121 201 247 121 201 247 121 201 247 121 
121 148 72  18  22  10  189 232 113 201 247 121 201 247 121 201 247 121 
201 247 121 201 247 121 201 247 121 201 247 121 201 247 121 201 247 121 
201 247 121 201 247 121 201 247 121 201 247 121 201 247 121 201 247 121 
201 247 121 201 247 121 201 247 121 201 247 121 201 247 121 201 247 121 
201 247 121 201 246 120 88  108 52  0   0   0   0   0   0   0   0   0   
0   0   0   0   0   0   0   0   0   0   0   0   0   0   0   1   1   0   
1   2   1   0   0   0   0   0   0   0   0   0   0   0   0   0   0   0   
0   0   0   32  39  19  179 219 110 245 203 236 
218 245 172 58  72  35  0   0   0   0   0   0   0   0   0   0   0   0   
1   1   0   176 216 106 201 247 121 201 247 121 201 247 121 201 247 121 
201 247 121 201 247 121 201 247 121 201 247 121 201 247 121 201 247 121 
102 126 61  0   0   0   123 151 74  201 247 121 201 247 121 201 247 121 
201 247 121 201 247 121 201 247 121 201 247 121 201 247 121 201 247 121 
201 247 121 201 247 121 201 247 121 201 247 121 201 247 121 201 247 121 
201 247 121 201 247 121 201 247 121 201 247 121 201 247 121 201 247 121 
200 247 121 160 198 96  2   3   1   2   3   1   61  75  37  97  120 58  
62  76  37  3   4   2   0   0   0   0   0   0   92  113 55  184 226 110 
188 231 112 140 172 84  26  33  16  0   0   0   0   0   0   0   0   0   
0   0   0   0   0   0   138 169 83  69  67  93  
213 248 153 23  29  14  0   0   0   0   0   0   0   0   0   0   0   0   
21  26  13  197 242 118 201 247 121 201 247 121 201 247 121 201 247 121 
201 247 121 201 247 121 201 247 121 201 247 121 201 247 121 201 247 121 
197 243 119 33  41  20  72  88  43  201 247 121 201 247 121 201 247 121 
201 247 121 201 247 121 201 247 121 201 247 121 201 247 121 201 247 121 
201 247 121 201 247 121 201 247 121 201 247 121 201 247 121 201 247 121 
201 247 121 201 247 121 201 247 121 201 247 121 201 247 121 201 247 121 
200 246 121 82  101 49  1   2   1   131 161 79  200 245 120 200 247 120 
200 245 119 133 163 80  3   4   1   56  69  34  198 244 118 200 247 120 
201 247 121 200 247 121 169 208 100 7   9   4   0   0   0   0   0   0   
0   0   0   0   0   0   78  96  47  113 128 102 
208 245 144 11  13  6   0   0   0   0   0   0   0   0   0   0   0   0   
76  94  46  201 247 121 201 247 121 201 247 121 201 247 121 201 247 121 
201 247 121 201 247 121 201 247 121 201 247 121 201 247 121 201 247 121 
201 247 121 86  106 52  46  57  28  201 247 121 201 247 121 201 247 121 
201 247 121 201 247 121 201 247 121 201 247 121 201 247 121 201 247 121 
201 247 121 201 247 121 201 247 121 201 247 121 201 247 121 201 247 121 
201 247 121 201 247 121 201 247 121 201 247 121 201 247 121 201 247 121 
201 247 120 33  40  19  67  82  40  201 247 119 201 247 120 201 247 121 
200 247 120 199 245 119 72  88  43  149 183 90  201 247 121 201 247 121 
201 247 121 201 247 121 200 246 120 58  72  35  0   0   0   0   0   0   
0   0   0   0   0   0   37  46  22  146 172 109 
211 247 149 15  18  9   0   0   0   0   0   0   0   0   0   0   0   0   
94  116 57  201 247 121 201 247 121 201 247 121 201 247 121 201 247 121 
199 244 119 198 243 119 201 247 121 201 247 121 201 247 121 201 247 121 
201 247 121 88  109 53  47  58  28  201 247 121 201 247 121 201 247 121 
201 247 121 201 247 121 201 247 121 201 247 121 201 247 121 201 247 121 
201 247 121 201 247 121 201 247 121 201 247 121 201 247 121 201 247 121 
201 247 121 201 247 121 201 247 121 201 247 121 201 247 121 201 247 121 
199 245 120 13  16  8   122 150 73  200 247 121 201 247 121 201 247 121 
201 247 121 200 246 120 198 244 119 201 246 120 200 247 120 201 247 121 
201 247 121 201 247 121 200 247 120 81  100 49  0   0   0   0   0   0   
0   0   0   0   0   0   19  24  11  160 192 111 
216 248 159 33  40  19  0   0   0   0   0   0   0   0   0   0   0   0   
71  88  43  201 247 121 201 247 121 201 247 121 201 247 121 201 247 121 
127 157 76  94  116 56  201 247 121 201 247 121 201 247 121 201 247 121 
198 243 119 36  45  22  68  84  41  201 247 121 201 247 121 201 247 121 
201 247 121 201 247 121 201 247 121 201 247 121 201 247 121 201 247 121 
201 247 121 201 247 121 201 247 121 201 247 121 201 247 121 201 247 121 
201 247 121 201 247 121 201 247 121 201 247 121 201 247 121 201 247 121 
197 242 118 12  15  7   121 149 73  200 247 120 201 247 121 201 247 121 
201 247 121 201 247 121 201 247 121 201 247 121 201 247 121 201 247 121 
201 247 121 201 247 121 199 246 119 65  80  39  0   0   0   0   0   0   
0   0   0   0   0   0   14  17  8   165 198 113 
210 232 173 74  91  44  0   0   0   0   0   0   0   0   0   0   0   0   
11  13  6   177 217 106 201 247 121 201 247 121 201 247 121 194 238 117 
36  44  21  6   8   3   150 184 90  200 246 120 201 247 121 198 244 119 
97  120 58  0   0   0   119 146 71  201 247 121 201 247 121 201 247 121 
201 247 121 201 247 121 201 247 121 201 247 121 201 247 121 201 247 121 
201 247 121 201 247 121 201 247 121 201 247 121 201 247 121 201 247 121 
201 247 121 201 247 121 201 247 121 201 247 121 201 247 121 201 247 121 
200 246 119 34  42  20  68  84  41  201 247 121 200 247 120 201 247 121 
201 247 121 201 247 121 201 247 121 201 247 121 201 247 121 201 247 121 
201 247 121 200 247 120 191 235 114 16  20  10  0   0   0   0   0   0   
0   0   0   0   0   0   26  32  16  154 184 110 
166 172 165 136 167 82  0   0   0   0   0   0   0   0   0   0   0   0   
0   0   0   29  36  17  138 169 83  181 223 109 172 212 104 68  84  41  
0   0   0   0   0   0   5   6   3   63  78  38  88  108 53  42  52  25  
0   0   0   16  20  9   187 229 112 201 247 121 201 247 121 201 247 121 
201 247 121 201 247 121 201 247 121 201 247 121 201 247 121 201 247 121 
201 247 121 201 247 121 201 247 121 201 247 121 201 247 121 201 247 121 
201 247 121 201 247 121 201 247 121 201 247 121 201 247 121 201 247 121 
200 246 120 82  101 49  2   3   1   142 174 84  200 246 120 201 247 121 
201 247 121 201 247 121 201 247 121 201 247 121 201 247 121 201 247 121 
201 247 121 201 247 120 160 197 96  0   0   0   0   0   0   0   0   0   
0   0   0   0   0   0   60  74  36  128 148 104 
245 203 236 165 199 111 32  40  19  0   0   0   0   0   0   0   0   0   
0   0   0   0   0   0   0   0   0   0   0   0   0   0   0   0   0   0   
0   0   0   0   0   0   0   0   0   0   0   0   0   0   0   0   0   0   
1   1   0   128 157 77  201 247 121 201 247 121 201 247 121 201 247 121 
201 247 121 201 247 121 201 247 121 201 247 121 201 247 121 201 247 121 
201 247 121 201 247 121 201 247 121 201 247 121 201 247 121 201 247 121 
201 247 121 201 247 121 201 247 121 201 247 121 201 247 121 201 247 121 
200 246 120 159 196 95  2   3   1   141 173 85  200 247 120 201 247 121 
201 247 121 201 247 121 201 247 121 201 247 121 201 247 121 201 247 121 
201 247 121 200 247 120 197 243 118 31  38  18  0   0   0   0   0   0   
0   0   0   0   0   0   117 143 70  85  89  96  
245 203 236 76  77  94  148 182 89  3   4   2   0   0   0   0   0   0   
0   0   0   0   0   0   0   0   0   0   0   0   0   0   0   13  16  8   
113 139 68  15  18  9   0   0   0   0   0   0   0   0   0   4   5   2   
110 135 66  200 246 120 201 247 121 201 247 121 201 247 121 201 247 121 
201 247 121 201 247 121 201 247 121 201 247 121 201 247 121 201 247 121 
201 247 121 201 247 121 201 247 121 201 247 121 201 247 121 201 247 121 
201 247 121 201 247 121 201 247 121 201 247 121 201 247 121 201 247 121 
201 247 121 200 245 119 125 153 75  200 246 120 201 247 120 201 247 121 
201 247 121 201 247 121 201 247 121 201 247 121 201 247 121 201 247 121 
201 247 121 201 247 121 201 247 121 105 129 63  0   0   0   0   0   0   
0   0   0   17  21  10  177 218 108 245 203 236 
245 203 236 245 203 236 177 218 106 123 152 74  5   7   3   0   0   0   
0   0   0   0   0   0   0   0   0   0   0   0   23  29  14  156 192 94  
201 247 121 178 219 107 92  113 55  65  79  39  91  112 54  164 202 98  
200 246 120 201 247 121 201 247 121 201 247 121 201 247 121 201 247 121 
201 247 121 201 247 121 201 247 121 201 247 121 201 247 121 201 247 121 
201 247 121 201 247 121 201 247 121 201 247 121 201 247 121 201 247 121 
201 247 121 201 247 121 201 247 121 201 247 121 201 247 121 201 247 121 
201 247 121 200 246 120 200 246 120 201 247 120 201 247 121 201 247 121 
201 247 121 201 247 121 201 247 121 201 247 121 201 247 121 201 247 121 
201 247 121 201 247 121 200 246 120 176 218 106 3   4   2   0   0   0   
0   1   0   129 158 77  147 177 99  245 203 236 
245 203 236 245 203 236 177 217 106 201 247 121 161 198 97  68  84  41  
18  22  11  11  13  6   38  47  23  102 125 61  187 230 112 201 247 121 
201 247 121 201 247 121 201 247 121 201 247 121 201 247 121 201 247 121 
201 247 121 201 247 121 201 247 121 201 247 121 201 247 121 201 247 121 
201 247 121 201 247 121 201 247 121 201 247 121 201 247 121 201 247 121 
201 247 121 201 247 121 201 247 121 201 247 121 201 247 121 201 247 121 
201 247 121 201 247 121 201 247 121 201 247 121 201 247 121 201 247 121 
201 247 121 201 247 121 200 246 121 201 247 121 201 247 121 201 247 121 
201 247 121 201 247 121 201 247 121 201 247 121 201 247 121 201 247 121 
201 247 121 201 247 121 201 247 121 200 245 120 57  70  34  2   3   1   
107 132 64  200 247 119 112 130 85  245 203 236 
245 203 236 245 203 236 177 217 106 201 247 121 201 247 121 201 247 121 
201 247 121 201 247 121 201 247 121 201 247 121 201 247 121 201 247 121 
201 247 121 201 247 121 201 247 121 201 247 121 201 247 121 201 247 121 
201 247 121 201 247 121 201 247 121 201 247 121 201 247 121 201 247 121 
201 247 121 201 247 121 201 247 121 201 247 121 201 247 121 201 247 121 
201 247 121 201 247 121 201 247 121 201 247 121 201 247 121 201 247 121 
201 247 121 201 247 121 201 247 121 201 247 121 201 247 121 201 247 121 
201 247 121 201 247 121 201 247 121 201 247 121 201 247 121 201 247 121 
201 247 121 201 247 121 201 247 121 201 247 121 201 247 121 201 247 121 
201 247 121 201 247 121 201 247 121 200 247 120 148 182 89  144 177 86  
201 246 120 201 247 121 111 130 85  245 203 236 
245 203 236 245 203 236 177 217 106 201 247 121 201 247 121 201 247 121 
201 247 121 201 247 121 201 247 121 201 247 121 201 247 121 201 247 121 
201 247 121 201 247 121 201 247 121 201 247 121 201 247 121 201 247 121 
201 247 121 201 247 121 201 247 121 201 247 121 201 247 121 201 247 121 
201 247 121 201 247 121 201 247 121 201 247 121 201 247 121 201 247 121 
201 247 121 201 247 121 201 247 121 201 247 121 201 247 121 201 247 121 
201 247 121 201 247 121 201 247 121 201 247 121 201 247 121 201 247 121 
201 247 121 201 247 121 201 247 121 201 247 121 201 247 121 201 247 121 
201 247 121 201 247 121 201 247 121 201 247 121 201 247 121 201 247 121 
201 247 121 201 247 121 201 247 121 201 247 121 201 246 120 200 246 120 
200 247 120 201 247 121 111 130 85  245 203 236 
245 203 236 245 203 236 177 217 106 201 247 121 201 247 121 201 247 121 
201 247 121 201 247 121 201 247 121 201 247 121 201 247 121 201 247 121 
201 247 121 201 247 121 201 247 121 201 247 121 201 247 121 201 247 121 
201 247 121 201 247 121 201 247 121 201 247 121 201 247 121 201 247 121 
201 247 121 201 247 121 201 247 121 201 247 121 201 247 121 201 247 121 
201 247 121 200 246 120 200 246 120 201 247 121 201 247 121 201 247 121 
201 247 121 201 247 121 201 247 121 201 247 121 201 247 121 201 247 121 
201 247 121 201 247 121 201 247 121 201 247 121 201 247 121 201 247 121 
201 247 121 201 247 121 201 247 121 201 247 121 201 247 121 201 247 121 
201 247 121 201 247 121 201 247 121 201 247 121 201 247 121 201 247 121 
201 247 121 201 247 121 111 130 85  245 203 236 
245 203 236 245 203 236 177 217 106 201 247 121 201 247 121 201 247 121 
201 247 121 201 247 121 201 247 121 201 247 121 201 247 121 201 247 121 
201 247 121 201 247 121 201 247 121 201 247 121 201 247 121 201 247 121 
201 247 121 201 247 121 201 247 121 201 247 121 201 247 121 201 247 121 
201 247 121 201 247 121 201 247 121 201 247 121 189 232 114 117 144 70  
62  76  37  35  43  21  31  38  19  51  63  31  100 123 60  176 216 105 
201 247 121 201 247 121 201 247 121 201 247 121 201 247 121 201 247 121 
201 247 121 201 247 121 201 247 121 201 247 121 201 247 121 201 247 121 
201 247 121 201 247 121 201 247 121 201 247 121 201 247 121 201 247 121 
201 247 121 201 247 121 201 247 121 201 247 121 201 247 121 201 247 121 
201 247 121 201 247 121 111 130 85  245 203 236 
245 203 236 245 203 236 134 145 118 199 243 121 201 247 121 201 247 121 
201 247 121 201 247 121 201 247 121 201 247 121 201 247 121 201 247 121 
201 247 121 201 247 121 201 247 121 201 247 121 201 247 121 201 247 121 
201 247 121 201 247 121 201 247 121 201 247 121 201 247 121 201 247 121 
201 247 121 201 247 121 201 247 121 160 196 96  15  19  9   0   0   0   
37  45  22  95  116 57  102 125 61  51  63  31  1   1   0   5   6   3   
105 129 63  198 244 119 201 247 121 201 247 121 201 247 121 201 247 121 
201 247 121 201 247 121 201 247 121 201 247 121 201 247 121 201 247 121 
201 247 121 201 247 121 201 247 121 201 247 121 201 247 121 201 247 121 
201 247 121 201 247 121 201 247 121 201 247 121 201 247 121 201 247 121 
201 247 121 183 221 117 88  83  109 245 203 236 
245 203 236 245 203 236 245 203 236 135 146 119 199 244 121 201 247 121 
201 247 121 201 247 121 201 247 121 201 247 121 201 247 121 201 247 121 
201 247 121 201 247 121 201 247 121 201 247 121 201 247 121 201 247 121 
201 247 121 201 247 121 201 247 121 201 247 121 201 247 121 201 247 121 
201 247 121 201 247 121 201 247 121 200 245 120 143 176 86  104 128 62  
196 242 118 201 247 121 201 247 121 199 245 120 120 148 72  1   1   0   
0   0   0   90  110 54  200 246 120 201 247 121 201 247 121 201 247 121 
201 247 121 201 247 121 201 247 121 201 247 121 201 247 121 201 247 121 
201 247 121 201 247 121 201 247 121 201 247 121 201 247 121 201 247 121 
201 247 121 201 247 121 201 247 121 201 247 121 201 247 121 201 247 121 
183 222 116 94  90  112 245 203 236 245 203 236 
245 203 236 245 203 236 245 203 236 245 203 236 133 145 116 198 243 120 
201 247 121 201 247 121 201 247 121 201 247 121 201 247 121 201 247 121 
201 247 121 201 247 121 201 247 121 201 247 121 201 247 121 201 247 121 
201 247 121 201 247 121 201 247 121 201 247 121 201 247 121 201 247 121 
201 247 121 201 247 121 201 247 121 201 247 121 201 247 121 201 247 121 
201 247 121 201 247 121 201 247 121 201 247 121 200 246 120 62  76  37  
0   0   0   1   2   1   148 182 89  201 247 121 201 247 121 201 247 121 
201 247 121 201 247 121 201 247 121 201 247 121 201 247 121 201 247 121 
201 247 121 201 247 121 201 247 121 201 247 121 201 247 121 201 247 121 
201 247 121 201 247 121 201 247 121 201 247 121 201 247 121 185 223 117 
101 98  118 245 203 236 245 203 236 245 203 236 
245 203 236 245 203 236 245 203 236 245 203 236 245 203 236 129 141 113 
198 243 120 201 247 121 201 247 121 201 247 121 201 247 121 201 247 121 
201 247 121 201 247 121 201 247 121 201 247 121 201 247 121 201 247 121 
201 247 121 201 247 121 201 247 121 201 247 121 201 247 121 201 247 121 
201 247 121 201 247 121 201 247 121 201 247 121 201 247 121 201 247 121 
201 247 121 201 247 121 201 247 121 201 247 121 201 247 121 106 130 64  
0   0   0   0   0   0   75  92  45  201 247 121 201 247 121 201 247 121 
201 247 121 201 247 121 201 247 121 201 247 121 201 247 121 201 247 121 
201 247 121 201 247 121 201 247 121 201 247 121 201 247 121 201 247 121 
201 247 121 201 247 121 201 247 121 201 247 121 185 223 118 101 98  118 
245 203 236 245 203 236 245 203 236 245 203 236 
245 203 236 245 203 236 245 203 236 245 203 236 245 203 236 245 203 236 
135 147 118 199 244 120 201 247 121 201 247 121 201 247 121 201 247 121 
201 247 121 201 247 121 201 247 121 201 247 121 201 247 121 201 247 121 
201 247 121 201 247 121 201 247 121 201 247 121 201 247 121 201 247 121 
201 247 121 201 247 121 201 247 121 201 247 121 201 247 121 201 247 121 
201 247 121 201 247 121 201 247 121 201 247 121 200 246 120 77  95  46  
0   0   0   0   0   0   52  64  31  201 247 121 201 247 121 201 247 121 
201 247 121 201 247 121 201 247 121 201 247 121 201 247 121 201 247 121 
201 247 121 201 247 121 201 247 121 201 247 121 201 247 121 201 247 121 
201 247 121 201 247 121 201 247 121 189 221 135 101 95  122 245 203 236 
245 203 236 245 203 236 245 203 236 245 203 236 
245 203 236 245 203 236 245 203 236 245 203 236 245 203 236 245 203 236 
245 203 236 136 148 118 200 243 127 201 247 121 201 247 121 201 247 121 
201 247 121 201 247 121 201 247 121 201 247 121 201 247 121 201 247 121 
201 247 121 201 247 121 201 247 121 201 247 121 201 247 121 201 247 121 
201 247 121 201 247 121 201 247 121 201 247 121 201 247 121 201 247 121 
201 247 121 201 247 121 201 247 121 200 246 120 154 190 93  7   9   4   
0   0   0   0   0   0   83  102 50  201 247 121 201 247 121 201 247 121 
201 247 121 201 247 121 201 247 121 201 247 121 201 247 121 201 247 121 
201 247 121 201 247 121 201 247 121 201 247 121 201 247 121 201 247 121 
201 247 121 201 247 121 189 222 133 102 96  124 245 203 236 245 203 236 
245 203 236 245 203 236 245 203 236 245 203 236 
245 203 236 245 203 236 245 203 236 245 203 236 245 203 236 245 203 236 
245 203 236 245 203 236 138 144 133 201 243 127 201 247 121 201 247 121 
201 247 121 201 247 121 201 247 121 201 247 121 201 247 121 201 247 121 
201 247 121 201 247 121 201 247 121 201 247 121 201 247 121 201 247 121 
201 247 121 201 247 121 201 247 121 201 247 121 201 247 121 201 247 121 
201 247 121 201 247 121 201 247 121 98  121 59  8   10  5   0   0   0   
0   0   0   12  15  7   173 213 104 201 247 121 201 247 121 201 247 121 
201 247 121 201 247 121 201 247 121 201 247 121 201 247 121 201 247 121 
201 247 121 201 247 121 201 247 121 201 247 121 201 247 121 201 247 121 
201 247 121 191 223 135 108 102 130 245 203 236 245 203 236 245 203 236 
245 203 236 245 203 236 245 203 236 245 203 236 
245 203 236 245 203 236 245 203 236 245 203 236 245 203 236 245 203 236 
245 203 236 245 203 236 245 203 236 138 144 133 201 243 128 201 247 121 
201 247 121 201 247 121 201 247 121 201 247 121 201 247 121 201 247 121 
201 247 121 201 247 121 201 247 121 201 247 121 201 247 121 201 247 121 
201 247 121 201 247 121 201 247 121 201 247 121 201 247 121 201 247 121 
201 247 121 201 247 121 201 247 121 140 172 84  50  61  30  0   0   0   
0   0   0   100 123 60  201 247 121 201 247 121 201 247 121 201 247 121 
201 247 121 201 247 121 201 247 121 201 247 121 201 247 121 201 247 121 
201 247 121 201 247 121 201 247 121 201 247 121 201 247 121 201 247 121 
188 220 132 107 102 129 245 203 236 245 203 236 245 203 236 245 203 236 
245 203 236 245 203 236 245 203 236 245 203 236 
245 203 236 245 203 236 245 203 236 245 203 236 245 203 236 245 203 236 
245 203 236 245 203 236 245 203 236 245 203 236 145 151 139 201 243 127 
201 247 121 201 247 121 201 247 121 201 247 121 201 247 121 201 247 121 
201 247 121 201 247 121 201 247 121 201 247 121 201 247 121 201 247 121 
201 247 121 201 247 121 201 247 121 201 247 121 201 247 121 201 247 121 
201 247 121 201 247 121 201 247 121 201 247 121 198 243 119 86  105 51  
0   0   0   7   9   4   143 175 86  201 247 121 201 247 121 201 247 121 
201 247 121 201 247 121 201 247 121 201 247 121 201 247 121 201 247 121 
201 247 121 201 247 121 201 247 121 201 247 121 201 247 121 188 221 131 
105 99  126 245 203 236 245 203 236 245 203 236 245 203 236 245 203 236 
245 203 236 245 203 236 245 203 236 245 203 236 
245 203 236 245 203 236 245 203 236 245 203 236 245 203 236 245 203 236 
245 203 236 245 203 236 245 203 236 245 203 236 245 203 236 141 148 135 
200 243 126 201 247 121 201 247 121 201 247 121 201 247 121 201 247 121 
201 247 121 201 247 121 201 247 121 201 247 121 201 247 121 201 247 121 
201 247 121 201 247 121 201 247 121 201 247 121 201 247 121 201 247 121 
201 247 121 201 247 121 201 247 121 201 247 121 201 247 121 186 228 112 
3   3   1   0   0   0   14  17  8   181 223 109 201 247 121 201 247 121 
201 247 121 201 247 121 201 247 121 201 247 121 201 247 121 201 247 121 
201 247 121 201 247 121 201 247 121 201 247 121 188 220 130 106 101 127 
245 203 236 245 203 236 245 203 236 245 203 236 245 203 236 245 203 236 
245 203 236 245 203 236 245 203 236 245 203 236 
245 203 236 245 203 236 245 203 236 245 203 236 245 203 236 245 203 236 
245 203 236 245 203 236 245 203 236 245 203 236 245 203 236 245 203 236 
139 145 133 199 242 126 201 247 121 201 247 121 201 247 121 201 247 121 
201 247 121 201 247 121 201 247 121 201 247 121 201 247 121 201 247 121 
201 247 121 201 247 121 201 247 121 201 247 121 201 247 121 201 247 121 
201 247 121 201 247 121 201 247 121 201 247 121 201 247 121 192 236 115 
4   4   2   0   0   0   0   0   0   89  109 53  201 247 121 201 247 121 
201 247 121 201 247 121 201 247 121 201 247 121 201 247 121 201 247 121 
201 247 121 201 247 121 201 247 121 186 218 130 66  57  98  245 203 236 
245 203 236 245 203 236 245 203 236 245 203 236 245 203 236 245 203 236 
245 203 236 245 203 236 245 203 236 245 203 236 
245 203 236 245 203 236 245 203 236 245 203 236 245 203 236 245 203 236 
245 203 236 245 203 236 245 203 236 245 203 236 245 203 236 245 203 236 
245 203 236 140 146 133 200 243 126 201 247 121 201 247 121 201 247 121 
201 247 121 201 247 121 201 247 121 201 247 121 201 247 121 201 247 121 
201 247 121 201 247 121 201 247 121 201 247 121 201 247 121 201 247 121 
201 247 121 201 247 121 201 247 121 201 247 121 201 247 121 149 183 89  
0   0   0   0   0   0   0   0   0   28  35  17  198 244 119 201 247 121 
201 247 121 201 247 121 201 247 121 201 247 121 201 247 121 201 247 121 
201 247 121 201 247 121 183 216 127 63  55  95  245 203 236 245 203 236 
245 203 236 245 203 236 245 203 236 245 203 236 245 203 236 245 203 236 
245 203 236 245 203 236 245 203 236 245 203 236 
245 203 236 245 203 236 245 203 236 245 203 236 245 203 236 245 203 236 
245 203 236 245 203 236 245 203 236 245 203 236 245 203 236 245 203 236 
245 203 236 245 203 236 114 118 114 200 243 127 201 247 121 201 247 121 
201 247 121 201 247 121 201 247 121 201 247 121 201 247 121 201 247 121 
201 247 121 201 247 121 201 247 121 201 247 121 200 246 120 177 217 106 
192 235 115 201 247 121 201 247 121 201 247 121 181 222 109 36  44  21  
0   0   0   0   0   0   0   0   0   8   10  5   193 237 116 201 247 121 
201 247 121 201 247 121 201 247 121 201 247 121 201 247 121 201 247 121 
201 247 121 185 218 127 64  55  96  245 203 236 245 203 236 245 203 236 
245 203 236 245 203 236 245 203 236 245 203 236 245 203 236 245 203 236 
245 203 236 245 203 236 245 203 236 245 203 236 
245 203 236 245 203 236 245 203 236 245 203 236 245 203 236 245 203 236 
245 203 236 245 203 236 245 203 236 245 203 236 245 203 236 245 203 236 
245 203 236 245 203 236 245 203 236 109 114 110 199 242 125 201 247 121 
201 247 121 201 247 121 201 247 121 201 247 121 201 247 121 201 247 121 
201 247 121 201 247 121 192 236 115 131 162 79  54  66  32  2   2   1   
16  19  9   71  87  42  90  111 54  71  87  42  13  17  8   0   0   0   
0   0   0   0   0   0   0   0   0   15  18  9   195 240 117 201 247 121 
201 247 121 201 247 121 201 247 121 201 247 121 201 247 121 201 247 121 
185 218 127 64  55  96  245 203 236 245 203 236 245 203 236 245 203 236 
245 203 236 245 203 236 245 203 236 245 203 236 245 203 236 245 203 236 
245 203 236 245 203 236 245 203 236 245 203 236 
245 203 236 245 203 236 245 203 236 245 203 236 245 203 236 245 203 236 
245 203 236 245 203 236 245 203 236 245 203 236 245 203 236 245 203 236 
245 203 236 245 203 236 245 203 236 245 203 236 110 114 110 199 241 125 
201 247 121 201 247 121 201 247 121 201 247 121 201 247 121 201 247 121 
177 218 106 85  104 51  16  20  9   0   0   0   0   0   0   0   0   0   
0   0   0   0   0   0   0   0   0   0   0   0   0   0   0   0   0   0   
0   0   0   0   0   0   0   0   0   58  71  35  200 246 120 201 247 121 
201 247 121 201 247 121 201 247 121 201 247 121 201 247 121 182 215 125 
70  61  101 245 203 236 245 203 236 245 203 236 245 203 236 245 203 236 
245 203 236 245 203 236 245 203 236 245 203 236 245 203 236 245 203 236 
245 203 236 245 203 236 245 203 236 245 203 236 
245 203 236 245 203 236 245 203 236 245 203 236 245 203 236 245 203 236 
245 203 236 245 203 236 245 203 236 245 203 236 245 203 236 245 203 236 
245 203 236 245 203 236 245 203 236 245 203 236 245 203 236 111 115 111 
200 243 125 201 247 121 201 247 121 201 247 121 201 247 121 201 247 121 
180 222 108 15  19  9   0   0   0   0   0   0   0   0   0   0   0   0   
0   0   0   0   0   0   0   0   0   0   0   0   0   0   0   0   0   0   
0   0   0   0   0   0   2   3   1   152 187 91  201 247 121 201 247 121 
201 247 121 201 247 121 201 247 121 201 247 121 183 216 125 68  58  97  
245 203 236 245 203 236 245 203 236 245 203 236 245 203 236 245 203 236 
245 203 236 245 203 236 245 203 236 245 203 236 245 203 236 245 203 236 
245 203 236 245 203 236 245 203 236 245 203 236 
245 203 236 245 203 236 245 203 236 245 203 236 245 203 236 245 203 236 
245 203 236 245 203 236 245 203 236 245 203 236 245 203 236 245 203 236 
245 203 236 245 203 236 245 203 236 245 203 236 245 203 236 245 203 236 
111 116 111 199 241 124 201 247 121 201 247 121 201 247 121 201 247 121 
201 247 121 144 177 87  7   8   4   0   0   0   0   0   0   0   0   0   
0   0   0   0   0   0   0   0   0   0   0   0   0   0   0   0   0   0   
0   0   0   2   2   1   112 138 67  201 247 121 201 247 121 201 247 121 
201 247 121 201 247 121 201 247 121 184 218 125 67  59  98  245 203 236 
245 203 236 245 203 236 245 203 236 245 203 236 245 203 236 245 203 236 
245 203 236 245 203 236 245 203 236 245 203 236 245 203 236 245 203 236 
245 203 236 245 203 236 245 203 236 245 203 236 
245 203 236 245 203 236 245 203 236 245 203 236 245 203 236 245 203 236 
245 203 236 245 203 236 245 203 236 245 203 236 245 203 236 245 203 236 
245 203 236 245 203 236 245 203 236 245 203 236 245 203 236 245 203 236 
245 203 236 111 116 110 175 214 108 175 215 105 175 215 105 175 215 105 
175 215 105 175 216 105 152 186 91  28  35  17  0   0   0   0   0   0   
0   0   0   0   0   0   0   0   0   0   0   0   0   0   0   0   0   0   
26  33  16  142 174 85  177 217 106 175 215 105 175 215 105 175 215 105 
175 215 105 175 215 105 169 200 114 68  59  98  245 203 236 245 203 236 
245 203 236 245 203 236 245 203 236 245 203 236 245 203 236 245 203 236 
245 203 236 245 203 236 245 203 236 245 203 236 245 203 236 245 203 236 
245 203 236 245 203 236 245 203 236 245 203 236 
245 203 236 245 203 236 245 203 236 245 203 236 245 203 236 245 203 236 
245 203 236 245 203 236 245 203 236 245 203 236 245 203 236 245 203 236 
245 203 236 245 203 236 245 203 236 245 203 236 245 203 236 245 203 236 
245 203 236 245 203 236 245 203 236 245 203 236 245 203 236 245 203 236 
245 203 236 245 203 236 75  76  94  165 199 110 124 153 75  61  76  37  
23  29  14  12  14  7   13  16  8   28  34  17  68  83  40  129 159 78  
166 201 110 245 203 236 245 203 236 245 203 236 245 203 236 245 203 236 
245 203 236 245 203 236 245 203 236 245 203 236 245 203 236 245 203 236 
245 203 236 245 203 236 245 203 236 245 203 236 245 203 236 245 203 236 
245 203 236 245 203 236 245 203 236 245 203 236 245 203 236 245 203 236 
245 203 236 245 203 236 245 203 236 245 203 236 
245 203 236 245 203 236 245 203 236 245 203 236 245 203 236 245 203 236 
245 203 236 245 203 236 245 203 236 245 203 236 245 203 236 245 203 236 
245 203 236 245 203 236 245 203 236 245 203 236 245 203 236 245 203 236 
245 203 236 245 203 236 245 203 236 245 203 236 245 203 236 245 203 236 
245 203 236 245 203 236 245 203 236 245 203 236 127 132 131 175 198 141 
203 236 147 209 245 145 209 245 147 201 233 146 167 187 139 121 124 130 
245 203 236 245 203 236 245 203 236 245 203 236 245 203 236 245 203 236 
245 203 236 245 203 236 245 203 236 245 203 236 245 203 236 245 203 236 
245 203 236 245 203 236 245 203 236 245 203 236 245 203 236 245 203 236 
245 203 236 245 203 236 245 203 236 245 203 236 245 203 236 245 203 236 
245 203 236 245 203 236 245 203 236 245 203 236 
