P3
64 64
255
245 203 236 245 203 236 245 203 236 245 203 236 245 203 236 245 203 236 
245 203 236 245 203 236 245 203 236 245 203 236 245 203 236 245 203 236 
245 203 236 245 203 236 245 203 236 245 203 236 245 203 236 245 203 236 
245 203 236 245 203 236 245 203 236 245 203 236 245 203 236 245 203 236 
245 203 236 44  74  125 81  216 212 77  205 202 77  205 202 77  205 202 
77  205 202 78  208 205 68  166 183 245 203 236 245 203 236 245 203 236 
245 203 236 245 203 236 245 203 236 245 203 236 245 203 236 245 203 236 
245 203 236 245 203 236 245 203 236 245 203 236 245 203 236 245 203 236 
245 203 236 245 203 236 245 203 236 245 203 236 245 203 236 245 203 236 
245 203 236 245 203 236 245 203 236 245 203 236 245 203 236 245 203 236 
245 203 236 245 203 236 245 203 236 245 203 236 
245 203 236 245 203 236 245 203 236 245 203 236 245 203 236 245 203 236 
245 203 236 245 203 236 245 203 236 245 203 236 245 203 236 245 203 236 
245 203 236 245 203 236 245 203 236 245 203 236 245 203 236 245 203 236 
245 203 236 54  53  99  40  78  111 40  78  111 40  78  111 40  78  111 
40  78  111 54  126 145 54  150 142 2   8   7   2   8   7   2   8   7   
2   8   7   17  47  44  76  199 199 40  78  111 40  78  111 40  78  111 
40  78  111 40  78  111 40  78  111 40  78  111 40  78  111 40  78  111 
40  78  111 40  78  111 55  66  105 245 203 236 245 203 236 245 203 236 
245 203 236 245 203 236 245 203 236 245 203 236 245 203 236 245 203 236 
245 203 236 245 203 236 245 203 236 245 203 236 245 203 236 245 203 236 
245 203 236 245 203 236 245 203 236 245 203 236 
245 203 236 245 203 236 245 203 236 245 203 236 245 203 236 245 203 236 
245 203 236 245 203 236 245 203 236 245 203 236 245 203 236 245 203 236 
245 203 236 245 203 236 245 203 236 245 203 236 245 203 236 245 203 236 
72  73  110 99  223 213 91  249 236 91  249 236 91  249 236 91  249 236 
91  249 236 91  249 236 55  152 144 0   0   0   0   0   0   0   0   0   
0   0   0   17  46  43  91  249 236 91  249 236 91  249 236 91  249 236 
91  249 236 91  249 236 91  249 236 91  249 236 91  249 236 91  249 236 
91  249 236 91  249 236 96  239 226 87  105 127 245 203 236 245 203 236 
245 203 236 245 203 236 245 203 236 245 203 236 245 203 236 245 203 236 
245 203 236 245 203 236 245 203 236 245 203 236 245 203 236 245 203 236 
245 203 236 245 203 236 245 203 236 245 203 236 
245 203 236 245 203 236 245 203 236 245 203 236 245 203 236 245 203 236 
245 203 236 245 203 236 245 203 236 245 203 236 245 203 236 245 203 236 
245 203 236 245 203 236 245 203 236 245 203 236 245 203 236 74  75  112 
99  223 213 91  249 236 91  249 236 91  249 236 91  249 236 91  249 236 
91  249 236 91  249 236 58  159 150 0   0   0   0   0   0   0   0   0   
0   0   0   19  52  50  91  249 236 91  249 236 91  249 236 91  249 236 
91  249 236 91  249 236 91  249 236 91  249 236 91  249 236 91  249 236 
91  249 236 91  249 236 91  249 236 96  239 226 86  106 128 245 203 236 
245 203 236 245 203 236 245 203 236 245 203 236 245 203 236 245 203 236 
245 203 236 245 203 236 245 203 236 245 203 236 245 203 236 245 203 236 
245 203 236 245 203 236 245 203 236 245 203 236 
245 203 236 245 203 236 245 203 236 245 203 236 245 203 236 245 203 236 
245 203 236 245 203 236 245 203 236 245 203 236 245 203 236 245 203 236 
245 203 236 245 203 236 245 203 236 245 203 236 71  72  109 101 225 215 
91  249 236 91  249 236 91  249 236 91  249 236 91  249 236 91  249 236 
52  143 136 43  119 113 28  79  75  0   0   0   0   0   0   0   0   0   
0   0   0   10  28  26  43  119 113 43  119 113 43  119 113 43  119 113 
43  119 113 43  119 113 43  119 113 43  119 113 43  119 113 75  205 194 
91  249 236 91  249 236 91  249 236 91  249 236 95  239 226 86  106 128 
245 203 236 245 203 236 245 203 236 245 203 236 245 203 236 245 203 236 
245 203 236 245 203 236 245 203 236 245 203 236 245 203 236 245 203 236 
245 203 236 245 203 236 245 203 236 245 203 236 
245 203 236 245 203 236 245 203 236 245 203 236 245 203 236 245 203 236 
245 203 236 245 203 236 245 203 236 245 203 236 245 203 236 245 203 236 
245 203 236 245 203 236 245 203 236 70  70  108 101 226 215 91  249 236 
91  249 236 91  249 236 91  249 236 91  249 236 91  249 236 91  249 236 
16  46  43  0   0   0   0   0   0   0   0   0   0   0   0   0   0   0   
0   0   0   0   0   0   0   0   0   0   0   0   0   0   0   0   0   0   
0   0   0   0   0   0   0   0   0   0   0   0   0   0   0   60  166 157 
91  249 236 91  249 236 91  249 236 91  249 236 91  249 236 96  239 227 
90  108 130 245 203 236 245 203 236 245 203 236 245 203 236 245 203 236 
245 203 236 245 203 236 245 203 236 245 203 236 245 203 236 245 203 236 
245 203 236 245 203 236 245 203 236 245 203 236 
245 203 236 245 203 236 245 203 236 245 203 236 245 203 236 245 203 236 
245 203 236 245 203 236 245 203 236 245 203 236 245 203 236 245 203 236 
245 203 236 245 203 236 71  72  109 101 225 215 91  249 236 91  249 236 
91  249 236 91  249 236 91  249 236 91  249 236 91  249 236 91  249 236 
57  157 149 49  136 129 36  100 94  0   0   0   0   0   0   0   0   0   
0   0   0   15  42  40  49  136 129 49  136 129 49  136 129 49  136 129 
40  112 106 0   0   0   0   0   0   0   0   0   0   0   0   62  171 162 
91  249 236 91  249 236 91  249 236 91  249 236 91  249 236 91  249 236 
98  241 228 85  105 127 245 203 236 245 203 236 245 203 236 245 203 236 
245 203 236 245 203 236 245 203 236 245 203 236 245 203 236 245 203 236 
245 203 236 245 203 236 245 203 236 245 203 236 
245 203 236 245 203 236 245 203 236 245 203 236 245 203 236 245 203 236 
245 203 236 245 203 236 245 203 236 245 203 236 245 203 236 245 203 236 
245 203 236 73  74  111 104 229 218 91  249 236 91  249 236 91  249 236 
91  249 236 91  249 236 91  249 236 91  249 236 91  249 236 91  249 236 
91  249 236 91  249 236 68  188 178 0   0   0   0   0   0   0   0   0   
0   0   0   29  81  77  91  249 236 91  249 236 91  249 236 91  249 236 
36  100 94  0   0   0   0   0   0   0   0   0   18  51  48  88  241 229 
91  249 236 91  249 236 91  249 236 91  249 236 91  249 236 91  249 236 
91  249 236 97  241 228 85  105 127 245 203 236 245 203 236 245 203 236 
245 203 236 245 203 236 245 203 236 245 203 236 245 203 236 245 203 236 
245 203 236 245 203 236 245 203 236 245 203 236 
245 203 236 245 203 236 245 203 236 245 203 236 245 203 236 245 203 236 
245 203 236 245 203 236 245 203 236 245 203 236 245 203 236 245 203 236 
67  68  105 103 227 217 91  249 236 91  249 236 91  249 236 91  249 236 
91  249 236 91  249 236 91  249 236 91  249 236 91  249 236 91  249 236 
91  249 236 91  249 236 71  195 185 0   0   0   0   0   0   0   0   0   
0   0   0   32  88  83  91  249 236 91  249 236 91  249 236 75  205 194 
2   6   6   0   0   0   0   0   0   4   11  10  74  205 194 91  249 236 
91  249 236 91  249 236 91  249 236 91  249 236 91  249 236 91  249 236 
91  249 236 91  249 236 98  241 228 87  106 128 245 203 236 245 203 236 
245 203 236 245 203 236 245 203 236 245 203 236 245 203 236 245 203 236 
245 203 236 245 203 236 245 203 236 245 203 236 
245 203 236 245 203 236 245 203 236 245 203 236 245 203 236 245 203 236 
245 203 236 245 203 236 245 203 236 245 203 236 245 203 236 67  68  106 
103 227 217 91  249 236 91  249 236 91  249 236 91  249 236 91  249 236 
91  249 236 91  249 236 91  249 236 91  249 236 91  249 236 91  249 236 
91  249 236 91  249 236 74  202 192 0   0   0   0   0   0   0   0   0   
0   0   0   34  94  89  91  249 236 91  249 236 90  248 235 27  74  70  
0   0   0   0   0   0   0   0   0   51  140 133 91  249 236 91  249 236 
91  249 236 91  249 236 91  249 236 91  249 236 91  249 236 91  249 236 
91  249 236 91  249 236 91  249 236 99  241 229 89  108 130 245 203 236 
245 203 236 245 203 236 245 203 236 245 203 236 245 203 236 245 203 236 
245 203 236 245 203 236 245 203 236 245 203 236 
245 203 236 245 203 236 245 203 236 245 203 236 245 203 236 245 203 236 
245 203 236 245 203 236 245 203 236 245 203 236 72  73  110 104 229 218 
91  249 236 91  249 236 91  249 236 91  249 236 91  249 236 91  249 236 
91  249 236 91  249 236 91  249 236 91  249 236 91  249 236 91  249 236 
91  249 236 91  249 236 76  209 198 0   0   0   0   0   0   0   0   0   
0   0   0   37  101 96  91  249 236 91  249 236 67  183 174 0   0   0   
0   0   0   0   0   0   25  68  64  89  245 233 91  249 236 91  249 236 
91  249 236 91  249 236 91  249 236 91  249 236 91  249 236 91  249 236 
91  249 236 91  249 236 91  249 236 91  249 236 98  241 229 84  104 126 
245 203 236 245 203 236 245 203 236 245 203 236 245 203 236 245 203 236 
245 203 236 245 203 236 245 203 236 245 203 236 
245 203 236 245 203 236 245 203 236 245 203 236 245 203 236 245 203 236 
245 203 236 245 203 236 245 203 236 88  91  122 106 230 220 91  249 236 
91  249 236 91  249 236 91  249 236 91  249 236 91  249 236 91  249 236 
91  249 236 91  249 236 91  249 236 91  249 236 91  249 236 91  249 236 
91  249 236 91  249 236 79  217 205 0   0   0   0   0   0   0   0   0   
0   0   0   39  107 102 91  249 236 89  244 231 18  51  48  0   0   0   
0   0   0   6   18  17  80  219 208 91  249 236 91  249 236 91  249 236 
91  249 236 91  249 236 91  249 236 91  249 236 91  249 236 91  249 236 
91  249 236 91  249 236 91  249 236 91  249 236 91  249 236 98  241 229 
84  103 125 245 203 236 245 203 236 245 203 236 245 203 236 245 203 236 
245 203 236 245 203 236 245 203 236 245 203 236 
245 203 236 245 203 236 245 203 236 245 203 236 245 203 236 245 203 236 
245 203 236 245 203 236 110 114 137 105 229 219 91  249 236 91  249 236 
91  249 236 91  249 236 91  249 236 91  249 236 91  249 236 91  249 236 
91  249 236 91  249 236 91  249 236 91  249 236 91  249 236 91  249 236 
91  249 236 91  249 236 81  221 210 0   2   2   0   0   0   0   0   0   
0   0   0   41  114 108 91  249 236 57  158 149 0   0   0   0   0   0   
0   1   1   58  160 151 91  249 236 91  249 236 91  249 236 91  249 236 
91  249 236 91  249 236 91  249 236 91  249 236 91  249 236 91  249 236 
91  249 236 91  249 236 91  249 236 91  249 236 91  249 236 91  249 236 
100 242 230 90  109 131 245 203 236 245 203 236 245 203 236 245 203 236 
245 203 236 245 203 236 245 203 236 245 203 236 
245 203 236 245 203 236 245 203 236 245 203 236 245 203 236 245 203 236 
245 203 236 110 115 138 106 230 220 91  249 236 91  249 236 91  249 236 
91  249 236 91  249 236 91  249 236 91  249 236 91  249 236 91  249 236 
91  249 236 91  249 236 91  249 236 91  249 236 91  249 236 91  249 236 
91  249 236 91  249 236 82  225 214 1   5   5   0   0   0   0   0   0   
0   0   0   44  120 114 86  237 225 11  30  29  0   0   0   0   0   0   
32  87  83  90  248 235 91  249 236 91  249 236 91  249 236 91  249 236 
91  249 236 91  249 236 91  249 236 91  249 236 91  249 236 91  249 236 
91  249 236 91  249 236 91  249 236 91  249 236 91  249 236 91  249 236 
91  249 236 101 243 231 101 122 139 245 203 236 245 203 236 245 203 236 
245 203 236 245 203 236 245 203 236 245 203 236 
245 203 236 245 203 236 245 203 236 245 203 236 245 203 236 245 203 236 
113 118 141 109 233 223 91  249 236 91  249 236 91  249 236 91  249 236 
91  249 236 91  249 236 91  249 236 91  249 236 91  249 236 91  249 236 
91  249 236 91  249 236 91  249 236 91  249 236 91  249 236 91  249 236 
91  249 236 91  249 236 84  230 218 3   8   8   0   0   0   0   0   0   
0   0   0   46  127 120 47  130 124 0   0   0   0   0   0   10  29  27  
83  229 217 91  249 236 91  249 236 91  249 236 91  249 236 91  249 236 
91  249 236 91  249 236 91  249 236 91  249 236 91  249 236 91  249 236 
91  249 236 91  249 236 91  249 236 91  249 236 91  249 236 91  249 236 
91  249 236 91  249 236 100 243 231 118 140 151 245 203 236 245 203 236 
245 203 236 245 203 236 245 203 236 245 203 236 
245 203 236 245 203 236 245 203 236 245 203 236 245 203 236 112 115 139 
108 232 222 91  249 236 91  249 236 91  249 236 91  249 236 91  249 236 
91  249 236 91  249 236 91  249 236 91  249 236 91  249 236 91  249 236 
91  249 236 91  249 236 91  249 236 91  249 236 91  249 236 91  249 236 
91  249 236 91  249 236 85  234 221 4   11  11  0   0   0   0   0   0   
0   0   0   41  112 106 5   14  13  0   0   0   0   1   1   66  180 171 
91  249 236 91  249 236 91  249 236 91  249 236 91  249 236 91  249 236 
91  249 236 91  249 236 91  249 236 91  249 236 91  249 236 91  249 236 
91  249 236 91  249 236 91  249 236 91  249 236 91  249 236 91  249 236 
91  249 236 91  249 236 91  249 236 100 242 230 120 142 153 245 203 236 
245 203 236 245 203 236 245 203 236 245 203 236 
245 203 236 245 203 236 245 203 236 245 203 236 107 112 135 107 232 221 
91  249 236 91  249 236 91  249 236 91  249 236 91  249 236 91  249 236 
91  249 236 91  249 236 91  249 236 91  249 236 91  249 236 91  249 236 
91  249 236 91  249 236 91  249 236 91  249 236 91  249 236 91  249 236 
91  249 236 91  249 236 87  238 225 5   14  14  0   0   0   0   0   0   
0   0   0   5   14  13  0   0   0   0   0   0   39  108 102 91  249 236 
91  249 236 91  249 236 91  249 236 91  249 236 91  249 236 91  249 236 
91  249 236 91  249 236 91  249 236 91  249 236 91  249 236 91  249 236 
91  249 236 91  249 236 91  249 236 91  249 236 91  249 236 91  249 236 
91  249 236 91  249 236 91  249 236 91  249 236 102 244 233 123 146 156 
245 203 236 245 203 236 245 203 236 245 203 236 
245 203 236 245 203 236 245 203 236 96  116 138 107 232 222 91  249 236 
91  249 236 91  249 236 91  249 236 91  249 236 91  249 236 91  249 236 
91  249 236 91  249 236 91  249 236 91  249 236 91  249 236 91  249 236 
91  249 236 91  249 236 91  249 236 91  249 236 91  249 236 91  249 236 
91  249 236 91  249 236 88  242 229 6   18  17  0   0   0   0   0   0   
0   0   0   0   0   0   0   0   0   15  43  40  86  237 225 91  249 236 
91  249 236 91  249 236 91  249 236 91  249 236 91  249 236 91  249 236 
91  249 236 91  249 236 91  249 236 91  249 236 91  249 236 91  249 236 
91  249 236 91  249 236 91  249 236 91  249 236 91  249 236 91  249 236 
91  249 236 91  249 236 91  249 236 91  249 236 91  249 236 101 244 232 
121 143 154 245 203 236 245 203 236 245 203 236 
245 203 236 245 203 236 97  116 137 91  233 222 91  249 236 91  249 236 
91  249 236 91  249 236 91  249 236 91  249 236 91  249 236 91  249 236 
91  249 236 91  249 236 91  249 236 91  249 236 91  249 236 91  249 236 
91  249 236 91  249 236 91  249 236 91  249 236 91  249 236 91  249 236 
91  249 236 91  249 236 90  246 233 7   21  20  0   0   0   0   0   0   
0   0   0   0   0   0   2   6   6   71  196 186 91  249 236 91  249 236 
91  249 236 91  249 236 91  249 236 91  249 236 91  249 236 91  249 236 
91  249 236 91  249 236 91  249 236 91  249 236 91  249 236 91  249 236 
91  249 236 91  249 236 91  249 236 91  249 236 91  249 236 91  249 236 
91  249 236 91  249 236 91  249 236 91  249 236 91  249 236 91  249 236 
102 244 232 117 139 150 245 203 236 245 203 236 
245 203 236 60  71  109 91  233 221 91  249 236 91  249 236 91  249 236 
91  249 236 91  249 236 91  249 236 91  249 236 91  249 236 91  249 236 
91  249 236 91  249 236 91  249 236 91  249 236 91  249 236 91  249 236 
91  249 236 91  249 236 91  249 236 91  249 236 91  249 236 91  249 236 
91  249 236 91  249 236 91  249 236 9   25  24  0   0   0   0   0   0   
0   0   0   0   0   0   47  129 122 91  249 236 91  249 236 91  249 236 
91  249 236 91  249 236 91  249 236 91  249 236 91  249 236 91  249 236 
91  249 236 91  249 236 91  249 236 91  249 236 91  249 236 91  249 236 
91  249 236 91  249 236 91  249 236 91  249 236 91  249 236 91  249 236 
91  249 236 91  249 236 91  249 236 91  249 236 91  249 236 91  249 236 
91  249 236 97  244 232 74  111 131 245 203 236 
245 203 236 40  78  111 91  249 236 91  249 236 91  249 236 91  249 236 
91  249 236 91  249 236 91  249 236 91  249 236 91  249 236 91  249 236 
91  249 236 91  249 236 91  249 236 91  249 236 91  249 236 91  249 236 
91  249 236 91  249 236 91  249 236 91  249 236 91  249 236 91  249 236 
91  249 236 91  249 236 91  249 236 43  120 114 37  102 97  37  102 97  
37  102 97  42  116 110 89  244 232 91  249 236 91  249 236 91  249 236 
91  249 236 91  249 236 91  249 236 91  249 236 91  249 236 91  249 236 
91  249 236 91  249 236 91  249 236 91  249 236 91  249 236 91  249 236 
91  249 236 91  249 236 91  249 236 91  249 236 91  249 236 91  249 236 
91  249 236 91  249 236 91  249 236 91  249 236 91  249 236 91  249 236 
91  249 236 91  249 236 53  129 143 245 203 236 
245 203 236 40  78  111 91  249 236 91  249 236 91  249 236 91  249 236 
91  249 236 91  249 236 91  249 236 91  249 236 91  249 236 91  249 236 
91  249 236 91  249 236 91  249 236 91  249 236 91  249 236 91  249 236 
91  249 236 91  249 236 91  249 236 91  249 236 91  249 236 91  249 236 
91  249 236 91  249 236 91  249 236 91  249 236 91  249 236 91  249 236 
91  249 236 91  249 236 91  249 236 91  249 236 91  249 236 91  249 236 
91  249 236 91  249 236 91  249 236 91  249 236 91  249 236 91  249 236 
91  249 236 91  249 236 91  249 236 91  249 236 91  249 236 91  249 236 
91  249 236 91  249 236 91  249 236 91  249 236 91  249 236 91  249 236 
91  249 236 91  249 236 91  249 236 91  249 236 91  249 236 91  249 236 
91  249 236 91  249 236 53  129 143 245 203 236 
245 203 236 40  78  111 91  249 236 91  249 236 91  249 236 91  249 236 
91  249 236 91  249 236 91  249 236 91  249 236 91  249 236 91  249 236 
91  249 236 91  249 236 91  249 236 91  249 236 91  249 236 91  249 236 
91  249 236 91  249 236 91  249 236 91  249 236 91  249 236 91  249 236 
91  249 236 91  249 236 91  249 236 91  249 236 91  249 236 91  249 236 
91  249 236 91  249 236 91  249 236 91  249 236 91  249 236 91  249 236 
91  249 236 91  249 236 91  249 236 91  249 236 91  249 236 91  249 236 
91  249 236 91  249 236 91  249 236 91  249 236 91  249 236 91  249 236 
91  249 236 91  249 236 91  249 236 91  249 236 91  249 236 91  249 236 
91  249 236 91  249 236 91  249 236 91  249 236 91  249 236 91  249 236 
91  249 236 91  249 236 53  129 143 245 203 236 
245 203 236 40  78  111 91  249 236 91  249 236 91  249 236 91  249 236 
91  249 236 91  249 236 91  249 236 91  249 236 91  249 236 91  249 236 
91  249 236 91  249 236 91  249 236 91  249 236 91  249 236 91  249 236 
91  249 236 91  249 236 91  249 236 91  249 236 91  249 236 91  249 236 
91  249 236 91  249 236 91  249 236 91  249 236 91  249 236 91  249 236 
91  249 236 91  249 236 91  249 236 91  249 236 91  249 236 91  249 236 
91  249 236 91  249 236 91  249 236 91  249 236 91  249 236 91  249 236 
91  249 236 91  249 236 91  249 236 91  249 236 91  249 236 91  249 236 
91  249 236 91  249 236 91  249 236 91  249 236 91  249 236 91  249 236 
91  249 236 91  249 236 90  248 235 85  235 223 81  226 213 87  238 225 
90  248 236 91  249 236 53  129 143 245 203 236 
245 203 236 40  78  111 91  249 236 91  249 236 60  164 155 31  85  81  
34  94  89  77  212 201 91  249 236 91  249 236 91  249 236 91  249 236 
91  249 236 91  249 236 91  249 236 91  249 236 91  249 236 91  249 236 
91  249 236 91  249 236 91  249 236 91  249 236 91  249 236 91  249 236 
91  249 236 91  249 236 91  249 236 91  249 236 91  249 236 91  249 236 
91  249 236 91  249 236 91  249 236 91  249 236 91  249 236 91  249 236 
91  249 236 91  249 236 91  249 236 91  249 236 91  249 236 91  249 236 
91  249 236 91  249 236 91  249 236 91  249 236 91  249 236 91  249 236 
91  249 236 91  249 236 91  249 236 91  249 236 91  249 236 91  249 236 
91  249 236 91  249 236 90  248 236 38  106 100 2   6   5   53  145 138 
91  248 236 91  249 236 53  129 143 245 203 236 
245 203 236 40  78  111 91  249 236 91  249 236 43  119 113 0   0   0   
0   0   0   5   13  13  54  149 141 90  247 234 91  249 236 91  249 236 
91  249 236 91  249 236 91  249 236 91  249 236 91  249 236 91  249 236 
91  249 236 91  249 236 91  249 236 91  249 236 91  249 236 91  249 236 
91  249 236 91  249 236 91  249 236 91  249 236 91  249 236 91  249 236 
91  249 236 91  249 236 91  249 236 91  249 236 91  249 236 91  249 236 
91  249 236 91  249 236 91  249 236 91  249 236 91  249 236 91  249 236 
90  249 235 90  249 236 91  249 236 90  249 235 90  249 236 90  248 235 
90  249 236 91  249 236 90  249 236 91  249 235 90  249 236 90  249 236 
90  248 236 90  249 236 90  248 236 37  102 96  0   0   0   52  143 135 
90  248 235 90  248 235 70  187 187 56  120 154 
245 203 236 40  78  111 91  249 236 91  249 236 43  119 113 0   0   0   
0   0   0   0   0   0   0   0   0   27  75  71  81  223 212 91  249 236 
91  249 236 91  249 236 91  249 236 91  249 236 91  249 236 91  249 236 
91  249 236 91  249 236 91  249 236 91  249 236 91  249 236 91  249 236 
91  249 236 91  249 236 91  249 236 91  249 236 91  249 236 91  249 236 
91  249 236 91  249 236 91  249 236 91  249 236 91  249 236 91  249 236 
91  249 236 91  249 236 91  249 236 91  249 236 91  249 236 91  249 236 
89  246 233 79  216 205 77  210 199 74  205 194 72  198 187 69  190 180 
67  183 174 64  176 167 61  169 160 59  161 153 56  154 146 54  147 140 
51  140 133 48  133 126 46  126 119 18  50  47  0   0   0   21  59  56  
36  99  94  33  93  88  34  95  90  80  213 210 
245 203 236 40  78  111 91  249 236 91  249 236 43  119 113 0   0   0   
0   0   0   0   0   0   0   0   0   0   0   0   8   23  22  61  168 160 
90  248 235 91  249 236 91  249 236 91  249 236 91  249 236 91  249 236 
91  249 236 91  249 236 91  249 236 91  249 236 91  249 236 91  249 236 
91  249 236 91  249 236 91  249 236 91  249 236 91  249 236 91  249 236 
91  249 236 91  249 236 91  249 236 91  249 236 91  249 236 91  249 236 
91  249 236 91  249 236 91  249 236 91  249 236 91  249 236 91  249 236 
83  232 220 4   13  12  0   0   0   0   0   0   0   0   0   0   0   0   
0   0   0   0   0   0   0   0   0   0   0   0   0   0   0   0   0   0   
0   0   0   0   0   0   0   0   0   0   0   0   0   0   0   0   0   0   
0   0   0   0   0   0   5   13  13  78  209 206 
245 203 236 40  78  111 91  249 236 91  249 236 43  119 113 0   0   0   
6   16  15  0   0   0   0   0   0   0   0   0   0   0   0   0   1   1   
34  95  90  85  234 222 91  249 236 91  249 236 91  249 236 91  249 236 
91  249 236 91  249 236 91  249 236 91  249 236 91  249 236 91  249 236 
91  249 236 91  249 236 91  249 236 91  249 236 91  249 236 91  249 236 
91  249 236 91  249 236 91  249 236 91  249 236 91  249 236 91  249 236 
91  249 236 91  249 236 91  249 236 91  249 236 91  249 236 91  249 236 
83  232 220 3   11  10  0   0   0   0   0   0   0   0   0   0   0   0   
0   0   0   0   0   0   0   0   0   0   0   0   0   0   0   0   0   0   
0   0   0   0   0   0   0   0   0   0   0   0   0   0   0   0   0   0   
0   0   0   0   0   0   5   13  13  78  209 206 
245 203 236 40  78  111 91  249 236 91  249 236 43  119 113 0   0   0   
49  135 128 62  170 161 14  40  38  0   0   0   0   0   0   0   0   0   
0   0   0   12  33  31  68  186 176 91  249 236 91  249 236 91  249 236 
91  249 236 91  249 236 91  249 236 91  249 236 91  249 236 91  249 236 
91  249 236 91  249 236 91  249 236 91  249 236 91  249 236 91  249 236 
91  249 236 91  249 236 91  249 236 91  249 236 91  249 236 91  249 236 
91  249 236 91  249 236 91  249 236 91  249 236 91  249 236 91  249 236 
83  232 220 3   11  10  0   0   0   0   0   0   0   0   0   0   0   0   
0   0   0   0   0   0   0   0   0   0   0   0   0   0   0   0   0   0   
0   0   0   0   0   0   0   0   0   0   0   0   0   0   0   0   0   0   
0   0   0   0   0   0   5   13  13  78  209 206 
245 203 236 40  78  111 91  249 236 91  249 236 43  119 113 0   0   0   
49  136 129 91  249 236 88  241 228 52  143 135 8   22  21  0   0   0   
0   0   0   0   0   0   1   5   4   41  114 108 88  240 228 91  249 236 
91  249 236 91  249 236 91  249 236 91  249 236 91  249 236 91  249 236 
91  249 236 91  249 236 91  249 236 91  249 236 91  249 236 91  249 236 
91  249 236 91  249 236 91  249 236 91  249 236 91  249 236 91  249 236 
91  249 236 91  249 236 91  249 236 91  249 236 91  249 236 91  249 236 
83  232 220 3   11  10  0   0   0   0   0   0   0   0   0   0   0   0   
0   0   0   0   0   0   0   0   0   0   0   0   0   0   0   0   0   0   
0   0   0   0   0   0   0   0   0   0   0   0   0   0   0   0   0   0   
0   0   0   0   0   0   5   13  13  78  209 206 
245 203 236 40  78  111 91  249 236 91  249 236 43  119 113 0   0   0   
49  136 129 91  249 236 91  249 236 91  249 236 84  230 218 41  115 109 
2   8   7   0   0   0   0   0   0   0   0   0   17  48  45  74  204 193 
91  249 236 91  249 236 91  249 236 91  249 236 91  249 236 91  249 236 
91  249 236 91  249 236 91  249 236 91  249 236 91  249 236 91  249 236 
91  249 236 91  249 236 91  249 236 91  249 236 91  249 236 91  249 236 
91  249 236 91  249 236 91  249 236 91  249 236 91  249 236 91  249 236 
86  239 227 18  50  48  0   0   0   0   0   0   0   0   0   14  39  37  
57  156 147 66  182 173 64  176 166 62  169 161 59  163 154 57  156 148 
54  150 142 52  143 136 50  137 130 20  55  52  0   0   0   22  62  58  
39  106 100 37  101 96  38  104 98  80  214 212 
245 203 236 42  85  115 91  249 236 91  249 236 43  119 113 0   0   0   
49  136 129 91  249 236 91  249 236 91  249 236 91  249 236 91  249 236 
79  217 206 31  86  82  1   3   3   0   0   0   0   0   0   2   8   7   
49  135 128 89  245 232 91  249 236 91  249 236 91  249 236 91  249 236 
91  249 236 91  249 236 91  249 236 91  249 236 91  249 236 91  249 236 
91  249 236 91  249 236 91  249 236 91  249 236 91  249 236 91  249 236 
91  249 236 91  249 236 91  249 236 91  249 236 91  249 236 91  249 236 
90  248 235 86  240 227 42  116 110 1   4   4   0   0   0   0   0   0   
3   8   8   41  112 106 83  229 217 90  249 236 90  249 236 90  249 235 
90  249 235 90  248 235 89  248 234 37  102 96  0   0   0   52  143 135 
91  249 236 90  249 236 70  185 187 55  116 151 
80  212 211 77  209 200 81  222 210 83  228 216 40  109 104 0   0   0   
47  130 123 87  240 227 88  242 230 89  245 232 90  247 234 91  249 236 
91  249 236 90  248 235 70  193 183 22  61  58  0   0   0   0   0   0   
0   0   0   23  64  61  79  217 206 91  249 236 91  249 236 91  249 236 
91  249 236 91  249 236 91  249 236 91  249 236 91  249 236 91  249 236 
91  249 236 91  249 236 91  249 236 91  249 236 91  249 236 91  249 236 
91  249 236 91  249 236 91  249 236 91  249 236 91  249 236 91  249 236 
91  249 236 90  249 235 89  248 234 69  190 180 14  39  37  0   0   0   
0   0   0   0   0   0   6   18  17  49  134 127 86  237 225 90  249 236 
90  249 236 91  249 236 90  248 236 37  102 96  0   0   0   52  143 135 
91  248 236 91  249 236 53  129 143 245 203 236 
77  205 202 2   8   7   0   0   0   0   0   0   0   0   0   0   0   0   
3   9   8   6   18  17  8   22  21  9   27  25  11  31  29  13  36  34  
15  43  41  18  50  47  20  56  53  22  61  58  3   10  9   0   0   0   
0   0   0   0   0   0   37  103 98  91  249 236 91  249 236 91  249 236 
91  249 236 91  249 236 91  249 236 91  249 236 91  249 236 91  249 236 
91  249 236 91  249 236 91  249 236 91  249 236 91  249 236 91  249 236 
91  249 236 91  249 236 91  249 236 91  249 236 91  249 236 91  249 236 
91  249 236 91  249 236 91  249 236 90  249 236 86  235 223 38  105 99  
1   3   3   0   0   0   0   0   0   0   0   0   12  33  31  57  157 148 
88  244 231 90  248 235 90  248 236 37  102 96  0   0   0   52  143 135 
91  248 236 91  249 236 53  129 143 245 203 236 
77  205 202 2   8   7   0   0   0   0   0   0   0   0   0   0   0   0   
0   0   0   0   0   0   0   0   0   0   0   0   0   0   0   0   0   0   
0   0   0   0   0   0   0   0   0   0   0   0   0   0   0   0   0   0   
0   0   0   0   0   0   37  102 97  91  249 236 91  249 236 91  249 236 
91  249 236 91  249 236 91  249 236 91  249 236 91  249 236 91  249 236 
91  249 236 91  249 236 91  249 236 91  249 236 91  249 236 91  249 236 
91  249 236 91  249 236 91  249 236 91  249 236 91  249 236 91  249 236 
91  249 236 91  249 236 91  249 236 91  249 236 90  248 235 90  248 234 
66  182 172 11  31  29  0   0   0   0   0   0   0   0   0   0   0   0   
17  49  46  65  179 169 90  248 235 37  102 96  0   0   0   52  143 135 
91  248 236 91  249 236 53  129 143 245 203 236 
77  205 202 2   8   7   0   0   0   0   0   0   0   0   0   0   0   0   
0   0   0   0   0   0   0   0   0   0   0   0   0   0   0   0   0   0   
0   0   0   0   0   0   0   0   0   0   0   0   0   0   0   0   0   0   
0   0   0   0   0   0   37  102 97  91  249 236 91  249 236 91  249 236 
91  249 236 91  249 236 91  249 236 91  249 236 91  249 236 91  249 236 
91  249 236 91  249 236 91  249 236 91  249 236 91  249 236 91  249 236 
91  249 236 91  249 236 91  249 236 91  249 236 91  249 236 91  249 236 
91  249 236 91  249 236 91  249 236 91  249 236 91  249 236 91  249 236 
90  248 236 83  232 220 35  96  91  0   2   2   0   0   0   0   0   0   
0   0   0   0   1   1   24  67  64  24  66  63  0   0   0   52  143 135 
91  248 236 91  249 236 53  129 143 245 203 236 
77  205 202 2   8   7   0   0   0   0   0   0   0   0   0   0   0   0   
0   0   0   0   0   0   0   0   0   0   0   0   0   0   0   0   0   0   
0   0   0   0   0   0   0   0   0   0   0   0   0   0   0   0   0   0   
0   0   0   0   0   0   37  102 97  91  249 236 91  249 236 91  249 236 
91  249 236 91  249 236 91  249 236 91  249 236 91  249 236 91  249 236 
91  249 236 91  249 236 91  249 236 91  249 236 91  249 236 91  249 236 
91  249 236 91  249 236 91  249 236 91  249 236 91  249 236 91  249 236 
91  249 236 91  249 236 91  249 236 91  249 236 91  249 236 91  249 236 
91  249 236 90  249 235 90  247 235 62  172 163 9   25  24  0   0   0   
0   0   0   0   0   0   0   0   0   0   0   0   0   0   0   52  143 135 
91  248 236 91  249 236 53  129 143 245 203 236 
77  205 202 2   8   7   0   0   0   0   0   0   0   0   0   0   0   0   
2   5   5   5   14  13  7   20  19  9   26  24  11  32  30  13  38  36  
16  44  42  18  51  48  21  58  55  24  66  62  26  73  69  29  80  76  
32  87  83  34  95  90  59  162 154 91  249 236 91  249 236 91  249 236 
91  249 236 91  249 236 91  249 236 91  249 236 91  249 236 91  249 236 
91  249 236 91  249 236 91  249 236 91  249 236 91  249 236 91  249 236 
91  249 236 91  249 236 91  249 236 91  249 236 91  249 236 91  249 236 
91  249 236 91  249 236 91  249 236 91  249 236 91  249 236 91  249 236 
91  249 236 91  249 236 90  249 236 90  249 235 82  228 216 31  86  81  
0   0   0   0   0   0   0   0   0   0   0   0   0   0   0   52  143 135 
91  248 236 91  249 236 53  129 143 245 203 236 
80  209 209 76  205 197 81  222 211 83  229 217 40  111 105 0   0   0   
48  132 125 88  242 229 89  243 231 89  245 232 90  246 233 90  247 234 
91  249 236 91  249 236 91  249 236 91  249 236 91  249 236 91  249 236 
91  249 236 91  249 236 91  249 236 91  249 236 91  249 236 91  249 236 
91  249 236 91  249 236 91  249 236 91  249 236 91  249 236 91  249 236 
91  249 236 91  249 236 91  249 236 91  249 236 91  249 236 91  249 236 
91  249 236 91  249 236 91  249 236 91  249 236 91  249 236 91  249 236 
91  249 236 91  249 236 91  249 236 91  249 236 91  249 236 91  249 236 
91  249 236 91  249 236 91  249 236 91  249 236 90  248 236 90  247 235 
59  163 155 7   21  20  0   0   0   0   0   0   0   0   0   52  143 135 
91  248 236 91  249 236 53  129 143 245 203 236 
245 203 236 42  85  116 91  249 236 91  249 236 43  119 113 0   0   0   
49  136 129 91  249 236 91  249 236 91  249 236 91  249 236 91  249 236 
91  249 236 91  249 236 91  249 236 91  249 236 91  249 236 91  249 236 
91  249 236 91  249 236 91  249 236 91  249 236 91  249 236 91  249 236 
91  249 236 91  249 236 91  249 236 91  249 236 91  249 236 91  249 236 
91  249 236 91  249 236 91  249 236 91  249 236 91  249 236 91  249 236 
91  249 236 91  249 236 91  249 236 91  249 236 91  249 236 91  249 236 
91  249 236 91  249 236 91  249 236 91  249 236 91  249 236 91  249 236 
91  249 236 91  249 236 91  249 236 91  249 236 91  249 236 90  249 235 
90  249 235 80  222 210 28  76  72  0   2   2   0   2   1   52  143 136 
91  248 236 91  249 236 53  129 143 245 203 236 
245 203 236 40  78  111 91  249 236 91  249 236 66  181 172 43  119 113 
69  190 180 91  249 236 91  249 236 91  249 236 91  249 236 91  249 236 
91  249 236 91  249 236 91  249 236 91  249 236 91  249 236 91  249 236 
91  249 236 91  249 236 91  249 236 91  249 236 91  249 236 91  249 236 
91  249 236 91  249 236 91  249 236 91  249 236 91  249 236 91  249 236 
91  249 236 91  249 236 91  249 236 91  249 236 91  249 236 91  249 236 
91  249 236 91  249 236 91  249 236 91  249 236 91  249 236 91  249 236 
91  249 236 91  249 236 91  249 236 91  249 236 91  249 236 91  249 236 
91  249 236 91  249 236 91  249 236 91  249 236 91  249 236 91  249 236 
91  249 236 90  248 235 90  247 233 79  216 205 79  215 204 85  234 222 
90  248 236 91  249 236 53  129 143 245 203 236 
245 203 236 40  78  111 91  249 236 91  249 236 91  249 236 91  249 236 
91  249 236 91  249 236 91  249 236 91  249 236 91  249 236 91  249 236 
91  249 236 91  249 236 91  249 236 91  249 236 91  249 236 91  249 236 
91  249 236 91  249 236 91  249 236 91  249 236 91  249 236 91  249 236 
91  249 236 91  249 236 91  249 236 91  249 236 91  249 236 91  249 236 
91  249 236 91  249 236 91  249 236 91  249 236 91  249 236 91  249 236 
91  249 236 91  249 236 91  249 236 91  249 236 91  249 236 91  249 236 
91  249 236 91  249 236 91  249 236 91  249 236 91  249 236 91  249 236 
91  249 236 91  249 236 91  249 236 91  249 236 91  249 236 91  249 236 
91  249 236 91  249 236 91  249 236 91  249 236 91  249 236 91  249 236 
91  249 236 91  249 236 53  129 143 245 203 236 
245 203 236 40  78  111 91  249 236 91  249 236 91  249 236 91  249 236 
91  249 236 91  249 236 91  249 236 91  249 236 91  249 236 91  249 236 
91  249 236 91  249 236 91  249 236 91  249 236 91  249 236 91  249 236 
91  249 236 91  249 236 91  249 236 91  249 236 91  249 236 91  249 236 
91  249 236 91  249 236 91  249 236 91  249 236 91  249 236 91  249 236 
91  249 236 91  249 236 75  205 195 37  102 97  37  102 97  37  102 97  
37  102 97  64  176 167 91  249 236 91  249 236 91  249 236 91  249 236 
91  249 236 91  249 236 91  249 236 91  249 236 91  249 236 91  249 236 
91  249 236 91  249 236 91  249 236 91  249 236 91  249 236 91  249 236 
91  249 236 91  249 236 91  249 236 91  249 236 91  249 236 91  249 236 
91  249 236 91  249 236 53  129 143 245 203 236 
245 203 236 61  60  106 96  220 211 91  249 236 91  249 236 91  249 236 
91  249 236 91  249 236 91  249 236 91  249 236 91  249 236 91  249 236 
91  249 236 91  249 236 91  249 236 91  249 236 91  249 236 91  249 236 
91  249 236 91  249 236 91  249 236 91  249 236 91  249 236 91  249 236 
91  249 236 91  249 236 91  249 236 91  249 236 91  249 236 91  249 236 
91  249 236 88  242 229 17  46  44  0   0   0   0   0   0   0   0   0   
0   0   0   43  118 112 91  249 236 91  249 236 91  249 236 91  249 236 
91  249 236 91  249 236 91  249 236 91  249 236 91  249 236 91  249 236 
91  249 236 91  249 236 91  249 236 91  249 236 91  249 236 91  249 236 
91  249 236 91  249 236 91  249 236 91  249 236 91  249 236 91  249 236 
91  249 236 91  233 221 78  96  124 245 203 236 
245 203 236 245 203 236 81  81  119 96  220 211 91  249 236 91  249 236 
91  249 236 91  249 236 91  249 236 91  249 236 91  249 236 91  249 236 
91  249 236 91  249 236 91  249 236 91  249 236 91  249 236 91  249 236 
91  249 236 91  249 236 91  249 236 91  249 236 91  249 236 91  249 236 
91  249 236 91  249 236 91  249 236 91  249 236 91  249 236 91  249 236 
90  248 235 42  115 109 0   0   0   0   0   0   0   0   0   0   0   0   
0   0   0   40  111 105 91  249 236 91  249 236 91  249 236 91  249 236 
91  249 236 91  249 236 91  249 236 91  249 236 91  249 236 91  249 236 
91  249 236 91  249 236 91  249 236 91  249 236 91  249 236 91  249 236 
91  249 236 91  249 236 91  249 236 91  249 236 91  249 236 91  249 236 
91  233 221 91  109 131 245 203 236 245 203 236 
245 203 236 245 203 236 245 203 236 82  83  120 93  216 207 91  249 236 
91  249 236 91  249 236 91  249 236 91  249 236 91  249 236 91  249 236 
91  249 236 91  249 236 91  249 236 91  249 236 91  249 236 91  249 236 
91  249 236 91  249 236 91  249 236 91  249 236 91  249 236 91  249 236 
91  249 236 91  249 236 91  249 236 91  249 236 91  249 236 91  249 236 
68  186 177 1   4   4   0   0   0   0   0   0   0   0   0   0   0   0   
0   0   0   38  104 98  91  249 236 91  249 236 91  249 236 91  249 236 
91  249 236 91  249 236 91  249 236 91  249 236 91  249 236 91  249 236 
91  249 236 91  249 236 91  249 236 91  249 236 91  249 236 91  249 236 
91  249 236 91  249 236 91  249 236 91  249 236 91  249 236 91  233 222 
95  115 137 245 203 236 245 203 236 245 203 236 
245 203 236 245 203 236 245 203 236 245 203 236 80  81  118 92  216 206 
91  249 236 91  249 236 91  249 236 91  249 236 91  249 236 91  249 236 
91  249 236 91  249 236 91  249 236 91  249 236 91  249 236 91  249 236 
91  249 236 91  249 236 91  249 236 91  249 236 91  249 236 91  249 236 
91  249 236 91  249 236 91  249 236 91  249 236 91  249 236 85  233 221 
12  34  32  0   0   0   0   2   2   3   9   9   0   0   0   0   0   0   
0   0   0   35  97  92  91  249 236 91  249 236 91  249 236 91  249 236 
91  249 236 91  249 236 91  249 236 91  249 236 91  249 236 91  249 236 
91  249 236 91  249 236 91  249 236 91  249 236 91  249 236 91  249 236 
91  249 236 91  249 236 91  249 236 91  249 236 91  233 222 96  116 138 
245 203 236 245 203 236 245 203 236 245 203 236 
245 203 236 245 203 236 245 203 236 245 203 236 245 203 236 82  82  120 
95  219 209 91  249 236 91  249 236 91  249 236 91  249 236 91  249 236 
91  249 236 91  249 236 91  249 236 91  249 236 91  249 236 91  249 236 
91  249 236 91  249 236 91  249 236 91  249 236 91  249 236 91  249 236 
91  249 236 91  249 236 91  249 236 91  249 236 90  248 235 34  93  88  
0   0   0   0   0   0   30  83  79  14  40  38  0   0   0   0   0   0   
0   0   0   32  90  85  91  249 236 91  249 236 91  249 236 91  249 236 
91  249 236 91  249 236 91  249 236 91  249 236 91  249 236 91  249 236 
91  249 236 91  249 236 91  249 236 91  249 236 91  249 236 91  249 236 
91  249 236 91  249 236 91  249 236 108 232 222 103 113 135 245 203 236 
245 203 236 245 203 236 245 203 236 245 203 236 
245 203 236 245 203 236 245 203 236 245 203 236 245 203 236 245 203 236 
84  85  122 96  217 208 91  249 236 91  249 236 91  249 236 91  249 236 
91  249 236 91  249 236 91  249 236 91  249 236 91  249 236 91  249 236 
91  249 236 91  249 236 91  249 236 91  249 236 91  249 236 91  249 236 
91  249 236 91  249 236 91  249 236 91  249 236 61  169 160 0   1   1   
0   0   0   2   6   6   78  213 202 12  34  32  0   0   0   0   0   0   
0   0   0   30  82  78  91  249 236 91  249 236 91  249 236 91  249 236 
91  249 236 91  249 236 91  249 236 91  249 236 91  249 236 91  249 236 
91  249 236 91  249 236 91  249 236 91  249 236 91  249 236 91  249 236 
91  249 236 91  249 236 108 232 221 107 112 135 245 203 236 245 203 236 
245 203 236 245 203 236 245 203 236 245 203 236 
245 203 236 245 203 236 245 203 236 245 203 236 245 203 236 245 203 236 
245 203 236 90  84  121 117 216 208 91  249 236 91  249 236 91  249 236 
91  249 236 91  249 236 91  249 236 91  249 236 91  249 236 91  249 236 
91  249 236 91  249 236 91  249 236 91  249 236 91  249 236 91  249 236 
91  249 236 91  249 236 91  249 236 81  224 212 8   22  21  0   0   0   
0   0   0   39  108 103 91  249 236 10  28  26  0   0   0   0   0   0   
0   0   0   27  75  71  91  249 236 91  249 236 91  249 236 91  249 236 
91  249 236 91  249 236 91  249 236 91  249 236 91  249 236 91  249 236 
91  249 236 91  249 236 91  249 236 91  249 236 91  249 236 91  249 236 
91  249 236 108 232 222 112 117 140 245 203 236 245 203 236 245 203 236 
245 203 236 245 203 236 245 203 236 245 203 236 
245 203 236 245 203 236 245 203 236 245 203 236 245 203 236 245 203 236 
245 203 236 245 203 236 89  81  119 117 215 207 91  249 236 91  249 236 
91  249 236 91  249 236 91  249 236 91  249 236 91  249 236 91  249 236 
91  249 236 91  249 236 91  249 236 91  249 236 91  249 236 91  249 236 
91  249 236 91  249 236 90  246 233 27  75  71  0   0   0   0   0   0   
6   19  18  83  228 216 91  249 236 7   21  20  0   0   0   0   0   0   
0   0   0   24  68  64  91  249 236 91  249 236 91  249 236 91  249 236 
91  249 236 91  249 236 91  249 236 91  249 236 91  249 236 91  249 236 
91  249 236 91  249 236 91  249 236 91  249 236 91  249 236 91  249 236 
106 230 220 114 118 141 245 203 236 245 203 236 245 203 236 245 203 236 
245 203 236 245 203 236 245 203 236 245 203 236 
245 203 236 245 203 236 245 203 236 245 203 236 245 203 236 245 203 236 
245 203 236 245 203 236 245 203 236 93  86  124 119 217 209 91  249 236 
91  249 236 91  249 236 91  249 236 91  249 236 91  249 236 91  249 236 
91  249 236 91  249 236 91  249 236 91  249 236 91  249 236 91  249 236 
91  249 236 91  249 236 54  148 140 0   0   0   0   0   0   0   0   0   
49  136 129 91  249 236 90  247 234 5   16  15  0   0   0   0   0   0   
0   0   0   22  61  58  91  249 236 91  249 236 91  249 236 91  249 236 
91  249 236 91  249 236 91  249 236 91  249 236 91  249 236 91  249 236 
91  249 236 91  249 236 91  249 236 91  249 236 91  249 236 106 230 219 
109 113 136 245 203 236 245 203 236 245 203 236 245 203 236 245 203 236 
245 203 236 245 203 236 245 203 236 245 203 236 
245 203 236 245 203 236 245 203 236 245 203 236 245 203 236 245 203 236 
245 203 236 245 203 236 245 203 236 245 203 236 94  88  125 115 213 205 
91  249 236 91  249 236 91  249 236 91  249 236 91  249 236 91  249 236 
91  249 236 91  249 236 91  249 236 91  249 236 91  249 236 91  249 236 
91  249 236 77  212 201 4   13  12  0   0   0   0   0   0   12  34  33  
87  239 226 91  249 236 89  243 230 5   14  13  0   0   0   0   0   0   
0   0   0   19  54  51  91  249 236 91  249 236 91  249 236 91  249 236 
91  249 236 91  249 236 91  249 236 91  249 236 91  249 236 91  249 236 
91  249 236 91  249 236 91  249 236 91  249 236 106 230 219 109 114 137 
245 203 236 245 203 236 245 203 236 245 203 236 245 203 236 245 203 236 
245 203 236 245 203 236 245 203 236 245 203 236 
245 203 236 245 203 236 245 203 236 245 203 236 245 203 236 245 203 236 
245 203 236 245 203 236 245 203 236 245 203 236 245 203 236 92  85  123 
115 213 205 91  249 236 91  249 236 91  249 236 91  249 236 91  249 236 
91  249 236 91  249 236 91  249 236 91  249 236 91  249 236 91  249 236 
89  243 231 20  57  54  0   0   0   0   0   0   0   0   0   59  163 154 
91  249 236 91  249 236 87  239 226 4   12  11  0   0   0   0   0   0   
0   0   0   17  47  44  91  249 236 91  249 236 91  249 236 91  249 236 
91  249 236 91  249 236 91  249 236 91  249 236 91  249 236 91  249 236 
91  249 236 91  249 236 91  249 236 106 230 220 75  76  112 245 203 236 
245 203 236 245 203 236 245 203 236 245 203 236 245 203 236 245 203 236 
245 203 236 245 203 236 245 203 236 245 203 236 
245 203 236 245 203 236 245 203 236 245 203 236 245 203 236 245 203 236 
245 203 236 245 203 236 245 203 236 245 203 236 245 203 236 245 203 236 
91  83  121 115 214 206 91  249 236 91  249 236 91  249 236 91  249 236 
91  249 236 91  249 236 91  249 236 91  249 236 91  249 236 91  249 236 
46  127 121 0   0   0   0   0   0   0   0   0   19  54  51  90  246 234 
91  249 236 91  249 236 85  234 222 3   10  9   0   0   0   0   0   0   
0   0   0   14  39  37  91  249 236 91  249 236 91  249 236 91  249 236 
91  249 236 91  249 236 91  249 236 91  249 236 91  249 236 91  249 236 
91  249 236 91  249 236 103 227 217 68  69  106 245 203 236 245 203 236 
245 203 236 245 203 236 245 203 236 245 203 236 245 203 236 245 203 236 
245 203 236 245 203 236 245 203 236 245 203 236 
245 203 236 245 203 236 245 203 236 245 203 236 245 203 236 245 203 236 
245 203 236 245 203 236 245 203 236 245 203 236 245 203 236 245 203 236 
245 203 236 68  60  107 110 208 202 91  249 236 91  249 236 91  249 236 
91  249 236 91  249 236 91  249 236 91  249 236 91  249 236 71  196 186 
2   7   7   0   0   0   0   0   0   0   2   2   68  187 177 91  249 236 
91  249 236 91  249 236 84  230 218 2   7   7   0   0   0   0   0   0   
0   0   0   11  32  31  91  249 236 91  249 236 91  249 236 91  249 236 
91  249 236 91  249 236 91  249 236 91  249 236 91  249 236 91  249 236 
91  249 236 103 227 217 69  70  107 245 203 236 245 203 236 245 203 236 
245 203 236 245 203 236 245 203 236 245 203 236 245 203 236 245 203 236 
245 203 236 245 203 236 245 203 236 245 203 236 
245 203 236 245 203 236 245 203 236 245 203 236 245 203 236 245 203 236 
245 203 236 245 203 236 245 203 236 245 203 236 245 203 236 245 203 236 
245 203 236 245 203 236 51  41  93  107 205 199 91  249 236 91  249 236 
91  249 236 91  249 236 91  249 236 91  249 236 91  249 236 27  76  72  
0   0   0   0   0   0   0   0   0   9   26  24  49  135 128 49  136 128 
49  136 128 49  136 128 45  123 117 1   3   3   0   0   0   0   0   0   
0   0   0   5   14  13  49  136 128 49  136 128 72  197 187 91  249 236 
91  249 236 91  249 236 91  249 236 91  249 236 91  249 236 91  249 236 
104 229 218 68  69  106 245 203 236 245 203 236 245 203 236 245 203 236 
245 203 236 245 203 236 245 203 236 245 203 236 245 203 236 245 203 236 
245 203 236 245 203 236 245 203 236 245 203 236 
245 203 236 245 203 236 245 203 236 245 203 236 245 203 236 245 203 236 
245 203 236 245 203 236 245 203 236 245 203 236 245 203 236 245 203 236 
245 203 236 245 203 236 245 203 236 51  40  92  107 205 199 91  249 236 
91  249 236 91  249 236 91  249 236 91  249 236 91  249 236 25  69  65  
0   0   0   0   0   0   0   0   0   0   0   0   0   0   0   0   0   0   
0   0   0   0   0   0   0   0   0   0   0   0   0   0   0   0   0   0   
0   0   0   0   0   0   0   0   0   0   0   0   49  136 128 91  249 236 
91  249 236 91  249 236 91  249 236 91  249 236 91  249 236 101 225 215 
73  73  111 245 203 236 245 203 236 245 203 236 245 203 236 245 203 236 
245 203 236 245 203 236 245 203 236 245 203 236 245 203 236 245 203 236 
245 203 236 245 203 236 245 203 236 245 203 236 
245 203 236 245 203 236 245 203 236 245 203 236 245 203 236 245 203 236 
245 203 236 245 203 236 245 203 236 245 203 236 245 203 236 245 203 236 
245 203 236 245 203 236 245 203 236 245 203 236 51  42  93  107 204 199 
91  249 236 91  249 236 91  249 236 91  249 236 91  249 236 56  155 147 
43  119 113 43  119 113 43  119 113 43  119 113 43  119 113 43  119 113 
43  119 113 43  119 113 37  102 96  0   0   0   0   0   0   0   0   0   
0   0   0   1   3   3   43  119 113 43  119 113 69  190 180 91  249 236 
91  249 236 91  249 236 91  249 236 91  249 236 101 224 214 71  72  109 
245 203 236 245 203 236 245 203 236 245 203 236 245 203 236 245 203 236 
245 203 236 245 203 236 245 203 236 245 203 236 245 203 236 245 203 236 
245 203 236 245 203 236 245 203 236 245 203 236 
245 203 236 245 203 236 245 203 236 245 203 236 245 203 236 245 203 236 
245 203 236 245 203 236 245 203 236 245 203 236 245 203 236 245 203 236 
245 203 236 245 203 236 245 203 236 245 203 236 245 203 236 54  44  96  
105 203 197 91  249 236 91  249 236 91  249 236 91  249 236 91  249 236 
91  249 236 91  249 236 91  249 236 91  249 236 91  249 236 91  249 236 
91  249 236 91  249 236 76  208 197 0   0   0   0   0   0   0   0   0   
0   0   0   2   6   5   89  246 233 91  249 236 91  249 236 91  249 236 
91  249 236 91  249 236 91  249 236 101 225 215 71  72  109 245 203 236 
245 203 236 245 203 236 245 203 236 245 203 236 245 203 236 245 203 236 
245 203 236 245 203 236 245 203 236 245 203 236 245 203 236 245 203 236 
245 203 236 245 203 236 245 203 236 245 203 236 
245 203 236 245 203 236 245 203 236 245 203 236 245 203 236 245 203 236 
245 203 236 245 203 236 245 203 236 245 203 236 245 203 236 245 203 236 
245 203 236 245 203 236 245 203 236 245 203 236 245 203 236 245 203 236 
53  42  94  105 203 197 91  249 236 91  249 236 91  249 236 91  249 236 
91  249 236 91  249 236 91  249 236 91  249 236 91  249 236 91  249 236 
91  249 236 91  249 236 74  202 191 0   0   0   0   0   0   0   0   0   
0   0   0   2   5   5   87  240 228 91  249 236 91  249 236 91  249 236 
91  249 236 91  249 236 101 225 215 69  69  107 245 203 236 245 203 236 
245 203 236 245 203 236 245 203 236 245 203 236 245 203 236 245 203 236 
245 203 236 245 203 236 245 203 236 245 203 236 245 203 236 245 203 236 
245 203 236 245 203 236 245 203 236 245 203 236 
245 203 236 245 203 236 245 203 236 245 203 236 245 203 236 245 203 236 
245 203 236 245 203 236 245 203 236 245 203 236 245 203 236 245 203 236 
245 203 236 245 203 236 245 203 236 245 203 236 245 203 236 245 203 236 
245 203 236 245 203 236 245 203 236 245 203 236 245 203 236 245 203 236 
245 203 236 245 203 236 245 203 236 245 203 236 245 203 236 245 203 236 
245 203 236 32  45  91  72  198 187 3   8   7   3   8   7   3   8   7   
3   8   7   4   12  12  79  211 206 245 203 236 245 203 236 245 203 236 
245 203 236 245 203 236 245 203 236 245 203 236 245 203 236 245 203 236 
245 203 236 245 203 236 245 203 236 245 203 236 245 203 236 245 203 236 
245 203 236 245 203 236 245 203 236 245 203 236 245 203 236 245 203 236 
245 203 236 245 203 236 245 203 236 245 203 236 
245 203 236 245 203 236 245 203 236 245 203 236 245 203 236 245 203 236 
245 203 236 245 203 236 245 203 236 245 203 236 245 203 236 245 203 236 
245 203 236 245 203 236 245 203 236 245 203 236 245 203 236 245 203 236 
245 203 236 245 203 236 245 203 236 245 203 236 245 203 236 245 203 236 
245 203 236 245 203 236 245 203 236 245 203 236 245 203 236 245 203 236 
245 203 236 245 203 236 82  219 215 77  205 202 77  205 202 77  205 202 
77  205 202 77  205 202 78  202 206 245 203 236 245 203 236 245 203 236 
245 203 236 245 203 236 245 203 236 245 203 236 245 203 236 245 203 236 
245 203 236 245 203 236 245 203 236 245 203 236 245 203 236 245 203 236 
245 203 236 245 203 236 245 203 236 245 203 236 245 203 236 245 203 236 
245 203 236 245 203 236 245 203 236 245 203 236 
