P3
64 64
255
245 203 236 245 203 236 245 203 236 245 203 236 245 203 236 245 203 236 
245 203 236 245 203 236 245 203 236 245 203 236 245 203 236 245 203 236 
245 203 236 245 203 236 245 203 236 245 203 236 245 203 236 245 203 236 
245 203 236 245 203 236 245 203 236 245 203 236 245 203 236 245 203 236 
245 203 236 245 203 236 245 203 236 245 203 236 109 6   67  171 3   55  
204 1   43  207 0   36  207 0   35  207 0   40  186 2   51  123 6   65  
245 203 236 245 203 236 245 203 236 245 203 236 245 203 236 245 203 236 
245 203 236 245 203 236 245 203 236 245 203 236 245 203 236 245 203 236 
245 203 236 245 203 236 245 203 236 245 203 236 245 203 236 245 203 236 
245 203 236 245 203 236 245 203 236 245 203 236 245 203 236 245 203 236 
245 203 236 245 203 236 245 203 236 245 203 236 
245 203 236 245 203 236 245 203 236 245 203 236 245 203 236 245 203 236 
245 203 236 245 203 236 245 203 236 245 203 236 245 203 236 245 203 236 
245 203 236 245 203 236 245 203 236 245 203 236 245 203 236 245 203 236 
245 203 236 55  39  91  85  5   53  85  5   53  85  5   53  85  5   53  
85  5   53  85  5   53  106 5   56  204 1   43  134 0   22  53  0   8   
10  0   1   2   0   0   1   0   0   7   0   1   37  0   6   118 0   19  
204 0   38  125 4   56  85  5   53  85  5   53  85  5   53  85  5   53  
85  5   53  85  5   53  77  32  77  245 203 236 245 203 236 245 203 236 
245 203 236 245 203 236 245 203 236 245 203 236 245 203 236 245 203 236 
245 203 236 245 203 236 245 203 236 245 203 236 245 203 236 245 203 236 
245 203 236 245 203 236 245 203 236 245 203 236 
245 203 236 245 203 236 245 203 236 245 203 236 245 203 236 245 203 236 
245 203 236 245 203 236 245 203 236 245 203 236 245 203 236 245 203 236 
245 203 236 245 203 236 245 203 236 245 203 236 245 203 236 245 203 236 
64  48  97  205 41  68  244 0   40  244 0   40  244 0   40  244 0   40  
244 0   40  243 0   39  188 0   30  30  0   4   0   0   0   0   0   0   
0   0   0   0   0   0   0   0   0   0   0   0   0   0   0   0   0   0   
14  0   2   150 0   24  243 0   39  244 0   40  244 0   40  244 0   40  
244 0   40  244 0   40  236 12  47  119 67  95  245 203 236 245 203 236 
245 203 236 245 203 236 245 203 236 245 203 236 245 203 236 245 203 236 
245 203 236 245 203 236 245 203 236 245 203 236 245 203 236 245 203 236 
245 203 236 245 203 236 245 203 236 245 203 236 
245 203 236 245 203 236 245 203 236 245 203 236 245 203 236 245 203 236 
245 203 236 245 203 236 245 203 236 245 203 236 245 203 236 245 203 236 
245 203 236 245 203 236 245 203 236 245 203 236 245 203 236 64  48  97  
206 42  69  244 0   40  244 0   40  244 0   40  244 0   40  244 0   40  
244 0   40  184 0   30  10  0   1   0   0   0   0   0   0   0   0   0   
0   0   0   0   0   0   0   0   0   0   0   0   0   0   0   0   0   0   
0   0   0   0   0   0   130 0   21  243 0   39  244 0   40  244 0   40  
244 0   40  244 0   40  244 0   40  237 12  48  119 66  94  245 203 236 
245 203 236 245 203 236 245 203 236 245 203 236 245 203 236 245 203 236 
245 203 236 245 203 236 245 203 236 245 203 236 245 203 236 245 203 236 
245 203 236 245 203 236 245 203 236 245 203 236 
245 203 236 245 203 236 245 203 236 245 203 236 245 203 236 245 203 236 
245 203 236 245 203 236 245 203 236 245 203 236 245 203 236 245 203 236 
245 203 236 245 203 236 245 203 236 245 203 236 60  45  94  207 44  71  
244 0   40  244 0   40  244 0   40  244 0   40  244 0   40  244 0   40  
230 0   37  28  0   4   0   0   0   0   0   0   0   0   0   0   0   0   
0   0   0   0   0   0   0   0   0   0   0   0   0   0   0   0   0   0   
0   0   0   0   0   0   4   0   0   178 0   29  244 0   40  244 0   40  
244 0   40  244 0   40  244 0   40  244 0   40  237 12  48  118 67  95  
245 203 236 245 203 236 245 203 236 245 203 236 245 203 236 245 203 236 
245 203 236 245 203 236 245 203 236 245 203 236 245 203 236 245 203 236 
245 203 236 245 203 236 245 203 236 245 203 236 
245 203 236 245 203 236 245 203 236 245 203 236 245 203 236 245 203 236 
245 203 236 245 203 236 245 203 236 245 203 236 245 203 236 245 203 236 
245 203 236 245 203 236 245 203 236 60  45  94  206 44  71  244 0   40  
244 0   40  244 0   40  244 0   40  244 0   40  244 0   40  244 0   40  
145 0   23  0   0   0   0   0   0   0   0   0   0   0   0   0   0   0   
0   0   0   0   0   0   0   0   0   0   0   0   0   0   0   0   0   0   
0   0   0   0   0   0   25  0   4   160 0   26  244 0   40  244 0   40  
244 0   40  244 0   40  244 0   40  244 0   40  244 0   40  236 13  48  
121 71  99  245 203 236 245 203 236 245 203 236 245 203 236 245 203 236 
245 203 236 245 203 236 245 203 236 245 203 236 245 203 236 245 203 236 
245 203 236 245 203 236 245 203 236 245 203 236 
245 203 236 245 203 236 245 203 236 245 203 236 245 203 236 245 203 236 
245 203 236 245 203 236 245 203 236 245 203 236 245 203 236 245 203 236 
245 203 236 245 203 236 61  45  94  205 44  71  244 0   40  244 0   40  
244 0   40  244 0   40  244 0   40  244 0   40  244 0   40  244 0   40  
84  0   13  0   0   0   0   0   0   0   0   0   0   0   0   6   0   1   
101 0   16  170 0   27  181 0   29  139 0   22  35  0   5   0   0   0   
28  0   4   140 0   22  234 0   38  244 0   40  244 0   40  244 0   40  
244 0   40  244 0   40  244 0   40  244 0   40  244 0   40  244 0   40  
237 14  49  116 67  94  245 203 236 245 203 236 245 203 236 245 203 236 
245 203 236 245 203 236 245 203 236 245 203 236 245 203 236 245 203 236 
245 203 236 245 203 236 245 203 236 245 203 236 
245 203 236 245 203 236 245 203 236 245 203 236 245 203 236 245 203 236 
245 203 236 245 203 236 245 203 236 245 203 236 245 203 236 245 203 236 
245 203 236 61  45  94  209 48  75  244 0   40  244 0   40  244 0   40  
244 0   40  244 0   40  244 0   40  244 0   40  244 0   40  244 0   40  
67  0   11  0   0   0   0   0   0   0   0   0   7   0   1   179 0   29  
243 0   39  244 0   40  244 0   40  244 0   40  231 0   37  158 0   25  
235 0   38  244 0   40  244 0   40  244 0   40  244 0   40  244 0   40  
244 0   40  244 0   40  244 0   40  244 0   40  244 0   40  244 0   40  
244 0   40  237 14  49  116 67  94  245 203 236 245 203 236 245 203 236 
245 203 236 245 203 236 245 203 236 245 203 236 245 203 236 245 203 236 
245 203 236 245 203 236 245 203 236 245 203 236 
245 203 236 245 203 236 245 203 236 245 203 236 245 203 236 245 203 236 
245 203 236 245 203 236 245 203 236 245 203 236 245 203 236 245 203 236 
57  42  92  207 47  74  244 0   40  244 0   40  244 0   40  244 0   40  
244 0   40  244 0   40  244 0   40  244 0   40  244 0   40  244 0   40  
87  0   14  0   0   0   0   0   0   0   0   0   87  0   14  244 0   40  
244 0   40  244 0   40  244 0   40  244 0   40  244 0   40  244 0   40  
244 0   40  244 0   40  244 0   40  244 0   40  244 0   40  244 0   40  
244 0   40  244 0   40  244 0   40  244 0   40  244 0   40  244 0   40  
244 0   40  244 0   40  237 14  49  117 68  97  245 203 236 245 203 236 
245 203 236 245 203 236 245 203 236 245 203 236 245 203 236 245 203 236 
245 203 236 245 203 236 245 203 236 245 203 236 
245 203 236 245 203 236 245 203 236 245 203 236 245 203 236 245 203 236 
245 203 236 245 203 236 245 203 236 245 203 236 245 203 236 56  41  91  
206 47  74  244 0   40  244 0   40  244 0   40  244 0   40  244 0   40  
244 0   40  244 0   40  244 0   40  244 0   40  244 0   40  244 0   40  
153 0   25  0   0   0   0   0   0   0   0   0   120 0   19  244 0   40  
244 0   40  244 0   40  244 0   40  244 0   40  244 0   40  244 0   40  
244 0   40  244 0   40  244 0   40  244 0   40  244 0   40  244 0   40  
244 0   40  244 0   40  244 0   40  244 0   40  244 0   40  244 0   40  
244 0   40  244 0   40  244 0   40  238 16  51  119 70  99  245 203 236 
245 203 236 245 203 236 245 203 236 245 203 236 245 203 236 245 203 236 
245 203 236 245 203 236 245 203 236 245 203 236 
245 203 236 245 203 236 245 203 236 245 203 236 245 203 236 245 203 236 
245 203 236 245 203 236 245 203 236 245 203 236 60  44  94  208 49  75  
244 0   40  244 0   40  244 0   40  244 0   40  244 0   40  244 0   40  
244 0   40  244 0   40  244 0   40  244 0   40  244 0   40  244 0   40  
235 0   38  42  0   6   0   0   0   0   0   0   63  0   10  242 0   39  
244 0   40  244 0   40  244 0   40  244 0   40  244 0   40  244 0   40  
244 0   40  244 0   40  244 0   40  244 0   40  244 0   40  244 0   40  
244 0   40  244 0   40  244 0   40  244 0   40  244 0   40  244 0   40  
244 0   40  244 0   40  244 0   40  244 0   40  238 16  51  115 67  94  
245 203 236 245 203 236 245 203 236 245 203 236 245 203 236 245 203 236 
245 203 236 245 203 236 245 203 236 245 203 236 
245 203 236 245 203 236 245 203 236 245 203 236 245 203 236 245 203 236 
245 203 236 245 203 236 245 203 236 78  65  108 211 52  78  244 0   40  
244 0   40  244 0   40  244 0   40  244 0   40  244 0   40  244 0   40  
244 0   40  244 0   40  244 0   40  244 0   40  244 0   40  244 0   40  
244 0   40  207 0   33  33  0   5   0   0   0   1   0   0   125 0   20  
241 0   39  244 0   40  244 0   40  244 0   40  244 0   40  244 0   40  
244 0   40  244 0   40  244 0   40  244 0   40  244 0   40  244 0   40  
244 0   40  244 0   40  244 0   40  244 0   40  244 0   40  244 0   40  
244 0   40  244 0   40  244 0   40  244 0   40  244 0   40  238 16  51  
113 65  94  245 203 236 245 203 236 245 203 236 245 203 236 245 203 236 
245 203 236 245 203 236 245 203 236 245 203 236 
245 203 236 245 203 236 245 203 236 245 203 236 245 203 236 245 203 236 
245 203 236 245 203 236 97  85  121 213 56  80  244 0   40  244 0   40  
244 0   40  244 0   40  244 0   40  244 0   40  244 0   40  244 0   40  
244 0   40  244 0   40  244 0   40  244 0   40  244 0   40  244 0   40  
244 0   40  244 0   40  228 0   37  108 0   17  11  0   1   0   0   0   
51  0   8   121 0   19  136 0   22  136 0   22  136 0   22  136 0   22  
136 0   22  136 0   22  186 0   30  244 0   40  244 0   40  244 0   40  
244 0   40  244 0   40  244 0   40  244 0   40  244 0   40  244 0   40  
244 0   40  244 0   40  244 0   40  244 0   40  244 0   40  244 0   40  
238 17  52  118 71  100 245 203 236 245 203 236 245 203 236 245 203 236 
245 203 236 245 203 236 245 203 236 245 203 236 
245 203 236 245 203 236 245 203 236 245 203 236 245 203 236 245 203 236 
245 203 236 98  86  122 213 56  81  244 0   40  244 0   40  244 0   40  
244 0   40  244 0   40  244 0   40  244 0   40  244 0   40  244 0   40  
244 0   40  244 0   40  244 0   40  244 0   40  244 0   40  244 0   40  
244 0   40  244 0   40  244 0   40  243 0   39  230 0   37  167 0   27  
120 0   19  81  0   13  67  0   11  51  0   8   0   0   0   0   0   0   
0   0   0   0   0   0   112 0   18  244 0   40  244 0   40  244 0   40  
244 0   40  244 0   40  244 0   40  244 0   40  244 0   40  244 0   40  
244 0   40  244 0   40  244 0   40  244 0   40  244 0   40  244 0   40  
244 0   40  239 18  53  129 81  107 245 203 236 245 203 236 245 203 236 
245 203 236 245 203 236 245 203 236 245 203 236 
245 203 236 245 203 236 245 203 236 245 203 236 245 203 236 245 203 236 
99  87  124 216 60  84  244 0   40  244 0   40  244 0   40  244 0   40  
244 0   40  244 0   40  244 0   40  244 0   40  244 0   40  244 0   40  
244 0   40  244 0   40  244 0   40  244 0   40  244 0   40  244 0   40  
244 0   40  244 0   40  244 0   40  244 0   40  244 0   40  244 0   40  
244 0   40  244 0   40  244 0   40  221 0   36  2   0   0   0   0   0   
0   0   0   0   0   0   112 0   18  244 0   40  244 0   40  244 0   40  
244 0   40  244 0   40  244 0   40  244 0   40  244 0   40  244 0   40  
244 0   40  244 0   40  244 0   40  244 0   40  244 0   40  244 0   40  
244 0   40  244 0   40  239 18  53  144 99  118 245 203 236 245 203 236 
245 203 236 245 203 236 245 203 236 245 203 236 
245 203 236 245 203 236 245 203 236 245 203 236 245 203 236 95  84  121 
216 61  85  244 0   40  244 0   40  244 0   40  244 0   40  244 0   40  
244 0   40  244 0   40  244 0   40  244 0   40  244 0   40  244 0   40  
244 0   40  244 0   40  244 0   40  244 0   40  244 0   40  244 0   40  
244 0   40  244 0   40  244 0   40  244 0   40  244 0   40  244 0   40  
244 0   40  244 0   40  244 0   40  211 0   34  1   0   0   0   0   0   
0   0   0   0   0   0   112 0   18  244 0   40  244 0   40  244 0   40  
244 0   40  244 0   40  244 0   40  244 0   40  244 0   40  244 0   40  
244 0   40  244 0   40  244 0   40  244 0   40  244 0   40  244 0   40  
244 0   40  244 0   40  244 0   40  238 18  53  147 102 121 245 203 236 
245 203 236 245 203 236 245 203 236 245 203 236 
245 203 236 245 203 236 245 203 236 245 203 236 94  82  119 214 59  83  
244 0   40  244 0   40  244 0   40  244 0   40  244 0   40  244 0   40  
244 0   40  244 0   40  244 0   40  244 0   40  244 0   40  244 0   40  
244 0   40  244 0   40  244 0   40  244 0   40  244 0   40  244 0   40  
244 0   40  244 0   40  244 0   40  244 0   40  244 0   40  244 0   40  
244 0   40  244 0   40  244 0   40  184 0   30  0   0   0   0   0   0   
0   0   0   0   0   0   112 0   18  244 0   40  244 0   40  244 0   40  
244 0   40  244 0   40  244 0   40  244 0   40  244 0   40  244 0   40  
244 0   40  244 0   40  244 0   40  244 0   40  244 0   40  244 0   40  
244 0   40  244 0   40  244 0   40  244 0   40  240 19  54  150 105 125 
245 203 236 245 203 236 245 203 236 245 203 236 
245 203 236 245 203 236 245 203 236 95  70  110 215 48  74  244 0   40  
244 0   40  244 0   40  244 0   40  244 0   40  244 0   40  244 0   40  
244 0   40  244 0   40  244 0   40  244 0   40  244 0   40  244 0   40  
244 0   40  244 0   40  244 0   40  244 0   40  244 0   40  244 0   40  
244 0   40  244 0   40  244 0   40  244 0   40  244 0   40  244 0   40  
244 0   40  244 0   40  240 0   39  83  0   13  0   0   0   0   0   0   
0   0   0   0   0   0   112 0   18  244 0   40  244 0   40  244 0   40  
244 0   40  244 0   40  244 0   40  244 0   40  244 0   40  244 0   40  
244 0   40  244 0   40  244 0   40  244 0   40  244 0   40  244 0   40  
244 0   40  244 0   40  244 0   40  244 0   40  244 0   40  240 20  55  
147 103 122 245 203 236 245 203 236 245 203 236 
245 203 236 245 203 236 94  70  110 215 23  53  244 0   40  244 0   40  
244 0   40  244 0   40  244 0   40  244 0   40  244 0   40  244 0   40  
244 0   40  244 0   40  244 0   40  244 0   40  244 0   40  244 0   40  
244 0   40  244 0   40  244 0   40  244 0   40  244 0   40  244 0   40  
235 0   38  151 0   24  149 0   24  149 0   24  149 0   24  149 0   24  
149 0   24  132 0   21  57  0   9   0   0   0   0   0   0   0   0   0   
0   0   0   0   0   0   112 0   18  244 0   40  244 0   40  244 0   40  
244 0   40  244 0   40  244 0   40  244 0   40  244 0   40  244 0   40  
244 0   40  244 0   40  244 0   40  244 0   40  244 0   40  244 0   40  
244 0   40  244 0   40  244 0   40  244 0   40  244 0   40  244 0   40  
240 20  55  142 100 120 245 203 236 245 203 236 
245 203 236 245 203 236 215 24  54  244 0   40  244 0   40  244 0   40  
244 0   40  244 0   40  244 0   40  244 0   40  244 0   40  244 0   40  
244 0   40  244 0   40  244 0   40  244 0   40  244 0   40  244 0   40  
244 0   40  244 0   40  244 0   40  244 0   40  244 0   40  244 0   40  
221 0   36  5   0   0   0   0   0   0   0   0   0   0   0   0   0   0   
0   0   0   0   0   0   0   0   0   0   0   0   0   0   0   0   0   0   
0   0   0   0   0   0   112 0   18  244 0   40  244 0   40  244 0   40  
244 0   40  244 0   40  244 0   40  244 0   40  244 0   40  244 0   40  
244 0   40  244 0   40  244 0   40  244 0   40  244 0   40  244 0   40  
244 0   40  244 0   40  244 0   40  244 0   40  244 0   40  244 0   40  
244 0   40  240 14  50  116 44  79  245 203 236 
245 203 236 245 203 236 244 0   40  244 0   40  244 0   40  244 0   40  
244 0   40  244 0   40  244 0   40  244 0   40  244 0   40  244 0   40  
244 0   40  244 0   40  244 0   40  244 0   40  244 0   40  244 0   40  
244 0   40  244 0   40  244 0   40  244 0   40  244 0   40  244 0   40  
230 0   37  104 0   17  100 0   16  100 0   16  100 0   16  100 0   16  
100 0   16  100 0   16  100 0   16  100 0   16  100 0   16  100 0   16  
100 0   16  100 0   16  167 0   27  244 0   40  244 0   40  244 0   40  
244 0   40  244 0   40  244 0   40  244 0   40  244 0   40  244 0   40  
244 0   40  244 0   40  244 0   40  244 0   40  244 0   40  244 0   40  
244 0   40  244 0   40  244 0   40  244 0   40  244 0   40  244 0   40  
244 0   40  244 0   40  132 3   43  245 203 236 
245 203 236 245 203 236 244 0   40  244 0   40  244 0   40  244 0   40  
244 0   40  244 0   40  244 0   40  244 0   40  244 0   40  244 0   40  
244 0   40  244 0   40  244 0   40  244 0   40  244 0   40  244 0   40  
244 0   40  244 0   40  244 0   40  244 0   40  244 0   40  244 0   40  
244 0   40  244 0   40  244 0   40  244 0   40  244 0   40  244 0   40  
244 0   40  244 0   40  244 0   40  244 0   40  244 0   40  244 0   40  
244 0   40  244 0   40  244 0   40  244 0   40  244 0   40  244 0   40  
244 0   40  244 0   40  244 0   40  244 0   40  244 0   40  244 0   40  
244 0   40  244 0   40  244 0   40  244 0   40  244 0   40  244 0   40  
244 0   40  244 0   40  244 0   40  244 0   40  244 0   40  244 0   40  
244 0   40  244 0   40  132 3   43  245 203 236 
245 203 236 245 203 236 244 0   40  244 0   40  244 0   40  244 0   40  
244 0   40  244 0   40  244 0   40  244 0   40  244 0   40  244 0   40  
244 0   40  244 0   40  244 0   40  244 0   40  244 0   40  244 0   40  
244 0   40  244 0   40  244 0   40  244 0   40  244 0   40  244 0   40  
244 0   40  244 0   40  244 0   40  244 0   40  244 0   40  244 0   40  
244 0   40  244 0   40  244 0   40  244 0   40  244 0   40  244 0   40  
244 0   40  244 0   40  244 0   40  244 0   40  244 0   40  244 0   40  
244 0   40  244 0   40  244 0   40  244 0   40  244 0   40  244 0   40  
244 0   40  244 0   40  244 0   40  244 0   40  244 0   40  244 0   40  
244 0   40  244 0   40  244 0   40  244 0   40  244 0   40  244 0   40  
244 0   40  244 0   40  132 3   43  245 203 236 
245 203 236 245 203 236 244 0   40  244 0   40  241 0   39  219 0   35  
244 0   40  244 0   40  244 0   40  244 0   40  244 0   40  244 0   40  
244 0   40  244 0   40  244 0   40  244 0   40  244 0   40  244 0   40  
244 0   40  244 0   40  244 0   40  244 0   40  244 0   40  244 0   40  
244 0   40  244 0   40  244 0   40  244 0   40  244 0   40  244 0   40  
244 0   40  244 0   40  244 0   40  244 0   40  244 0   40  244 0   40  
244 0   40  244 0   40  244 0   40  244 0   40  244 0   40  244 0   40  
243 0   38  244 0   39  244 0   39  243 0   39  244 0   40  244 0   40  
244 0   40  244 0   40  244 0   40  244 0   40  244 0   39  244 0   39  
242 0   39  225 0   35  218 0   34  234 0   37  244 0   39  243 0   39  
244 0   40  244 0   40  132 3   43  245 203 236 
245 203 236 245 203 236 244 0   40  229 0   37  80  0   13  37  0   6   
238 0   39  244 0   40  244 0   40  244 0   40  244 0   40  244 0   40  
237 0   39  221 0   36  221 0   36  221 0   36  221 0   36  221 0   36  
221 0   36  221 0   36  227 0   37  244 0   40  244 0   40  244 0   40  
244 0   40  244 0   40  244 0   40  244 0   40  244 0   40  244 0   40  
244 0   40  244 0   40  244 0   40  244 0   40  244 0   40  244 0   40  
244 0   40  244 0   40  244 0   40  244 0   40  244 0   40  244 0   40  
236 0   38  143 0   23  144 0   23  241 0   38  244 0   40  244 0   40  
244 0   40  244 0   40  244 0   40  244 0   39  240 0   39  145 0   23  
43  0   7   8   0   1   5   0   0   17  0   2   83  0   13  204 0   33  
244 0   39  244 0   39  132 3   43  245 203 236 
245 203 236 245 203 236 234 0   38  56  0   9   0   0   0   0   0   0   
154 0   25  244 0   40  244 0   40  244 0   40  244 0   40  244 0   40  
178 0   29  0   0   0   0   0   0   0   0   0   0   0   0   0   0   0   
0   0   0   0   0   0   65  0   10  244 0   40  244 0   40  244 0   40  
244 0   40  244 0   40  244 0   40  244 0   40  244 0   40  244 0   40  
244 0   40  244 0   40  244 0   40  244 0   40  244 0   40  244 0   40  
244 0   40  244 0   40  244 0   40  244 0   40  244 0   40  244 0   40  
226 0   37  9   0   1   11  0   1   239 0   38  244 0   40  244 0   40  
244 0   40  244 0   40  244 0   39  239 0   38  86  0   14  0   0   0   
0   0   0   0   0   0   0   0   0   0   0   0   0   0   0   12  0   2   
166 0   27  244 0   39  132 3   43  245 203 236 
245 203 236 153 4   58  102 0   16  0   0   0   0   0   0   0   0   0   
39  0   6   239 0   39  244 0   40  244 0   40  244 0   40  244 0   40  
178 0   29  0   0   0   0   0   0   0   0   0   0   0   0   0   0   0   
0   0   0   0   0   0   65  0   10  244 0   40  244 0   40  244 0   40  
244 0   40  244 0   40  244 0   40  244 0   40  244 0   40  244 0   40  
244 0   40  244 0   40  244 0   40  244 0   40  244 0   40  244 0   40  
244 0   40  244 0   40  244 0   40  244 0   40  244 0   40  244 0   40  
226 0   37  9   0   1   11  0   1   239 0   38  244 0   40  244 0   40  
244 0   40  244 0   40  244 0   38  122 0   20  0   0   0   0   0   0   
0   0   0   0   0   0   0   0   0   0   0   0   0   0   0   0   0   0   
7   0   1   188 0   30  163 2   41  245 203 236 
245 203 236 198 0   35  6   0   1   0   0   0   0   0   0   0   0   0   
0   0   0   160 0   26  244 0   40  244 0   40  244 0   40  244 0   40  
178 0   29  0   0   0   0   0   0   0   0   0   0   0   0   0   0   0   
0   0   0   0   0   0   65  0   10  244 0   40  244 0   40  244 0   40  
244 0   40  244 0   40  244 0   40  244 0   40  244 0   40  244 0   40  
244 0   40  244 0   40  244 0   40  244 0   40  244 0   40  244 0   40  
244 0   40  244 0   40  244 0   40  244 0   40  244 0   40  244 0   40  
226 0   37  9   0   1   11  0   1   239 0   38  244 0   40  244 0   40  
244 0   40  243 0   39  219 0   35  11  0   1   0   0   0   0   0   0   
0   0   0   0   0   0   0   0   0   0   0   0   0   0   0   0   0   0   
0   0   0   41  0   6   217 0   38  245 203 236 
169 57  101 115 0   18  0   0   0   0   0   0   0   0   0   0   0   0   
0   0   0   152 0   25  244 0   40  244 0   40  244 0   40  244 0   40  
178 0   29  0   0   0   0   0   0   0   0   0   0   0   0   0   0   0   
0   0   0   0   0   0   65  0   10  244 0   40  244 0   40  244 0   40  
244 0   40  244 0   40  244 0   40  244 0   40  244 0   40  244 0   40  
244 0   40  244 0   40  244 0   40  244 0   40  244 0   40  244 0   40  
244 0   40  244 0   40  244 0   40  244 0   40  244 0   40  244 0   40  
226 0   37  9   0   1   11  0   1   239 0   38  244 0   40  244 0   40  
244 0   40  244 0   39  134 0   22  0   0   0   39  0   6   154 0   25  
181 0   29  120 0   19  9   0   1   0   0   0   0   0   0   0   0   0   
0   0   0   0   0   0   161 0   26  83  8   72  
217 55  91  54  0   8   0   0   0   0   0   0   0   0   0   0   0   0   
54  0   9   242 0   39  244 0   40  244 0   40  244 0   40  244 0   40  
178 0   29  10  0   1   106 0   17  100 0   16  76  0   12  15  0   2   
0   0   0   0   0   0   65  0   10  244 0   40  244 0   40  244 0   40  
244 0   40  244 0   40  244 0   40  244 0   40  244 0   40  244 0   40  
244 0   40  244 0   40  244 0   40  244 0   40  244 0   40  244 0   40  
244 0   40  244 0   40  244 0   40  244 0   40  244 0   40  244 0   40  
226 0   37  9   0   1   11  0   1   239 0   38  244 0   40  244 0   40  
244 0   40  243 0   39  68  0   11  34  0   5   223 0   35  243 0   39  
243 0   39  243 0   39  162 0   26  2   0   0   0   0   0   0   0   0   
0   0   0   0   0   0   91  0   15  140 5   60  
243 54  85  21  0   3   0   0   0   0   0   0   0   0   0   0   0   0   
127 0   20  244 0   40  244 0   40  244 0   40  244 0   40  244 0   40  
178 0   29  31  0   5   241 0   39  244 0   40  244 0   40  216 0   35  
33  0   5   0   0   0   65  0   10  244 0   40  244 0   40  244 0   40  
244 0   40  244 0   40  244 0   40  244 0   40  244 0   40  244 0   40  
244 0   40  244 0   40  244 0   40  244 0   40  244 0   40  244 0   40  
244 0   40  244 0   40  244 0   40  244 0   40  244 0   40  244 0   40  
226 0   37  9   0   1   10  0   1   239 0   39  244 0   40  244 0   40  
244 0   40  240 0   39  27  0   4   153 0   25  243 0   39  244 0   40  
244 0   40  244 0   40  242 0   38  56  0   9   0   0   0   0   0   0   
0   0   0   0   0   0   42  0   6   181 3   52  
243 48  79  14  0   2   0   0   0   0   0   0   0   0   0   0   0   0   
143 0   23  244 0   40  244 0   40  244 0   40  244 0   40  244 0   40  
173 0   28  41  0   6   243 0   39  244 0   40  244 0   40  244 0   40  
140 0   23  0   0   0   65  0   10  244 0   40  244 0   40  244 0   40  
244 0   40  244 0   40  244 0   40  244 0   40  244 0   40  244 0   40  
244 0   40  244 0   40  244 0   40  244 0   40  244 0   40  244 0   40  
244 0   40  244 0   40  244 0   40  244 0   40  244 0   40  244 0   40  
226 0   37  9   0   1   0   0   0   223 0   36  244 0   39  244 0   40  
244 0   39  235 0   38  0   0   0   214 0   34  243 0   39  244 0   40  
244 0   40  244 0   40  243 0   39  111 0   18  0   0   0   0   0   0   
0   0   0   0   0   0   22  0   3   196 2   48  
237 55  87  28  0   4   0   0   0   0   0   0   0   0   0   0   0   0   
102 0   16  244 0   40  244 0   40  244 0   40  244 0   40  244 0   40  
128 0   21  66  0   10  244 0   40  244 0   40  244 0   40  244 0   40  
179 0   29  0   0   0   65  0   10  244 0   40  244 0   40  244 0   40  
244 0   40  244 0   40  244 0   40  244 0   40  244 0   40  244 0   40  
244 0   40  244 0   40  244 0   40  244 0   40  244 0   40  244 0   40  
244 0   40  244 0   40  244 0   40  244 0   40  244 0   40  244 0   40  
226 0   37  9   0   1   0   0   0   130 0   21  242 0   39  243 0   39  
243 0   39  222 0   35  0   0   0   229 0   36  244 0   39  244 0   40  
244 0   40  244 0   40  243 0   39  110 0   18  0   0   0   0   0   0   
0   0   0   0   0   0   24  0   3   195 2   49  
206 56  93  69  0   11  0   0   0   0   0   0   0   0   0   0   0   0   
17  0   2   218 0   35  244 0   40  244 0   40  244 0   40  225 0   37  
29  0   4   108 0   17  244 0   40  244 0   40  244 0   40  244 0   40  
186 0   30  0   0   0   65  0   10  244 0   40  244 0   40  244 0   40  
244 0   40  244 0   40  244 0   40  244 0   40  244 0   40  244 0   40  
244 0   40  244 0   40  244 0   40  244 0   40  244 0   40  244 0   40  
244 0   40  244 0   40  244 0   40  244 0   40  244 0   40  244 0   40  
226 0   37  9   0   1   0   0   0   3   0   0   95  0   15  161 0   26  
177 0   29  161 0   26  0   0   0   229 0   36  244 0   39  244 0   40  
244 0   40  244 0   40  242 0   39  57  0   9   0   0   0   0   0   0   
0   0   0   0   0   0   48  0   7   175 3   53  
152 58  105 134 0   22  0   0   0   0   0   0   0   0   0   0   0   0   
0   0   0   46  0   7   188 0   30  236 0   38  193 0   31  54  0   8   
0   0   0   167 0   27  244 0   40  244 0   40  244 0   40  244 0   40  
186 0   30  0   0   0   65  0   10  244 0   40  244 0   40  244 0   40  
244 0   40  244 0   40  244 0   40  244 0   40  244 0   40  244 0   40  
244 0   40  244 0   40  244 0   40  244 0   40  244 0   40  244 0   40  
244 0   40  244 0   40  244 0   40  244 0   40  244 0   40  244 0   40  
226 0   37  9   0   1   0   0   0   0   0   0   0   0   0   0   0   0   
0   0   0   0   0   0   0   0   0   229 0   36  244 0   39  244 0   40  
244 0   40  242 0   39  173 0   28  2   0   0   0   0   0   0   0   0   
0   0   0   0   0   0   100 0   16  133 5   61  
245 203 236 205 0   40  17  0   2   0   0   0   0   0   0   0   0   0   
0   0   0   0   0   0   0   0   0   0   0   0   0   0   0   0   0   0   
22  0   3   235 0   38  244 0   40  244 0   40  244 0   40  244 0   40  
186 0   30  0   0   0   65  0   10  244 0   40  244 0   40  244 0   40  
244 0   40  244 0   40  244 0   40  244 0   40  244 0   40  244 0   40  
244 0   40  244 0   40  244 0   40  244 0   40  244 0   40  244 0   40  
244 0   40  244 0   40  244 0   40  244 0   40  244 0   40  244 0   40  
226 0   37  9   0   1   0   0   0   0   0   0   0   0   0   0   0   0   
0   0   0   0   0   0   0   0   0   229 0   36  244 0   39  244 0   40  
244 0   40  243 0   38  95  0   15  0   0   0   0   0   0   0   0   0   
0   0   0   0   0   0   183 0   29  69  8   75  
245 203 236 120 5   63  148 0   24  0   0   0   0   0   0   0   0   0   
0   0   0   0   0   0   0   0   0   0   0   0   0   0   0   0   0   0   
139 0   22  244 0   40  244 0   40  244 0   40  244 0   40  244 0   40  
186 0   30  0   0   0   65  0   10  244 0   40  244 0   40  244 0   40  
244 0   40  244 0   40  244 0   40  244 0   40  244 0   40  244 0   40  
244 0   40  244 0   40  244 0   40  244 0   40  244 0   40  244 0   40  
244 0   40  244 0   40  244 0   40  244 0   40  244 0   40  244 0   40  
226 0   37  9   0   1   0   0   0   0   0   0   0   0   0   0   0   0   
0   0   0   0   0   0   0   0   0   229 0   36  244 0   39  244 0   40  
244 0   40  244 0   39  203 0   32  5   0   0   0   0   0   0   0   0   
0   0   0   64  0   10  212 0   40  245 203 236 
245 203 236 245 203 236 243 0   39  116 0   19  1   0   0   0   0   0   
0   0   0   0   0   0   0   0   0   0   0   0   0   0   0   87  0   14  
240 0   39  244 0   40  244 0   40  244 0   40  244 0   40  244 0   40  
186 0   30  0   0   0   65  0   10  244 0   40  244 0   40  244 0   40  
244 0   40  244 0   40  244 0   40  244 0   40  244 0   40  244 0   40  
244 0   40  244 0   40  244 0   40  244 0   40  244 0   40  244 0   40  
244 0   40  244 0   40  244 0   40  244 0   40  244 0   40  244 0   40  
226 0   37  9   0   1   0   0   0   0   0   0   0   0   0   0   0   0   
0   0   0   0   0   0   0   0   0   229 0   36  244 0   39  244 0   40  
244 0   40  244 0   40  243 0   39  83  0   13  0   0   0   0   0   0   
17  0   2   208 0   33  153 2   41  245 203 236 
245 203 236 245 203 236 244 0   40  243 0   39  162 0   26  40  0   6   
0   0   0   0   0   0   0   0   0   23  0   3   131 0   21  240 0   39  
244 0   40  244 0   40  244 0   40  244 0   40  244 0   40  244 0   40  
211 0   34  107 0   17  144 0   23  244 0   40  244 0   40  244 0   40  
244 0   40  244 0   40  244 0   40  244 0   40  244 0   40  244 0   40  
244 0   40  244 0   40  244 0   40  244 0   40  244 0   40  244 0   40  
244 0   40  244 0   40  244 0   40  244 0   40  244 0   40  244 0   40  
235 0   38  138 0   22  133 0   21  133 0   21  133 0   21  133 0   21  
133 0   21  133 0   21  133 0   21  236 0   38  244 0   39  244 0   40  
244 0   40  244 0   40  243 0   39  199 0   31  3   0   0   23  0   3   
187 0   30  244 0   38  132 3   43  245 203 236 
245 203 236 245 203 236 244 0   40  244 0   40  244 0   40  241 0   39  
210 0   34  188 0   30  202 0   33  238 0   39  244 0   40  244 0   40  
244 0   40  244 0   40  244 0   40  244 0   40  244 0   40  244 0   40  
244 0   40  244 0   40  244 0   40  244 0   40  244 0   40  244 0   40  
244 0   40  244 0   40  244 0   40  244 0   40  244 0   40  244 0   40  
244 0   40  244 0   40  244 0   40  244 0   40  244 0   40  244 0   40  
244 0   40  244 0   40  244 0   40  244 0   40  244 0   40  244 0   40  
244 0   39  243 0   39  243 0   39  243 0   39  243 0   39  243 0   39  
243 0   39  243 0   39  243 0   39  244 0   39  244 0   39  244 0   40  
244 0   40  244 0   40  244 0   40  242 0   38  138 0   22  215 0   34  
243 0   38  244 0   40  132 3   43  245 203 236 
245 203 236 245 203 236 244 0   40  244 0   40  244 0   40  244 0   40  
244 0   40  244 0   40  244 0   40  244 0   40  244 0   40  244 0   40  
244 0   40  244 0   40  244 0   40  244 0   40  244 0   40  244 0   40  
244 0   40  244 0   40  244 0   40  244 0   40  244 0   40  244 0   40  
244 0   40  244 0   40  244 0   40  244 0   40  244 0   40  244 0   40  
244 0   40  244 0   40  244 0   40  244 0   40  244 0   40  244 0   40  
244 0   40  244 0   40  244 0   40  244 0   40  244 0   40  244 0   40  
244 0   40  244 0   40  244 0   40  244 0   40  244 0   40  244 0   40  
244 0   40  244 0   40  244 0   40  244 0   40  244 0   40  244 0   40  
244 0   40  244 0   40  244 0   40  243 0   39  243 0   38  243 0   39  
244 0   40  244 0   40  132 3   43  245 203 236 
245 203 236 245 203 236 244 0   40  244 0   40  244 0   40  244 0   40  
244 0   40  244 0   40  244 0   40  244 0   40  244 0   40  244 0   40  
244 0   40  244 0   40  244 0   40  244 0   40  244 0   40  244 0   40  
244 0   40  244 0   40  244 0   40  244 0   40  244 0   40  244 0   40  
244 0   40  244 0   40  244 0   40  244 0   40  244 0   40  244 0   40  
244 0   40  244 0   40  244 0   40  244 0   40  244 0   40  244 0   40  
244 0   40  244 0   40  244 0   40  244 0   40  244 0   40  244 0   40  
244 0   40  244 0   40  244 0   40  244 0   40  244 0   40  244 0   40  
244 0   40  244 0   40  244 0   40  244 0   40  244 0   40  244 0   40  
244 0   40  244 0   40  244 0   40  244 0   40  244 0   40  244 0   40  
244 0   40  244 0   40  132 3   43  245 203 236 
245 203 236 245 203 236 244 0   40  244 0   40  244 0   40  244 0   40  
244 0   40  244 0   40  244 0   40  244 0   40  244 0   40  244 0   40  
244 0   40  244 0   40  244 0   40  244 0   40  244 0   40  244 0   40  
244 0   40  244 0   40  244 0   40  244 0   40  244 0   40  244 0   40  
244 0   40  244 0   40  244 0   40  244 0   40  244 0   40  244 0   40  
244 0   40  244 0   40  244 0   40  244 0   40  244 0   40  244 0   40  
244 0   40  244 0   40  244 0   40  244 0   40  244 0   40  244 0   40  
244 0   40  244 0   40  244 0   40  244 0   40  244 0   40  244 0   40  
244 0   40  244 0   40  244 0   40  244 0   40  244 0   40  244 0   40  
244 0   40  244 0   40  244 0   40  244 0   40  244 0   40  244 0   40  
244 0   40  244 0   40  132 3   43  245 203 236 
245 203 236 245 203 236 244 0   40  244 0   40  244 0   40  244 0   40  
244 0   40  244 0   40  244 0   40  244 0   40  244 0   40  244 0   40  
244 0   40  244 0   40  244 0   40  244 0   40  244 0   40  244 0   40  
244 0   40  244 0   40  244 0   40  244 0   40  244 0   40  244 0   40  
244 0   40  138 0   22  48  0   7   48  0   7   48  0   7   48  0   7   
48  0   7   48  0   7   48  0   7   48  0   7   48  0   7   48  0   7   
48  0   7   48  0   7   53  0   8   226 0   37  244 0   40  244 0   40  
244 0   40  244 0   40  244 0   40  244 0   40  244 0   40  244 0   40  
244 0   40  244 0   40  244 0   40  244 0   40  244 0   40  244 0   40  
244 0   40  244 0   40  244 0   40  244 0   40  244 0   40  244 0   40  
244 0   40  244 0   40  132 3   43  245 203 236 
245 203 236 245 203 236 197 44  70  244 0   40  244 0   40  244 0   40  
244 0   40  244 0   40  244 0   40  244 0   40  244 0   40  244 0   40  
244 0   40  244 0   40  244 0   40  244 0   40  244 0   40  244 0   40  
244 0   40  244 0   40  244 0   40  244 0   40  244 0   40  244 0   40  
244 0   40  112 0   18  0   0   0   0   0   0   0   0   0   0   0   0   
0   0   0   0   0   0   0   0   0   0   0   0   0   0   0   0   0   0   
0   0   0   0   0   0   5   0   0   221 0   36  244 0   40  244 0   40  
244 0   40  244 0   40  244 0   40  244 0   40  244 0   40  244 0   40  
244 0   40  244 0   40  244 0   40  244 0   40  244 0   40  244 0   40  
244 0   40  244 0   40  244 0   40  244 0   40  244 0   40  244 0   40  
244 0   40  229 10  45  103 56  93  245 203 236 
245 203 236 245 203 236 65  51  103 198 44  70  244 0   40  244 0   40  
244 0   40  244 0   40  244 0   40  244 0   40  244 0   40  244 0   40  
244 0   40  244 0   40  244 0   40  244 0   40  244 0   40  244 0   40  
244 0   40  244 0   40  244 0   40  244 0   40  244 0   40  244 0   40  
244 0   40  112 0   18  0   0   0   0   0   0   0   0   0   0   0   0   
3   0   0   101 0   16  179 0   29  199 0   32  201 0   33  201 0   33  
201 0   33  201 0   33  202 0   33  240 0   39  244 0   40  244 0   40  
244 0   40  244 0   40  244 0   40  244 0   40  244 0   40  244 0   40  
244 0   40  244 0   40  244 0   40  244 0   40  244 0   40  244 0   40  
244 0   40  244 0   40  244 0   40  244 0   40  244 0   40  244 0   40  
229 9   44  114 70  101 245 203 236 245 203 236 
245 203 236 245 203 236 245 203 236 67  52  104 194 40  66  244 0   40  
244 0   40  244 0   40  244 0   40  244 0   40  244 0   40  244 0   40  
244 0   40  244 0   40  244 0   40  244 0   40  244 0   40  244 0   40  
244 0   40  244 0   40  244 0   40  244 0   40  244 0   40  244 0   40  
244 0   40  112 0   18  0   0   0   0   0   0   0   0   0   0   0   0   
114 0   18  243 0   39  244 0   40  244 0   40  244 0   40  244 0   40  
244 0   40  244 0   40  244 0   40  244 0   40  244 0   40  244 0   40  
244 0   40  244 0   40  244 0   40  244 0   40  244 0   40  244 0   40  
244 0   40  244 0   40  244 0   40  244 0   40  244 0   40  244 0   40  
244 0   40  244 0   40  244 0   40  244 0   40  244 0   40  230 10  45  
121 75  105 245 203 236 245 203 236 245 203 236 
245 203 236 245 203 236 245 203 236 245 203 236 66  50  101 193 38  64  
244 0   40  244 0   40  244 0   40  244 0   40  244 0   40  244 0   40  
244 0   40  244 0   40  244 0   40  244 0   40  244 0   40  244 0   40  
244 0   40  244 0   40  244 0   40  244 0   40  244 0   40  244 0   40  
244 0   40  112 0   18  0   0   0   0   0   0   0   0   0   0   0   0   
196 0   32  244 0   40  244 0   40  244 0   40  244 0   40  244 0   40  
244 0   40  244 0   40  244 0   40  244 0   40  244 0   40  244 0   40  
244 0   40  244 0   40  244 0   40  244 0   40  244 0   40  244 0   40  
244 0   40  244 0   40  244 0   40  244 0   40  244 0   40  244 0   40  
244 0   40  244 0   40  244 0   40  244 0   40  230 9   44  123 76  105 
245 203 236 245 203 236 245 203 236 245 203 236 
245 203 236 245 203 236 245 203 236 245 203 236 245 203 236 67  53  104 
196 41  67  244 0   40  244 0   40  244 0   40  244 0   40  244 0   40  
244 0   40  244 0   40  244 0   40  244 0   40  244 0   40  244 0   40  
244 0   40  244 0   40  244 0   40  244 0   40  244 0   40  244 0   40  
244 0   40  112 0   18  0   0   0   0   0   0   0   0   0   2   0   0   
216 0   35  244 0   40  244 0   40  244 0   40  244 0   40  244 0   40  
244 0   40  244 0   40  244 0   40  244 0   40  244 0   40  244 0   40  
244 0   40  244 0   40  244 0   40  244 0   40  244 0   40  244 0   40  
244 0   40  244 0   40  244 0   40  244 0   40  244 0   40  244 0   40  
244 0   40  244 0   40  244 0   40  229 36  66  119 87  115 245 203 236 
245 203 236 245 203 236 245 203 236 245 203 236 
245 203 236 245 203 236 245 203 236 245 203 236 245 203 236 245 203 236 
70  55  106 197 43  69  243 2   40  244 0   40  244 0   40  244 0   40  
244 0   40  244 0   40  244 0   40  244 0   40  244 0   40  244 0   40  
244 0   40  244 0   40  244 0   40  244 0   40  244 0   40  244 0   40  
244 0   40  112 0   18  0   0   0   0   0   0   0   0   0   2   0   0   
217 0   35  239 0   39  243 0   39  244 0   40  244 0   40  244 0   40  
244 0   40  244 0   40  244 0   40  244 0   40  244 0   40  244 0   40  
244 0   40  244 0   40  244 0   40  244 0   40  244 0   40  244 0   40  
244 0   40  244 0   40  244 0   40  244 0   40  244 0   40  244 0   40  
244 0   40  244 0   40  230 36  67  119 97  122 245 203 236 245 203 236 
245 203 236 245 203 236 245 203 236 245 203 236 
245 203 236 245 203 236 245 203 236 245 203 236 245 203 236 245 203 236 
245 203 236 69  58  108 195 85  103 243 1   39  244 0   40  244 0   40  
244 0   40  244 0   40  244 0   40  244 0   40  244 0   40  244 0   40  
244 0   40  244 0   40  244 0   40  244 0   40  244 0   40  244 0   40  
244 0   40  112 0   18  0   0   0   0   0   0   0   0   0   0   0   0   
17  0   2   25  0   4   37  0   6   75  0   12  122 0   20  197 0   32  
243 0   39  244 0   40  244 0   40  244 0   40  244 0   40  244 0   40  
244 0   40  244 0   40  244 0   40  244 0   40  244 0   40  244 0   40  
244 0   40  244 0   40  244 0   40  244 0   40  244 0   40  244 0   40  
244 0   40  230 36  67  125 102 127 245 203 236 245 203 236 245 203 236 
245 203 236 245 203 236 245 203 236 245 203 236 
245 203 236 245 203 236 245 203 236 245 203 236 245 203 236 245 203 236 
245 203 236 245 203 236 68  57  107 195 86  104 244 0   40  244 0   40  
244 0   40  244 0   40  244 0   40  244 0   40  244 0   40  244 0   40  
244 0   40  244 0   40  244 0   40  244 0   40  244 0   40  244 0   40  
244 0   40  214 0   35  188 0   30  188 0   30  188 0   30  188 0   30  
188 0   30  187 0   30  166 0   27  92  0   15  3   0   0   0   0   0   
64  0   10  204 0   33  244 0   40  244 0   40  244 0   40  244 0   40  
244 0   40  244 0   40  244 0   40  244 0   40  244 0   40  244 0   40  
244 0   40  244 0   40  244 0   40  244 0   40  244 0   40  244 0   40  
229 34  65  125 103 128 245 203 236 245 203 236 245 203 236 245 203 236 
245 203 236 245 203 236 245 203 236 245 203 236 
245 203 236 245 203 236 245 203 236 245 203 236 245 203 236 245 203 236 
245 203 236 245 203 236 245 203 236 72  60  110 199 88  106 243 2   40  
244 0   40  244 0   40  244 0   40  244 0   40  244 0   40  244 0   40  
244 0   40  244 0   40  244 0   40  244 0   40  244 0   40  244 0   40  
244 0   40  244 0   40  244 0   40  244 0   40  244 0   40  244 0   40  
244 0   40  244 0   40  244 0   40  243 0   39  163 0   26  4   0   0   
0   0   0   13  0   2   183 0   30  244 0   40  244 0   40  244 0   40  
244 0   40  244 0   40  244 0   40  244 0   40  244 0   40  244 0   40  
244 0   40  244 0   40  244 0   40  244 0   40  244 0   40  229 33  64  
122 100 125 245 203 236 245 203 236 245 203 236 245 203 236 245 203 236 
245 203 236 245 203 236 245 203 236 245 203 236 
245 203 236 245 203 236 245 203 236 245 203 236 245 203 236 245 203 236 
245 203 236 245 203 236 245 203 236 245 203 236 74  63  112 194 82  101 
243 1   39  244 0   40  244 0   40  244 0   40  244 0   40  244 0   40  
244 0   40  244 0   40  244 0   40  244 0   40  244 0   40  244 0   40  
244 0   40  244 0   40  244 0   40  244 0   40  244 0   40  244 0   40  
244 0   40  244 0   40  244 0   40  244 0   40  243 0   39  77  0   12  
0   0   0   0   0   0   24  0   4   227 0   37  244 0   40  244 0   40  
244 0   40  244 0   40  244 0   40  244 0   40  244 0   40  244 0   40  
244 0   40  244 0   40  244 0   40  244 0   40  229 33  64  123 100 124 
245 203 236 245 203 236 245 203 236 245 203 236 245 203 236 245 203 236 
245 203 236 245 203 236 245 203 236 245 203 236 
245 203 236 245 203 236 245 203 236 245 203 236 245 203 236 245 203 236 
245 203 236 245 203 236 245 203 236 245 203 236 245 203 236 72  61  110 
194 82  101 244 0   40  244 0   40  244 0   40  244 0   40  244 0   40  
244 0   40  244 0   40  244 0   40  244 0   40  244 0   40  244 0   40  
244 0   40  244 0   40  244 0   40  244 0   40  244 0   40  244 0   40  
244 0   40  244 0   40  244 0   40  244 0   40  244 0   40  117 0   19  
0   0   0   0   0   0   0   0   0   140 0   23  244 0   40  244 0   40  
244 0   40  244 0   40  244 0   40  244 0   40  244 0   40  244 0   40  
244 0   40  244 0   40  244 0   40  229 33  64  88  62  99  245 203 236 
245 203 236 245 203 236 245 203 236 245 203 236 245 203 236 245 203 236 
245 203 236 245 203 236 245 203 236 245 203 236 
245 203 236 245 203 236 245 203 236 245 203 236 245 203 236 245 203 236 
245 203 236 245 203 236 245 203 236 245 203 236 245 203 236 245 203 236 
72  61  110 195 82  101 243 1   39  244 0   40  244 0   40  244 0   40  
244 0   40  244 0   40  244 0   40  244 0   40  244 0   40  244 0   40  
244 0   40  244 0   40  244 0   40  244 0   40  244 0   40  244 0   40  
244 0   40  244 0   40  244 0   40  244 0   40  243 0   39  68  0   11  
0   0   0   0   0   0   0   0   0   84  0   13  244 0   40  244 0   40  
244 0   40  244 0   40  244 0   40  244 0   40  244 0   40  244 0   40  
244 0   40  244 0   40  226 30  61  83  57  95  245 203 236 245 203 236 
245 203 236 245 203 236 245 203 236 245 203 236 245 203 236 245 203 236 
245 203 236 245 203 236 245 203 236 245 203 236 
245 203 236 245 203 236 245 203 236 245 203 236 245 203 236 245 203 236 
245 203 236 245 203 236 245 203 236 245 203 236 245 203 236 245 203 236 
245 203 236 56  44  99  184 67  91  243 1   39  244 0   40  244 0   40  
244 0   40  244 0   40  244 0   40  244 0   40  244 0   40  244 0   40  
244 0   40  244 0   40  243 0   39  209 0   34  113 0   18  211 0   34  
244 0   40  244 0   40  244 0   40  242 0   39  137 0   22  2   0   0   
0   0   0   0   0   0   0   0   0   70  0   11  244 0   40  244 0   40  
244 0   40  244 0   40  244 0   40  244 0   40  244 0   40  244 0   40  
244 0   40  226 29  60  84  57  95  245 203 236 245 203 236 245 203 236 
245 203 236 245 203 236 245 203 236 245 203 236 245 203 236 245 203 236 
245 203 236 245 203 236 245 203 236 245 203 236 
245 203 236 245 203 236 245 203 236 245 203 236 245 203 236 245 203 236 
245 203 236 245 203 236 245 203 236 245 203 236 245 203 236 245 203 236 
245 203 236 245 203 236 245 203 236 179 63  87  244 0   40  244 0   40  
244 0   40  244 0   40  244 0   40  244 0   40  244 0   40  244 0   40  
244 0   40  207 0   33  93  0   15  5   0   0   0   0   0   12  0   1   
95  0   15  135 0   22  124 0   20  56  0   9   0   0   0   0   0   0   
0   0   0   0   0   0   0   0   0   95  0   15  244 0   40  244 0   40  
244 0   40  244 0   40  244 0   40  244 0   40  244 0   40  244 0   40  
228 30  61  84  57  94  245 203 236 245 203 236 245 203 236 245 203 236 
245 203 236 245 203 236 245 203 236 245 203 236 245 203 236 245 203 236 
245 203 236 245 203 236 245 203 236 245 203 236 
245 203 236 245 203 236 245 203 236 245 203 236 245 203 236 245 203 236 
245 203 236 245 203 236 245 203 236 245 203 236 245 203 236 245 203 236 
245 203 236 245 203 236 245 203 236 245 203 236 179 63  87  243 1   39  
244 0   40  244 0   40  244 0   40  244 0   40  244 0   40  244 0   40  
133 0   21  5   0   0   0   0   0   0   0   0   0   0   0   0   0   0   
0   0   0   0   0   0   0   0   0   0   0   0   0   0   0   0   0   0   
0   0   0   0   0   0   0   0   0   165 0   27  244 0   40  244 0   40  
244 0   40  244 0   40  244 0   40  244 0   40  244 0   40  226 28  59  
89  62  100 245 203 236 245 203 236 245 203 236 245 203 236 245 203 236 
245 203 236 245 203 236 245 203 236 245 203 236 245 203 236 245 203 236 
245 203 236 245 203 236 245 203 236 245 203 236 
245 203 236 245 203 236 245 203 236 245 203 236 245 203 236 245 203 236 
245 203 236 245 203 236 245 203 236 245 203 236 245 203 236 245 203 236 
245 203 236 245 203 236 245 203 236 245 203 236 245 203 236 181 62  86  
243 1   39  244 0   40  244 0   40  244 0   40  244 0   40  244 0   40  
199 0   32  11  0   1   0   0   0   0   0   0   0   0   0   0   0   0   
0   0   0   0   0   0   0   0   0   0   0   0   0   0   0   0   0   0   
0   0   0   0   0   0   51  0   8   238 0   39  244 0   40  244 0   40  
244 0   40  244 0   40  244 0   40  244 0   40  225 26  57  88  60  97  
245 203 236 245 203 236 245 203 236 245 203 236 245 203 236 245 203 236 
245 203 236 245 203 236 245 203 236 245 203 236 245 203 236 245 203 236 
245 203 236 245 203 236 245 203 236 245 203 236 
245 203 236 245 203 236 245 203 236 245 203 236 245 203 236 245 203 236 
245 203 236 245 203 236 245 203 236 245 203 236 245 203 236 245 203 236 
245 203 236 245 203 236 245 203 236 245 203 236 245 203 236 245 203 236 
180 61  85  244 0   40  244 0   40  244 0   40  244 0   40  244 0   40  
244 0   40  165 0   27  6   0   1   0   0   0   0   0   0   0   0   0   
0   0   0   0   0   0   0   0   0   0   0   0   0   0   0   0   0   0   
0   0   0   29  0   4   211 0   34  244 0   40  244 0   40  244 0   40  
244 0   40  244 0   40  244 0   40  225 26  57  88  59  96  245 203 236 
245 203 236 245 203 236 245 203 236 245 203 236 245 203 236 245 203 236 
245 203 236 245 203 236 245 203 236 245 203 236 245 203 236 245 203 236 
245 203 236 245 203 236 245 203 236 245 203 236 
245 203 236 245 203 236 245 203 236 245 203 236 245 203 236 245 203 236 
245 203 236 245 203 236 245 203 236 245 203 236 245 203 236 245 203 236 
245 203 236 245 203 236 245 203 236 245 203 236 245 203 236 245 203 236 
245 203 236 179 61  85  244 0   40  244 0   40  244 0   40  244 0   40  
244 0   40  243 0   39  188 0   30  40  0   6   0   0   0   0   0   0   
0   0   0   0   0   0   0   0   0   0   0   0   0   0   0   0   0   0   
66  0   10  217 0   35  244 0   40  244 0   40  244 0   40  244 0   40  
244 0   40  244 0   40  226 27  58  88  60  97  245 203 236 245 203 236 
245 203 236 245 203 236 245 203 236 245 203 236 245 203 236 245 203 236 
245 203 236 245 203 236 245 203 236 245 203 236 245 203 236 245 203 236 
245 203 236 245 203 236 245 203 236 245 203 236 
245 203 236 245 203 236 245 203 236 245 203 236 245 203 236 245 203 236 
245 203 236 245 203 236 245 203 236 245 203 236 245 203 236 245 203 236 
245 203 236 245 203 236 245 203 236 245 203 236 245 203 236 245 203 236 
245 203 236 245 203 236 245 203 236 245 203 236 245 203 236 245 203 236 
245 203 236 245 203 236 85  7   65  198 1   46  161 0   26  80  0   13  
31  0   5   15  0   2   20  0   3   42  0   7   99  0   16  178 0   30  
182 2   51  62  7   65  245 203 236 245 203 236 245 203 236 245 203 236 
245 203 236 245 203 236 245 203 236 245 203 236 245 203 236 245 203 236 
245 203 236 245 203 236 245 203 236 245 203 236 245 203 236 245 203 236 
245 203 236 245 203 236 245 203 236 245 203 236 245 203 236 245 203 236 
245 203 236 245 203 236 245 203 236 245 203 236 
245 203 236 245 203 236 245 203 236 245 203 236 245 203 236 245 203 236 
245 203 236 245 203 236 245 203 236 245 203 236 245 203 236 245 203 236 
245 203 236 245 203 236 245 203 236 245 203 236 245 203 236 245 203 236 
245 203 236 245 203 236 245 203 236 245 203 236 245 203 236 245 203 236 
245 203 236 245 203 236 245 203 236 245 203 236 84  8   73  147 4   60  
187 2   51  198 2   48  195 2   49  177 3   53  130 5   63  70  8   76  
245 203 236 245 203 236 245 203 236 245 203 236 245 203 236 245 203 236 
245 203 236 245 203 236 245 203 236 245 203 236 245 203 236 245 203 236 
245 203 236 245 203 236 245 203 236 245 203 236 245 203 236 245 203 236 
245 203 236 245 203 236 245 203 236 245 203 236 245 203 236 245 203 236 
245 203 236 245 203 236 245 203 236 245 203 236 
