P3
64 64
255
245 203 236 245 203 236 245 203 236 245 203 236 245 203 236 245 203 236 
245 203 236 245 203 236 245 203 236 245 203 236 245 203 236 245 203 236 
245 203 236 245 203 236 245 203 236 245 203 236 245 203 236 245 203 236 
245 203 236 245 203 236 245 203 236 245 203 236 245 203 236 245 203 236 
245 203 236 245 203 236 245 203 236 245 203 236 57  10  79  91  9   73  
114 8   69  123 7   67  126 7   66  116 8   68  92  8   73  245 203 236 
245 203 236 245 203 236 245 203 236 245 203 236 245 203 236 245 203 236 
245 203 236 245 203 236 245 203 236 245 203 236 245 203 236 245 203 236 
245 203 236 245 203 236 245 203 236 245 203 236 245 203 236 245 203 236 
245 203 236 245 203 236 245 203 236 245 203 236 245 203 236 245 203 236 
245 203 236 245 203 236 245 203 236 245 203 236 
245 203 236 245 203 236 245 203 236 245 203 236 245 203 236 245 203 236 
245 203 236 245 203 236 245 203 236 245 203 236 245 203 236 245 203 236 
245 203 236 245 203 236 245 203 236 245 203 236 245 203 236 245 203 236 
245 203 236 54  39  92  59  7   60  59  7   60  59  7   60  59  7   60  
59  7   60  59  7   60  68  7   63  127 7   64  103 4   42  56  2   23  
26  1   10  13  0   5   10  0   4   24  1   9   56  2   22  108 5   44  
118 7   67  61  7   60  59  7   60  59  7   60  59  7   60  59  7   60  
59  7   60  59  7   60  64  33  80  245 203 236 245 203 236 245 203 236 
245 203 236 245 203 236 245 203 236 245 203 236 245 203 236 245 203 236 
245 203 236 245 203 236 245 203 236 245 203 236 245 203 236 245 203 236 
245 203 236 245 203 236 245 203 236 245 203 236 
245 203 236 245 203 236 245 203 236 245 203 236 245 203 236 245 203 236 
245 203 236 245 203 236 245 203 236 245 203 236 245 203 236 245 203 236 
245 203 236 245 203 236 245 203 236 245 203 236 245 203 236 245 203 236 
62  48  96  143 43  83  153 7   62  153 7   62  153 7   62  153 7   62  
153 7   62  152 6   61  113 5   45  25  1   10  0   0   0   0   0   0   
0   0   0   0   0   0   0   0   0   0   0   0   0   0   0   0   0   0   
41  1   16  138 6   56  153 7   62  153 7   62  153 7   62  153 7   62  
153 7   62  153 7   62  152 17  68  103 68  99  245 203 236 245 203 236 
245 203 236 245 203 236 245 203 236 245 203 236 245 203 236 245 203 236 
245 203 236 245 203 236 245 203 236 245 203 236 245 203 236 245 203 236 
245 203 236 245 203 236 245 203 236 245 203 236 
245 203 236 245 203 236 245 203 236 245 203 236 245 203 236 245 203 236 
245 203 236 245 203 236 245 203 236 245 203 236 245 203 236 245 203 236 
245 203 236 245 203 236 245 203 236 245 203 236 245 203 236 63  49  97  
144 44  83  153 7   62  153 7   62  153 7   62  153 7   62  153 7   62  
153 7   62  95  4   38  2   0   1   0   0   0   0   0   0   0   0   0   
0   0   0   0   0   0   0   0   0   0   0   0   0   0   0   0   0   0   
0   0   0   24  1   9   141 6   57  153 7   62  153 7   62  153 7   62  
153 7   62  153 7   62  153 7   62  153 17  68  103 68  99  245 203 236 
245 203 236 245 203 236 245 203 236 245 203 236 245 203 236 245 203 236 
245 203 236 245 203 236 245 203 236 245 203 236 245 203 236 245 203 236 
245 203 236 245 203 236 245 203 236 245 203 236 
245 203 236 245 203 236 245 203 236 245 203 236 245 203 236 245 203 236 
245 203 236 245 203 236 245 203 236 245 203 236 245 203 236 245 203 236 
245 203 236 245 203 236 245 203 236 245 203 236 60  46  94  146 45  84  
153 7   62  153 7   62  153 7   62  153 7   62  153 7   62  153 7   62  
127 5   51  5   0   2   0   0   0   0   0   0   0   0   0   0   0   0   
0   0   0   0   0   0   0   0   0   0   0   0   0   0   0   0   0   0   
0   0   0   0   0   0   50  2   20  152 6   61  153 7   62  153 7   62  
153 7   62  153 7   62  153 7   62  153 7   62  153 17  68  103 68  99  
245 203 236 245 203 236 245 203 236 245 203 236 245 203 236 245 203 236 
245 203 236 245 203 236 245 203 236 245 203 236 245 203 236 245 203 236 
245 203 236 245 203 236 245 203 236 245 203 236 
245 203 236 245 203 236 245 203 236 245 203 236 245 203 236 245 203 236 
245 203 236 245 203 236 245 203 236 245 203 236 245 203 236 245 203 236 
245 203 236 245 203 236 245 203 236 60  46  94  145 45  84  153 7   62  
153 7   62  153 7   62  153 7   62  153 7   62  153 7   62  153 7   62  
64  2   26  0   0   0   0   0   0   0   0   0   0   0   0   0   0   0   
0   0   0   0   0   0   0   0   0   0   0   0   0   0   0   0   0   0   
0   0   0   0   0   0   1   0   0   127 5   51  153 7   62  153 7   62  
153 7   62  153 7   62  153 7   62  153 7   62  153 7   62  152 17  68  
106 72  103 245 203 236 245 203 236 245 203 236 245 203 236 245 203 236 
245 203 236 245 203 236 245 203 236 245 203 236 245 203 236 245 203 236 
245 203 236 245 203 236 245 203 236 245 203 236 
245 203 236 245 203 236 245 203 236 245 203 236 245 203 236 245 203 236 
245 203 236 245 203 236 245 203 236 245 203 236 245 203 236 245 203 236 
245 203 236 245 203 236 61  47  95  145 45  84  153 7   62  153 7   62  
153 7   62  153 7   62  153 7   62  153 7   62  153 7   62  153 7   62  
33  1   13  0   0   0   0   0   0   0   0   0   0   0   0   0   0   0   
0   0   0   0   0   0   0   0   0   0   0   0   0   0   0   0   0   0   
0   0   0   0   0   0   0   0   0   88  4   35  153 7   62  153 7   62  
153 7   62  153 7   62  153 7   62  153 7   62  153 7   62  153 7   62  
154 18  69  103 68  99  245 203 236 245 203 236 245 203 236 245 203 236 
245 203 236 245 203 236 245 203 236 245 203 236 245 203 236 245 203 236 
245 203 236 245 203 236 245 203 236 245 203 236 
245 203 236 245 203 236 245 203 236 245 203 236 245 203 236 245 203 236 
245 203 236 245 203 236 245 203 236 245 203 236 245 203 236 245 203 236 
245 203 236 61  47  95  150 49  88  153 7   62  153 7   62  153 7   62  
153 7   62  153 7   62  153 7   62  153 7   62  153 7   62  153 7   62  
32  1   12  0   0   0   0   0   0   0   0   0   33  1   13  92  4   37  
94  4   38  39  1   16  0   0   0   0   0   0   0   0   0   0   0   0   
0   0   0   0   0   0   0   0   0   76  3   31  153 7   62  153 7   62  
153 7   62  153 7   62  153 7   62  153 7   62  153 7   62  153 7   62  
153 7   62  154 18  69  103 68  99  245 203 236 245 203 236 245 203 236 
245 203 236 245 203 236 245 203 236 245 203 236 245 203 236 245 203 236 
245 203 236 245 203 236 245 203 236 245 203 236 
245 203 236 245 203 236 245 203 236 245 203 236 245 203 236 245 203 236 
245 203 236 245 203 236 245 203 236 245 203 236 245 203 236 245 203 236 
58  44  92  148 48  87  153 7   62  153 7   62  153 7   62  153 7   62  
153 7   62  153 7   62  153 7   62  153 7   62  153 7   62  153 7   62  
44  2   18  0   0   0   0   0   0   31  1   12  147 6   59  153 7   62  
153 7   62  149 6   60  42  1   17  0   0   0   0   0   0   0   0   0   
0   0   0   0   0   0   0   0   0   98  4   39  153 7   62  153 7   62  
153 7   62  153 7   62  153 7   62  153 7   62  153 7   62  153 7   62  
153 7   62  153 7   62  154 18  69  104 70  101 245 203 236 245 203 236 
245 203 236 245 203 236 245 203 236 245 203 236 245 203 236 245 203 236 
245 203 236 245 203 236 245 203 236 245 203 236 
245 203 236 245 203 236 245 203 236 245 203 236 245 203 236 245 203 236 
245 203 236 245 203 236 245 203 236 245 203 236 245 203 236 58  44  93  
148 48  87  153 7   62  153 7   62  153 7   62  153 7   62  153 7   62  
153 7   62  153 7   62  153 7   62  153 7   62  153 7   62  153 7   62  
76  3   30  0   0   0   0   0   0   87  4   35  153 7   62  153 7   62  
153 7   62  153 7   62  100 4   40  0   0   0   0   0   0   0   0   0   
0   0   0   0   0   0   2   0   0   132 6   53  153 7   62  153 7   62  
153 7   62  153 7   62  153 7   62  153 7   62  153 7   62  153 7   62  
153 7   62  153 7   62  153 7   62  154 19  70  106 72  103 245 203 236 
245 203 236 245 203 236 245 203 236 245 203 236 245 203 236 245 203 236 
245 203 236 245 203 236 245 203 236 245 203 236 
245 203 236 245 203 236 245 203 236 245 203 236 245 203 236 245 203 236 
245 203 236 245 203 236 245 203 236 245 203 236 61  47  95  150 49  88  
153 7   62  153 7   62  153 7   62  153 7   62  153 7   62  153 7   62  
153 7   62  153 7   62  153 7   62  153 7   62  153 7   62  153 7   62  
125 5   50  2   0   1   0   0   0   82  3   33  153 7   62  153 7   62  
153 7   62  153 7   62  95  4   38  0   0   0   0   0   0   0   0   0   
0   0   0   0   0   0   24  1   9   152 6   61  153 7   62  153 7   62  
153 7   62  153 7   62  153 7   62  153 7   62  153 7   62  153 7   62  
153 7   62  153 7   62  153 7   62  153 7   62  155 19  70  103 68  98  
245 203 236 245 203 236 245 203 236 245 203 236 245 203 236 245 203 236 
245 203 236 245 203 236 245 203 236 245 203 236 
245 203 236 245 203 236 245 203 236 245 203 236 245 203 236 245 203 236 
245 203 236 245 203 236 245 203 236 82  70  111 152 51  90  153 7   62  
153 7   62  153 7   62  153 7   62  153 7   62  153 7   62  153 7   62  
153 7   62  153 7   62  153 7   62  153 7   62  153 7   62  153 7   62  
152 6   61  64  2   26  0   0   0   22  1   8   140 6   56  153 7   62  
153 7   62  144 6   58  31  1   12  0   0   0   0   0   0   0   0   0   
0   0   0   0   0   0   64  3   26  153 7   62  153 7   62  153 7   62  
153 7   62  153 7   62  153 7   62  153 7   62  153 7   62  153 7   62  
153 7   62  153 7   62  153 7   62  153 7   62  153 7   62  155 19  70  
103 68  99  245 203 236 245 203 236 245 203 236 245 203 236 245 203 236 
245 203 236 245 203 236 245 203 236 245 203 236 
245 203 236 245 203 236 245 203 236 245 203 236 245 203 236 245 203 236 
245 203 236 245 203 236 101 89  123 155 55  92  153 7   62  153 7   62  
153 7   62  153 7   62  153 7   62  153 7   62  153 7   62  153 7   62  
153 7   62  153 7   62  153 7   62  153 7   62  153 7   62  153 7   62  
153 7   62  148 6   60  63  2   25  1   0   0   17  0   7   69  3   28  
71  3   29  22  1   9   0   0   0   0   0   0   0   0   0   0   0   0   
0   0   0   0   0   0   110 5   44  153 7   62  153 7   62  153 7   62  
153 7   62  153 7   62  153 7   62  153 7   62  153 7   62  153 7   62  
153 7   62  153 7   62  153 7   62  153 7   62  153 7   62  153 7   62  
155 20  71  107 73  104 245 203 236 245 203 236 245 203 236 245 203 236 
245 203 236 245 203 236 245 203 236 245 203 236 
245 203 236 245 203 236 245 203 236 245 203 236 245 203 236 245 203 236 
245 203 236 103 92  126 155 55  92  153 7   62  153 7   62  153 7   62  
153 7   62  153 7   62  153 7   62  153 7   62  153 7   62  153 7   62  
153 7   62  153 7   62  153 7   62  153 7   62  153 7   62  153 7   62  
153 7   62  153 7   62  153 7   62  120 5   48  60  2   24  21  0   8   
2   0   1   0   0   0   0   0   0   0   0   0   0   0   0   0   0   0   
0   0   0   10  0   4   146 6   59  153 7   62  153 7   62  153 7   62  
153 7   62  153 7   62  153 7   62  153 7   62  153 7   62  153 7   62  
153 7   62  153 7   62  153 7   62  153 7   62  153 7   62  153 7   62  
153 7   62  156 20  71  116 83  110 245 203 236 245 203 236 245 203 236 
245 203 236 245 203 236 245 203 236 245 203 236 
245 203 236 245 203 236 245 203 236 245 203 236 245 203 236 245 203 236 
103 93  127 157 56  94  153 7   62  153 7   62  153 7   62  153 7   62  
153 7   62  153 7   62  153 7   62  153 7   62  153 7   62  153 7   62  
153 7   62  153 7   62  153 7   62  153 7   62  153 7   62  153 7   62  
153 7   62  153 7   62  153 7   62  153 7   62  153 7   62  151 6   61  
147 6   59  143 6   57  75  3   30  0   0   0   0   0   0   0   0   0   
0   0   0   49  2   20  152 7   61  153 7   62  153 7   62  153 7   62  
153 7   62  153 7   62  153 7   62  153 7   62  153 7   62  153 7   62  
153 7   62  153 7   62  153 7   62  153 7   62  153 7   62  153 7   62  
153 7   62  153 7   62  156 20  71  132 100 121 245 203 236 245 203 236 
245 203 236 245 203 236 245 203 236 245 203 236 
245 203 236 245 203 236 245 203 236 245 203 236 245 203 236 101 89  123 
157 57  95  153 7   62  153 7   62  153 7   62  153 7   62  153 7   62  
153 7   62  153 7   62  153 7   62  153 7   62  153 7   62  153 7   62  
153 7   62  153 7   62  153 7   62  153 7   62  153 7   62  153 7   62  
153 7   62  153 7   62  153 7   62  153 7   62  153 7   62  153 7   62  
153 7   62  144 6   58  16  0   6   0   0   0   0   0   0   0   0   0   
0   0   0   96  4   38  153 7   62  153 7   62  153 7   62  153 7   62  
153 7   62  153 7   62  153 7   62  153 7   62  153 7   62  153 7   62  
153 7   62  153 7   62  153 7   62  153 7   62  153 7   62  153 7   62  
153 7   62  153 7   62  153 7   62  156 20  71  135 103 126 245 203 236 
245 203 236 245 203 236 245 203 236 245 203 236 
245 203 236 245 203 236 245 203 236 245 203 236 98  88  122 156 56  94  
153 7   62  153 7   62  153 7   62  153 7   62  153 7   62  153 7   62  
153 7   62  153 7   62  153 7   62  153 7   62  153 7   62  153 7   62  
153 7   62  153 7   62  153 7   62  153 7   62  153 7   62  153 7   62  
153 7   62  153 7   62  153 7   62  153 7   62  153 7   62  153 7   62  
153 7   62  84  3   34  0   0   0   0   0   0   0   0   0   0   0   0   
1   0   0   140 6   56  153 7   62  153 7   62  153 7   62  153 7   62  
153 7   62  153 7   62  153 7   62  153 7   62  153 7   62  153 7   62  
153 7   62  153 7   62  153 7   62  153 7   62  153 7   62  153 7   62  
153 7   62  153 7   62  153 7   62  153 7   62  156 21  72  138 106 128 
245 203 236 245 203 236 245 203 236 245 203 236 
245 203 236 245 203 236 245 203 236 96  75  113 152 44  84  153 7   62  
153 7   62  153 7   62  153 7   62  153 7   62  153 7   62  153 7   62  
153 7   62  153 7   62  153 7   62  153 7   62  153 7   62  153 7   62  
153 7   62  153 7   62  153 7   62  153 7   62  153 7   62  153 7   62  
153 7   62  153 7   62  153 7   62  153 7   62  153 7   62  153 7   62  
144 6   58  14  0   5   0   0   0   0   0   0   0   0   0   0   0   0   
36  1   14  153 7   62  153 7   62  153 7   62  153 7   62  153 7   62  
153 7   62  153 7   62  153 7   62  153 7   62  153 7   62  153 7   62  
153 7   62  153 7   62  153 7   62  153 7   62  153 7   62  153 7   62  
153 7   62  153 7   62  153 7   62  153 7   62  153 7   62  156 20  71  
136 104 125 245 203 236 245 203 236 245 203 236 
245 203 236 245 203 236 94  73  111 143 22  68  153 7   62  153 7   62  
153 7   62  153 7   62  153 7   62  153 7   62  153 7   62  153 7   62  
153 7   62  153 7   62  153 7   62  153 7   62  153 7   62  153 7   62  
153 7   62  153 7   62  153 7   62  153 7   62  153 7   62  153 7   62  
153 7   62  153 7   62  153 7   62  153 7   62  153 7   62  153 7   62  
81  3   33  0   0   0   0   0   0   0   0   0   0   0   0   0   0   0   
85  3   34  153 7   62  153 7   62  153 7   62  153 7   62  153 7   62  
153 7   62  153 7   62  153 7   62  153 7   62  153 7   62  153 7   62  
153 7   62  153 7   62  153 7   62  153 7   62  153 7   62  153 7   62  
153 7   62  153 7   62  153 7   62  153 7   62  153 7   62  153 7   62  
157 21  72  132 100 122 245 203 236 245 203 236 
245 203 236 245 203 236 144 23  69  153 7   62  153 7   62  153 7   62  
153 7   62  153 7   62  153 7   62  153 7   62  153 7   62  153 7   62  
153 7   62  153 7   62  153 7   62  153 7   62  153 7   62  153 7   62  
153 7   62  153 7   62  153 7   62  153 7   62  153 7   62  153 7   62  
153 7   62  153 7   62  153 7   62  153 7   62  153 7   62  144 6   58  
13  0   5   0   0   0   0   0   0   0   0   0   0   0   0   2   0   1   
132 6   53  153 7   62  153 7   62  153 7   62  153 7   62  153 7   62  
153 7   62  153 7   62  153 7   62  153 7   62  153 7   62  153 7   62  
153 7   62  153 7   62  153 7   62  153 7   62  153 7   62  153 7   62  
153 7   62  153 7   62  153 7   62  153 7   62  153 7   62  153 7   62  
153 7   62  154 15  68  91  41  80  245 203 236 
245 203 236 245 203 236 153 7   62  153 7   62  153 7   62  153 7   62  
153 7   62  153 7   62  153 7   62  153 7   62  153 7   62  153 7   62  
153 7   62  153 7   62  153 7   62  153 7   62  153 7   62  153 7   62  
153 7   62  153 7   62  153 7   62  153 7   62  153 7   62  153 7   62  
153 7   62  153 7   62  153 7   62  153 7   62  153 7   62  107 4   43  
41  1   16  41  1   16  41  1   16  41  1   16  41  1   16  60  2   24  
152 7   61  153 7   62  153 7   62  153 7   62  153 7   62  153 7   62  
153 7   62  153 7   62  153 7   62  153 7   62  153 7   62  153 7   62  
153 7   62  153 7   62  153 7   62  153 7   62  153 7   62  153 7   62  
153 7   62  153 7   62  153 7   62  153 7   62  153 7   62  153 7   62  
153 7   62  153 7   62  85  6   55  245 203 236 
245 203 236 245 203 236 153 7   62  153 7   62  153 7   62  153 7   62  
153 7   62  153 7   62  153 7   62  153 7   62  153 7   62  153 7   62  
153 7   62  153 7   62  153 7   62  153 7   62  153 7   62  153 7   62  
153 7   62  153 7   62  153 7   62  153 7   62  153 7   62  153 7   62  
153 7   62  153 7   62  153 7   62  153 7   62  153 7   62  153 7   62  
153 7   62  153 7   62  153 7   62  153 7   62  153 7   62  153 7   62  
153 7   62  153 7   62  153 7   62  153 7   62  153 7   62  153 7   62  
153 7   62  153 7   62  153 7   62  153 7   62  153 7   62  153 7   62  
153 7   62  153 7   62  153 7   62  153 7   62  153 7   62  153 7   62  
153 7   62  153 7   62  153 7   62  153 7   62  153 7   62  153 7   62  
153 7   62  153 7   62  85  6   55  245 203 236 
245 203 236 245 203 236 153 7   62  153 7   62  153 7   62  153 7   62  
153 7   62  153 7   62  153 7   62  153 7   62  153 7   62  153 7   62  
153 7   62  153 7   62  153 7   62  153 7   62  153 7   62  153 7   62  
153 7   62  153 7   62  153 7   62  153 7   62  153 7   62  153 7   62  
153 7   62  153 7   62  153 7   62  153 7   62  153 7   62  153 7   62  
153 7   62  153 7   62  153 7   62  153 7   62  153 7   62  153 7   62  
153 7   62  153 7   62  153 7   62  153 7   62  153 7   62  153 7   62  
153 7   62  153 7   62  153 7   62  153 7   62  153 7   62  153 7   62  
153 7   62  153 7   62  153 7   62  153 7   62  153 7   62  153 7   62  
153 7   62  153 7   62  153 7   62  153 7   62  153 7   62  153 7   62  
153 7   62  153 7   62  85  6   55  245 203 236 
245 203 236 245 203 236 153 7   62  153 7   62  153 7   62  152 7   61  
141 6   57  132 6   53  148 6   60  153 7   62  153 7   62  153 7   62  
153 7   62  153 7   62  153 7   62  153 7   62  153 7   62  153 7   62  
153 7   62  153 7   62  153 7   62  153 7   62  153 7   62  153 7   62  
153 7   62  153 7   62  153 7   62  153 7   62  153 7   62  153 7   62  
153 7   62  153 7   62  153 7   62  153 7   62  153 7   62  153 7   62  
153 7   62  153 7   62  153 7   62  153 7   62  153 7   62  153 7   62  
153 7   62  153 7   62  153 7   62  153 7   62  153 7   62  153 7   62  
153 7   62  153 7   62  153 7   62  153 7   62  152 6   61  152 6   61  
152 6   61  153 6   61  150 6   60  150 6   60  153 6   62  152 6   61  
153 7   62  153 7   62  85  6   55  245 203 236 
245 203 236 245 203 236 153 7   62  152 6   61  104 4   42  30  1   12  
2   0   1   1   0   0   6   0   2   38  1   15  78  3   31  119 5   48  
149 6   60  153 7   62  153 7   62  153 7   62  153 7   62  153 7   62  
153 7   62  153 7   62  153 7   62  153 7   62  153 7   62  153 7   62  
153 7   62  153 7   62  153 7   62  153 7   62  153 7   62  153 7   62  
153 7   62  153 7   62  153 7   62  153 7   62  153 7   62  153 7   62  
153 7   62  153 7   62  153 7   62  153 7   62  153 7   62  153 7   62  
153 7   62  153 7   62  153 7   62  153 7   62  153 7   62  153 7   62  
153 7   62  153 7   62  153 7   62  152 6   61  145 5   58  90  4   36  
45  2   18  15  0   6   7   0   2   9   0   3   41  1   16  108 4   43  
153 6   60  152 6   61  85  6   55  245 203 236 
245 203 236 245 203 236 151 6   61  65  2   26  0   0   0   0   0   0   
0   0   0   0   0   0   0   0   0   0   0   0   0   0   0   0   0   0   
16  0   6   59  2   23  105 4   42  144 6   58  152 7   61  153 7   62  
153 7   62  153 7   62  153 7   62  153 7   62  153 7   62  153 7   62  
153 7   62  153 7   62  153 7   62  153 7   62  153 7   62  153 7   62  
153 7   62  153 7   62  153 7   62  153 7   62  153 7   62  153 7   62  
153 7   62  153 7   62  153 7   62  153 7   62  153 7   62  153 7   62  
153 7   62  153 7   62  153 7   62  153 7   62  153 7   62  153 7   62  
153 7   62  153 7   62  152 6   61  129 5   52  25  1   10  0   0   0   
0   0   0   0   0   0   0   0   0   0   0   0   0   0   0   1   0   0   
75  3   30  152 6   61  86  5   54  245 203 236 
245 203 236 96  8   71  76  3   31  0   0   0   0   0   0   0   0   0   
0   0   0   0   0   0   0   0   0   0   0   0   0   0   0   0   0   0   
0   0   0   0   0   0   0   0   0   8   0   3   46  2   18  93  4   37  
140 6   56  153 7   62  153 7   62  153 7   62  153 7   62  153 7   62  
153 7   62  153 7   62  153 7   62  153 7   62  153 7   62  153 7   62  
153 7   62  153 7   62  153 7   62  153 7   62  153 7   62  153 7   62  
153 7   62  153 7   62  153 7   62  153 7   62  153 7   62  153 7   62  
153 7   62  153 7   62  153 7   62  153 7   62  153 7   62  153 7   62  
153 7   62  152 6   62  144 5   57  23  1   9   0   0   0   0   0   0   
0   0   0   0   0   0   0   0   0   0   0   0   0   0   0   0   0   0   
0   0   0   99  4   40  109 5   57  245 203 236 
245 203 236 125 6   53  4   0   1   0   0   0   0   0   0   0   0   0   
0   0   0   0   0   0   0   0   0   0   0   0   0   0   0   0   0   0   
0   0   0   0   0   0   0   0   0   0   0   0   0   0   0   0   0   0   
2   0   1   39  1   16  102 4   41  153 7   62  153 7   62  153 7   62  
153 7   62  153 7   62  153 7   62  153 7   62  153 7   62  153 7   62  
153 7   62  153 7   62  153 7   62  153 7   62  153 7   62  153 7   62  
153 7   62  153 7   62  153 7   62  153 7   62  153 7   62  153 7   62  
152 6   61  153 7   62  153 7   62  153 7   62  153 7   62  153 7   62  
153 7   62  153 5   61  79  3   32  0   0   0   60  2   24  118 5   47  
115 5   46  49  2   20  0   0   0   0   0   0   0   0   0   0   0   0   
0   0   0   14  0   5   136 5   56  245 203 236 
130 60  110 70  3   28  0   0   0   0   0   0   0   0   0   0   0   0   
0   0   0   0   0   0   0   0   0   0   0   0   0   0   0   0   0   0   
0   0   0   0   0   0   0   0   0   0   0   0   0   0   0   0   0   0   
0   0   0   0   0   0   41  1   16  153 7   62  153 7   62  153 7   62  
153 7   62  153 7   62  153 7   62  153 7   62  153 7   62  153 7   62  
153 7   62  153 7   62  153 7   62  153 7   62  153 7   62  153 7   62  
153 7   62  153 7   62  153 7   62  153 7   62  153 7   62  153 7   62  
152 5   62  151 5   61  152 6   61  153 7   62  153 7   62  153 7   62  
153 7   62  150 6   61  21  0   8   53  2   21  152 5   60  152 6   61  
153 6   61  150 6   60  37  1   15  0   0   0   0   0   0   0   0   0   
0   0   0   0   0   0   92  4   38  66  9   77  
160 59  105 31  1   12  0   0   0   0   0   0   0   0   0   0   0   0   
0   0   0   0   0   0   0   0   0   0   0   0   0   0   0   0   0   0   
0   0   0   0   0   0   0   0   0   0   0   0   0   0   0   0   0   0   
0   0   0   0   0   0   41  1   16  153 7   62  153 7   62  153 7   62  
153 7   62  153 7   62  153 7   62  153 7   62  153 7   62  153 7   62  
153 7   62  153 7   62  153 7   62  153 7   62  153 7   62  153 7   62  
153 7   62  153 7   62  153 7   62  153 7   62  153 7   62  153 7   62  
143 5   57  71  3   29  135 5   54  153 5   62  153 6   61  153 7   62  
152 6   62  135 5   54  0   0   0   102 4   41  153 6   61  153 7   62  
153 7   62  152 6   61  84  3   34  0   0   0   0   0   0   0   0   0   
0   0   0   0   0   0   50  2   20  98  7   70  
171 55  99  11  0   4   0   0   0   0   0   0   0   0   0   0   0   0   
0   0   0   0   0   0   7   0   3   44  1   17  38  1   15  2   0   1   
0   0   0   0   0   0   26  1   10  0   0   0   0   0   0   0   0   0   
0   0   0   0   0   0   41  1   16  153 7   62  153 7   62  153 7   62  
153 7   62  153 7   62  153 7   62  153 7   62  153 7   62  153 7   62  
153 7   62  153 7   62  153 7   62  153 7   62  153 7   62  153 7   62  
153 7   62  153 7   62  153 7   62  153 7   62  153 7   62  153 7   62  
141 5   56  5   0   2   6   0   2   64  2   26  133 5   53  151 5   61  
153 6   61  119 5   48  0   0   0   90  4   36  153 6   61  153 7   62  
153 7   62  153 6   62  73  3   29  0   0   0   0   0   0   0   0   0   
0   0   0   0   0   0   23  1   9   118 7   68  
169 51  95  9   0   3   0   0   0   0   0   0   0   0   0   0   0   0   
0   0   0   18  0   7   132 6   53  153 7   62  152 6   61  113 5   45  
5   0   2   0   0   0   144 6   58  104 4   42  29  1   11  0   0   0   
0   0   0   0   0   0   41  1   16  153 7   62  153 7   62  153 7   62  
153 7   62  153 7   62  153 7   62  153 7   62  153 7   62  153 7   62  
153 7   62  153 7   62  153 7   62  153 7   62  153 7   62  153 7   62  
153 7   62  153 7   62  153 7   62  153 7   62  153 7   62  153 7   62  
141 5   56  5   0   2   0   0   0   0   0   0   5   0   2   62  2   25  
132 5   53  113 5   46  0   0   0   23  1   9   138 5   55  153 6   61  
153 5   61  130 5   52  13  0   5   0   0   0   0   0   0   0   0   0   
0   0   0   0   0   0   12  0   5   126 7   65  
170 59  103 17  0   6   0   0   0   0   0   0   0   0   0   0   0   0   
0   0   0   87  3   35  153 7   62  153 7   62  153 7   62  153 7   62  
56  2   22  3   0   1   148 6   60  153 7   62  150 6   60  102 4   41  
28  1   11  0   0   0   41  1   16  153 7   62  153 7   62  153 7   62  
153 7   62  153 7   62  153 7   62  153 7   62  153 7   62  153 7   62  
153 7   62  153 7   62  153 7   62  153 7   62  153 7   62  153 7   62  
153 7   62  153 7   62  153 7   62  153 7   62  153 7   62  153 7   62  
141 5   56  5   0   2   0   0   0   0   0   0   0   0   0   0   0   0   
4   0   1   33  1   13  0   0   0   0   0   0   12  0   5   57  2   23  
53  2   21  8   0   3   0   0   0   0   0   0   0   0   0   0   0   0   
0   0   0   0   0   0   14  0   5   126 7   66  
152 60  106 41  1   16  0   0   0   0   0   0   0   0   0   0   0   0   
0   0   0   104 4   42  153 7   62  153 7   62  153 7   62  153 7   62  
74  3   30  15  0   6   150 6   61  153 7   62  153 7   62  153 7   62  
150 6   61  101 4   40  67  3   27  153 7   62  153 7   62  153 7   62  
153 7   62  153 7   62  153 7   62  153 7   62  153 7   62  153 7   62  
153 7   62  153 7   62  153 7   62  153 7   62  153 7   62  153 7   62  
153 7   62  153 7   62  153 7   62  153 7   62  153 7   62  153 7   62  
141 5   56  5   0   2   0   0   0   0   0   0   0   0   0   0   0   0   
0   0   0   0   0   0   0   0   0   0   0   0   0   0   0   0   0   0   
0   0   0   0   0   0   0   0   0   0   0   0   0   0   0   0   0   0   
0   0   0   0   0   0   34  1   13  111 7   69  
122 61  112 80  3   32  0   0   0   0   0   0   0   0   0   0   0   0   
0   0   0   65  3   26  152 7   61  153 7   62  153 7   62  151 6   61  
36  1   14  47  2   19  152 6   61  153 7   62  153 7   62  153 7   62  
153 7   62  153 7   62  152 6   61  153 7   62  153 7   62  153 7   62  
153 7   62  153 7   62  153 7   62  153 7   62  153 7   62  153 7   62  
153 7   62  153 7   62  153 7   62  153 7   62  153 7   62  153 7   62  
153 7   62  153 7   62  153 7   62  153 7   62  153 7   62  153 7   62  
141 5   56  5   0   2   0   0   0   0   0   0   0   0   0   0   0   0   
0   0   0   0   0   0   0   0   0   0   0   0   0   0   0   0   0   0   
0   0   0   0   0   0   0   0   0   0   0   0   0   0   0   0   0   0   
0   0   0   0   0   0   73  3   29  81  8   74  
245 203 236 128 6   56  6   0   2   0   0   0   0   0   0   0   0   0   
0   0   0   3   0   1   84  3   34  141 6   57  136 6   55  64  2   26  
0   0   0   100 4   40  153 7   62  153 7   62  153 7   62  153 7   62  
153 7   62  153 7   62  153 7   62  153 7   62  153 7   62  153 7   62  
153 7   62  153 7   62  153 7   62  153 7   62  153 7   62  153 7   62  
153 7   62  153 7   62  153 7   62  153 7   62  153 7   62  153 7   62  
153 7   62  153 7   62  153 7   62  153 7   62  153 7   62  153 7   62  
148 6   59  69  3   28  20  0   8   0   0   0   0   0   0   0   0   0   
0   0   0   0   0   0   0   0   0   0   0   0   0   0   0   0   0   0   
0   0   0   0   0   0   0   0   0   0   0   0   0   0   0   0   0   0   
0   0   0   4   0   1   129 5   53  245 203 236 
245 203 236 92  8   72  75  3   30  0   0   0   0   0   0   0   0   0   
0   0   0   0   0   0   0   0   0   2   0   1   1   0   0   0   0   0   
29  1   12  150 6   60  153 7   62  153 7   62  153 7   62  153 7   62  
153 7   62  153 7   62  153 7   62  153 7   62  153 7   62  153 7   62  
153 7   62  153 7   62  153 7   62  153 7   62  153 7   62  153 7   62  
153 7   62  153 7   62  153 7   62  153 7   62  153 7   62  153 7   62  
153 7   62  153 7   62  153 7   62  153 7   62  153 7   62  153 7   62  
152 6   61  152 6   61  150 6   61  121 5   48  75  3   30  30  1   12  
2   0   0   0   0   0   0   0   0   0   0   0   0   0   0   0   0   0   
0   0   0   0   0   0   0   0   0   0   0   0   0   0   0   0   0   0   
0   0   0   80  3   32  120 5   58  245 203 236 
245 203 236 245 203 236 149 6   60  44  1   17  0   0   0   0   0   0   
0   0   0   0   0   0   0   0   0   0   0   0   0   0   0   21  1   8   
132 6   53  153 7   62  153 7   62  153 7   62  153 7   62  153 7   62  
153 7   62  153 7   62  153 7   62  153 7   62  153 7   62  153 7   62  
153 7   62  153 7   62  153 7   62  153 7   62  153 7   62  153 7   62  
153 7   62  153 7   62  153 7   62  153 7   62  153 7   62  153 7   62  
153 7   62  153 7   62  153 7   62  153 7   62  153 7   62  153 7   62  
153 7   62  153 7   62  153 7   62  152 6   61  153 6   61  151 5   61  
134 5   53  92  4   37  46  2   18  9   0   3   0   0   0   0   0   0   
0   0   0   0   0   0   0   0   0   0   0   0   0   0   0   1   0   0   
70  3   28  151 6   61  87  5   55  245 203 236 
245 203 236 245 203 236 153 7   62  148 6   60  74  3   30  12  0   5   
0   0   0   0   0   0   2   0   1   21  0   8   72  3   29  141 6   57  
153 7   62  153 7   62  153 7   62  153 7   62  153 7   62  153 7   62  
153 7   62  153 7   62  153 7   62  153 7   62  153 7   62  153 7   62  
153 7   62  153 7   62  153 7   62  153 7   62  153 7   62  153 7   62  
153 7   62  153 7   62  153 7   62  153 7   62  153 7   62  153 7   62  
153 7   62  153 7   62  153 7   62  153 7   62  153 7   62  153 7   62  
153 7   62  153 7   62  153 7   62  153 7   62  153 7   62  153 7   62  
152 6   61  153 5   61  153 5   60  144 5   57  109 4   44  70  3   28  
31  1   12  5   0   2   0   0   0   4   0   1   35  1   14  109 4   43  
152 6   60  153 6   61  85  6   55  245 203 236 
245 203 236 245 203 236 153 7   62  153 7   62  153 7   62  146 6   59  
129 5   52  129 5   52  138 6   56  151 6   61  153 7   62  153 7   62  
153 7   62  153 7   62  153 7   62  153 7   62  153 7   62  153 7   62  
153 7   62  153 7   62  153 7   62  153 7   62  153 7   62  153 7   62  
153 7   62  153 7   62  153 7   62  153 7   62  153 7   62  153 7   62  
153 7   62  153 7   62  153 7   62  153 7   62  153 7   62  153 7   62  
153 7   62  153 7   62  153 7   62  153 7   62  153 7   62  153 7   62  
153 7   62  153 7   62  153 7   62  153 7   62  153 7   62  153 7   62  
153 7   62  153 7   62  153 7   62  152 6   61  152 7   61  152 6   61  
152 6   61  144 5   57  130 5   53  141 5   56  152 6   61  152 5   61  
153 7   62  153 7   62  85  6   55  245 203 236 
245 203 236 245 203 236 153 7   62  153 7   62  153 7   62  153 7   62  
153 7   62  153 7   62  153 7   62  153 7   62  153 7   62  153 7   62  
153 7   62  153 7   62  153 7   62  153 7   62  153 7   62  153 7   62  
153 7   62  153 7   62  153 7   62  153 7   62  153 7   62  153 7   62  
153 7   62  153 7   62  153 7   62  153 7   62  153 7   62  153 7   62  
153 7   62  153 7   62  153 7   62  153 7   62  153 7   62  153 7   62  
153 7   62  153 7   62  153 7   62  153 7   62  153 7   62  153 7   62  
153 7   62  153 7   62  153 7   62  153 7   62  153 7   62  153 7   62  
153 7   62  153 7   62  153 7   62  153 7   62  153 7   62  153 7   62  
153 7   62  153 7   62  153 7   62  153 7   62  153 7   62  153 7   62  
153 7   62  153 7   62  85  6   55  245 203 236 
245 203 236 245 203 236 153 7   62  153 7   62  153 7   62  153 7   62  
153 7   62  153 7   62  153 7   62  153 7   62  153 7   62  153 7   62  
153 7   62  153 7   62  153 7   62  153 7   62  153 7   62  153 7   62  
153 7   62  153 7   62  153 7   62  153 7   62  153 7   62  153 7   62  
153 7   62  153 7   62  153 7   62  153 7   62  153 7   62  153 7   62  
153 7   62  153 7   62  153 7   62  153 7   62  153 7   62  153 7   62  
153 7   62  153 7   62  153 7   62  153 7   62  153 7   62  153 7   62  
153 7   62  153 7   62  153 7   62  153 7   62  153 7   62  153 7   62  
153 7   62  153 7   62  153 7   62  153 7   62  153 7   62  153 7   62  
153 7   62  153 7   62  153 7   62  153 7   62  153 7   62  153 7   62  
153 7   62  153 7   62  85  6   55  245 203 236 
245 203 236 245 203 236 153 7   62  153 7   62  153 7   62  153 7   62  
153 7   62  153 7   62  153 7   62  153 7   62  153 7   62  153 7   62  
153 7   62  153 7   62  153 7   62  153 7   62  153 7   62  153 7   62  
153 7   62  153 7   62  153 7   62  153 7   62  153 7   62  153 7   62  
153 7   62  153 7   62  153 7   62  153 7   62  153 7   62  153 7   62  
153 7   62  153 7   62  153 7   62  153 7   62  153 7   62  153 7   62  
153 7   62  153 7   62  153 7   62  153 7   62  153 7   62  153 7   62  
153 7   62  153 7   62  153 7   62  153 7   62  153 7   62  153 7   62  
153 7   62  153 7   62  153 7   62  153 7   62  153 7   62  153 7   62  
153 7   62  153 7   62  153 7   62  153 7   62  153 7   62  153 7   62  
153 7   62  153 7   62  85  6   55  245 203 236 
245 203 236 245 203 236 153 7   62  153 7   62  153 7   62  153 7   62  
153 7   62  153 7   62  153 7   62  153 7   62  153 7   62  153 7   62  
153 7   62  153 7   62  153 7   62  153 7   62  153 7   62  153 7   62  
153 7   62  153 7   62  153 7   62  153 7   62  153 7   62  153 7   62  
153 7   62  153 7   62  153 7   62  153 7   62  130 5   52  40  1   16  
40  1   16  40  1   16  40  1   16  40  1   16  45  1   18  143 6   58  
153 7   62  153 7   62  153 7   62  153 7   62  153 7   62  153 7   62  
153 7   62  153 7   62  153 7   62  153 7   62  153 7   62  153 7   62  
153 7   62  153 7   62  153 7   62  153 7   62  153 7   62  153 7   62  
153 7   62  153 7   62  153 7   62  153 7   62  153 7   62  153 7   62  
153 7   62  153 7   62  85  6   55  245 203 236 
245 203 236 245 203 236 132 60  92  153 7   62  153 7   62  153 7   62  
153 7   62  153 7   62  153 7   62  153 7   62  153 7   62  153 7   62  
153 7   62  153 7   62  153 7   62  153 7   62  153 7   62  153 7   62  
153 7   62  153 7   62  153 7   62  153 7   62  153 7   62  153 7   62  
153 7   62  153 7   62  153 7   62  153 7   62  79  3   32  0   0   0   
0   0   0   0   0   0   0   0   0   0   0   0   60  2   24  152 6   61  
153 7   62  153 7   62  153 7   62  153 7   62  153 7   62  153 7   62  
153 7   62  153 7   62  153 7   62  153 7   62  153 7   62  153 7   62  
153 7   62  153 7   62  153 7   62  153 7   62  153 7   62  153 7   62  
153 7   62  153 7   62  153 7   62  153 7   62  153 7   62  153 7   62  
153 7   62  144 23  69  82  61  102 245 203 236 
245 203 236 245 203 236 53  39  99  133 60  92  152 6   61  153 7   62  
153 7   62  153 7   62  153 7   62  153 7   62  153 7   62  153 7   62  
153 7   62  153 7   62  153 7   62  153 7   62  153 7   62  153 7   62  
153 7   62  153 7   62  153 7   62  153 7   62  153 7   62  153 7   62  
153 7   62  153 7   62  153 7   62  152 6   61  29  1   12  0   0   0   
0   0   0   0   0   0   0   0   0   4   0   1   133 6   53  153 7   62  
153 7   62  153 7   62  153 7   62  153 7   62  153 7   62  153 7   62  
153 7   62  153 7   62  153 7   62  153 7   62  153 7   62  153 7   62  
153 7   62  153 7   62  153 7   62  153 7   62  153 7   62  153 7   62  
153 7   62  153 7   62  153 7   62  153 7   62  153 7   62  153 7   62  
143 21  67  89  68  106 245 203 236 245 203 236 
245 203 236 245 203 236 245 203 236 53  39  98  129 55  87  152 6   61  
153 7   62  153 7   62  153 7   62  153 7   62  153 7   62  153 7   62  
153 7   62  153 7   62  153 7   62  153 7   62  153 7   62  153 7   62  
153 7   62  153 7   62  153 7   62  153 7   62  153 7   62  153 7   62  
153 7   62  153 7   62  153 7   62  130 6   52  2   0   0   0   0   0   
0   0   0   0   0   0   0   0   0   61  2   24  152 6   61  153 7   62  
153 7   62  153 7   62  153 7   62  153 7   62  153 7   62  153 7   62  
153 7   62  153 7   62  153 7   62  153 7   62  153 7   62  153 7   62  
153 7   62  153 7   62  153 7   62  153 7   62  153 7   62  153 7   62  
153 7   62  153 7   62  153 7   62  153 7   62  153 7   62  144 22  68  
95  74  112 245 203 236 245 203 236 245 203 236 
245 203 236 245 203 236 245 203 236 245 203 236 53  39  98  127 55  87  
153 7   62  153 7   62  153 7   62  153 7   62  153 7   62  153 7   62  
153 7   62  153 7   62  153 7   62  153 7   62  153 7   62  153 7   62  
153 7   62  153 7   62  153 7   62  153 7   62  153 7   62  153 7   62  
153 7   62  153 7   62  153 7   62  85  3   34  0   0   0   0   0   0   
0   0   0   0   0   0   5   0   2   134 6   54  153 7   62  153 7   62  
153 7   62  153 7   62  153 7   62  153 7   62  153 7   62  153 7   62  
153 7   62  153 7   62  153 7   62  153 7   62  153 7   62  153 7   62  
153 7   62  153 7   62  153 7   62  153 7   62  153 7   62  153 7   62  
153 7   62  153 7   62  153 7   62  153 7   62  144 23  69  95  74  112 
245 203 236 245 203 236 245 203 236 245 203 236 
245 203 236 245 203 236 245 203 236 245 203 236 245 203 236 55  41  101 
131 58  90  152 6   61  153 7   62  153 7   62  153 7   62  153 7   62  
153 7   62  153 7   62  153 7   62  153 7   62  153 7   62  153 7   62  
153 7   62  153 7   62  153 7   62  153 7   62  153 7   62  153 7   62  
153 7   62  153 7   62  153 7   62  39  1   16  0   0   0   0   0   0   
0   0   0   0   0   0   63  2   25  153 7   62  153 7   62  153 7   62  
153 7   62  153 7   62  153 7   62  153 7   62  153 7   62  153 7   62  
153 7   62  153 7   62  153 7   62  153 7   62  153 7   62  153 7   62  
153 7   62  153 7   62  153 7   62  153 7   62  153 7   62  153 7   62  
153 7   62  153 7   62  153 7   62  141 20  66  91  70  108 245 203 236 
245 203 236 245 203 236 245 203 236 245 203 236 
245 203 236 245 203 236 245 203 236 245 203 236 245 203 236 245 203 236 
55  41  100 131 57  89  152 6   61  153 7   62  153 7   62  153 7   62  
153 7   62  153 7   62  153 7   62  153 7   62  153 7   62  153 7   62  
153 7   62  153 7   62  153 7   62  153 7   62  153 7   62  153 7   62  
153 7   62  153 7   62  143 6   58  3   0   1   0   0   0   0   0   0   
0   0   0   4   0   2   126 5   51  147 6   59  149 6   60  152 6   61  
153 7   62  153 7   62  153 7   62  153 7   62  153 7   62  153 7   62  
153 7   62  153 7   62  153 7   62  153 7   62  153 7   62  153 7   62  
153 7   62  153 7   62  153 7   62  153 7   62  153 7   62  153 7   62  
153 7   62  153 7   62  141 19  65  92  71  109 245 203 236 245 203 236 
245 203 236 245 203 236 245 203 236 245 203 236 
245 203 236 245 203 236 245 203 236 245 203 236 245 203 236 245 203 236 
245 203 236 55  41  100 126 53  85  153 7   62  153 7   62  153 7   62  
153 7   62  153 7   62  153 7   62  153 7   62  153 7   62  153 7   62  
153 7   62  153 7   62  153 7   62  153 7   62  153 7   62  153 7   62  
153 7   62  153 7   62  100 4   40  0   0   0   0   0   0   0   0   0   
0   0   0   0   0   0   0   0   0   0   0   0   11  0   4   37  1   15  
84  3   34  143 6   58  153 7   62  153 7   62  153 7   62  153 7   62  
153 7   62  153 7   62  153 7   62  153 7   62  153 7   62  153 7   62  
153 7   62  153 7   62  153 7   62  153 7   62  153 7   62  153 7   62  
153 7   62  143 21  67  98  78  115 245 203 236 245 203 236 245 203 236 
245 203 236 245 203 236 245 203 236 245 203 236 
245 203 236 245 203 236 245 203 236 245 203 236 245 203 236 245 203 236 
245 203 236 245 203 236 54  40  100 125 53  85  153 7   62  153 7   62  
153 7   62  153 7   62  153 7   62  153 7   62  153 7   62  153 7   62  
153 7   62  153 7   62  153 7   62  153 7   62  153 7   62  153 7   62  
153 7   62  153 7   62  53  2   21  0   0   0   0   0   0   0   0   0   
0   0   0   0   0   0   0   0   0   41  1   16  73  3   29  50  2   20  
3   0   1   14  0   5   109 5   44  153 7   62  153 7   62  153 7   62  
153 7   62  153 7   62  153 7   62  153 7   62  153 7   62  153 7   62  
153 7   62  153 7   62  153 7   62  153 7   62  153 7   62  153 7   62  
141 20  66  96  75  113 245 203 236 245 203 236 245 203 236 245 203 236 
245 203 236 245 203 236 245 203 236 245 203 236 
245 203 236 245 203 236 245 203 236 245 203 236 245 203 236 245 203 236 
245 203 236 245 203 236 245 203 236 57  43  103 130 57  89  152 6   61  
153 7   62  153 7   62  153 7   62  153 7   62  153 7   62  153 7   62  
153 7   62  153 7   62  153 7   62  153 7   62  153 7   62  153 7   62  
153 7   62  148 6   60  13  0   5   0   0   0   0   0   0   0   0   0   
0   0   0   0   0   0   77  3   31  152 6   61  153 7   62  152 6   61  
101 4   41  0   0   0   5   0   2   118 5   48  153 7   62  153 7   62  
153 7   62  153 7   62  153 7   62  153 7   62  153 7   62  153 7   62  
153 7   62  153 7   62  153 7   62  153 7   62  153 7   62  140 18  64  
94  73  111 245 203 236 245 203 236 245 203 236 245 203 236 245 203 236 
245 203 236 245 203 236 245 203 236 245 203 236 
245 203 236 245 203 236 245 203 236 245 203 236 245 203 236 245 203 236 
245 203 236 245 203 236 245 203 236 245 203 236 57  43  102 126 53  85  
153 7   62  153 7   62  153 7   62  153 7   62  153 7   62  153 7   62  
153 7   62  153 7   62  153 7   62  153 7   62  153 7   62  153 7   62  
153 7   62  119 5   48  0   0   0   0   0   0   0   0   0   0   0   0   
0   0   0   8   0   3   144 6   58  153 7   62  153 7   62  153 7   62  
152 6   61  24  1   9   0   0   0   34  1   14  152 7   61  153 7   62  
153 7   62  153 7   62  153 7   62  153 7   62  153 7   62  153 7   62  
153 7   62  153 7   62  153 7   62  153 7   62  140 18  64  96  75  113 
245 203 236 245 203 236 245 203 236 245 203 236 245 203 236 245 203 236 
245 203 236 245 203 236 245 203 236 245 203 236 
245 203 236 245 203 236 245 203 236 245 203 236 245 203 236 245 203 236 
245 203 236 245 203 236 245 203 236 245 203 236 245 203 236 56  42  102 
125 53  85  153 7   62  153 7   62  153 7   62  153 7   62  153 7   62  
153 7   62  153 7   62  153 7   62  153 7   62  153 7   62  153 7   62  
153 7   62  78  3   31  0   0   0   0   0   0   0   0   0   0   0   0   
0   0   0   10  0   4   147 6   59  153 7   62  153 7   62  153 7   62  
152 6   61  30  1   12  0   0   0   1   0   0   133 6   54  153 7   62  
153 7   62  153 7   62  153 7   62  153 7   62  153 7   62  153 7   62  
153 7   62  153 7   62  153 7   62  138 17  64  55  31  84  245 203 236 
245 203 236 245 203 236 245 203 236 245 203 236 245 203 236 245 203 236 
245 203 236 245 203 236 245 203 236 245 203 236 
245 203 236 245 203 236 245 203 236 245 203 236 245 203 236 245 203 236 
245 203 236 245 203 236 245 203 236 245 203 236 245 203 236 245 203 236 
56  42  102 126 53  85  152 6   61  153 7   62  153 7   62  153 7   62  
153 7   62  153 7   62  153 7   62  153 7   62  153 7   62  153 7   62  
153 7   62  41  1   16  0   0   0   0   0   0   0   0   0   0   0   0   
0   0   0   0   0   0   99  4   40  153 7   62  153 7   62  153 7   62  
122 5   49  2   0   0   0   0   0   0   0   0   102 4   41  153 7   62  
153 7   62  153 7   62  153 7   62  153 7   62  153 7   62  153 7   62  
153 7   62  153 7   62  137 15  62  245 203 236 245 203 236 245 203 236 
245 203 236 245 203 236 245 203 236 245 203 236 245 203 236 245 203 236 
245 203 236 245 203 236 245 203 236 245 203 236 
245 203 236 245 203 236 245 203 236 245 203 236 245 203 236 245 203 236 
245 203 236 245 203 236 245 203 236 245 203 236 245 203 236 245 203 236 
245 203 236 245 203 236 106 31  71  152 6   61  153 7   62  153 7   62  
153 7   62  153 7   62  153 7   62  153 7   62  153 7   62  153 7   62  
153 7   62  19  0   7   0   0   0   0   0   0   0   0   0   0   0   0   
0   0   0   0   0   0   5   0   2   71  3   28  103 4   41  80  3   32  
12  0   5   0   0   0   0   0   0   0   0   0   89  4   36  153 7   62  
153 7   62  153 7   62  153 7   62  153 7   62  153 7   62  153 7   62  
153 7   62  137 15  62  245 203 236 245 203 236 245 203 236 245 203 236 
245 203 236 245 203 236 245 203 236 245 203 236 245 203 236 245 203 236 
245 203 236 245 203 236 245 203 236 245 203 236 
245 203 236 245 203 236 245 203 236 245 203 236 245 203 236 245 203 236 
245 203 236 245 203 236 245 203 236 245 203 236 245 203 236 245 203 236 
245 203 236 245 203 236 245 203 236 102 28  68  153 7   62  153 7   62  
153 7   62  153 7   62  153 7   62  153 7   62  153 7   62  153 7   62  
153 7   62  29  1   12  0   0   0   0   0   0   0   0   0   0   0   0   
0   0   0   0   0   0   0   0   0   0   0   0   0   0   0   0   0   0   
0   0   0   0   0   0   0   0   0   0   0   0   90  4   36  153 7   62  
153 7   62  153 7   62  153 7   62  153 7   62  153 7   62  153 7   62  
136 15  62  245 203 236 245 203 236 245 203 236 245 203 236 245 203 236 
245 203 236 245 203 236 245 203 236 245 203 236 245 203 236 245 203 236 
245 203 236 245 203 236 245 203 236 245 203 236 
245 203 236 245 203 236 245 203 236 245 203 236 245 203 236 245 203 236 
245 203 236 245 203 236 245 203 236 245 203 236 245 203 236 245 203 236 
245 203 236 245 203 236 245 203 236 245 203 236 102 28  68  152 6   61  
153 7   62  153 7   62  153 7   62  153 7   62  153 7   62  153 7   62  
153 7   62  70  3   28  0   0   0   0   0   0   0   0   0   0   0   0   
0   0   0   0   0   0   0   0   0   0   0   0   0   0   0   0   0   0   
0   0   0   0   0   0   0   0   0   0   0   0   120 5   48  153 7   62  
153 7   62  153 7   62  153 7   62  153 7   62  153 7   62  136 15  62  
57  33  86  245 203 236 245 203 236 245 203 236 245 203 236 245 203 236 
245 203 236 245 203 236 245 203 236 245 203 236 245 203 236 245 203 236 
245 203 236 245 203 236 245 203 236 245 203 236 
245 203 236 245 203 236 245 203 236 245 203 236 245 203 236 245 203 236 
245 203 236 245 203 236 245 203 236 245 203 236 245 203 236 245 203 236 
245 203 236 245 203 236 245 203 236 245 203 236 245 203 236 104 29  69  
152 6   61  153 7   62  153 7   62  153 7   62  153 7   62  153 7   62  
153 7   62  134 6   54  8   0   3   0   0   0   0   0   0   0   0   0   
0   0   0   0   0   0   0   0   0   0   0   0   0   0   0   0   0   0   
0   0   0   0   0   0   0   0   0   36  1   14  152 6   61  153 7   62  
153 7   62  153 7   62  153 7   62  153 7   62  137 15  62  56  32  85  
245 203 236 245 203 236 245 203 236 245 203 236 245 203 236 245 203 236 
245 203 236 245 203 236 245 203 236 245 203 236 245 203 236 245 203 236 
245 203 236 245 203 236 245 203 236 245 203 236 
245 203 236 245 203 236 245 203 236 245 203 236 245 203 236 245 203 236 
245 203 236 245 203 236 245 203 236 245 203 236 245 203 236 245 203 236 
245 203 236 245 203 236 245 203 236 245 203 236 245 203 236 245 203 236 
105 30  70  153 7   62  153 7   62  153 7   62  153 7   62  153 7   62  
153 7   62  153 7   62  102 4   41  1   0   0   0   0   0   0   0   0   
0   0   0   0   0   0   0   0   0   0   0   0   0   0   0   0   0   0   
0   0   0   0   0   0   19  0   7   133 6   53  153 7   62  153 7   62  
153 7   62  153 7   62  153 7   62  137 15  62  56  32  85  245 203 236 
245 203 236 245 203 236 245 203 236 245 203 236 245 203 236 245 203 236 
245 203 236 245 203 236 245 203 236 245 203 236 245 203 236 245 203 236 
245 203 236 245 203 236 245 203 236 245 203 236 
245 203 236 245 203 236 245 203 236 245 203 236 245 203 236 245 203 236 
245 203 236 245 203 236 245 203 236 245 203 236 245 203 236 245 203 236 
245 203 236 245 203 236 245 203 236 245 203 236 245 203 236 245 203 236 
245 203 236 104 30  69  133 6   54  133 6   54  133 6   54  133 6   54  
133 6   54  133 6   54  134 6   54  103 4   41  13  0   5   0   0   0   
0   0   0   0   0   0   0   0   0   0   0   0   0   0   0   0   0   0   
1   0   0   51  2   20  130 5   52  133 6   54  133 6   54  133 6   54  
133 6   54  133 6   54  128 15  59  56  32  85  245 203 236 245 203 236 
245 203 236 245 203 236 245 203 236 245 203 236 245 203 236 245 203 236 
245 203 236 245 203 236 245 203 236 245 203 236 245 203 236 245 203 236 
245 203 236 245 203 236 245 203 236 245 203 236 
245 203 236 245 203 236 245 203 236 245 203 236 245 203 236 245 203 236 
245 203 236 245 203 236 245 203 236 245 203 236 245 203 236 245 203 236 
245 203 236 245 203 236 245 203 236 245 203 236 245 203 236 245 203 236 
245 203 236 245 203 236 245 203 236 245 203 236 245 203 236 245 203 236 
245 203 236 245 203 236 245 203 236 74  9   76  129 6   59  83  3   33  
37  1   15  13  0   5   8   0   3   13  0   5   32  1   13  67  3   27  
119 5   49  111 8   69  245 203 236 245 203 236 245 203 236 245 203 236 
245 203 236 245 203 236 245 203 236 245 203 236 245 203 236 245 203 236 
245 203 236 245 203 236 245 203 236 245 203 236 245 203 236 245 203 236 
245 203 236 245 203 236 245 203 236 245 203 236 245 203 236 245 203 236 
245 203 236 245 203 236 245 203 236 245 203 236 
245 203 236 245 203 236 245 203 236 245 203 236 245 203 236 245 203 236 
245 203 236 245 203 236 245 203 236 245 203 236 245 203 236 245 203 236 
245 203 236 245 203 236 245 203 236 245 203 236 245 203 236 245 203 236 
245 203 236 245 203 236 245 203 236 245 203 236 245 203 236 245 203 236 
245 203 236 245 203 236 245 203 236 245 203 236 245 203 236 121 61  112 
154 60  106 170 57  101 168 52  96  172 59  103 159 59  105 131 60  110 
245 203 236 245 203 236 245 203 236 245 203 236 245 203 236 245 203 236 
245 203 236 245 203 236 245 203 236 245 203 236 245 203 236 245 203 236 
245 203 236 245 203 236 245 203 236 245 203 236 245 203 236 245 203 236 
245 203 236 245 203 236 245 203 236 245 203 236 245 203 236 245 203 236 
245 203 236 245 203 236 245 203 236 245 203 236 
