P3
64 64
255
25  0   48  6   0   4   1   0   8   1   2   6   4   0   3   2   2   4   
2   1   0   0   1   3   0   2   0   1   2   0   1   2   0   3   2   7   
5   3   0   4   0   1   5   0   0   3   1   2   4   3   1   4   3   0   
1   3   0   2   5   0   7   1   1   6   1   0   1   5   0   5   0   4   
6   0   2   2   2   4   0   2   0   2   4   3   0   0   4   2   3   0   
0   1   3   3   2   0   0   4   0   3   1   2   1   0   6   6   1   7   
3   0   7   2   2   0   0   0   2   0   4   0   3   3   1   1   3   2   
0   0   0   0   2   1   0   3   0   5   2   0   6   0   0   3   0   0   
1   2   7   0   2   0   0   4   7   3   3   5   5   4   2   0   6   0   
4   2   3   1   1   3   2   1   6   0   5   0   4   2   5   4   2   3   
6   0   2   2   3   0   1   2   0   0   9   0   
13  0   2   167 251 67  144 255 39  157 255 12  161 253 2   153 255 8   
146 251 0   135 240 0   123 233 0   116 223 0   133 238 0   167 254 87  
198 254 147 199 254 153 174 250 128 154 247 81  155 251 66  144 235 52  
133 223 30  121 212 11  129 226 0   141 237 3   151 248 27  170 255 87  
178 255 111 166 255 109 154 255 89  155 254 85  143 245 75  127 229 32  
124 225 35  126 225 44  138 235 67  149 247 50  150 247 20  141 238 17  
134 231 40  139 234 72  134 230 58  121 223 25  102 214 18  62  192 4   
63  189 2   94  195 13  101 201 25  111 207 12  117 209 0   112 205 2   
93  189 1   77  178 0   109 196 39  123 207 59  89  189 15  76  182 0   
187 226 137 233 255 178 228 250 139 166 226 53  113 204 5   131 213 69  
194 242 143 165 228 113 148 235 60  174 255 109 
4   1   12  150 255 48  147 254 38  160 255 29  164 255 10  154 255 3   
149 255 0   133 241 0   123 229 0   103 218 1   139 242 37  177 255 120 
205 254 162 199 253 159 170 250 127 160 249 83  160 251 72  138 228 52  
120 203 23  123 209 14  124 220 8   141 237 3   141 249 6   161 255 59  
176 255 110 182 255 114 169 255 111 158 254 102 151 252 88  127 227 43  
128 220 31  123 223 37  142 236 51  149 248 35  148 246 1   133 236 9   
128 227 48  135 232 73  127 229 42  114 220 26  104 210 22  65  188 9   
74  188 5   98  197 19  103 199 27  117 207 23  111 206 14  117 211 1   
104 203 0   95  193 0   102 201 20  111 214 49  105 205 29  81  186 8   
105 182 16  153 232 79  183 251 86  150 235 22  114 213 0   97  203 9   
143 224 96  142 217 98  133 214 73  139 235 47  
3   3   5   141 243 37  146 255 47  161 255 38  167 254 25  154 255 0   
154 255 1   131 240 1   120 232 0   110 222 0   153 246 69  187 255 134 
208 255 161 187 253 145 160 242 105 153 240 84  154 244 71  139 225 52  
114 198 24  110 193 15  122 217 11  140 238 13  141 243 12  151 255 48  
172 255 101 180 255 119 182 253 131 173 254 126 155 254 102 134 235 53  
121 219 20  121 222 30  134 233 44  146 248 25  147 244 4   129 230 2   
123 220 42  130 224 65  125 222 47  114 216 29  104 210 26  77  191 8   
75  186 3   96  197 17  104 199 37  110 201 22  110 206 8   123 217 0   
121 214 0   114 208 0   99  195 0   110 212 17  122 219 24  109 207 10  
94  191 0   107 206 2   135 223 1   137 226 0   118 218 0   107 207 0   
114 211 10  111 207 22  106 203 26  111 214 11  
3   3   1   136 238 33  146 254 55  163 255 59  166 255 47  149 255 7   
147 254 2   135 243 0   121 228 0   126 231 25  160 248 88  196 255 137 
201 254 148 163 255 105 146 237 74  138 226 66  140 226 75  137 217 56  
103 189 16  113 197 23  129 221 26  140 238 27  143 247 28  146 249 35  
168 255 88  184 255 115 193 254 133 191 255 145 171 255 126 143 238 76  
124 224 16  118 221 18  131 232 32  142 245 16  143 240 0   119 219 0   
110 208 27  121 217 45  121 219 38  114 214 28  109 209 33  93  202 23  
82  190 9   96  195 17  100 196 26  95  192 15  111 207 19  126 220 18  
129 224 18  133 222 32  122 220 11  114 215 1   114 215 0   114 215 0   
108 208 0   107 206 1   115 209 0   120 215 0   123 220 3   122 219 2   
119 214 0   108 205 1   99  194 4   90  185 0   
0   2   0   144 242 45  150 254 69  154 254 67  151 255 54  138 247 8   
138 242 0   135 238 1   118 223 0   140 234 50  160 243 93  186 255 128 
182 255 112 166 254 84  144 235 56  127 217 59  134 217 77  128 211 61  
96  186 11  118 201 25  140 230 36  147 246 42  147 250 36  147 249 41  
159 254 74  182 254 110 194 253 133 200 255 151 184 255 144 144 240 91  
121 224 19  119 221 13  132 232 22  138 240 9   132 234 0   110 215 1   
108 208 24  122 215 36  122 217 29  116 215 28  117 217 31  103 209 23  
87  194 16  88  194 8   92  192 8   87  188 6   112 209 34  143 231 57  
146 239 72  144 236 73  129 226 23  123 223 1   119 216 0   121 216 0   
112 206 0   109 204 0   112 209 6   109 211 14  112 210 29  120 215 37  
118 207 31  90  183 6   68  167 0   61  156 4   
1   1   3   157 252 60  153 253 77  139 245 59  128 240 44  122 233 7   
128 231 0   129 232 1   122 226 5   137 227 51  153 233 84  167 251 104 
167 255 83  169 255 70  148 240 55  122 214 53  126 209 77  125 206 75  
102 191 21  124 207 29  144 235 42  162 255 58  163 255 53  157 255 56  
154 253 64  170 255 87  187 254 123 201 254 146 187 254 151 144 238 102 
122 222 26  123 226 12  132 233 19  136 238 6   121 226 0   107 215 8   
113 211 30  126 222 36  123 221 20  115 215 19  120 221 21  115 218 25  
95  198 19  81  185 2   76  181 1   90  192 7   123 218 56  161 245 87  
161 248 91  151 241 81  145 242 39  144 243 30  137 234 30  135 229 29  
120 213 19  103 199 14  113 204 38  103 204 48  107 205 58  112 204 67  
99  185 50  63  154 14  42  132 0   43  125 1   
3   3   1   157 247 61  151 248 80  118 227 40  106 219 23  102 213 12  
117 220 7   117 221 0   115 218 5   120 213 36  136 217 60  139 230 64  
151 244 50  151 248 57  141 238 47  122 218 50  125 208 78  136 210 97  
130 205 63  133 214 51  156 241 60  165 255 62  174 254 59  162 255 53  
152 249 54  152 250 69  170 253 99  197 255 138 186 255 148 144 236 111 
106 212 26  125 225 13  129 230 12  130 232 1   121 221 0   113 216 23  
122 217 37  130 227 36  117 219 11  113 215 17  118 220 15  122 222 25  
96  199 20  67  177 0   64  172 0   91  190 9   120 218 57  152 246 98  
155 248 98  145 240 84  150 243 74  162 253 90  158 252 93  143 240 85  
122 219 64  108 200 55  112 203 63  109 206 75  105 201 68  102 193 66  
80  169 39  42  133 4   35  115 2   30  115 0   
3   1   6   148 236 54  139 235 65  98  209 27  80  191 1   92  199 7   
105 212 10  104 211 9   97  201 2   101 193 20  103 195 24  90  190 3   
122 222 28  131 226 38  122 226 28  111 213 28  117 208 69  153 220 123 
157 222 118 152 222 98  161 241 80  158 249 58  176 255 65  168 255 54  
153 246 44  141 239 40  145 244 63  181 255 111 185 255 133 151 242 115 
104 209 47  118 221 20  130 229 0   124 224 2   113 215 9   118 216 35  
126 221 41  123 223 29  110 213 8   111 212 22  116 219 16  120 220 23  
95  198 19  67  177 4   65  171 1   93  190 12  110 211 43  127 226 74  
128 232 85  129 225 73  145 248 83  166 255 111 164 255 115 156 251 109 
136 229 88  119 215 63  111 210 68  105 207 71  97  192 64  76  171 45  
50  142 15  24  111 0   31  109 0   31  114 6   
0   1   0   137 223 52  127 216 50  80  190 13  81  185 4   102 196 20  
105 205 27  103 204 14  82  191 4   82  177 0   72  170 0   78  172 0   
102 201 12  112 211 24  106 212 18  105 208 15  113 206 55  153 225 126 
164 228 134 150 221 119 149 227 81  144 233 47  160 250 56  167 254 54  
152 244 39  140 231 29  128 226 41  161 255 87  180 255 111 159 250 111 
126 228 82  123 217 41  126 222 10  112 215 2   112 211 20  122 219 41  
129 225 40  120 218 21  111 213 16  102 202 24  115 217 22  113 209 23  
99  197 16  67  177 0   73  182 1   89  187 6   104 204 30  124 225 71  
136 236 86  131 232 76  140 241 75  161 255 105 168 255 116 160 252 107 
146 240 94  125 217 74  105 201 67  100 198 59  82  178 52  56  153 22  
35  130 0   30  115 0   33  116 2   30  113 0   
1   1   1   121 206 43  115 208 42  90  194 13  82  183 1   102 194 25  
109 203 47  114 205 52  97  188 25  83  177 5   82  171 3   73  170 0   
90  185 3   100 200 13  107 205 22  112 212 16  112 208 40  132 212 101 
158 223 139 143 216 127 131 214 84  127 221 37  143 237 37  160 251 52  
152 239 39  137 223 28  113 214 14  139 235 49  166 253 86  164 253 101 
153 244 107 140 232 85  121 225 18  111 213 5   107 206 28  123 221 48  
131 228 35  119 218 14  110 207 12  105 204 26  103 205 18  101 200 19  
91  191 13  77  181 0   79  183 0   89  186 11  99  194 32  121 223 62  
139 239 91  133 236 82  133 238 75  157 253 101 166 255 118 165 255 112 
149 243 97  120 212 75  87  184 51  88  182 46  71  167 33  42  142 8   
50  138 2   46  131 1   50  131 0   42  122 1   
3   3   5   111 197 24  103 196 46  101 196 34  97  195 22  104 198 24  
112 208 49  130 209 90  129 205 79  119 195 63  133 202 77  86  181 19  
91  180 12  102 195 26  117 206 36  124 214 31  108 208 32  114 200 73  
143 217 128 141 220 129 129 211 87  131 221 48  137 232 40  154 245 52  
143 235 38  124 216 21  106 201 13  110 203 26  131 230 49  152 242 84  
160 245 118 167 248 119 136 232 64  108 210 4   101 202 22  119 218 39  
126 224 25  114 217 6   115 213 16  108 207 20  95  192 15  89  193 12  
78  182 9   73  177 2   85  184 5   98  190 31  96  190 40  110 211 57  
136 237 83  135 238 84  139 240 84  152 251 98  172 255 119 160 254 114 
141 238 83  103 203 53  83  178 24  85  175 18  96  173 7   76  160 4   
74  149 5   65  149 2   57  140 0   42  124 0   
1   0   0   113 202 14  113 200 43  106 195 51  102 196 40  96  196 22  
110 201 48  141 215 104 148 221 113 138 212 101 158 226 117 123 206 72  
88  181 15  100 191 36  113 198 42  124 211 34  110 208 33  105 195 63  
134 210 119 143 219 131 147 224 112 150 236 83  138 240 45  141 240 49  
132 225 31  115 210 22  112 205 26  102 195 26  108 204 32  127 222 60  
161 242 114 171 247 125 160 244 96  115 214 10  102 205 12  114 214 27  
124 223 19  110 210 0   116 213 9   110 210 14  99  208 5   81  183 22  
79  183 0   75  180 0   90  188 13  115 207 48  97  191 43  96  196 46  
126 227 71  135 239 82  139 239 87  153 249 100 166 254 116 154 249 105 
132 228 77  103 201 38  97  183 10  108 186 4   117 184 6   106 176 15  
89  163 16  76  158 11  59  139 4   46  128 4   
6   2   1   117 207 0   116 207 24  112 200 51  104 191 60  94  188 30  
102 196 50  141 217 117 158 227 134 158 231 139 169 236 141 159 224 122 
97  190 47  95  183 34  113 195 48  128 210 50  111 206 44  100 192 55  
121 203 105 141 216 131 162 234 126 168 253 106 154 255 63  156 254 69  
134 230 44  113 216 25  114 209 29  107 202 36  101 194 43  95  192 37  
132 218 85  162 244 118 160 242 105 130 226 41  105 211 1   112 214 16  
119 219 9   97  206 0   103 209 0   112 212 18  95  172 60  74  148 3   
95  186 57  93  195 23  101 199 28  120 212 51  90  183 40  76  175 33  
111 213 52  126 230 71  139 239 79  156 251 97  151 245 95  135 232 73  
121 223 36  101 198 3   113 194 1   120 184 0   117 186 15  108 188 29  
104 173 30  87  164 26  73  153 22  45  125 10  
4   0   3   113 198 0   114 205 4   114 208 36  95  188 47  88  181 41  
96  185 41  135 210 105 161 229 144 151 229 143 170 239 150 172 238 141 
117 199 75  85  174 32  108 189 52  123 207 51  108 204 42  97  192 48  
114 197 91  135 214 125 161 236 135 178 255 121 169 255 78  180 255 89  
158 253 73  126 228 33  120 216 31  118 212 40  106 201 47  86  181 37  
105 196 59  154 232 110 166 248 111 145 236 70  108 212 5   113 212 7   
111 210 5   90  193 0   82  191 1   96  209 0   111 193 57  87  187 26  
83  148 46  110 209 38  104 211 37  118 214 52  87  179 36  61  161 26  
94  195 37  118 224 62  135 236 80  150 246 97  143 238 72  121 224 19  
107 211 0   99  197 0   107 186 0   97  171 0   92  178 29  84  177 45  
103 173 38  88  163 34  73  152 27  48  127 18  
10  0   8   104 190 0   110 205 1   112 206 8   108 200 27  88  184 33  
89  184 40  119 201 73  152 222 123 150 224 135 161 233 147 176 238 152 
129 206 102 81  173 38  100 181 52  116 202 53  102 204 34  97  195 46  
106 192 81  127 208 115 154 230 132 174 253 125 176 255 83  197 255 99  
182 255 104 143 244 52  129 227 30  125 220 30  116 212 40  98  194 32  
92  185 34  134 222 74  166 248 101 160 244 84  122 217 25  108 210 4   
104 205 3   83  188 0   59  173 0   137 196 106 110 205 25  105 208 43  
109 220 27  120 226 38  110 222 50  115 212 45  93  186 33  59  157 22  
76  181 26  110 216 54  131 232 76  147 243 94  134 234 40  107 211 0   
96  199 0   83  181 0   80  166 3   76  168 5   68  172 47  73  177 56  
89  170 33  81  158 30  71  149 27  58  138 27  
4   0   0   91  179 0   93  192 1   112 202 8   117 206 16  102 197 17  
96  193 28  100 193 40  130 215 85  141 219 120 158 232 145 182 246 162 
146 219 129 89  179 56  86  172 47  113 199 50  110 207 39  94  195 39  
104 190 79  122 204 104 140 219 127 155 243 120 176 255 77  195 255 90  
196 255 113 159 255 67  139 242 37  129 226 22  119 215 19  116 207 26  
105 201 31  124 219 37  163 245 85  171 249 85  134 225 46  104 205 3   
97  201 2   81  187 1   150 212 115 98  189 34  108 205 38  105 212 46  
113 220 42  119 224 59  115 218 49  110 212 42  90  188 25  65  162 23  
82  182 24  102 204 42  127 227 69  141 238 81  128 230 24  107 207 0   
86  188 1   68  167 0   70  165 0   93  188 36  92  195 60  84  191 53  
65  152 19  68  143 16  69  143 18  71  143 33  
5   1   0   98  182 9   95  190 12  113 198 17  123 209 24  116 208 23  
104 203 16  102 202 15  113 208 46  130 211 90  149 225 125 186 250 166 
174 237 156 103 192 76  84  171 41  112 198 49  112 210 35  90  195 33  
98  185 70  117 199 99  128 207 116 138 228 105 167 255 71  187 255 80  
199 254 109 172 255 82  139 246 42  134 235 21  125 221 9   128 217 27  
112 203 22  121 217 22  153 240 65  175 252 88  158 240 70  106 206 9   
98  202 3   80  191 0   144 200 113 124 211 54  104 205 47  102 214 42  
112 222 39  128 231 64  111 216 51  97  200 33  91  187 25  86  179 28  
74  173 20  90  195 33  118 215 58  127 223 61  118 219 17  105 203 2   
77  170 1   71  169 8   94  192 27  102 202 44  107 211 64  98  205 50  
56  147 7   47  123 0   56  131 2   65  139 16  
5   1   0   119 200 37  110 201 38  104 190 29  112 195 27  108 198 22  
93  192 1   100 202 5   140 233 82  112 208 57  127 211 89  177 241 157 
182 246 160 118 206 96  90  176 41  103 194 41  113 210 32  92  192 31  
90  181 54  110 193 89  113 198 105 114 209 79  133 242 52  166 253 61  
192 255 102 178 255 92  146 255 61  135 236 18  127 223 11  135 224 44  
121 206 27  121 206 27  127 216 36  153 230 72  157 234 68  126 219 27  
100 202 17  185 236 217 141 220 75  160 237 99  107 213 53  101 214 38  
112 223 40  117 225 53  98  204 44  74  181 17  90  186 14  96  189 22  
73  170 15  71  177 15  99  196 39  109 204 38  96  195 6   106 205 24  
74  167 1   97  185 37  107 214 38  94  207 39  104 210 52  102 208 46  
79  174 12  47  128 0   40  115 0   52  133 4   
1   1   3   130 215 60  118 208 59  107 191 41  102 182 33  87  179 16  
76  176 2   145 244 99  130 229 121 101 200 31  106 196 39  151 227 119 
164 235 139 122 211 93  95  186 49  102 193 38  108 206 25  97  201 20  
88  180 43  102 185 79  97  185 85  90  192 54  117 223 39  158 255 59  
192 255 100 187 253 104 155 254 75  137 241 30  124 229 25  130 225 61  
128 206 45  125 195 44  107 189 29  133 206 63  147 217 66  140 228 54  
131 222 31  119 222 19  177 242 100 173 253 106 127 228 62  104 217 39  
112 222 45  115 222 54  87  195 34  61  168 13  95  189 13  112 197 16  
75  173 10  57  165 4   74  172 9   85  180 14  80  184 3   106 213 57  
86  180 24  96  189 39  107 221 22  101 216 25  103 212 41  90  201 36  
85  191 23  46  139 0   34  112 0   40  126 1   
2   2   0   136 226 69  127 217 70  108 194 43  93  176 26  77  172 18  
91  200 23  125 231 95  104 218 81  99  209 22  85  193 11  120 203 73  
133 216 98  118 209 80  101 195 59  101 193 48  104 202 27  96  198 11  
79  180 38  88  181 67  78  174 64  67  179 35  107 211 38  160 255 65  
189 254 88  198 254 119 163 255 82  139 248 45  124 233 43  125 223 52  
128 201 50  118 186 49  93  171 33  103 179 47  131 201 68  148 237 51  
3   29  2   129 227 54  155 250 84  161 253 94  135 240 62  114 222 48  
109 221 49  109 216 52  81  186 32  47  155 7   87  181 5   111 201 7   
87  182 2   65  163 0   63  159 0   62  155 2   72  175 8   109 213 54  
94  200 30  87  182 20  112 226 16  117 228 25  101 214 38  85  203 33  
98  197 44  54  145 5   35  116 0   42  121 2   
1   3   2   145 236 81  125 221 70  104 194 37  90  175 20  88  179 16  
131 238 74  105 211 49  113 219 71  113 224 41  104 217 11  102 209 31  
114 213 58  112 208 59  108 200 65  97  188 61  102 191 47  94  190 31  
77  175 30  77  171 47  62  168 42  48  162 12  94  201 27  161 255 67  
179 254 73  211 255 123 163 254 89  137 249 53  129 238 57  120 226 56  
124 203 49  114 181 52  94  162 43  70  151 22  119 199 48  150 245 55  
130 225 69  146 255 68  130 236 68  138 241 72  138 247 58  118 227 46  
103 214 49  97  203 45  70  180 23  45  149 2   82  179 2   107 200 0   
96  189 0   74  172 0   66  160 4   51  139 1   66  168 6   99  219 34  
93  204 24  89  194 13  112 228 17  121 232 32  106 216 39  100 209 40  
101 195 39  56  134 0   40  114 0   48  129 0   
0   1   8   143 241 80  128 229 75  120 202 55  89  177 31  107 217 30  
93  212 32  75  183 12  94  211 53  110 227 27  139 251 55  117 235 35  
102 217 36  107 210 43  95  199 52  94  185 54  161 192 158 222 239 194 
105 168 89  68  177 48  58  172 35  45  157 13  74  188 4   147 255 56  
173 253 66  227 255 119 175 255 99  126 243 51  132 240 58  120 225 47  
120 202 39  105 179 40  80  156 32  72  154 30  112 206 56  109 142 161 
168 255 91  147 255 73  120 226 58  102 213 48  124 232 48  122 229 51  
99  207 46  82  188 40  50  166 15  50  155 10  81  179 4   96  199 0   
99  197 0   85  180 0   65  160 4   49  137 0   66  167 9   107 223 26  
84  202 20  80  201 0   100 220 8   118 233 28  105 216 36  89  205 32  
67  172 17  40  118 0   34  117 1   56  145 0   
0   4   3   153 243 85  147 246 91  129 226 71  107 191 44  138 245 69  
76  199 7   81  193 21  71  187 16  139 250 57  154 255 75  135 254 64  
122 238 53  104 213 42  102 193 62  109 189 64  96  187 58  81  177 54  
73  173 38  73  179 31  14  32  20  90  161 57  79  171 12  136 254 48  
175 254 65  225 255 114 187 255 107 137 247 62  128 237 56  123 228 50  
104 196 23  94  174 25  71  150 22  69  151 27  96  176 45  5   0   0   
149 255 78  150 255 81  118 224 62  89  203 43  111 219 38  117 224 46  
94  200 42  75  181 31  48  162 12  58  161 17  86  184 3   107 205 0   
105 197 0   78  175 0   60  158 0   47  138 0   60  165 13  125 239 40  
88  202 16  75  197 2   99  218 6   124 237 33  105 217 31  87  200 24  
52  150 5   37  127 3   52  149 16  69  164 8   
2   0   1   122 220 71  161 255 101 149 241 114 120 213 62  106 220 10  
77  189 16  100 208 36  108 213 48  130 244 45  158 255 85  150 255 85  
136 253 76  119 240 47  91  208 49  87  205 43  85  180 28  74  179 25  
72  179 39  67  182 53  60  173 31  58  169 13  60  123 16  156 201 158 
166 255 62  207 254 98  190 255 111 152 255 76  129 240 60  113 223 40  
91  198 6   82  174 1   68  150 6   63  145 19  77  130 38  18  56  0   
138 248 75  151 255 78  122 235 69  94  200 42  101 210 33  111 215 40  
97  200 46  68  177 24  48  161 11  57  159 15  88  182 6   106 205 1   
96  188 1   78  176 1   56  155 0   46  137 10  64  163 21  129 240 40  
99  211 15  66  188 0   99  215 2   118 230 24  102 214 28  78  197 11  
51  158 2   57  160 6   86  191 39  66  170 11  
6   1   8   41  159 13  93  213 17  35  162 0   129 237 38  85  204 1   
100 202 30  80  199 19  100 216 19  129 246 53  152 255 81  151 255 87  
141 255 64  159 250 121 124 245 54  133 238 60  117 211 35  83  191 19  
72  182 31  87  195 58  76  185 40  65  179 19  81  184 19  118 210 75  
138 212 91  227 238 169 192 255 110 166 255 81  142 246 73  102 218 31  
93  206 2   80  177 0   66  156 0   72  153 16  106 161 130 115 221 61  
136 242 71  165 254 76  145 237 68  98  205 41  94  200 29  105 208 39  
94  197 43  64  173 20  51  154 10  58  159 17  77  175 12  85  191 5   
95  195 1   69  161 0   50  142 5   42  131 13  49  144 16  109 218 28  
113 226 12  69  192 0   106 225 11  125 237 29  109 220 30  78  193 2   
65  175 2   83  192 25  101 202 44  61  155 19  
0   1   0   59  167 6   65  185 0   39  159 0   87  206 0   65  185 0   
110 205 27  102 207 26  102 215 13  131 244 64  145 254 75  136 255 69  
128 253 39  166 220 171 137 251 50  151 255 74  169 252 48  107 217 34  
87  198 33  89  197 51  92  201 50  71  178 22  93  190 33  135 227 66  
193 255 89  208 255 98  1   0   11  177 251 96  141 250 69  112 217 36  
113 222 19  94  200 4   83  182 3   95  186 7   98  177 52  135 234 55  
128 235 59  166 254 71  146 244 61  95  203 31  76  185 14  97  199 37  
86  189 36  54  163 10  47  149 11  51  155 18  59  161 13  73  179 17  
100 210 37  90  189 18  45  133 10  44  130 21  45  129 17  75  185 10  
123 238 15  89  208 4   112 228 18  128 237 32  108 219 28  87  203 8   
88  198 23  96  205 34  85  191 21  45  133 11  
1   3   0   52  166 6   58  175 0   56  181 1   104 207 12  81  192 2   
110 213 34  97  207 14  97  221 1   92  218 56  138 245 77  111 235 35  
96  223 22  139 235 84  122 240 30  150 255 67  180 255 55  137 242 64  
111 218 42  105 210 45  100 203 50  71  176 24  87  178 39  114 207 54  
202 255 103 219 252 101 0   6   0   95  108 80  145 239 99  130 209 100 
117 232 27  114 220 26  92  209 9   115 205 32  112 220 49  130 240 67  
124 231 63  156 255 66  140 245 57  92  201 22  72  180 9   85  189 30  
70  177 21  46  155 4   49  151 13  52  153 21  49  150 18  69  177 32  
117 224 56  107 217 44  82  176 28  41  127 16  38  124 17  64  173 6   
129 240 23  115 226 23  127 238 37  118 225 25  101 217 20  88  206 10  
100 209 32  103 211 30  62  167 4   51  133 5   
3   0   0   61  168 10  59  177 3   106 210 9   123 227 29  97  206 19  
109 221 25  123 234 33  84  205 2   88  190 29  95  223 24  106 232 19  
77  211 0   44  154 0   87  209 4   131 245 44  166 255 63  166 254 92  
127 234 58  122 222 48  94  198 41  67  169 21  79  169 35  92  183 44  
183 255 85  255 251 140 202 253 126 140 215 71  75  173 64  198 249 157 
112 225 31  122 229 37  102 221 17  0   12  0   132 234 62  127 234 66  
125 232 64  146 248 53  138 246 47  99  207 25  84  190 20  77  183 25  
55  164 9   41  150 0   48  153 11  52  155 20  48  149 19  59  166 24  
117 228 48  103 218 37  92  199 23  55  152 13  50  142 17  80  185 22  
142 255 39  134 245 45  142 250 50  122 229 29  104 219 27  93  208 19  
111 209 38  83  182 11  42  136 0   45  130 1   
5   0   1   87  188 8   75  178 11  124 227 24  109 221 23  119 222 45  
130 237 47  141 253 57  123 245 38  92  211 31  109 223 21  121 249 26  
108 234 12  83  212 5   73  197 0   108 220 24  122 222 44  102 197 71  
142 240 67  118 222 51  90  197 33  60  162 14  66  154 31  69  154 33  
141 238 47  242 255 136 221 255 129 45  167 7   133 178 135 135 249 48  
120 225 19  132 245 33  122 237 32  0   0   5   139 236 69  131 237 69  
123 220 53  120 220 26  131 232 30  111 220 33  101 204 29  71  178 23  
46  155 2   42  151 0   52  155 12  49  155 19  46  149 16  50  146 10  
103 220 28  107 222 30  94  206 16  74  183 4   74  179 14  64  169 6   
146 255 39  147 244 49  121 234 30  114 224 29  113 228 39  107 217 34  
93  182 40  30  122 0   28  111 0   49  150 10  
0   1   0   138 229 10  72  186 0   143 250 46  94  209 20  118 222 51  
128 239 48  126 246 27  176 255 78  83  185 13  108 213 22  133 248 31  
128 252 18  118 240 15  105 229 9   96  209 33  72  181 38  108 195 82  
160 255 84  117 226 37  83  188 23  82  183 17  64  150 23  95  177 51  
107 205 40  59  169 12  75  197 28  93  186 53  161 241 130 0   4   0   
122 228 6   140 254 34  137 252 47  49  118 11  127 241 57  125 224 53  
109 204 38  97  192 10  120 219 14  118 223 32  101 203 33  69  176 21  
44  153 0   42  150 2   51  159 14  54  157 22  51  151 19  50  133 17  
90  199 18  132 241 36  91  204 10  53  182 1   64  183 5   66  175 0   
132 245 17  139 244 1   101 221 2   110 218 18  115 225 38  112 217 28  
121 228 0   29  110 0   143 240 10  121 224 0   
2   4   0   115 212 0   114 220 8   137 243 45  98  211 31  141 242 76  
175 254 74  137 251 31  150 246 51  72  158 5   95  189 17  109 223 21  
126 247 20  144 253 40  118 232 23  81  197 28  137 233 82  70  173 40  
176 255 81  123 234 34  104 203 32  121 223 38  90  181 41  44  146 11  
60  177 18  56  185 6   78  189 25  103 201 54  145 255 84  0   3   5   
0   15  0   143 255 42  104 205 73  50  150 2   46  141 21  141 235 89  
108 202 44  75  171 3   106 202 7   112 217 26  86  192 24  55  161 9   
41  154 0   49  158 7   58  163 21  54  157 22  48  147 18  50  126 17  
83  186 17  131 248 32  101 220 16  67  185 1   62  181 1   78  183 0   
151 254 1   133 233 15  125 240 0   103 210 18  99  210 27  129 235 15  
125 230 6   79  173 0   152 247 5   123 228 13  
0   0   11  116 208 39  114 216 8   107 213 3   124 227 58  169 255 97  
145 254 75  119 234 29  131 229 54  59  144 0   76  160 12  88  188 14  
127 239 39  155 255 58  73  196 20  62  179 20  119 218 66  64  169 27  
194 255 86  152 255 71  131 238 44  142 253 52  69  176 20  79  182 47  
22  145 0   98  214 1   127 225 80  91  193 57  154 255 87  118 236 26  
110 203 26  85  139 51  64  96  81  44  126 28  74  174 40  120 223 56  
104 200 48  55  149 0   83  185 0   89  193 12  65  173 10  51  159 11  
56  165 10  70  175 23  70  173 30  63  165 29  53  141 18  45  114 8   
72  167 15  127 249 28  120 239 25  79  202 0   63  184 1   62  180 0   
168 255 34  134 234 22  144 241 37  107 214 10  105 205 27  171 255 6   
135 229 18  142 242 8   133 229 0   131 223 26  
6   1   7   105 200 20  108 204 18  140 253 25  140 245 80  154 255 69  
119 241 36  122 230 46  109 229 36  98  189 26  69  159 10  105 200 12  
120 223 56  127 238 71  91  192 38  117 202 73  131 218 87  92  191 64  
192 255 84  162 255 91  150 252 67  144 255 54  73  164 27  117 214 75  
49  172 0   242 249 119 199 253 141 235 255 185 132 247 58  121 230 23  
96  204 23  0   8   0   28  61  76  26  43  37  51  139 16  100 233 30  
88  193 49  45  139 3   60  167 1   81  181 7   51  160 9   57  162 18  
84  185 27  86  189 35  79  182 39  66  164 29  51  132 12  41  109 6   
49  130 10  116 234 28  148 253 47  111 221 12  71  181 0   59  180 1   
177 254 50  135 230 22  139 228 48  147 237 2   156 249 55  176 255 17  
151 246 0   150 251 1   151 242 1   126 223 64  
1   2   0   82  174 15  98  189 34  130 230 22  145 249 78  142 253 50  
120 237 45  127 241 40  127 237 26  86  209 32  102 200 61  45  158 0   
127 226 71  126 234 62  114 229 64  138 241 88  147 234 101 137 236 94  
190 252 81  183 253 92  155 255 68  112 228 41  117 216 61  155 246 109 
63  167 28  135 213 78  115 220 57  90  183 42  133 243 66  119 234 21  
131 238 80  0   7   0   0   23  31  73  99  122 3   16  6   0   29  5   
35  114 0   37  133 0   75  171 12  99  191 30  56  158 14  67  172 20  
85  185 24  92  189 34  67  172 30  56  143 13  51  129 10  40  107 2   
39  117 0   105 210 29  160 252 55  178 255 65  129 243 8   112 222 3   
174 255 54  140 239 9   143 239 18  144 236 15  170 255 37  172 255 21  
162 255 0   139 236 0   130 235 10  129 209 32  
0   1   5   90  189 0   116 212 17  135 237 6   133 245 72  124 244 51  
155 255 68  147 255 53  55  180 2   113 213 63  81  191 60  124 216 71  
119 227 55  129 241 68  155 251 99  121 228 70  131 233 85  153 240 107 
207 252 47  183 255 45  169 254 65  122 236 62  119 222 69  109 214 72  
66  176 19  104 193 41  119 235 48  102 208 40  136 241 61  79  193 19  
53  165 0   32  95  6   0   7   10  8   22  25  12  47  67  0   93  132 
0   6   0   53  139 2   90  188 23  110 214 39  61  166 12  62  165 12  
72  169 12  66  164 15  56  143 10  47  129 3   43  116 1   52  119 14  
95  169 24  69  157 8   131 243 35  190 254 70  157 253 32  172 252 29  
167 255 46  138 238 4   144 237 32  140 236 22  175 255 32  158 248 10  
141 240 0   132 235 6   142 234 29  60  165 3   
0   0   4   121 206 3   94  188 6   118 216 19  131 246 63  67  193 0   
160 255 42  111 227 17  112 220 56  130 240 79  129 229 79  127 223 97  
106 214 42  153 254 96  159 255 99  135 227 90  153 245 110 86  192 40  
184 255 55  144 255 17  146 255 56  158 248 98  191 255 141 116 217 79  
176 251 106 155 246 129 50  153 10  27  138 0   113 228 37  55  163 0   
53  163 4   45  156 0   0   5   0   8   48  56  52  146 180 22  125 183 
24  97  142 110 184 37  68  129 59  128 224 39  69  171 9   41  139 0   
41  132 3   34  114 0   36  114 2   42  109 3   52  122 0   106 204 0   
122 223 0   152 232 19  90  185 19  152 255 44  159 254 40  175 252 24  
170 255 42  135 232 13  147 243 48  138 242 9   171 255 19  139 239 0   
135 228 0   128 231 0   105 216 0   144 247 0   
2   0   5   144 227 11  100 196 10  117 210 57  119 230 47  169 255 111 
130 244 9   107 228 27  117 227 52  128 246 62  135 240 88  151 240 110 
152 249 94  137 243 73  136 249 73  132 229 90  122 227 72  79  191 45  
75  191 28  167 255 43  133 235 73  183 255 107 186 255 142 173 253 96  
150 242 95  149 230 93  38  152 0   51  162 5   83  188 8   64  175 0   
42  156 0   68  173 28  106 209 44  0   20  20  17  86  117 29  138 195 
0   93  135 0   18  12  135 194 128 118 240 19  66  164 1   32  122 0   
25  100 0   30  97  0   35  103 2   32  113 0   135 233 8   160 255 0   
133 228 2   145 242 38  134 231 12  106 204 0   152 247 31  172 254 29  
172 255 42  136 233 12  166 254 28  167 254 2   161 254 13  131 224 0   
127 223 1   119 226 10  159 254 0   143 240 3   
1   2   7   107 199 12  91  179 19  83  176 0   99  192 16  114 223 16  
132 250 26  136 251 72  103 226 24  173 255 92  165 252 109 142 244 96  
144 245 89  115 224 55  131 239 67  155 246 119 119 221 60  109 207 58  
124 231 76  187 255 89  159 252 101 146 252 94  172 255 129 176 255 104 
187 255 133 76  177 23  42  157 2   38  151 0   56  171 0   57  174 0   
59  161 23  100 182 56  20  0   15  16  40  27  13  42  48  10  104 158 
49  128 167 36  102 128 82  124 58  140 236 38  69  162 0   34  107 2   
29  92  1   41  133 0   104 195 0   81  184 0   163 254 0   164 255 2   
139 235 3   138 234 12  138 235 16  157 238 57  162 253 25  182 254 30  
170 255 30  139 241 10  174 255 4   164 255 4   129 227 2   125 226 0   
92  206 0   125 235 24  138 237 0   134 237 0   
1   1   0   114 209 1   97  184 41  116 197 30  106 196 38  102 198 0   
120 243 38  118 233 42  109 224 19  108 219 36  152 249 90  155 248 105 
164 254 107 144 241 84  208 255 132 145 237 100 159 226 94  140 237 80  
156 242 105 155 245 95  158 253 91  173 255 104 142 240 91  169 255 114 
177 253 121 54  167 0   37  149 0   47  154 0   78  189 22  63  144 13  
123 197 60  3   1   0   37  151 1   0   1   0   0   2   0   9   71  96  
41  134 177 7   49  87  33  88  108 83  165 21  87  174 7   41  112 6   
37  103 3   165 255 3   147 244 14  156 243 4   167 255 0   157 253 6   
134 232 0   116 218 0   140 238 13  173 255 67  160 253 22  184 254 33  
159 249 12  147 244 4   163 254 1   151 247 17  67  174 0   138 230 0   
79  195 0   97  210 4   156 252 5   130 233 0   
1   0   0   126 218 9   113 217 0   111 195 21  129 211 41  122 211 43  
144 255 65  93  213 4   82  167 3   125 224 35  138 239 71  166 251 106 
155 247 100 163 253 104 227 255 142 150 242 95  157 227 95  153 251 88  
143 238 94  151 251 90  161 245 89  202 255 142 182 255 101 181 236 155 
36  152 0   47  161 1   48  156 0   135 228 59  69  152 36  104 185 57  
125 227 83  39  84  27  0   2   27  133 227 51  72  127 33  0   31  11  
32  112 147 40  123 163 42  88  112 22  68  31  161 255 19  91  183 50  
59  137 15  187 255 0   137 241 6   167 254 0   172 255 1   135 238 1   
141 238 0   129 228 0   135 237 5   162 255 40  166 254 22  186 255 25  
142 233 6   150 246 0   143 239 17  131 227 15  60  157 0   94  206 0   
85  191 0   88  201 0   147 243 0   123 226 0   
3   0   0   142 233 8   132 220 11  156 245 17  105 209 8   144 253 46  
118 226 0   77  161 1   83  166 0   112 214 29  145 244 75  171 255 108 
149 252 87  143 250 82  206 255 143 155 230 88  133 212 87  150 255 81  
146 242 83  170 255 108 136 230 74  178 246 135 134 237 102 164 243 89  
26  139 0   32  146 0   94  193 24  126 224 59  109 195 34  135 225 67  
158 254 129 126 227 9   151 214 65  161 240 95  85  182 5   25  62  18  
12  45  54  32  117 156 24  96  134 26  121 177 194 247 94  201 250 44  
52  140 0   190 251 24  173 254 1   169 255 0   175 255 0   127 229 0   
141 238 0   138 233 5   115 219 8   170 255 16  166 255 8   184 255 8   
124 225 0   142 242 0   135 229 19  132 230 5   68  165 0   77  171 0   
77  192 1   142 245 8   155 252 1   120 222 0   
6   0   14  109 196 0   149 238 0   151 255 5   100 213 0   93  215 16  
40  131 0   98  180 7   113 191 11  119 218 39  161 249 79  162 251 97  
153 240 107 176 255 125 151 242 103 148 228 95  103 206 37  104 226 27  
120 228 80  122 225 71  162 243 102 128 227 85  155 255 119 28  142 0   
74  186 22  42  169 0   115 196 42  119 212 46  124 218 72  114 215 23  
111 194 40  0   26  0   99  189 29  117 196 77  120 185 43  0   0   12  
11  0   0   18  68  103 37  130 173 22  57  76  12  34  32  179 255 6   
150 252 20  195 255 17  187 255 0   156 251 0   173 252 0   118 224 0   
140 233 2   141 231 11  87  192 1   177 255 5   138 239 0   162 255 0   
124 222 0   145 242 3   123 224 0   129 231 0   68  175 0   89  183 7   
77  190 0   155 246 3   167 254 0   124 231 0   
2   4   1   148 232 0   83  177 0   126 213 20  134 221 0   35  118 4   
63  144 7   79  171 0   150 245 117 107 212 24  150 247 80  155 255 94  
177 255 119 230 254 170 158 245 106 142 226 86  85  199 0   120 226 58  
175 238 105 140 235 69  136 243 75  142 249 117 116 215 10  12  133 6   
32  146 0   104 199 47  122 207 51  34  82  6   112 209 31  101 200 29  
101 180 39  109 175 49  69  161 14  179 224 121 144 182 81  2   33  18  
10  82  0   0   25  30  18  88  122 34  86  110 49  108 164 180 255 14  
157 255 5   168 254 23  204 254 9   132 236 0   158 253 0   127 223 1   
126 227 0   121 221 11  107 198 17  167 255 1   138 237 0   102 202 0   
113 211 2   116 217 0   121 221 1   127 228 2   67  175 1   88  185 7   
71  180 0   161 252 7   165 255 1   126 229 0   
0   0   2   74  164 17  131 228 1   104 207 0   27  113 4   35  123 1   
31  138 9   123 222 41  85  183 22  91  200 23  140 245 64  141 248 70  
183 254 124 180 245 125 164 236 102 111 206 44  70  176 28  143 248 59  
168 253 110 115 212 53  138 233 69  167 243 95  64  171 0   35  149 0   
49  167 0   165 248 96  131 222 65  188 251 121 146 245 66  80  181 25  
152 192 96  152 219 64  4   25  0   85  160 41  80  164 42  39  112 4   
4   4   0   0   15  10  3   14  0   23  85  122 47  75  79  150 245 27  
156 255 0   163 254 13  190 255 4   168 255 3   153 253 7   121 221 3   
131 223 2   126 221 3   88  202 0   155 250 8   154 249 0   39  136 0   
87  197 0   113 207 5   123 224 0   127 229 0   85  193 0   93  190 0   
81  181 7   162 253 28  161 255 4   124 226 3   
0   2   0   128 228 8   98  202 0   66  165 23  40  125 0   34  135 3   
84  191 33  127 232 41  91  196 18  89  197 26  121 217 45  170 255 99  
177 254 112 161 241 130 156 235 90  115 203 54  73  179 21  112 219 43  
166 253 114 85  194 17  184 246 121 83  191 27  84  182 21  61  174 20  
115 226 44  133 221 73  169 255 107 133 238 76  172 252 153 162 231 115 
106 186 63  88  175 44  136 192 119 80  157 29  51  144 11  53  135 27  
16  101 0   0   56  0   3   0   0   0   3   6   10  15  18  53  98  15  
202 253 10  159 255 3   164 255 2   186 253 0   139 243 0   112 216 0   
117 216 3   112 211 6   98  214 1   165 255 5   156 254 0   47  145 0   
43  141 0   102 207 0   129 232 1   121 223 0   102 206 0   107 202 10  
104 201 6   166 255 25  151 249 6   129 231 7   
1   0   0   114 211 0   92  186 10  104 196 25  29  132 0   47  159 0   
145 241 45  86  181 19  132 219 54  107 209 37  90  199 20  155 254 75  
170 255 99  144 251 122 119 222 55  96  187 50  110 194 57  142 241 86  
148 239 84  131 223 64  130 235 81  138 217 108 64  173 18  108 209 69  
132 231 63  149 219 61  142 242 84  255 255 175 242 255 168 208 255 139 
152 224 86  161 213 102 86  166 45  86  185 0   87  178 51  35  119 0   
29  137 0   1   8   0   147 250 37  0   7   3   9   25  14  140 249 8   
186 255 20  163 254 0   179 252 0   173 255 2   156 254 9   112 209 6   
118 219 1   125 226 2   129 229 17  142 237 9   151 250 0   58  159 0   
43  137 0   49  152 8   120 224 5   132 237 13  116 216 40  133 228 12  
132 227 3   164 253 13  151 244 6   128 231 2   
3   4   0   107 201 19  119 211 12  70  185 4   70  178 4   91  202 1   
113 224 0   93  186 33  78  176 13  67  188 0   112 211 30  120 227 37  
226 255 147 138 239 85  127 223 51  99  160 65  77  152 34  153 235 88  
178 250 116 162 250 114 144 248 73  119 230 37  103 206 53  128 219 53  
158 239 110 221 255 126 236 255 132 180 255 83  105 207 45  134 207 64  
61  89  51  52  145 0   51  193 0   113 228 65  154 255 71  116 248 17  
122 226 41  102 210 11  130 230 18  110 224 22  90  184 46  109 199 49  
176 255 28  190 255 1   152 251 0   150 244 0   158 254 0   108 204 9   
122 222 4   138 235 0   124 229 4   138 237 7   133 232 1   86  181 0   
60  154 0   54  148 2   67  174 0   105 196 0   82  181 12  123 226 21  
142 241 3   160 254 18  157 248 3   131 229 4   
2   0   3   127 212 5   131 218 0   57  176 0   76  188 0   138 237 59  
106 194 48  118 210 49  82  191 20  88  191 16  120 219 38  146 244 69  
194 248 136 123 228 66  133 217 67  107 146 89  96  165 59  136 233 78  
191 254 124 141 225 103 85  188 13  83  177 3   123 217 41  62  168 0   
165 233 98  156 247 94  135 217 70  110 199 73  175 248 114 154 254 93  
138 208 60  44  127 19  97  206 25  174 249 97  106 234 11  77  202 10  
113 225 25  75  201 5   86  213 12  123 229 33  131 230 41  59  149 15  
158 245 70  180 253 0   168 255 0   122 224 0   155 252 0   108 205 4   
122 222 2   141 235 0   144 241 4   154 244 7   120 216 2   103 199 1   
64  164 4   55  154 0   60  157 0   59  159 0   44  146 0   84  196 0   
137 241 4   160 255 8   151 244 5   125 227 4   
0   0   4   115 215 7   117 210 0   82  188 20  135 238 25  103 207 32  
72  168 42  145 230 87  120 215 33  131 224 47  123 222 41  142 237 71  
157 233 111 134 218 60  98  202 31  88  127 62  111 180 63  139 244 66  
197 255 161 85  194 27  80  194 8   79  189 2   94  194 33  107 176 59  
208 246 127 237 255 184 211 255 170 220 243 161 195 255 135 142 221 44  
119 236 0   27  117 3   110 214 43  98  224 55  127 237 44  127 238 11  
117 225 17  67  193 0   63  195 0   80  203 0   122 220 37  67  183 50  
96  206 49  175 254 15  174 255 2   140 241 0   139 242 3   107 209 1   
142 241 1   130 231 3   142 239 0   129 227 2   115 209 1   61  170 0   
58  167 0   60  160 0   64  160 0   52  155 4   56  156 0   54  162 1   
142 239 0   166 252 7   142 234 9   113 211 10  
3   1   6   59  174 8   100 197 4   111 225 5   159 252 23  86  189 24  
133 209 59  155 242 99  139 235 63  154 240 89  126 219 52  148 236 76  
151 228 98  128 222 74  56  144 0   85  147 22  100 202 40  133 235 73  
103 212 45  83  192 21  55  175 0   103 200 41  105 204 17  173 246 33  
179 255 33  150 251 10  185 255 7   156 244 0   156 254 11  148 251 12  
129 245 12  136 251 0   50  148 3   65  150 0   117 229 31  138 251 57  
138 245 55  76  199 4   44  159 0   80  203 11  99  219 10  155 244 100 
98  198 66  152 246 48  181 255 2   163 255 1   133 241 0   111 209 2   
149 248 7   133 233 0   142 238 6   116 212 1   95  197 0   70  171 3   
77  173 5   72  172 0   69  167 2   69  164 0   62  162 1   60  167 0   
138 235 0   147 238 10  135 229 8   99  201 4   
8   3   9   70  173 6   143 238 24  127 236 5   96  188 0   94  185 20  
139 227 57  174 254 105 136 229 60  146 249 84  99  214 25  159 245 92  
183 246 97  97  207 24  89  176 33  109 191 21  122 220 73  175 249 126 
87  195 24  117 217 59  75  181 21  155 248 71  137 213 61  198 255 151 
165 254 12  164 255 1   172 255 1   155 252 0   134 244 0   150 255 15  
133 251 27  125 237 3   133 251 41  114 229 24  130 248 84  125 234 45  
118 234 13  84  201 1   83  194 4   72  193 2   130 250 30  153 244 87  
83  190 52  93  194 40  126 223 0   175 255 1   149 248 0   107 207 0   
136 232 0   135 233 0   122 222 0   112 210 0   112 207 3   48  151 0   
63  160 1   75  173 0   67  166 0   80  171 6   59  158 3   100 197 4   
129 228 0   132 235 6   131 226 2   96  198 1   
3   1   2   95  195 1   156 255 1   128 215 12  71  150 0   50  144 4   
140 226 67  185 252 113 147 241 83  161 241 94  127 226 58  186 249 116 
124 227 62  69  170 2   154 226 54  121 220 42  136 229 63  149 230 101 
211 251 154 113 212 59  80  178 3   150 248 75  137 213 87  149 240 15  
159 255 1   170 255 3   182 254 4   147 248 4   171 255 0   167 253 20  
183 255 85  125 240 25  134 244 0   11  121 0   117 247 25  97  225 28  
111 228 25  107 218 15  56  171 0   87  203 6   78  210 5   138 245 69  
131 237 77  69  185 50  95  193 10  178 255 0   162 253 0   121 218 0   
130 227 0   130 226 2   114 213 0   128 222 1   112 222 1   52  157 0   
43  148 0   87  173 4   69  168 0   78  168 8   59  159 1   120 209 0   
104 210 0   135 235 1   125 220 2   115 211 0   
0   5   6   172 251 10  148 240 7   62  161 0   84  148 2   35  133 0   
147 232 76  161 241 94  133 228 84  149 235 84  116 216 38  143 236 85  
69  182 6   35  104 0   102 215 1   128 226 77  165 250 103 193 255 160 
134 250 63  120 225 106 182 255 122 221 255 193 87  179 18  115 208 5   
158 255 0   167 255 3   184 254 7   190 255 10  185 255 0   184 255 11  
240 255 94  151 251 54  138 248 1   116 239 0   105 220 15  142 233 54  
93  202 0   118 239 20  101 213 27  62  177 0   71  191 6   138 245 53  
151 249 74  67  178 48  69  176 21  158 247 0   154 249 0   126 223 0   
149 237 1   116 216 0   129 218 2   130 225 17  135 248 32  78  191 0   
68  165 0   68  160 1   77  178 0   75  168 2   58  158 0   109 206 2   
83  185 0   143 236 0   115 214 1   128 224 3   
12  3   0   182 251 96  168 255 109 158 220 93  90  152 25  40  140 8   
160 245 81  169 253 105 186 254 115 120 224 67  157 245 96  107 215 33  
29  145 0   64  144 11  108 208 14  101 210 29  220 255 172 144 231 88  
155 224 69  130 212 84  127 192 88  134 236 39  98  210 24  89  201 3   
160 253 0   159 254 0   185 255 9   184 253 4   184 255 17  182 255 32  
254 254 98  216 252 100 149 253 8   138 244 20  146 255 63  82  203 0   
98  219 16  68  195 0   122 213 30  93  205 9   53  182 4   102 217 25  
141 242 74  86  194 57  96  207 25  45  147 0   153 239 0   116 210 0   
126 225 0   112 209 5   120 213 11  109 205 43  125 232 32  142 247 33  
80  168 4   59  160 6   87  182 0   72  171 0   64  158 0   92  191 4   
62  177 0   143 239 5   118 214 2   121 216 0   
0   2   9   136 231 0   129 173 58  254 251 206 83  154 48  135 190 86  
166 251 60  170 248 102 200 249 124 170 255 105 162 214 80  109 219 26  
34  136 27  100 207 41  170 235 73  210 253 146 182 245 140 191 255 143 
82  179 0   231 255 76  142 238 50  166 254 71  136 236 42  102 215 1   
144 243 3   162 255 0   160 250 2   188 250 27  183 255 1   199 255 21  
212 255 36  216 255 65  155 255 33  174 253 47  144 242 71  81  182 2   
192 255 99  69  185 0   119 229 10  91  199 0   36  154 6   123 233 36  
86  201 38  74  198 52  109 221 23  20  118 0   112 195 3   65  165 5   
108 205 4   119 214 0   107 191 67  93  176 58  93  182 54  128 224 56  
33  125 1   85  189 4   87  189 0   79  176 0   63  161 0   83  180 13  
71  185 2   141 242 16  108 211 0   129 207 7   
2   3   0   158 198 84  92  130 31  229 223 149 80  153 48  158 191 87  
136 225 59  125 221 70  161 254 101 152 243 103 139 220 89  101 219 0   
123 211 3   220 246 97  105 216 0   134 204 54  224 253 51  248 255 231 
118 214 0   207 255 96  203 254 91  184 254 80  175 255 75  146 251 34  
140 243 12  160 252 0   144 242 0   183 255 7   189 255 5   178 255 3   
180 255 0   168 255 0   166 255 37  160 254 18  167 255 4   40  144 0   
129 229 45  144 254 79  105 207 22  95  211 16  39  157 0   144 246 59  
138 241 74  112 224 54  124 232 24  38  146 1   64  177 7   71  157 4   
75  173 0   100 193 17  89  186 55  77  164 49  66  152 41  97  186 60  
32  121 1   73  168 4   137 225 1   126 214 6   68  169 3   85  179 3   
77  189 1   138 231 0   109 210 0   98  202 1   
0   1   5   152 169 65  219 200 108 100 136 28  70  142 17  138 184 85  
147 202 119 91  177 6   136 220 44  162 251 121 112 203 48  75  187 0   
131 217 46  120 208 0   150 246 0   130 210 0   154 254 20  41  112 0   
147 205 43  203 254 97  235 255 114 212 255 97  213 255 103 180 255 74  
142 247 30  144 245 3   154 250 2   159 249 0   146 236 0   178 254 0   
170 255 0   167 255 0   133 224 0   140 233 0   182 254 23  166 255 4   
186 255 114 99  234 0   122 246 34  108 213 22  87  194 16  154 253 84  
163 255 82  111 217 57  88  198 23  84  192 18  92  199 35  36  134 0   
25  123 2   73  170 15  107 198 41  86  184 49  74  165 46  88  173 54  
86  178 5   31  125 5   96  187 0   161 239 6   106 204 7   91  79  21  
110 71  54  117 108 3   92  176 0   124 131 28  
1   0   4   59  117 7   158 166 65  183 186 107 66  138 30  118 171 57  
165 202 99  63  146 56  83  183 9   227 255 136 98  220 51  124 219 57  
104 207 38  88  194 0   70  135 5   39  83  4   18  55  0   19  56  4   
51  109 6   118 200 28  195 255 82  191 255 83  213 255 95  183 255 82  
153 255 47  142 235 4   156 250 6   108 206 5   128 224 2   172 255 1   
153 249 1   167 254 0   132 228 0   126 224 1   150 245 53  113 213 5   
23  151 0   120 227 0   154 255 65  89  224 0   39  177 0   94  213 0   
136 240 59  117 219 34  78  201 0   69  179 6   49  154 2   33  130 0   
36  128 4   48  144 8   87  170 20  97  179 33  89  174 31  45  130 9   
95  192 0   62  157 0   38  131 0   91  183 10  146 231 6   75  126 0   
59  119 0   155 154 36  117 187 28  125 128 39  
4   0   0   62  133 13  67  129 6   150 164 67  154 166 82  113 169 62  
147 183 87  135 192 95  95  190 26  166 241 123 198 255 122 119 218 63  
132 216 60  72  156 0   24  77  0   23  71  0   20  61  0   16  56  0   
19  66  0   51  120 1   118 191 22  129 220 31  212 253 89  184 253 85  
152 254 48  126 225 21  149 244 2   96  209 0   150 243 2   173 255 0   
146 244 0   154 248 1   142 236 0   100 201 0   89  189 2   72  176 3   
155 242 0   151 207 74  112 218 50  123 225 20  100 215 2   90  201 0   
100 191 10  126 219 43  70  190 5   77  185 11  75  174 21  32  132 0   
32  128 2   35  130 4   41  114 0   59  133 12  37  126 0   12  96  0   
66  161 0   112 199 0   50  145 0   49  142 2   100 192 0   89  133 0   
109 92  36  128 97  30  128 129 25  126 130 36  
1   1   1   72  143 11  80  149 7   94  146 22  185 192 112 178 200 127 
137 182 79  127 185 82  82  175 6   114 201 71  144 225 62  126 211 82  
66  150 2   16  67  1   19  65  0   22  72  1   25  76  1   31  84  2   
30  85  1   31  85  1   62  134 0   78  170 1   155 217 48  200 255 95  
155 252 59  89  204 23  139 228 0   119 220 4   150 242 0   173 255 0   
143 240 0   147 243 0   113 205 0   69  170 2   72  171 0   87  190 0   
124 224 16  177 255 2   180 250 64  140 234 78  126 229 24  117 228 11  
81  178 10  92  204 14  77  182 1   68  181 5   46  149 8   40  142 7   
35  135 1   33  127 3   19  85  0   27  102 0   19  104 0   18  100 0   
39  131 0   130 216 3   87  182 4   54  139 0   73  165 0   159 184 38  
163 180 74  138 167 41  128 128 32  121 168 28  
0   1   0   81  155 10  85  160 0   102 160 24  140 181 63  167 189 114 
170 174 87  117 176 68  115 209 27  96  177 10  98  193 5   78  168 0   
14  71  0   15  63  3   21  73  0   27  87  0   35  104 0   42  110 1   
45  113 0   41  104 0   56  134 0   92  171 0   84  174 1   128 205 41  
152 241 61  109 208 39  115 204 2   108 208 0   173 253 4   169 255 0   
150 240 2   147 242 0   75  180 0   77  183 0   76  173 0   91  199 0   
137 231 46  154 255 35  155 237 13  198 236 97  110 220 43  102 217 4   
142 234 63  96  194 23  92  201 12  70  183 5   32  140 0   43  146 11  
39  142 1   39  136 3   20  85  1   39  123 2   25  114 0   25  111 0   
80  177 0   110 203 0   110 202 3   72  163 6   57  154 0   162 201 48  
149 206 41  139 146 14  92  145 0   122 129 33  
3   2   0   82  158 8   84  158 0   95  160 16  115 163 41  167 181 104 
156 166 113 108 183 20  79  179 0   57  155 0   102 193 4   33  105 0   
16  62  0   18  62  1   24  76  1   31  98  3   44  123 4   46  125 0   
48  124 2   43  115 3   53  133 0   95  179 3   103 194 5   73  164 0   
101 189 15  124 206 44  93  189 4   125 219 1   156 242 0   169 255 0   
141 238 0   149 240 0   85  190 2   82  183 1   77  181 0   100 202 4   
148 242 57  145 242 13  94  192 0   185 255 103 202 255 110 110 215 1   
145 242 51  115 212 37  103 200 32  49  164 1   43  148 3   50  150 15  
43  143 8   35  137 0   18  82  0   36  128 4   36  126 3   32  117 0   
95  188 0   117 211 0   118 211 0   82  178 8   57  152 0   120 164 5   
156 148 49  141 88  34  110 214 0   141 128 49  
1   0   0   74  149 7   72  150 2   64  141 0   83  146 16  141 166 74  
86  150 54  97  201 0   95  198 0   114 207 4   79  154 1   37  79  13  
20  67  0   19  63  0   24  77  0   35  102 0   47  125 5   48  131 1   
48  128 3   42  119 3   47  130 0   94  176 3   118 205 2   98  189 0   
74  166 0   81  173 4   59  154 0   136 217 0   116 212 0   173 255 0   
150 246 0   154 248 1   124 221 0   95  198 7   80  184 0   122 217 27  
160 249 45  101 191 8   38  105 0   29  101 1   193 251 69  77  201 3   
64  184 0   141 231 55  77  189 0   63  176 0   49  152 9   36  137 5   
48  149 17  37  138 6   28  108 0   37  133 10  52  141 21  43  132 14  
75  162 0   127 218 1   127 218 0   107 200 0   64  161 0   49  171 0   
139 220 1   123 206 2   113 201 1   111 169 23  
