P3
64 64
255
13  18  11  25  30  23  20  25  18  27  37  28  28  40  38  31  45  46  
33  54  57  35  60  67  41  67  84  43  68  88  64  76  100 69  86  116 
93  107 136 114 121 139 156 145 161 164 158 162 191 178 196 222 210 220 
250 250 250 255 255 255 255 255 255 254 255 255 254 254 254 245 241 242 
214 201 211 196 179 187 163 161 166 147 149 148 119 124 130 104 120 135 
84  92  105 68  74  88  45  55  64  37  50  56  26  41  44  23  39  38  
21  33  31  11  20  19  14  20  20  13  15  14  11  9   10  8   8   8   
6   6   6   6   6   6   4   4   4   4   4   4   2   2   2   1   1   3   
1   1   3   0   0   0   0   0   0   0   0   0   0   0   0   0   0   0   
0   0   0   0   0   0   0   0   0   0   0   0   0   0   0   0   0   0   
6   6   6   0   0   0   0   0   0   0   0   0   
15  20  13  21  26  19  24  29  22  23  33  24  28  40  38  27  41  42  
36  55  62  37  59  72  41  64  80  45  70  90  63  77  103 73  89  122 
91  105 134 122 132 141 147 141 155 167 156 172 189 176 193 223 211 221 
245 245 245 255 255 255 255 255 255 254 255 255 253 253 253 235 231 232 
215 202 212 195 178 184 163 161 166 143 147 148 112 121 130 89  106 122 
83  92  107 75  81  97  51  61  71  39  52  58  24  39  42  19  35  34  
20  32  30  17  27  26  13  19  19  13  17  16  12  10  11  9   9   9   
7   7   7   6   6   6   4   4   4   4   4   4   2   2   2   1   1   3   
1   1   3   0   0   0   0   0   0   0   0   0   0   0   0   0   0   0   
0   0   0   0   0   0   25  25  25  85  85  85  31  31  31  43  43  43  
83  83  83  51  51  51  73  73  73  61  61  61  
18  23  16  24  29  22  27  32  25  24  34  25  24  36  34  31  45  46  
33  50  58  38  57  71  39  58  72  45  70  90  62  79  107 71  87  121 
99  113 140 129 139 148 138 140 153 168 153 174 194 182 194 221 210 218 
245 245 245 255 255 255 255 255 255 254 255 255 251 251 251 239 235 236 
208 195 205 190 174 177 168 163 170 139 146 152 110 123 140 92  111 128 
79  91  107 63  72  89  53  65  77  36  53  61  31  46  49  25  41  40  
14  29  26  18  30  28  11  21  20  10  16  14  13  15  14  9   9   9   
10  10  10  7   7   7   3   3   3   3   3   3   3   3   3   2   2   4   
1   1   3   0   0   0   0   0   0   0   0   0   0   0   0   0   0   0   
0   0   0   0   0   0   0   0   0   0   0   0   0   0   0   0   0   0   
0   0   0   0   0   0   0   0   0   0   0   0   
14  19  12  27  32  25  23  28  21  23  33  24  29  41  39  34  48  49  
31  47  46  39  57  61  42  58  71  43  70  91  56  77  108 71  87  123 
108 123 146 111 122 144 132 141 156 178 161 177 190 179 185 216 205 213 
235 235 235 254 254 254 255 255 255 254 255 255 245 245 245 227 223 224 
211 197 210 191 175 175 161 155 165 129 137 148 102 120 144 86  107 126 
77  90  109 58  69  87  39  55  68  41  59  69  30  45  48  25  41  40  
17  36  32  17  32  29  14  26  24  8   17  14  11  15  14  8   8   8   
7   7   7   5   5   5   3   3   3   3   3   3   3   3   3   2   2   4   
1   1   3   0   0   0   0   0   0   0   0   0   0   0   0   0   0   0   
0   0   0   0   0   0   0   0   0   0   0   0   0   0   0   0   0   0   
0   0   0   0   0   0   0   0   0   0   0   0   
14  19  12  18  23  16  24  29  22  25  31  27  32  42  41  35  47  47  
33  49  49  37  55  65  43  59  74  47  68  87  57  79  102 79  98  130 
94  109 138 109 125 148 127 134 153 161 152 171 188 172 182 214 203 211 
234 227 234 247 251 252 254 255 255 255 255 255 241 241 243 226 209 215 
204 187 195 186 174 178 153 157 166 131 141 153 107 123 139 89  106 126 
69  81  103 56  72  88  35  51  64  38  55  63  29  47  51  26  41  38  
20  34  34  16  28  24  12  21  16  14  24  23  10  14  15  8   8   8   
5   5   5   5   5   5   4   4   4   3   3   3   3   3   3   2   2   2   
1   1   1   0   0   0   0   0   0   0   0   0   0   0   0   0   0   0   
0   0   0   0   0   0   0   0   0   0   0   0   0   0   0   0   0   0   
0   0   0   0   0   0   0   0   0   0   0   0   
19  24  17  20  25  18  22  27  20  25  32  25  31  42  36  32  44  42  
36  52  52  39  57  67  42  61  76  47  65  87  63  83  108 81  100 132 
89  104 133 106 120 146 124 130 154 142 139 160 184 165 171 207 192 199 
226 214 228 243 242 248 255 254 255 253 251 254 238 231 238 215 199 210 
191 175 185 172 166 170 142 148 160 121 133 149 99  116 136 83  99  122 
73  85  109 52  68  84  42  58  71  38  55  63  27  44  51  30  44  44  
22  36  36  14  26  22  14  23  18  11  22  18  12  16  15  16  16  16  
8   8   8   6   6   6   5   5   5   3   3   3   3   3   3   2   2   2   
1   1   1   0   0   0   0   0   0   0   0   0   0   0   0   0   0   0   
0   0   0   0   0   0   0   0   0   0   0   0   0   0   0   0   0   0   
0   0   0   0   0   0   0   0   0   0   0   0   
18  23  16  20  25  18  24  29  22  26  34  23  30  41  33  28  41  34  
34  50  50  41  59  69  44  67  83  52  70  94  76  89  121 79  98  130 
86  101 130 105 118 135 119 128 143 138 145 153 185 169 180 197 184 202 
209 199 224 228 230 243 251 252 254 240 238 239 224 206 220 204 191 209 
189 175 188 161 162 166 140 147 165 118 133 154 94  111 137 79  95  121 
67  78  106 50  66  82  38  54  67  33  50  58  29  46  56  26  40  43  
17  31  31  14  26  22  12  21  16  11  22  16  9   14  10  7   7   7   
9   9   9   6   6   6   4   4   4   3   3   3   3   3   3   1   1   1   
1   1   1   1   1   1   0   0   0   0   0   0   0   0   0   0   0   0   
0   0   0   0   0   0   0   0   0   0   0   0   0   0   0   0   0   0   
0   0   0   0   0   0   0   0   0   0   0   0   
16  20  6   25  29  15  23  27  13  26  38  26  30  43  34  34  51  43  
33  44  46  39  57  67  48  66  88  58  70  96  68  88  115 68  88  123 
81  95  132 102 108 134 121 138 154 139 145 159 170 161 178 191 177 200 
198 199 204 219 222 239 252 255 255 226 224 235 216 198 210 214 192 215 
176 174 187 152 156 167 136 143 159 110 125 146 92  114 137 68  88  115 
61  77  103 50  65  86  36  52  67  31  48  56  29  47  51  26  40  40  
23  32  29  22  31  26  18  28  19  10  19  14  17  19  16  5   5   5   
6   6   6   6   6   6   5   5   5   3   3   3   3   3   3   2   2   2   
1   1   1   0   0   0   0   0   0   0   0   0   0   0   0   0   0   0   
0   0   0   0   0   0   0   0   0   0   0   0   0   0   0   0   0   0   
0   0   0   0   0   0   0   0   0   0   0   0   
19  22  11  25  28  17  23  26  15  28  38  27  28  41  32  25  40  33  
36  47  49  36  54  64  46  64  84  59  71  97  55  75  100 65  84  117 
82  96  131 107 117 144 110 125 144 129 136 152 160 158 179 175 171 196 
206 193 210 218 211 229 245 250 255 220 211 228 210 196 209 183 176 194 
158 157 171 137 143 155 131 138 156 108 125 145 80  104 128 67  87  114 
60  77  103 47  62  83  36  52  67  32  49  57  30  48  52  19  33  33  
25  34  33  18  27  22  19  29  21  10  19  14  10  12  9   11  11  11  
8   8   8   6   6   6   5   5   5   3   3   3   3   3   3   2   2   2   
1   1   1   0   0   0   0   0   0   0   0   0   0   0   0   0   0   0   
0   0   0   0   0   0   0   0   0   0   0   0   0   0   0   0   0   0   
0   0   0   0   0   0   0   0   0   0   0   0   
3   11  0   17  25  14  25  33  22  29  35  25  24  34  26  30  41  35  
33  44  46  34  52  62  50  69  84  60  72  94  52  73  94  65  81  107 
70  90  115 87  107 132 110 120 145 120 133 150 141 153 169 159 165 187 
187 178 207 209 197 209 222 226 251 195 187 211 192 186 198 166 172 184 
147 154 170 131 145 158 118 129 149 94  114 138 72  100 124 59  83  109 
54  74  99  45  60  81  40  56  71  29  46  54  19  37  41  20  34  34  
16  24  26  16  25  24  13  22  19  13  22  17  10  12  9   9   9   9   
6   6   6   5   5   5   4   4   4   3   3   3   3   3   3   2   2   2   
1   1   1   0   0   0   0   0   0   0   0   0   0   0   0   0   0   0   
0   0   0   0   0   0   0   0   0   0   0   0   0   0   0   0   0   0   
0   0   0   0   0   0   0   0   0   0   0   0   
7   17  8   9   19  10  26  36  27  25  31  21  31  38  31  38  47  42  
33  44  46  35  53  63  41  60  75  51  64  83  51  72  93  61  77  102 
69  91  114 78  102 128 106 116 143 118 134 150 143 153 163 158 164 180 
168 177 206 196 189 197 210 213 244 179 179 205 179 175 189 174 176 188 
139 148 163 120 136 149 111 124 143 93  115 139 65  92  119 55  81  106 
46  68  92  43  58  79  34  50  65  28  45  53  22  40  44  19  33  33  
20  28  31  16  24  26  12  21  18  10  19  14  8   10  7   9   9   9   
6   6   6   5   5   5   5   5   5   3   3   3   3   3   3   2   2   2   
1   1   1   0   0   0   0   0   0   0   0   0   0   0   0   0   0   0   
0   0   0   0   0   0   0   0   0   0   0   0   0   0   0   0   0   0   
0   0   0   0   0   0   0   0   0   0   0   0   
5   15  7   9   19  11  16  26  18  24  35  21  22  32  23  25  35  27  
27  42  37  36  50  53  39  56  64  43  60  70  48  64  77  59  75  98  
71  86  117 80  94  121 89  103 129 113 128 149 130 139 156 145 151 173 
169 170 198 181 181 191 205 209 246 178 177 193 167 170 185 158 164 178 
134 147 155 117 135 145 88  117 133 77  101 125 71  94  110 53  79  102 
43  69  92  44  65  82  28  46  56  26  43  50  21  37  36  22  34  30  
16  25  32  12  22  23  8   19  11  10  15  11  10  10  8   9   9   9   
7   7   7   5   5   5   4   4   4   4   4   4   2   2   2   1   1   1   
1   1   1   0   0   0   0   0   0   0   0   0   0   0   0   0   0   0   
0   0   0   0   0   0   0   0   0   0   0   0   0   0   0   0   0   0   
0   0   0   0   0   0   0   0   0   0   0   0   
3   13  5   13  23  15  13  23  15  16  29  19  23  36  27  31  43  39  
32  47  42  34  48  51  41  58  66  48  65  75  45  61  74  54  71  91  
69  85  111 73  89  115 87  103 128 107 124 144 114 132 146 125 138 157 
147 160 179 160 167 185 195 210 243 164 172 193 150 163 182 136 151 170 
116 138 149 101 124 140 83  112 126 72  97  119 64  87  101 53  75  96  
44  66  87  33  54  71  26  44  54  25  42  49  24  40  39  18  30  26  
25  31  31  22  28  26  13  19  15  12  17  13  9   9   7   6   6   6   
5   5   5   5   5   5   4   4   4   3   3   3   4   4   4   1   1   1   
1   1   1   1   1   1   0   0   0   0   0   0   0   0   0   0   0   0   
0   0   0   0   0   0   0   0   0   0   0   0   0   0   0   0   0   0   
0   0   0   0   0   0   0   0   0   0   0   0   
0   10  2   9   19  11  15  25  17  11  27  17  21  36  29  17  32  29  
29  44  39  35  49  52  37  54  62  44  61  71  47  63  76  53  70  88  
59  75  100 67  84  110 79  97  121 101 119 139 108 130 143 120 137 155 
137 156 173 149 161 183 194 215 246 145 161 177 138 157 172 120 142 156 
102 130 142 85  112 131 74  102 124 69  92  123 60  82  105 52  73  92  
40  61  80  34  55  72  26  44  54  25  42  49  19  35  34  18  30  26  
15  20  14  15  20  16  13  18  14  11  16  12  10  10  8   6   6   6   
6   6   6   6   6   6   4   4   4   5   5   5   0   0   0   1   1   1   
1   1   1   1   1   1   0   0   0   0   0   0   0   0   0   0   0   0   
0   0   0   0   0   0   0   0   0   0   0   0   0   0   0   1   1   1   
1   1   1   0   0   0   0   0   0   0   0   0   
12  22  14  12  22  14  9   19  11  10  30  19  13  32  26  16  35  31  
24  40  39  20  35  38  31  49  53  41  61  68  43  66  74  50  69  83  
56  75  92  60  75  104 76  96  121 89  111 134 100 125 147 109 137 158 
126 149 167 127 151 177 179 205 238 129 147 157 124 148 158 103 131 142 
86  118 139 87  113 138 61  92  120 47  74  103 62  87  117 42  62  86  
37  54  70  29  51  62  24  42  52  19  36  43  22  34  32  16  25  20  
16  22  22  15  21  21  11  17  17  9   18  15  9   11  10  6   12  8   
9   11  8   7   7   5   4   4   4   5   5   5   2   2   2   1   1   1   
1   1   1   1   1   1   1   1   1   1   1   1   0   0   0   0   0   0   
0   0   2   0   0   2   0   0   2   0   0   0   0   0   0   0   0   0   
0   0   0   0   0   0   0   0   0   0   0   0   
6   17  9   12  23  15  8   19  11  12  23  15  20  31  27  25  35  34  
26  38  38  28  39  43  34  46  62  39  52  69  42  57  78  48  64  89  
57  72  101 65  80  109 71  88  118 81  102 133 86  117 138 95  127 148 
106 137 155 109 140 171 153 185 232 111 139 163 103 131 153 102 130 151 
76  112 134 76  108 133 73  97  125 59  93  118 40  81  103 46  68  91  
37  56  71  28  51  59  27  46  52  19  37  41  17  31  34  19  31  31  
11  20  15  12  21  16  11  20  15  12  21  18  5   7   6   8   14  10  
10  12  9   4   4   2   4   4   4   1   1   1   2   2   2   1   1   1   
1   1   1   1   1   1   1   1   1   1   1   1   0   0   0   0   0   0   
0   0   2   0   0   2   0   0   2   0   0   0   0   0   0   0   0   0   
0   0   0   0   0   0   0   0   0   0   0   0   
7   21  22  22  36  37  19  33  34  22  33  35  21  32  36  24  34  43  
26  40  49  31  45  56  32  49  57  36  56  65  35  57  70  40  62  83  
51  73  96  50  74  110 63  88  128 72  100 147 78  111 144 88  124 156 
89  123 158 98  133 173 131 169 218 96  134 157 88  123 142 91  125 137 
70  111 143 87  121 158 62  91  123 55  88  119 39  78  107 45  68  99  
39  59  84  26  47  64  29  47  61  22  39  49  19  36  43  16  30  33  
17  27  26  12  22  21  11  21  20  9   18  15  8   10  9   5   11  7   
6   8   5   9   9   7   3   3   3   5   5   5   1   1   1   4   4   4   
2   2   2   1   1   1   1   1   1   1   1   1   0   0   0   0   0   0   
0   0   2   0   0   2   0   0   2   0   0   0   0   0   0   0   0   0   
0   0   0   0   0   0   0   0   0   0   0   0   
12  24  36  28  40  52  17  29  41  20  37  47  21  37  50  26  42  57  
29  48  63  30  48  68  35  54  84  32  55  87  38  62  96  41  68  111 
50  77  124 53  86  129 64  98  146 62  98  156 81  114 157 90  127 169 
88  124 174 97  135 182 129 172 215 90  130 181 89  123 168 89  121 159 
69  111 153 74  108 156 72  107 145 65  97  136 55  84  124 45  68  109 
44  64  99  39  59  84  32  48  71  28  43  62  22  39  47  27  40  48  
20  31  37  12  23  29  14  25  31  14  23  20  17  19  18  6   12  8   
7   9   6   6   6   4   4   4   4   7   7   7   1   1   1   1   1   1   
3   3   3   1   1   1   1   1   1   1   1   1   0   0   0   0   0   0   
0   0   2   0   0   2   0   0   2   0   0   0   0   0   0   0   0   0   
0   0   0   0   0   0   0   0   0   0   0   0   
0   46  137 2   58  143 9   65  160 11  73  182 25  88  194 45  108 213 
72  131 231 82  140 240 105 156 235 116 165 244 124 171 251 130 168 239 
143 181 243 159 187 211 175 200 222 187 209 230 218 229 235 222 229 235 
240 255 255 241 255 255 237 251 251 227 237 255 219 228 255 219 230 250 
203 212 251 179 189 225 163 192 234 143 172 214 130 159 201 120 163 231 
117 157 227 95  143 219 79  132 210 66  123 202 45  94  189 24  75  167 
19  62  141 11  54  133 0   43  121 8   36  83  20  25  54  13  26  45  
10  17  33  13  16  23  2   13  15  6   12  8   6   9   0   4   7   0   
8   1   9   1   3   0   0   3   2   0   4   4   1   0   0   1   1   1   
0   0   2   0   0   2   0   0   2   0   0   0   0   0   0   0   0   0   
0   0   0   0   0   0   0   0   0   0   0   0   
102 137 201 125 163 212 157 193 241 166 191 232 169 190 219 180 197 217 
195 192 221 216 208 231 216 203 246 218 200 240 214 189 228 213 203 240 
210 199 233 181 177 210 177 172 204 202 193 222 202 202 238 216 209 242 
172 168 193 183 181 195 202 201 219 203 196 214 203 196 214 156 148 171 
159 152 193 176 170 208 197 192 224 221 216 248 207 202 234 185 181 204 
188 188 216 211 188 206 204 191 211 194 189 212 172 177 196 182 192 217 
166 179 213 165 183 221 137 160 202 91  125 196 78  125 205 63  103 190 
45  83  164 22  60  133 8   30  77  2   22  57  5   22  50  10  22  46  
14  18  21  12  6   8   5   1   0   1   0   0   1   1   1   3   1   4   
2   2   4   0   0   2   0   0   2   0   0   0   0   0   0   0   0   0   
0   0   0   0   0   0   0   0   0   0   0   0   
196 194 241 188 184 219 189 182 216 211 203 227 201 191 216 196 183 209 
180 182 207 186 191 213 201 204 219 136 145 150 180 192 190 159 181 195 
107 139 162 121 136 195 132 145 200 136 145 200 190 180 217 231 213 229 
254 249 227 252 252 226 251 250 255 253 244 235 201 190 194 199 184 213 
220 218 229 202 201 209 199 199 201 191 191 193 192 192 194 206 202 216 
206 195 209 193 193 217 191 192 213 183 186 205 190 180 205 186 173 201 
171 159 195 159 149 186 176 168 207 174 158 169 170 166 183 137 149 165 
173 184 202 168 180 202 135 165 227 69  106 174 66  108 182 49  83  147 
20  55  113 5   31  82  5   23  59  5   17  41  1   8   24  1   4   9   
3   3   5   2   2   4   2   2   4   1   1   1   0   0   0   0   0   0   
0   0   0   0   0   0   0   0   0   0   0   0   
162 168 182 172 177 199 166 172 188 159 165 179 125 130 152 153 159 171 
168 169 189 171 170 188 193 190 207 186 183 190 190 188 189 179 169 177 
178 158 157 192 172 165 206 177 163 225 185 160 253 220 179 255 241 181 
234 224 163 224 217 199 255 253 250 251 232 228 209 187 189 213 201 213 
196 192 215 196 192 209 221 222 243 202 203 221 211 211 237 108 129 160 
136 155 185 159 163 192 175 181 197 166 170 195 123 144 173 118 148 182 
95  126 155 129 144 173 148 161 178 144 146 161 126 129 146 157 162 168 
123 127 138 119 124 143 127 125 139 122 127 147 89  99  124 90  97  126 
96  111 154 146 162 213 105 127 185 60  88  153 45  69  167 19  50  141 
0   21  98  0   18  62  0   13  30  0   5   7   1   2   0   3   0   7   
1   0   9   1   0   11  0   0   2   0   1   2   
128 140 152 147 158 178 145 157 171 163 166 181 159 162 179 148 151 166 
172 177 197 180 178 192 170 169 187 155 158 175 148 154 170 154 144 155 
169 152 158 179 159 150 196 167 151 206 166 140 248 204 169 246 219 166 
253 252 208 255 255 251 253 255 247 251 255 193 254 252 178 255 255 173 
147 144 175 112 127 148 105 116 138 113 125 141 151 161 186 111 132 161 
98  121 152 157 167 202 138 150 174 110 123 142 83  116 149 61  96  136 
78  105 135 144 155 175 125 131 147 113 117 126 134 132 133 141 138 133 
129 124 118 166 159 153 163 145 143 161 149 151 186 175 179 165 151 164 
171 162 183 170 161 180 161 148 168 167 150 169 153 158 161 101 123 144 
80  102 151 82  112 172 31  67  164 21  57  135 12  36  96  0   18  32  
0   8   16  4   3   1   0   0   4   1   0   0   
177 173 172 174 169 176 183 179 180 187 186 202 141 141 151 182 181 199 
137 148 168 133 144 164 132 152 177 121 137 160 133 145 167 150 149 154 
185 181 182 199 179 168 202 173 155 207 168 139 249 203 169 250 219 172 
255 255 186 249 247 232 232 232 224 251 241 214 235 221 192 193 168 127 
111 118 146 134 149 168 148 155 174 158 166 179 166 172 194 141 142 147 
127 135 146 94  116 140 95  115 148 85  106 133 82  101 131 74  94  119 
85  102 130 104 116 132 78  94  119 88  108 135 64  80  105 175 177 189 
108 106 111 132 124 122 136 134 139 126 124 129 133 131 136 160 153 160 
157 149 162 139 144 163 124 123 141 136 132 149 146 138 175 156 136 171 
151 141 175 136 135 151 108 118 130 94  116 165 57  95  157 40  72  181 
22  52  142 9   34  101 8   17  56  0   4   28  
140 149 164 152 166 175 133 149 175 147 165 189 143 158 181 117 132 135 
107 125 147 109 118 135 127 131 140 141 140 148 167 162 169 194 183 181 
202 186 186 194 181 175 201 180 175 202 185 175 222 199 193 224 203 202 
230 203 208 234 214 213 246 255 224 255 239 166 212 204 167 207 172 140 
130 120 119 131 122 125 155 149 149 149 159 171 126 125 123 98  108 120 
127 131 142 108 112 121 92  116 144 74  97  131 81  107 140 85  104 134 
85  109 157 78  107 121 69  95  132 41  77  127 35  69  132 33  69  131 
30  65  129 26  61  129 80  109 165 76  98  145 118 136 176 105 128 162 
121 138 166 113 130 146 126 143 159 111 128 144 100 116 139 87  103 129 
73  88  129 71  86  127 90  105 146 101 116 157 86  98  140 52  73  128 
38  67  127 64  86  143 90  107 161 36  67  132 
86  109 141 77  101 129 90  113 147 60  98  147 61  90  132 81  107 132 
76  96  120 118 131 150 147 153 165 150 154 166 178 177 191 128 139 157 
131 138 157 148 141 148 195 180 185 172 163 164 162 153 158 174 159 162 
198 182 149 239 222 202 227 218 179 190 185 147 130 114 117 212 166 130 
229 188 132 200 167 134 176 163 155 120 127 133 106 110 109 159 146 138 
164 145 131 126 126 126 104 120 136 92  107 126 69  96  126 78  99  118 
87  104 112 86  102 118 91  106 127 83  103 110 79  98  115 76  96  131 
37  61  109 41  72  136 36  68  127 28  62  123 26  62  124 18  55  108 
18  50  101 13  43  103 13  43  103 5   35  95  16  41  105 31  56  122 
4   36  95  10  42  101 12  44  103 17  52  110 20  52  111 33  63  123 
20  58  123 33  65  126 43  65  125 29  54  118 
64  101 145 83  112 154 66  89  121 95  114 147 127 139 163 170 177 196 
165 165 173 136 135 141 143 152 169 130 141 161 152 163 185 113 121 140 
142 147 167 156 161 180 155 152 171 133 137 149 157 145 145 199 183 183 
210 173 128 178 164 177 101 113 139 118 124 138 143 131 131 225 192 99  
115 93  69  158 151 158 144 136 133 107 112 116 102 112 114 123 117 117 
148 138 128 132 131 129 107 117 126 138 145 151 120 123 132 109 111 108 
115 126 120 89  97  110 93  102 109 97  102 108 95  99  108 76  82  96  
71  85  112 66  89  133 32  59  106 20  56  116 7   50  118 16  57  119 
8   52  115 4   48  111 0   44  107 0   43  106 4   44  106 3   42  109 
0   44  112 0   45  113 0   43  111 0   41  108 2   42  111 19  51  110 
17  56  121 25  59  120 30  51  108 46  63  117 
53  88  120 54  75  106 79  87  90  105 103 91  114 120 108 118 127 134 
85  105 129 117 138 165 102 114 136 130 147 175 116 136 171 116 137 168 
113 129 162 124 142 162 153 164 184 121 138 154 126 144 164 108 137 169 
79  116 145 137 170 237 142 149 175 179 182 189 152 145 163 198 179 207 
130 134 143 136 151 172 106 122 148 113 122 139 103 112 127 192 188 203 
134 125 126 120 121 139 141 150 167 145 149 158 63  81  101 92  112 137 
56  68  118 88  107 114 65  82  100 63  80  100 74  91  107 70  80  105 
72  85  102 60  74  83  59  67  80  63  73  98  56  67  99  32  55  96  
21  49  96  14  44  94  15  45  95  11  41  91  7   44  99  4   40  100 
6   38  85  19  51  98  11  43  90  31  52  97  35  52  98  27  44  88  
37  60  110 41  59  105 70  80  115 75  89  126 
39  53  92  70  82  108 94  104 116 102 108 120 89  103 114 100 107 125 
87  103 128 130 145 168 83  104 135 81  102 147 89  113 139 104 124 157 
125 146 175 121 138 164 98  114 148 130 147 177 138 158 182 148 163 192 
134 150 175 165 182 228 125 135 162 125 134 149 121 129 148 106 114 135 
119 131 145 143 145 157 124 131 147 89  106 132 127 141 168 50  69  102 
38  53  86  56  73  101 50  67  97  94  97  104 123 131 120 91  93  105 
90  102 126 74  97  115 54  67  101 58  73  96  60  74  100 67  79  105 
67  77  102 64  72  93  55  63  86  58  66  89  52  60  83  52  59  85  
46  53  82  32  43  75  39  50  82  46  57  89  36  49  81  34  47  79  
37  51  86  33  38  76  33  53  86  35  43  80  43  51  88  42  46  81  
35  41  77  34  43  82  43  51  87  33  41  77  
59  70  100 71  83  107 78  90  104 118 131 140 48  67  100 100 118 122 
101 113 125 96  108 132 128 144 167 65  87  124 68  99  128 97  117 152 
91  112 143 51  76  106 61  85  123 68  93  124 118 131 150 116 124 147 
107 128 157 124 151 196 96  119 151 110 126 149 133 149 175 111 126 155 
95  118 150 88  105 133 66  83  109 45  77  116 38  69  113 42  68  117 
49  72  126 40  69  111 32  60  108 43  69  106 101 129 141 105 104 120 
43  53  78  58  75  95  59  75  109 60  71  101 48  60  82  52  62  89  
55  62  88  60  66  88  56  63  91  45  52  80  49  56  84  38  44  80  
47  54  80  40  49  78  44  53  82  29  38  67  39  41  64  37  39  62  
37  46  77  27  36  67  34  49  78  30  39  70  31  40  71  37  43  75  
28  37  70  22  35  70  38  48  84  27  37  73  
100 108 127 88  99  119 79  96  116 76  85  102 73  92  106 91  103 125 
75  90  119 52  74  111 72  92  127 44  67  101 55  77  114 92  112 149 
66  86  121 84  108 132 76  99  131 98  122 150 72  95  129 95  114 144 
112 129 155 127 156 186 109 135 168 75  104 138 58  86  125 48  76  116 
64  78  117 65  84  116 84  107 141 51  75  113 93  108 141 84  101 117 
57  77  101 36  61  91  26  49  93  23  63  115 77  113 147 15  54  111 
35  59  97  62  69  97  60  65  87  49  59  84  43  53  80  49  56  84  
47  53  79  45  47  70  46  54  77  41  49  72  55  63  86  37  45  66  
36  43  69  33  39  63  34  40  64  36  42  66  39  46  74  28  35  63  
41  42  70  28  43  66  37  44  70  32  42  67  24  34  59  13  25  51  
28  42  69  16  33  63  23  37  64  21  35  62  
75  91  107 93  109 122 67  84  91  124 137 143 105 121 136 73  90  110 
69  89  116 60  80  105 100 112 126 110 120 145 98  107 138 76  96  120 
76  101 132 47  76  110 52  74  121 66  86  119 77  97  124 64  90  127 
72  104 115 80  101 128 57  91  128 52  74  115 77  101 129 31  53  92  
65  84  124 64  82  120 60  79  119 83  103 130 102 119 137 74  89  120 
68  88  113 75  91  107 89  116 143 89  115 138 63  82  112 41  66  97  
46  56  83  51  59  78  72  76  103 48  52  77  38  46  69  36  43  71  
44  50  76  46  51  73  37  45  68  50  58  77  49  58  75  50  47  74  
32  44  66  40  47  73  28  35  61  28  35  61  18  31  50  21  35  61  
18  32  58  14  30  55  13  33  57  24  32  53  24  37  56  28  34  56  
33  39  61  25  31  53  27  33  57  22  34  56  
62  78  94  96  112 128 93  109 124 91  104 121 94  111 131 68  86  110 
97  110 129 109 122 138 87  105 119 97  114 134 93  109 132 55  74  107 
62  82  119 51  68  98  53  71  107 45  67  104 76  95  127 66  78  102 
66  74  97  88  96  119 88  99  119 91  107 120 81  96  117 57  71  100 
87  103 128 63  78  117 52  75  117 58  78  113 76  95  125 48  65  93  
35  55  92  45  69  107 18  51  96  37  62  102 56  80  114 62  82  107 
83  94  112 90  100 110 59  64  83  50  59  90  36  51  80  29  45  70  
28  43  66  29  40  60  33  39  61  41  48  66  31  38  54  49  60  80  
49  51  74  39  42  59  27  30  47  36  39  56  30  38  51  27  33  49  
23  29  45  21  28  44  20  32  46  23  31  42  45  43  57  22  31  48  
17  26  43  19  28  45  12  25  42  35  42  61  
58  73  92  81  96  117 71  86  109 49  65  91  76  93  119 67  89  113 
64  78  107 87  101 127 69  87  127 41  59  99  39  57  97  54  73  106 
69  85  119 79  90  112 79  89  101 74  80  94  61  67  81  58  58  56  
135 122 113 112 117 113 81  91  100 98  111 127 68  80  106 51  63  87  
58  77  107 40  63  107 32  56  102 49  70  113 41  60  102 20  39  72  
34  56  97  17  42  83  48  77  121 43  63  100 74  97  129 53  73  100 
49  60  80  72  81  96  52  57  77  34  41  69  28  40  66  23  37  63  
33  45  69  30  38  59  38  43  63  46  52  68  56  62  76  24  37  53  
31  38  56  37  43  57  34  40  54  21  27  41  26  40  53  16  22  36  
24  30  44  17  25  38  12  24  36  25  35  45  34  36  49  5   19  32  
14  28  41  22  36  49  26  36  48  33  41  54  
52  67  86  39  54  77  41  55  84  46  61  94  50  69  99  32  53  80  
51  68  111 32  50  88  44  65  96  49  70  99  53  74  101 79  98  128 
56  70  99  101 111 123 140 143 136 128 115 107 108 101 93  105 97  78  
172 144 132 97  98  103 53  69  105 33  48  79  51  65  102 64  80  103 
37  60  102 23  54  101 22  46  94  27  49  96  36  54  102 59  78  120 
45  69  107 27  51  87  21  45  83  59  73  102 66  85  115 28  53  84  
30  40  67  38  46  65  41  45  72  45  49  74  52  60  83  26  33  61  
41  47  73  37  42  64  25  28  47  40  43  58  28  32  44  15  27  43  
16  29  45  19  28  45  19  28  45  13  22  39  0   16  33  24  33  48  
0   7   22  1   13  27  11  27  40  11  20  35  2   16  29  11  25  38  
2   16  29  5   19  32  33  35  48  27  35  46  
59  70  92  48  60  84  87  101 128 44  61  87  45  62  92  31  47  80  
23  42  72  30  45  76  55  74  104 50  70  97  42  60  96  41  57  90  
79  94  117 95  107 123 98  109 129 81  93  105 60  78  100 59  74  93  
99  111 127 43  58  89  41  61  96  50  63  95  45  64  97  37  61  95  
30  54  98  24  56  97  32  65  106 21  51  89  18  46  83  38  55  85  
31  48  78  45  65  92  21  40  72  31  49  85  23  38  67  36  55  88  
17  41  65  32  36  47  46  49  64  25  34  49  32  40  61  17  28  46  
33  44  62  23  34  52  41  47  63  35  37  52  44  44  56  29  28  42  
29  37  40  34  37  44  21  27  41  19  28  35  23  28  34  47  51  60  
14  27  36  3   16  25  6   19  28  11  21  30  15  25  35  7   17  26  
5   15  24  5   15  24  6   14  25  18  26  37  
49  66  84  38  53  74  38  52  78  28  44  69  22  37  66  40  55  86  
42  57  86  56  71  100 51  69  91  21  38  66  48  64  97  40  56  89  
43  60  90  37  51  86  50  65  96  77  92  121 52  67  98  42  58  91  
48  74  109 34  57  98  88  113 143 67  82  113 23  47  81  18  51  86  
27  55  94  8   38  76  10  45  83  11  45  80  16  46  80  66  82  105 
33  49  72  63  73  98  46  60  87  70  87  115 64  79  102 39  53  82  
26  38  52  24  31  41  25  35  44  26  36  46  22  31  46  19  32  48  
13  26  42  18  31  47  24  33  48  21  29  42  23  30  40  31  35  47  
39  43  42  22  23  25  29  33  44  26  34  37  39  45  45  9   14  20  
3   13  23  4   14  24  4   14  24  8   16  18  15  22  32  15  22  28  
2   9   15  7   14  20  10  19  28  10  19  28  
7   30  44  4   23  40  26  38  62  40  55  78  43  57  84  32  46  75  
39  50  78  27  43  69  43  59  82  33  49  75  70  87  103 58  70  86  
65  80  103 74  89  120 67  84  102 48  64  87  71  86  109 35  55  80  
40  61  90  13  36  77  27  55  94  30  56  93  15  41  74  12  39  69  
18  46  83  22  48  85  13  45  83  25  54  88  11  37  70  49  63  89  
29  43  69  41  48  76  73  89  115 30  51  80  34  53  85  18  32  58  
53  55  68  23  32  47  19  33  46  19  30  36  34  44  54  20  36  49  
12  28  41  11  27  40  18  32  45  19  31  43  25  35  44  15  23  26  
38  37  43  19  27  30  7   17  27  7   20  26  9   13  22  14  19  23  
33  33  41  36  36  44  18  18  26  3   6   11  6   10  11  6   10  13  
22  26  29  8   12  15  17  18  20  8   9   11  
0   21  35  10  32  45  6   29  37  8   32  44  19  38  55  18  35  55  
41  56  79  26  44  66  22  47  69  35  49  75  32  50  74  40  54  81  
68  83  106 49  62  81  28  46  70  16  41  71  25  50  81  19  44  75  
7   36  68  17  46  78  12  41  73  14  43  73  15  39  67  17  37  64  
14  38  66  20  39  69  15  38  70  19  43  77  71  83  107 13  28  51  
48  63  86  44  59  90  16  41  61  12  42  68  17  49  90  16  36  61  
7   28  45  10  31  48  9   30  47  8   27  42  4   20  33  9   23  34  
17  31  40  12  27  34  6   25  32  10  20  29  46  51  57  25  27  22  
12  13  17  11  21  30  5   16  20  15  26  28  6   11  17  9   14  20  
6   13  19  7   14  20  0   7   13  13  18  24  1   7   5   10  11  13  
7   8   10  2   3   5   12  14  13  5   7   6   
9   27  41  17  35  45  19  38  45  9   32  40  22  40  54  19  35  51  
26  44  58  17  38  55  19  40  59  42  54  76  25  46  65  29  47  69  
11  29  51  23  41  61  26  48  71  18  44  69  15  41  66  18  44  69  
15  42  71  11  38  67  14  41  70  5   35  61  21  45  69  16  36  60  
19  41  65  62  79  105 11  37  64  39  55  78  58  65  81  31  47  73  
39  55  81  26  43  69  9   35  50  9   37  59  22  51  81  5   31  46  
0   22  36  2   25  39  3   26  40  0   23  41  6   20  31  16  24  35  
22  31  40  26  35  42  15  24  33  11  15  24  21  24  29  13  19  17  
19  24  27  7   16  23  2   12  14  5   15  16  19  24  28  8   13  17  
6   11  15  32  37  41  11  16  20  4   9   13  5   11  11  9   10  12  
9   10  12  4   5   7   9   11  10  2   4   3   
15  27  41  16  29  38  15  28  36  4   25  30  10  27  37  13  27  40  
14  24  33  20  34  47  26  42  58  39  52  69  13  36  50  8   31  47  
14  37  55  14  39  59  16  41  61  15  40  60  7   34  55  11  38  59  
15  41  64  5   31  54  11  37  60  6   37  57  14  39  59  18  39  56  
21  42  63  14  30  53  23  39  64  55  63  82  24  39  62  38  56  76  
10  28  48  6   28  49  5   32  43  2   27  47  7   34  51  24  57  62  
12  30  34  11  29  33  17  35  39  7   20  29  6   19  28  6   16  25  
10  21  27  11  22  24  10  19  26  10  20  22  8   18  19  5   15  16  
3   13  14  0   7   13  0   8   10  1   10  9   2   8   8   5   11  11  
6   7   9   3   4   6   4   5   7   3   8   11  1   6   9   0   1   3   
4   5   7   2   3   5   2   4   3   2   4   3   
35  44  51  35  42  50  43  46  55  39  44  48  15  22  30  25  35  44  
32  39  47  61  67  79  37  48  52  28  37  52  28  39  59  12  33  50  
13  34  51  18  39  56  13  34  51  16  37  54  15  44  60  5   37  52  
17  40  58  38  56  76  26  43  63  17  33  56  17  33  56  24  40  63  
23  37  50  45  47  68  60  66  78  20  33  50  24  31  47  16  38  52  
6   28  42  2   25  39  3   26  40  3   26  40  6   26  33  38  44  42  
38  41  30  34  37  28  40  42  37  49  44  38  12  21  18  11  25  36  
6   21  18  11  22  26  15  23  25  8   17  16  3   12  9   5   15  14  
1   11  10  0   9   6   2   11  8   2   11  8   7   9   8   6   8   7   
8   10  9   10  12  11  0   1   0   3   4   9   7   8   13  4   6   5   
0   1   0   3   5   4   2   2   2   3   3   3   
15  28  34  23  32  39  49  56  64  44  49  53  20  29  36  29  39  48  
22  31  38  26  34  45  41  45  54  26  40  51  17  36  51  9   31  45  
14  36  50  6   28  42  2   24  38  8   30  44  13  36  52  9   32  48  
12  34  55  31  49  71  19  35  58  29  42  61  29  42  61  25  38  57  
76  79  94  40  47  65  48  54  66  41  54  71  23  30  46  6   25  39  
3   22  36  0   20  33  5   27  40  1   23  36  15  28  34  40  41  36  
48  46  31  43  41  28  56  53  44  36  37  32  35  38  31  8   19  25  
9   21  19  0   12  15  6   14  16  4   13  12  1   10  7   1   10  9   
0   9   8   2   8   6   3   9   7   3   9   7   6   8   7   3   5   4   
3   5   4   2   4   3   2   4   3   2   3   7   4   5   9   8   10  9   
6   8   7   5   7   6   2   2   2   6   6   6   
10  28  32  22  37  42  30  41  47  30  40  42  23  34  40  16  29  37  
15  28  34  26  39  48  42  46  58  13  30  40  7   34  43  9   31  44  
10  32  45  13  35  48  6   28  41  10  32  45  4   20  35  52  61  78  
28  44  60  22  35  52  39  47  66  54  62  75  26  34  47  55  63  76  
64  62  76  49  56  72  33  39  51  29  42  59  21  28  44  9   27  39  
6   24  36  3   23  34  2   22  33  1   21  32  40  44  45  51  47  36  
44  39  19  53  47  31  45  39  25  46  49  42  32  32  24  33  39  35  
7   17  18  1   15  16  7   15  17  3   12  11  0   9   6   2   8   8   
3   9   9   2   6   5   2   6   5   4   8   7   3   5   4   4   6   5   
1   3   2   7   9   8   3   5   4   3   4   6   2   3   5   1   3   2   
3   5   4   2   4   3   2   2   2   0   0   0   
2   23  26  9   28  32  7   25  29  7   18  20  19  32  38  0   17  24  
8   27  31  15  34  41  19  35  48  7   24  34  5   24  31  4   26  37  
5   27  38  3   25  36  0   22  33  1   23  34  48  54  66  40  36  51  
54  53  61  80  77  86  66  58  69  62  62  70  45  45  53  26  26  34  
30  34  45  21  29  42  28  34  46  28  41  58  22  29  45  8   25  33  
3   20  28  0   19  26  1   20  27  2   21  28  42  47  41  44  47  28  
37  35  20  43  41  28  38  35  26  48  43  24  26  28  25  28  30  17  
2   7   11  0   13  13  1   9   11  3   12  11  0   9   6   3   7   8   
2   6   7   5   7   6   4   6   5   2   4   3   1   3   2   3   5   4   
1   3   2   3   5   4   3   5   4   1   3   2   1   3   2   4   6   5   
5   7   6   5   7   6   2   2   2   2   2   2   
2   18  15  4   20  17  8   24  21  17  32  29  17  33  33  0   19  20  
3   20  27  2   19  26  8   27  34  1   19  31  3   21  35  7   27  36  
6   26  35  11  34  40  3   22  29  35  52  60  17  24  30  48  51  58  
52  56  67  31  35  46  26  30  41  34  36  48  29  36  46  14  23  32  
21  31  43  26  38  50  20  34  47  26  40  53  12  26  39  0   18  27  
0   17  27  1   20  26  0   12  15  6   20  21  37  42  36  44  46  33  
36  38  16  35  34  14  52  49  30  43  35  24  20  26  14  30  27  10  
3   12  7   1   10  9   1   11  10  4   10  10  0   4   5   2   4   3   
7   9   8   4   6   5   4   6   5   2   4   3   2   2   2   3   3   3   
4   4   4   2   2   2   3   3   3   3   3   3   1   1   1   1   1   1   
1   1   1   5   5   5   3   3   3   1   1   1   
0   10  5   0   12  7   3   18  13  6   18  14  7   21  21  0   16  16  
5   20  25  7   22  27  0   15  19  2   19  27  7   24  34  1   20  27  
2   21  28  0   22  28  5   24  31  15  32  40  18  29  35  23  30  38  
24  38  51  11  25  38  5   19  32  15  33  45  15  27  41  31  37  53  
17  31  40  7   26  33  5   25  34  0   19  28  14  34  43  2   21  28  
3   17  26  0   18  22  0   13  14  5   17  17  29  32  25  44  46  35  
40  34  22  52  45  19  63  52  20  45  40  21  23  25  20  28  22  6   
0   6   2   1   7   7   0   9   6   4   8   7   4   6   5   2   4   3   
0   2   1   3   5   4   1   3   2   4   6   5   9   9   9   3   3   3   
2   2   2   4   4   4   1   1   1   0   0   0   1   1   1   1   1   1   
6   6   6   4   4   4   3   3   3   1   1   1   
0   10  4   3   14  8   1   12  6   3   13  5   3   15  11  0   13  10  
3   17  18  3   17  18  4   20  19  2   18  18  6   21  26  1   19  23  
4   22  26  0   18  24  4   23  30  17  34  42  5   22  30  8   21  30  
0   17  24  9   26  33  21  38  45  24  33  42  21  31  40  11  24  32  
17  28  34  9   22  28  3   17  26  5   19  28  6   20  29  1   19  23  
0   10  16  3   17  20  0   8   9   5   14  13  29  30  22  29  34  27  
36  37  29  58  55  24  60  44  19  13  14  0   23  23  13  35  28  12  
7   9   6   3   7   8   4   9   5   3   5   2   5   4   2   3   5   4   
1   3   2   3   5   4   5   7   6   1   3   2   2   2   2   0   0   0   
3   3   3   1   1   1   0   0   0   2   2   2   1   1   1   1   1   1   
1   1   1   2   2   2   1   1   1   1   1   1   
3   16  9   1   12  6   1   10  5   4   10  6   2   13  7   6   19  12  
5   19  20  4   18  19  3   18  15  0   17  17  0   20  21  6   19  25  
2   15  21  0   15  20  9   24  29  1   16  21  15  26  30  15  26  30  
8   19  25  11  22  28  8   19  25  3   16  22  8   21  27  3   16  22  
2   15  21  3   16  22  3   19  19  1   17  17  0   16  16  1   12  16  
4   15  19  0   13  13  3   13  14  2   10  12  28  25  6   24  21  14  
17  29  17  16  24  13  21  22  14  17  18  12  25  25  13  33  25  4   
4   8   9   4   6   3   3   5   4   2   4   3   2   4   3   2   4   3   
2   4   3   3   3   3   2   2   2   2   2   2   0   0   0   3   3   3   
2   2   2   4   4   4   2   2   2   1   1   1   1   1   1   1   1   1   
1   1   1   1   1   1   1   1   1   1   1   1   
2   15  8   1   12  6   3   9   5   3   9   5   0   11  5   4   17  10  
1   15  15  0   14  14  8   20  18  0   16  15  0   18  20  3   17  20  
7   21  24  5   20  23  4   19  22  5   20  23  29  40  42  30  41  43  
29  40  44  9   20  24  14  25  29  9   23  26  5   19  22  4   18  21  
7   21  24  2   16  19  0   15  15  2   18  18  2   18  18  6   17  19  
0   9   11  0   12  12  2   12  13  2   10  12  28  25  16  33  31  18  
21  27  15  20  23  12  21  21  11  22  22  14  26  28  7   39  36  19  
0   1   2   5   7   4   3   5   4   2   4   3   2   4   3   2   4   3   
2   4   3   3   3   3   2   2   2   2   2   2   0   0   0   3   3   3   
1   1   1   2   2   2   0   0   0   1   1   1   1   1   1   1   1   1   
1   1   1   1   1   1   1   1   1   1   1   1   
1   10  5   4   10  6   6   8   5   3   9   5   0   11  5   2   15  8   
2   13  9   2   13  9   2   13  7   3   15  13  2   16  16  3   17  17  
3   17  17  1   17  16  2   18  17  2   18  17  4   16  14  8   20  18  
4   16  16  10  22  22  4   16  16  8   22  22  7   21  21  4   18  18  
5   19  19  1   15  15  1   12  14  4   15  17  0   9   11  4   16  14  
1   13  11  0   14  14  1   11  12  2   10  12  2   8   6   31  34  15  
28  22  6   25  22  5   23  22  4   43  51  30  49  64  45  6   17  11  
5   7   6   1   3   2   4   6   5   1   3   2   3   5   4   1   3   2   
0   2   1   3   3   3   2   2   2   1   1   1   1   1   1   0   0   0   
2   2   2   2   2   2   1   1   1   1   1   1   1   1   1   1   1   1   
1   1   1   1   1   1   1   1   1   0   0   0   
3   9   5   5   10  6   5   5   3   5   11  7   0   11  5   0   12  5   
3   12  9   2   11  8   3   13  5   6   18  14  0   15  12  0   14  14  
0   14  14  1   17  16  0   12  11  3   19  18  2   14  12  3   15  13  
13  25  25  6   18  18  4   16  16  2   16  16  0   11  11  1   15  15  
5   19  19  1   15  15  3   13  15  0   10  12  2   12  14  2   14  12  
1   13  11  0   14  14  5   15  16  2   10  12  3   14  8   5   7   0   
39  27  11  35  28  10  26  25  5   44  59  30  11  34  26  17  33  32  
1   1   1   1   5   4   2   4   3   1   3   2   3   5   4   0   2   1   
3   5   4   3   3   3   2   2   2   1   1   1   6   6   6   2   2   2   
2   2   2   2   2   2   1   1   1   1   1   1   1   1   1   1   1   1   
1   1   1   1   1   1   1   1   1   0   0   0   
5   12  5   4   11  4   5   12  5   6   13  6   21  28  21  7   14  7   
4   10  6   5   11  7   1   13  9   1   13  9   1   13  9   1   15  15  
0   13  13  3   17  17  4   18  18  3   17  17  2   17  12  2   17  12  
0   12  12  4   18  18  1   15  15  2   14  10  1   13  9   0   12  8   
1   13  13  1   15  15  2   14  14  4   16  16  0   9   9   1   11  12  
2   12  13  1   12  8   1   7   5   2   6   5   2   6   5   3   7   6   
1   12  4   15  10  6   5   17  5   11  33  31  12  45  80  13  39  36  
7   7   9   2   4   3   1   2   4   1   2   4   1   2   4   2   1   7   
0   3   4   0   4   39  2   9   0   2   3   0   1   1   1   1   1   1   
1   1   1   1   1   1   1   1   1   1   1   3   1   1   3   1   1   1   
1   1   1   1   1   1   1   1   1   1   1   1   
0   7   0   3   10  3   7   14  7   11  18  11  12  19  12  6   13  6   
4   10  6   9   15  11  7   16  13  0   8   5   0   9   6   1   11  10  
0   10  9   2   12  11  4   14  13  5   15  14  2   13  9   1   12  8   
9   19  18  3   13  12  4   14  13  6   15  12  2   11  8   3   12  9   
6   15  14  0   12  10  0   9   8   1   10  9   5   14  13  2   8   8   
0   5   5   3   9   7   2   6   5   6   6   6   0   4   3   1   5   4   
1   7   5   5   9   12  0   7   13  8   39  34  12  44  91  17  28  30  
2   3   5   1   1   1   3   3   3   4   4   4   5   5   5   5   1   2   
0   7   35  26  50  218 0   0   12  0   2   0   1   1   1   1   1   1   
1   1   1   1   1   1   1   1   1   0   0   2   1   1   3   1   1   1   
1   1   1   0   0   0   0   0   0   0   0   0   
13  20  13  8   15  8   1   8   1   3   10  3   1   8   1   3   10  3   
4   10  6   1   7   3   2   8   6   0   5   3   2   8   6   1   10  7   
4   13  10  6   15  12  6   15  12  3   12  9   1   10  7   5   14  11  
7   16  13  6   15  12  6   15  12  5   11  9   7   13  11  4   10  8   
2   8   6   0   9   6   2   8   6   0   6   4   4   10  8   3   7   6   
3   7   6   2   6   5   3   5   4   5   3   4   1   5   4   1   5   4   
0   4   8   1   11  12  4   16  14  12  31  25  15  37  48  3   4   9   
0   2   3   0   0   0   1   0   0   3   2   0   1   0   0   2   1   7   
7   9   22  23  31  140 34  12  1   0   0   11  1   1   1   1   1   1   
1   1   1   1   1   1   1   1   1   0   0   2   1   1   3   1   1   1   
1   1   1   0   0   0   0   0   0   0   0   0   
0   4   0   5   10  6   3   8   4   2   7   3   6   11  7   1   6   2   
1   6   2   2   7   3   0   9   4   1   10  5   1   10  5   0   10  4   
0   11  5   5   11  7   3   9   5   6   12  8   0   11  5   0   11  5   
6   12  8   3   9   5   5   11  7   3   7   6   3   7   6   3   7   6   
3   7   6   6   10  9   4   8   7   5   9   8   2   6   5   3   5   4   
4   6   5   2   4   3   4   6   5   2   4   3   2   4   3   3   5   4   
2   3   7   1   9   11  0   16  15  1   11  0   4   6   5   3   2   0   
22  22  12  21  22  6   19  22  5   20  23  6   19  22  5   6   0   0   
1   0   12  0   3   8   39  28  34  1   0   0   0   0   2   1   1   0   
0   0   0   0   0   0   0   0   0   0   0   2   0   0   2   0   0   2   
0   0   2   0   0   2   0   0   0   0   0   0   
0   4   0   0   5   1   0   5   1   4   9   5   5   10  6   0   4   0   
1   6   2   4   9   5   10  16  12  0   5   1   4   10  6   0   9   4   
0   9   4   1   7   3   4   10  6   4   10  6   1   10  5   5   14  9   
5   11  7   2   8   4   3   9   5   6   10  9   1   5   4   1   5   4   
3   7   6   4   8   7   0   4   3   3   7   6   1   5   4   3   5   4   
3   5   4   2   4   3   2   4   3   1   3   2   2   4   3   2   4   3   
0   4   3   3   9   7   4   15  11  5   11  9   5   11  0   13  21  8   
14  22  7   10  18  3   12  16  0   18  22  5   26  30  13  34  34  10  
22  19  4   20  19  24  14  9   13  4   2   5   3   2   0   2   0   3   
0   0   0   0   0   0   0   0   0   0   0   2   0   0   2   0   0   2   
0   0   2   0   0   2   0   0   0   0   0   0   
1   6   2   2   7   3   1   6   2   0   5   1   0   4   0   1   6   2   
1   6   2   3   8   4   4   6   3   6   8   5   5   7   4   4   9   5   
2   7   3   1   7   3   3   9   5   3   9   5   4   9   5   4   9   5   
0   4   0   2   8   4   3   9   5   1   5   4   1   5   4   2   6   5   
2   6   5   4   8   7   4   8   7   2   6   5   3   7   6   3   5   4   
3   5   4   3   5   4   2   4   3   2   4   3   1   3   2   3   5   4   
0   5   1   2   7   3   0   5   1   4   6   3   15  24  7   12  19  3   
10  16  2   21  27  17  17  23  13  7   13  3   15  21  11  31  24  14  
20  21  13  4   0   0   4   5   7   11  8   15  17  12  16  10  6   5   
1   1   1   0   0   0   1   1   1   0   0   2   0   0   2   0   0   2   
0   0   2   0   0   2   1   1   1   0   0   0   
0   3   0   2   7   3   2   7   3   0   3   0   1   6   2   0   2   0   
1   6   2   2   7   3   4   6   3   0   1   0   0   1   0   3   8   4   
2   7   3   0   6   2   1   7   3   2   8   4   0   4   0   1   6   2   
6   12  8   2   8   4   3   9   5   1   5   4   3   7   6   7   11  10  
0   4   3   1   5   4   18  22  21  5   9   8   0   4   3   6   8   7   
0   2   1   2   4   3   2   4   3   2   4   3   1   3   2   3   5   4   
0   4   0   1   6   0   2   4   0   20  22  11  8   19  5   11  12  0   
28  28  16  19  18  13  4   10  10  13  19  19  33  39  39  35  24  4   
12  27  0   27  17  18  0   2   5   1   0   7   9   1   12  20  15  9   
6   6   6   3   3   3   1   1   1   0   0   2   0   0   2   0   0   2   
0   0   2   0   0   2   1   1   1   0   0   0   
1   3   0   4   6   3   0   2   0   1   3   0   3   5   2   3   5   2   
3   5   2   3   5   2   4   6   3   4   6   3   4   6   3   2   7   3   
2   7   3   2   8   4   2   8   4   4   10  6   0   5   1   2   7   3   
4   9   5   4   9   5   1   6   2   4   6   3   7   9   6   10  12  9   
4   6   3   5   7   4   5   7   6   2   4   3   5   7   6   3   5   4   
2   4   3   2   4   3   1   3   2   1   3   2   4   6   5   2   4   3   
0   4   3   3   3   3   1   0   0   16  20  3   19  23  9   22  25  14  
8   9   11  6   9   0   0   4   0   25  31  27  32  42  44  3   7   6   
8   14  2   13  19  5   2   1   0   2   3   7   1   1   3   0   0   2   
10  8   9   16  15  13  2   1   0   0   0   2   0   0   2   0   0   2   
0   0   2   0   0   2   0   0   0   0   0   0   
2   4   1   2   4   1   2   4   1   2   4   1   3   5   2   3   5   2   
3   5   2   2   4   1   3   5   2   2   4   1   2   4   1   3   8   4   
4   9   5   0   5   1   1   6   2   1   6   2   4   9   5   0   5   1   
2   7   3   2   7   3   2   7   3   3   5   2   4   6   3   5   7   4   
4   6   3   3   5   2   8   10  9   3   5   4   1   3   2   2   4   3   
1   3   2   2   4   3   3   5   4   1   3   2   2   4   3   2   4   3   
0   5   0   3   3   5   12  12  4   12  16  0   21  24  17  2   11  8   
13  4   5   7   0   0   59  61  56  3   7   8   3   9   9   3   7   6   
6   12  0   10  21  5   23  29  25  1   2   6   0   0   2   0   0   2   
1   0   5   6   4   7   11  10  5   0   0   0   0   0   0   0   0   2   
0   0   2   1   1   3   0   0   0   0   0   0   
2   4   1   2   4   1   2   4   1   2   4   1   1   3   0   1   3   0   
1   3   0   4   6   3   3   5   2   4   6   3   0   2   0   1   6   2   
0   4   0   5   7   4   1   3   0   3   5   2   0   5   1   0   5   1   
2   7   3   2   7   3   2   7   3   3   5   2   2   4   1   2   4   1   
2   4   1   3   5   2   4   6   5   1   3   2   3   5   4   1   3   2   
1   3   2   0   1   0   0   2   1   1   3   2   0   2   1   0   2   1   
0   5   0   3   2   8   25  26  12  25  30  10  7   9   6   2   9   2   
31  7   5   44  16  12  72  73  68  4   5   10  2   7   3   1   5   4   
5   11  0   6   19  2   23  38  31  0   1   5   0   0   2   0   0   2   
1   0   0   1   0   2   15  12  19  5   5   3   0   0   0   1   1   3   
1   1   3   1   1   3   1   1   1   0   0   0   
3   3   3   2   2   2   3   3   3   4   6   5   3   5   4   3   5   4   
2   4   3   2   4   3   2   4   3   2   4   3   2   4   3   2   4   3   
2   4   3   2   4   1   4   6   3   3   5   2   2   4   1   1   3   0   
5   7   4   1   3   0   4   6   3   3   5   4   3   5   4   3   5   4   
5   5   5   4   4   4   2   2   2   2   2   2   2   2   2   2   2   2   
2   2   2   1   1   1   1   1   1   1   1   1   2   2   2   2   2   2   
2   3   0   3   1   4   34  34  10  9   19  8   6   8   5   0   10  1   
20  0   2   40  13  18  3   3   5   2   2   4   4   4   6   3   5   2   
6   9   0   13  19  5   24  28  14  0   0   2   0   0   0   0   0   0   
0   0   0   0   0   0   2   2   2   17  15  16  2   1   0   0   0   2   
0   0   2   3   3   5   1   1   1   0   0   0   
0   0   0   2   2   2   1   1   1   2   4   3   3   5   4   3   5   4   
2   4   3   2   4   3   2   4   3   2   4   3   2   4   3   2   4   3   
2   4   3   3   5   2   0   2   0   3   5   2   2   4   1   2   4   1   
5   7   4   1   3   0   3   5   2   5   7   6   1   3   2   1   3   2   
0   0   0   0   0   0   2   2   2   2   2   2   2   2   2   0   0   0   
2   2   2   1   1   1   1   1   1   1   1   1   0   0   0   3   3   3   
2   2   0   3   1   2   37  36  18  6   16  5   6   8   5   1   6   2   
7   0   0   1   0   0   2   2   4   0   0   2   2   2   4   11  13  10  
5   8   0   8   14  0   22  26  12  0   0   2   0   0   0   0   0   0   
0   0   0   0   0   0   0   0   0   4   2   5   12  11  9   0   0   2   
0   0   2   0   0   2   1   1   1   0   0   0   
