P3
64 64
255
0   0   50  0   0   50  1   1   53  0   1   55  0   1   55  0   1   55  
0   1   55  0   1   55  0   1   57  0   1   57  0   1   57  0   1   57  
0   1   58  0   1   58  0   1   58  0   1   58  0   1   55  0   1   55  
0   1   55  0   1   55  0   1   55  0   0   57  0   1   55  1   1   61  
1   1   61  0   1   55  1   2   58  1   2   59  1   1   61  0   1   55  
0   1   55  0   1   58  0   1   58  1   2   59  0   1   55  0   1   55  
0   1   55  0   1   55  1   2   59  0   1   58  0   1   55  0   1   58  
0   1   58  0   1   55  0   1   57  0   1   57  0   1   57  0   1   57  
0   1   55  0   1   57  0   1   55  0   1   55  0   1   55  0   1   55  
0   1   55  0   2   53  0   2   53  1   1   53  1   1   53  1   1   51  
1   2   50  1   1   51  0   0   50  1   1   51  
1   1   55  1   1   51  1   1   53  0   1   55  0   1   55  0   1   55  
0   1   55  0   1   55  0   1   57  0   1   57  0   1   57  0   1   57  
0   1   58  0   1   58  0   1   58  0   1   58  0   0   60  1   1   61  
0   0   60  0   0   60  1   1   61  0   1   58  1   1   61  0   0   60  
0   0   60  1   1   61  1   1   63  0   1   58  0   0   60  2   2   62  
0   0   60  1   2   59  1   2   59  0   1   58  0   0   60  0   0   60  
0   0   60  1   1   61  0   1   58  0   1   58  1   1   61  0   1   58  
1   2   59  0   1   58  1   2   58  1   2   58  0   1   57  0   1   57  
0   1   58  0   1   57  0   1   55  0   1   55  0   1   55  0   1   55  
0   1   55  0   2   53  0   2   53  1   1   53  1   1   53  1   1   51  
1   1   55  1   1   51  1   1   51  1   1   51  
1   1   55  0   1   55  0   1   55  0   1   57  0   1   57  0   1   57  
0   1   58  0   1   58  0   1   58  1   1   61  0   0   60  0   0   60  
1   1   61  1   1   61  1   1   63  0   2   63  0   2   63  0   2   63  
0   2   63  0   2   63  0   2   63  0   2   63  0   2   63  0   2   63  
0   2   63  0   2   63  0   2   63  0   2   63  0   1   62  0   2   63  
0   2   63  0   1   62  0   2   63  0   2   63  0   2   61  0   2   61  
0   1   62  0   2   61  0   2   63  0   2   61  1   1   61  0   2   61  
1   1   61  1   1   61  1   1   61  1   1   61  1   1   61  0   0   60  
0   1   58  0   1   58  1   2   59  0   1   58  0   1   57  0   1   57  
0   1   57  0   1   55  0   1   55  0   1   55  0   1   55  0   2   53  
0   2   53  1   1   55  1   1   53  1   1   51  
0   1   57  0   1   57  0   1   58  0   1   58  0   1   57  0   0   60  
0   0   60  1   1   61  0   2   63  0   2   61  0   2   63  0   1   65  
0   1   65  0   1   65  0   1   65  0   1   65  0   1   65  0   1   65  
1   2   66  1   2   66  1   2   66  1   2   66  1   2   66  0   1   65  
0   1   65  1   2   66  1   2   66  0   1   65  1   2   66  1   2   66  
1   2   66  1   2   66  1   2   66  1   2   66  1   2   66  1   2   66  
1   2   66  0   2   63  0   1   65  0   1   65  1   2   66  0   1   65  
0   1   65  0   2   63  0   2   63  0   2   61  0   2   63  0   2   63  
0   2   63  0   2   61  1   3   62  0   2   61  1   1   61  1   1   63  
0   1   58  0   1   58  0   1   58  0   1   57  0   1   57  0   1   57  
0   1   57  0   1   55  0   1   55  0   2   53  
0   1   57  0   1   57  0   1   58  1   2   59  0   2   59  0   1   65  
0   1   65  1   2   66  0   1   65  1   2   66  0   1   65  1   3   64  
0   1   65  1   2   66  0   1   66  1   2   67  0   3   67  0   3   67  
0   3   66  0   2   69  0   2   69  1   2   67  1   2   66  0   3   66  
1   2   67  1   2   67  1   2   67  1   2   67  1   2   66  1   2   69  
1   2   69  0   2   69  0   3   67  0   3   67  1   2   67  1   2   67  
1   2   66  0   3   66  1   2   66  0   3   67  1   2   67  1   2   67  
1   2   67  1   2   66  1   2   66  1   2   66  1   2   66  0   1   65  
0   2   63  1   2   66  1   3   62  1   2   66  0   1   65  0   2   63  
0   2   59  0   2   59  0   2   59  0   3   58  0   0   60  0   1   55  
1   2   59  0   1   58  0   1   58  0   1   57  
1   1   63  0   0   62  1   1   65  1   1   65  0   1   65  0   1   65  
1   2   66  1   2   66  1   2   66  1   2   66  1   2   66  1   2   69  
1   2   66  1   2   66  1   2   67  1   2   67  0   4   68  0   3   67  
0   3   70  0   3   70  0   3   70  3   3   73  1   2   69  0   3   70  
1   2   67  1   2   67  1   2   67  1   2   67  1   2   69  2   3   70  
1   2   69  0   3   70  0   4   68  0   4   68  1   2   67  2   3   68  
1   2   69  0   2   69  1   2   69  0   3   67  1   2   67  1   2   67  
1   2   67  1   2   66  1   2   66  1   2   66  1   2   66  1   2   66  
1   2   69  1   2   66  1   2   67  1   2   66  0   1   65  0   1   62  
0   1   65  1   2   66  1   2   66  0   2   63  1   1   61  1   1   61  
1   2   59  1   2   59  0   1   58  0   1   57  
0   1   65  1   2   66  0   1   65  0   1   66  0   1   65  1   2   66  
1   2   66  1   2   67  1   2   67  1   2   67  1   2   67  2   3   70  
1   2   69  0   2   69  0   2   69  0   3   70  0   2   69  0   3   72  
0   3   72  0   3   72  0   3   72  0   3   72  0   3   72  0   3   72  
0   3   72  0   2   71  0   3   72  0   3   70  0   3   72  0   3   72  
0   3   72  0   2   71  0   3   72  0   3   72  0   3   70  0   3   70  
0   3   70  0   2   69  0   3   70  0   3   70  0   3   70  0   3   70  
0   3   70  0   3   70  0   3   67  0   1   68  1   4   71  1   2   67  
1   2   67  2   3   68  1   2   66  1   2   67  1   2   66  1   2   66  
1   2   66  1   2   66  1   2   66  0   1   65  0   2   63  0   1   62  
0   2   61  0   1   62  0   2   61  0   2   61  
1   2   66  1   2   66  1   2   67  1   2   67  1   2   69  0   3   67  
0   3   70  0   3   72  0   3   72  0   3   72  0   3   72  0   3   72  
0   3   74  0   3   74  0   3   74  0   3   74  1   4   75  0   3   74  
1   4   75  1   4   75  1   4   75  1   4   75  0   3   74  1   4   75  
1   4   75  0   4   75  1   4   75  1   4   75  1   4   75  1   4   75  
1   4   75  0   4   75  0   4   75  0   3   74  1   4   75  1   4   75  
1   4   75  1   4   75  1   4   75  1   4   75  0   3   72  1   4   73  
0   3   72  0   3   72  0   3   70  0   3   72  0   3   72  0   4   68  
0   3   70  0   3   70  0   3   70  0   3   70  0   3   66  0   3   67  
0   3   67  1   2   66  0   3   66  1   2   66  1   2   66  1   2   66  
1   2   66  1   3   64  0   1   65  0   2   63  
0   2   69  0   3   67  0   2   71  0   2   71  0   3   72  0   3   72  
0   3   70  0   3   74  0   3   74  0   2   69  1   4   75  0   3   76  
0   2   75  0   4   77  0   4   77  0   3   76  0   4   77  0   4   77  
0   5   73  0   4   77  0   4   78  0   4   77  0   3   76  0   4   77  
1   5   78  0   4   77  0   5   73  0   5   73  0   4   75  0   4   78  
0   4   77  1   5   78  0   5   77  0   4   77  0   5   73  0   5   73  
0   4   77  0   4   77  1   5   78  0   4   77  0   4   77  0   4   77  
0   5   73  0   4   77  0   4   75  0   4   77  0   4   75  0   5   71  
1   4   71  0   3   74  0   3   72  0   3   70  0   3   72  0   2   71  
0   3   70  0   3   70  0   3   70  0   2   69  0   4   67  0   3   67  
0   3   67  1   2   67  0   3   66  1   2   66  
0   3   70  0   3   72  0   3   72  0   3   72  0   3   72  0   3   72  
1   3   77  0   3   74  1   4   75  1   3   77  1   4   75  0   4   77  
1   5   78  0   4   77  0   4   77  1   5   78  1   5   78  0   4   77  
1   5   79  1   5   78  1   5   79  1   5   78  1   5   78  1   5   78  
1   5   78  1   5   78  1   5   79  1   5   79  1   4   81  1   5   79  
1   5   78  1   5   78  0   6   78  1   5   78  1   5   79  1   5   79  
1   5   78  1   5   78  1   5   78  1   5   78  1   5   78  1   5   78  
0   4   78  1   5   78  0   4   75  0   4   77  0   4   75  0   4   77  
1   3   77  1   4   75  1   4   73  1   4   75  1   4   73  1   4   73  
0   3   74  0   3   70  0   3   70  0   3   70  0   3   70  0   4   68  
0   4   68  2   3   68  0   4   67  1   2   66  
1   4   73  1   4   75  1   4   75  1   4   75  1   3   77  0   4   77  
0   4   77  1   5   78  0   4   77  1   5   78  0   4   77  1   5   79  
0   5   79  0   5   79  0   5   81  0   5   81  0   5   81  0   5   79  
0   6   80  0   5   81  0   6   82  0   5   81  0   6   82  0   5   79  
0   5   79  0   6   80  0   6   80  0   6   80  0   5   81  0   6   82  
0   6   82  0   5   81  0   6   82  0   5   81  0   6   82  0   5   81  
0   5   81  0   5   79  0   5   79  0   6   80  0   5   79  0   5   79  
0   6   80  0   5   79  0   5   79  0   5   79  1   5   79  1   5   78  
0   4   77  0   4   75  1   5   78  0   4   77  0   4   75  0   4   75  
0   4   75  2   5   76  1   4   73  1   4   73  1   4   73  0   3   72  
0   3   70  0   3   70  0   3   70  0   3   70  
0   4   77  1   5   78  0   4   75  0   4   77  0   6   78  0   5   77  
0   4   80  0   5   81  0   5   81  0   5   79  0   5   81  0   5   81  
0   5   81  0   4   80  0   6   82  0   6   82  0   6   82  0   6   82  
0   6   82  0   6   82  0   6   82  0   6   82  0   6   84  0   7   82  
0   6   82  0   7   82  0   6   82  0   7   82  0   7   82  0   7   82  
0   6   84  0   8   83  0   7   82  0   7   82  0   8   83  0   7   82  
0   7   82  0   7   82  0   7   82  0   7   82  1   7   83  0   5   81  
0   6   82  1   7   83  0   5   79  0   6   82  0   5   79  0   5   81  
0   5   81  0   6   78  0   5   79  0   5   79  0   5   79  0   5   79  
0   6   78  0   6   78  0   4   77  0   4   77  0   4   75  0   5   73  
0   5   73  0   3   74  1   4   73  0   3   72  
1   5   79  0   5   79  0   5   81  0   5   81  1   7   81  0   5   81  
0   5   81  0   5   81  0   6   80  0   7   80  0   7   82  0   7   82  
0   7   82  0   7   85  0   7   85  1   8   86  0   7   87  0   7   87  
0   7   87  0   7   87  0   7   87  0   6   86  0   7   87  0   7   87  
0   6   86  0   7   87  0   7   87  0   7   87  0   7   87  0   7   87  
0   7   87  0   7   87  0   7   87  0   7   85  0   7   87  0   7   87  
0   6   86  0   7   87  0   7   87  0   7   87  0   7   87  0   7   82  
0   5   83  0   7   85  0   7   82  0   7   82  0   6   84  0   5   83  
0   6   84  0   6   80  0   6   81  0   6   82  0   5   81  0   6   78  
0   5   81  0   5   81  0   6   76  0   6   76  1   5   79  1   5   78  
0   5   77  0   5   77  0   4   77  0   5   71  
1   5   79  0   5   79  0   6   82  0   5   81  0   5   86  0   6   82  
0   6   82  0   6   82  0   5   86  0   6   86  0   7   87  0   7   87  
0   6   86  0   7   85  0   7   85  0   7   85  0   7   87  0   7   87  
0   6   86  0   7   87  1   8   88  0   7   87  0   7   87  1   8   88  
1   8   88  1   8   88  1   8   88  1   8   88  0   7   87  0   7   87  
2   9   89  2   9   89  1   8   88  2   9   90  1   8   88  1   8   88  
1   8   88  1   8   88  0   7   87  1   8   88  0   7   87  0   7   87  
0   7   85  1   8   86  0   7   87  0   7   87  0   7   85  0   7   85  
0   7   85  1   6   87  0   7   82  0   6   82  0   6   82  0   6   84  
0   6   82  0   6   82  0   5   81  0   5   81  2   6   80  1   5   78  
0   6   78  0   6   78  1   5   78  1   5   78  
0   6   82  0   6   82  0   5   86  0   6   86  0   6   84  0   7   85  
0   7   87  0   7   87  0   7   87  0   7   87  0   7   87  0   7   87  
0   7   87  1   8   88  1   8   88  1   8   88  0   7   88  2   9   90  
1   8   89  2   9   89  1   8   89  1   8   89  1   9   90  1   9   90  
3   11  92  1   9   90  1   9   90  1   9   90  1   9   90  2   10  91  
1   9   90  1   9   90  2   11  90  1   9   90  1   9   90  1   10  89  
1   9   90  1   9   90  1   9   90  2   9   89  2   9   90  2   9   90  
1   8   88  1   8   88  1   8   88  0   7   87  1   8   88  1   8   88  
1   8   88  0   7   87  0   7   87  0   7   87  0   7   87  0   7   85  
0   8   83  0   8   83  0   6   84  0   6   82  0   5   81  0   6   82  
0   6   82  0   6   80  0   5   79  0   5   79  
0   7   85  0   7   87  0   7   87  0   6   86  0   7   87  0   7   88  
0   7   88  0   7   88  1   8   89  1   8   89  0   7   88  1   8   89  
1   9   90  1   9   90  1   9   90  1   9   90  1   9   92  1   9   90  
1   9   90  0   8   91  0   11  93  0   10  92  0   11  91  0   11  93  
0   11  91  0   11  93  0   11  93  0   11  93  0   11  93  1   12  94  
1   12  94  0   12  94  0   12  94  0   11  91  1   12  94  0   11  93  
0   12  91  0   11  91  1   12  92  0   11  91  0   10  92  0   11  91  
1   9   90  1   9   90  1   9   90  1   9   90  1   9   90  0   8   89  
1   9   90  2   9   90  1   8   88  1   8   89  1   8   88  1   8   88  
0   7   87  0   7   87  0   7   87  0   6   84  0   7   85  0   8   83  
0   7   82  0   8   83  0   7   82  0   7   82  
0   7   88  0   7   88  1   8   89  0   7   88  1   7   91  0   8   89  
0   8   91  0   8   91  1   9   92  1   9   92  1   9   92  0   10  92  
0   10  92  0   10  92  0   10  92  0   10  92  0   11  93  0   11  93  
1   11  96  0   11  95  0   11  95  0   12  96  0   11  95  0   12  94  
0   12  96  0   12  96  0   13  96  1   13  97  0   12  94  0   14  95  
0   15  95  1   13  95  2   14  96  1   13  95  1   13  97  0   12  96  
2   14  96  0   14  97  1   13  95  0   12  94  1   13  95  0   11  95  
0   11  95  0   11  95  0   10  92  0   11  93  0   11  93  0   11  91  
0   10  90  1   9   90  1   9   90  1   9   90  1   9   90  0   8   89  
1   8   89  1   8   89  1   8   89  1   8   88  1   8   88  0   7   87  
0   7   85  0   6   84  0   5   83  0   7   85  
1   8   89  2   9   90  2   9   90  2   9   90  2   8   92  1   9   90  
1   9   92  1   9   92  1   9   92  2   10  93  2   10  93  0   10  92  
0   11  93  0   11  93  0   11  93  1   12  94  1   12  94  0   11  93  
1   11  96  1   13  97  1   13  97  0   12  96  0   12  96  1   13  95  
1   13  97  1   13  97  0   15  98  0   17  99  0   15  95  1   16  97  
0   17  97  0   18  97  0   18  97  0   19  98  1   19  101 0   18  100 
1   20  99  1   16  99  0   17  97  1   13  95  2   14  96  1   13  97  
3   15  99  1   13  97  2   13  95  1   13  95  1   12  94  2   13  93  
1   12  92  2   10  91  2   10  91  2   10  91  2   10  91  1   9   90  
2   9   90  2   9   90  2   9   90  2   9   89  1   8   88  1   8   88  
1   8   86  1   8   86  1   8   86  0   7   85  
2   10  91  1   9   92  1   9   92  0   11  93  0   10  95  0   10  95  
1   11  96  0   10  95  0   10  95  1   11  96  2   12  97  0   11  95  
0   12  96  0   12  96  0   12  96  0   12  96  1   13  97  0   14  97  
0   14  97  0   15  98  0   14  99  1   16  99  1   16  99  0   17  99  
0   17  99  0   17  99  0   18  100 1   19  101 1   19  101 0   18  100 
0   18  99  0   21  100 0   22  100 0   22  105 0   28  109 2   28  105 
0   23  103 0   20  101 2   23  104 0   20  101 1   19  101 0   16  98  
0   17  99  0   15  97  0   15  98  0   15  98  0   15  98  1   13  97  
1   13  97  0   12  96  0   12  94  0   10  95  1   12  94  1   12  94  
0   11  93  2   10  93  2   10  91  1   9   90  1   9   90  2   10  91  
1   9   90  0   9   88  2   9   89  1   8   88  
0   11  93  0   10  95  0   11  95  0   10  94  0   12  98  0   12  98  
0   12  98  0   12  98  1   13  99  1   13  99  0   14  99  0   14  99  
0   14  99  1   16  101 1   16  101 0   15  100 0   15  100 0   16  101 
0   15  100 0   17  101 0   16  101 1   17  102 0   18  102 1   19  103 
0   18  104 0   20  103 0   22  105 4   23  99  2   23  102 0   24  104 
0   30  91  10  32  107 0   40  112 234 226 247 193 185 208 249 244 250 
3   31  94  4   33  109 0   28  104 0   24  106 2   24  107 0   22  105 
0   21  104 1   19  103 1   19  103 0   17  99  0   17  99  1   16  99  
0   17  99  0   17  99  0   15  98  0   14  97  1   13  97  1   13  97  
1   13  97  0   12  94  1   13  95  1   14  93  1   12  94  0   11  91  
0   11  91  2   10  91  1   9   90  1   9   90  
0   13  98  0   14  97  0   14  99  0   14  99  0   13  101 0   14  102 
0   15  102 0   16  103 0   14  101 2   13  102 0   17  99  0   15  102 
1   15  103 0   17  103 0   18  104 0   18  104 0   15  102 2   19  101 
0   18  102 0   19  105 0   20  103 2   22  108 0   20  106 0   21  106 
0   23  107 0   24  108 0   28  111 27  28  85  226 222 237 135 125 134 
180 175 181 245 241 255 243 241 246 249 248 253 248 246 251 225 221 248 
250 249 255 238 234 248 225 221 238 233 227 253 248 249 251 2   36  110 
4   27  107 2   27  109 0   25  105 0   21  106 0   18  104 2   18  103 
0   19  102 1   16  101 1   16  97  0   17  101 0   17  99  0   17  99  
0   17  99  0   14  99  0   16  98  1   13  97  0   14  97  1   13  97  
0   11  93  0   13  92  0   11  91  0   10  90  
0   14  99  0   15  98  0   15  100 0   15  100 0   14  102 1   15  103 
0   16  103 0   16  103 1   17  104 0   18  104 0   17  105 1   17  104 
0   19  105 2   20  106 1   19  105 0   18  104 0   22  107 0   22  108 
0   22  110 0   24  108 0   26  113 0   25  109 0   26  110 0   26  110 
0   28  111 0   29  111 0   34  118 181 184 225 228 224 239 240 233 240 
228 225 246 181 174 205 232 229 238 254 254 252 252 249 255 251 251 251 
174 168 212 248 245 252 249 246 255 213 208 231 245 243 246 227 219 232 
220 211 240 4   33  99  45  76  143 2   28  112 1   26  110 0   22  105 
0   21  104 0   20  103 0   20  106 1   19  103 1   18  100 1   19  101 
1   18  100 0   16  101 0   17  99  0   17  99  0   15  98  2   14  98  
1   13  95  1   14  93  0   11  91  0   11  91  
0   16  101 0   16  103 0   18  104 0   18  104 0   16  104 0   18  104 
0   19  105 0   18  104 0   19  105 0   19  106 0   19  108 0   21  107 
0   21  107 0   21  110 1   23  109 0   22  108 0   24  109 0   25  110 
0   26  113 0   31  120 0   31  111 0   34  109 2   34  111 4   34  106 
12  37  104 0   33  111 8   40  97  191 182 211 245 244 252 255 254 255 
236 234 255 151 143 184 238 237 243 254 255 253 224 220 237 209 206 237 
173 176 207 251 251 253 252 249 255 240 234 244 247 245 250 232 229 236 
248 252 255 237 234 245 244 241 255 255 251 238 1   29  112 1   27  111 
0   26  110 0   24  108 0   25  109 1   23  108 0   21  106 0   21  104 
0   21  104 0   21  104 1   19  103 0   18  102 0   16  98  0   17  99  
1   16  99  0   15  96  0   15  93  1   14  93  
0   19  102 0   18  104 0   19  106 0   20  106 0   20  107 0   21  106 
0   21  110 0   22  108 1   23  109 0   21  110 0   23  111 1   22  111 
1   22  111 0   24  112 0   25  112 1   27  114 0   27  114 3   27  113 
15  27  77  198 194 227 222 217 237 211 207 240 210 207 236 231 226 249 
223 215 239 218 210 231 242 239 250 226 219 235 253 252 255 249 243 255 
219 213 227 163 159 196 218 213 236 221 213 237 222 217 240 189 188 228 
192 187 219 249 247 252 233 230 241 209 202 233 248 247 255 255 253 255 
251 251 251 249 247 255 227 223 237 229 224 246 48  60  102 0   35  120 
1   32  115 1   29  113 1   27  112 1   26  110 0   24  110 0   24  108 
2   24  109 1   23  108 0   20  106 0   19  105 2   20  104 0   18  102 
0   18  100 0   17  99  0   17  99  0   16  98  
0   22  108 0   21  107 0   22  110 0   22  110 0   23  111 0   24  111 
0   24  114 0   25  112 0   24  114 0   25  112 1   27  114 1   26  116 
1   26  116 0   28  116 1   28  117 0   30  116 3   30  119 10  32  107 
146 148 199 175 177 226 182 179 210 216 210 236 191 187 220 243 241 246 
237 234 241 239 236 245 237 235 248 248 246 247 251 251 249 181 174 207 
153 154 198 207 202 225 231 226 249 222 219 228 244 240 255 232 228 243 
207 202 225 244 241 252 231 227 242 231 228 239 248 246 247 255 253 252 
227 220 236 232 228 242 251 249 254 250 244 254 252 247 254 234 212 225 
4   36  113 1   33  118 1   31  117 2   29  116 3   29  116 1   27  112 
0   28  112 0   24  110 1   23  109 1   21  107 0   20  106 2   20  106 
2   18  103 1   18  100 0   19  100 0   18  100 
1   23  109 1   23  109 1   25  113 0   24  112 2   26  114 1   27  114 
0   24  114 2   28  115 0   29  117 0   29  115 0   30  116 0   29  117 
0   31  118 1   31  119 0   33  120 0   34  118 5   34  114 142 150 199 
114 126 184 123 133 195 168 163 204 212 206 234 185 181 218 225 221 238 
243 240 251 240 237 248 251 250 255 223 218 240 220 211 232 223 215 236 
202 198 223 206 199 232 219 213 241 242 240 245 250 248 249 229 225 240 
233 229 244 231 227 244 229 224 246 242 239 250 253 251 255 232 225 243 
243 236 252 237 233 248 243 239 255 234 226 247 245 238 254 252 243 255 
118 122 159 0   38  121 0   36  120 0   35  119 1   33  118 0   31  114 
2   30  114 1   29  113 1   27  112 0   26  110 0   25  109 0   24  108 
0   22  105 0   22  102 0   21  102 2   20  102 
0   26  113 0   26  113 1   28  117 0   27  116 0   28  116 0   30  118 
1   31  119 0   30  120 1   32  122 0   32  119 0   32  121 0   33  120 
0   34  123 0   35  123 0   37  122 0   38  123 5   41  129 164 173 216 
151 141 176 217 211 245 182 178 215 202 196 224 165 159 195 249 246 255 
215 212 243 226 219 252 164 168 206 175 173 210 206 200 226 203 194 225 
238 237 243 210 205 235 221 214 232 223 222 228 254 254 254 255 255 251 
222 219 238 252 251 255 248 248 246 229 224 244 230 226 243 237 230 246 
234 227 243 230 223 239 219 211 232 198 190 227 211 204 222 238 231 249 
250 242 255 0   46  124 0   43  124 0   38  121 0   35  119 0   35  119 
0   32  117 1   33  118 0   31  114 2   30  114 0   28  112 1   27  111 
1   27  111 0   25  109 1   23  106 1   22  105 
0   30  116 0   30  118 1   31  121 0   31  118 0   32  119 0   33  122 
0   33  122 0   33  122 0   34  123 0   36  124 0   35  125 1   37  125 
1   37  125 0   40  128 0   40  128 0   41  129 0   42  126 211 202 231 
225 220 242 229 225 242 202 199 226 238 230 251 189 188 222 140 143 194 
123 127 175 148 148 200 151 148 193 216 212 237 224 218 244 249 246 255 
252 249 255 247 242 249 154 145 192 240 239 247 251 250 255 255 255 255 
255 255 253 252 252 252 255 255 255 255 255 255 253 253 251 226 222 239 
225 221 238 233 226 244 223 218 241 188 187 221 191 187 220 198 195 224 
212 206 234 163 167 196 191 185 233 0   47  126 0   39  124 2   38  124 
1   37  121 0   36  120 1   36  120 0   34  118 0   32  117 2   30  113 
0   29  112 1   27  111 1   27  111 2   27  111 
0   32  119 0   34  123 1   35  124 1   35  124 1   36  126 1   37  125 
1   36  126 0   37  126 0   37  126 0   37  126 0   39  126 0   38  129 
0   39  130 0   43  128 0   43  131 0   45  131 2   39  117 203 200 217 
181 177 200 206 200 226 214 209 231 217 213 238 204 200 227 142 148 200 
119 128 183 132 138 198 170 170 220 188 181 214 129 131 182 253 254 248 
233 227 253 207 195 219 199 196 207 228 227 233 254 255 250 255 254 255 
254 255 253 252 254 249 254 255 255 253 252 255 255 255 255 254 252 255 
227 225 238 227 223 237 226 218 242 243 234 255 223 220 237 179 182 217 
215 207 230 204 197 230 224 210 233 62  89  156 1   47  132 3   44  124 
2   42  127 1   39  124 1   37  123 2   37  121 2   34  119 0   33  117 
0   32  114 0   32  115 0   31  114 2   28  112 
0   38  123 0   38  125 0   38  125 0   39  126 0   40  128 0   40  127 
0   40  128 0   40  128 0   40  128 0   40  128 0   42  134 0   43  132 
0   44  133 0   43  135 0   46  134 0   46  132 0   44  131 113 125 173 
96  115 173 104 121 177 174 170 203 174 175 219 172 174 212 128 134 186 
120 129 184 111 128 182 114 125 181 148 146 168 199 198 232 242 240 253 
141 133 172 204 199 219 235 231 246 249 248 254 253 252 255 216 212 226 
231 224 242 229 222 240 252 247 254 249 249 249 231 231 233 255 254 255 
255 255 255 254 253 251 241 235 249 246 239 255 236 227 246 243 236 252 
249 241 255 187 184 211 188 179 208 16  59  127 132 144 194 16  50  121 
0   47  129 1   43  127 1   41  126 0   40  122 1   39  122 0   35  119 
1   36  118 2   34  117 1   33  116 0   33  114 
0   40  127 1   41  128 0   41  131 0   41  131 2   43  133 0   43  132 
0   43  132 0   44  133 0   44  133 0   45  136 0   45  136 0   45  136 
0   46  136 0   47  137 0   47  137 0   45  137 1   49  133 1   47  141 
79  108 166 76  107 162 95  117 167 96  115 173 91  118 171 96  119 173 
118 130 180 100 121 178 104 125 182 210 204 214 122 128 164 237 231 245 
100 115 172 197 192 212 224 218 244 252 246 255 182 177 207 156 150 176 
201 193 217 228 222 236 247 242 249 255 254 255 249 243 253 249 249 251 
252 252 252 254 252 255 224 216 240 237 230 248 227 219 240 229 221 244 
248 242 255 210 204 230 210 202 215 64  75  120 187 184 215 215 209 235 
166 156 193 1   47  132 0   45  130 0   42  128 0   40  125 0   40  122 
1   37  121 1   36  120 0   35  119 0   35  117 
0   44  131 0   44  131 0   43  135 0   46  136 0   46  136 0   46  136 
2   47  138 0   47  137 0   47  137 1   48  138 1   48  138 0   47  137 
1   48  138 1   48  140 8   51  129 83  97  158 81  111 171 27  69  141 
81  112 167 80  106 163 75  102 157 76  107 164 73  103 165 79  105 166 
90  107 159 88  113 169 118 121 162 98  124 183 130 149 205 179 175 202 
108 127 183 156 153 198 183 179 216 207 204 223 148 147 187 254 250 255 
232 225 241 250 248 251 230 227 238 255 253 254 252 247 253 242 234 247 
255 255 255 253 253 255 244 243 248 231 224 242 229 222 240 239 233 245 
244 237 245 236 229 247 241 234 250 202 196 224 179 178 212 170 166 201 
133 137 182 0   56  134 0   51  138 0   46  130 2   44  130 1   41  128 
3   41  126 1   37  121 1   37  121 1   37  121 
1   47  135 1   47  135 0   48  137 1   48  138 0   49  138 2   49  139 
0   50  139 1   51  140 0   50  139 0   50  139 0   51  140 0   51  142 
0   51  142 1   53  139 36  71  129 74  104 154 79  105 162 62  96  159 
73  99  156 81  106 163 79  108 164 75  101 158 73  102 160 76  102 159 
78  103 157 72  114 164 119 109 143 144 157 212 142 141 185 149 152 203 
134 137 190 141 145 192 149 156 208 185 184 215 209 205 220 253 246 255 
235 230 236 234 228 242 250 246 245 250 245 249 231 226 232 243 237 249 
252 250 255 250 247 254 236 233 242 251 244 255 237 230 246 240 234 248 
226 218 241 225 214 244 241 235 249 239 232 248 190 187 216 209 199 226 
179 172 206 188 182 208 165 168 199 0   51  130 1   49  134 0   47  126 
0   46  132 1   41  128 0   39  124 0   42  126 
0   51  137 0   52  138 1   51  140 0   52  140 2   52  141 0   52  140 
0   53  141 0   53  141 0   54  142 1   52  141 1   52  141 1   52  143 
2   53  144 0   54  145 3   54  145 105 118 170 83  109 166 59  93  156 
67  99  160 83  108 165 78  107 163 74  100 157 77  106 164 73  103 163 
81  105 165 73  106 159 152 148 185 145 153 200 177 174 203 211 210 242 
165 173 219 189 187 201 199 193 227 106 137 192 190 183 216 188 179 210 
237 231 241 215 208 224 230 224 234 243 238 245 245 239 253 247 242 246 
254 252 255 246 243 250 249 247 250 245 239 249 246 240 250 239 233 247 
229 221 244 226 217 238 229 222 240 228 220 244 211 202 229 227 218 239 
194 188 216 169 167 204 163 166 207 166 160 204 3   51  136 1   49  134 
0   46  132 0   46  131 0   45  128 1   43  127 
0   54  140 0   54  142 0   53  141 1   55  143 0   54  141 0   56  143 
0   55  145 1   56  146 0   55  145 1   56  147 0   55  145 0   55  146 
2   57  148 0   57  154 118 120 168 182 173 200 124 141 187 78  108 170 
73  101 164 78  110 171 82  111 169 72  101 161 83  108 164 71  103 164 
73  102 162 76  98  148 107 124 178 115 126 180 119 126 170 139 143 172 
236 227 232 222 212 236 171 171 207 70  106 166 179 176 207 251 252 254 
251 245 255 255 247 255 222 215 233 225 218 234 239 233 247 242 233 250 
247 245 250 253 251 255 255 253 255 248 242 252 251 245 255 249 243 255 
230 222 243 230 224 238 223 215 238 215 210 233 187 180 211 215 210 233 
189 184 214 198 194 221 175 171 204 168 168 206 163 159 210 0   50  137 
1   48  136 1   49  134 0   48  133 0   45  130 
0   57  144 0   57  144 0   58  148 0   59  152 2   60  144 1   58  147 
1   58  147 1   58  148 1   58  148 2   58  151 0   59  151 0   58  152 
1   60  152 0   56  159 150 151 199 144 138 176 185 188 219 76  108 169 
71  99  162 81  110 168 77  103 160 79  105 162 86  115 171 73  105 166 
74  102 165 146 152 204 122 138 190 89  116 169 80  105 169 198 196 235 
226 220 234 172 168 205 156 157 205 66  98  155 144 140 177 204 196 220 
210 203 219 254 249 255 236 233 242 245 243 246 251 246 253 244 239 246 
249 246 255 250 245 252 245 242 249 245 239 251 242 235 242 226 223 234 
234 228 242 224 216 239 227 220 236 220 215 238 208 202 228 216 211 234 
196 192 219 179 179 213 164 163 203 157 151 187 3   48  129 0   53  141 
0   52  138 0   50  137 2   49  137 0   48  133 
14  62  134 28  63  131 34  64  118 112 125 160 47  85  147 8   69  162 
0   64  159 0   67  151 6   58  160 0   62  159 0   63  153 2   63  156 
2   63  156 7   64  143 99  124 180 114 127 179 119 126 181 86  115 173 
79  105 166 78  104 165 72  101 159 77  103 162 78  104 161 81  107 164 
71  105 166 57  93  153 70  104 165 64  93  151 71  97  148 137 144 199 
175 168 209 189 178 212 152 160 197 95  123 173 196 192 227 223 215 230 
229 221 236 254 249 255 242 236 248 240 232 243 238 234 251 253 251 254 
253 252 250 240 241 245 250 246 245 254 249 255 231 226 249 253 251 255 
246 246 248 251 246 252 220 211 238 213 208 231 223 215 238 192 187 217 
186 183 210 185 179 207 172 160 200 141 169 234 0   59  147 2   56  146 
0   53  141 0   50  139 1   52  141 0   52  138 
173 177 214 162 167 199 195 193 215 192 186 212 191 188 209 192 194 215 
189 184 206 198 193 215 144 149 191 27  69  145 0   64  154 1   68  159 
14  73  151 4   66  149 93  115 172 84  114 166 92  118 167 93  116 170 
83  110 165 79  106 161 78  107 165 75  106 163 67  99  158 78  104 161 
66  97  154 65  93  156 60  94  155 80  109 167 70  101 165 106 111 167 
121 132 186 158 155 186 167 160 201 140 145 187 171 168 195 230 220 244 
214 205 226 244 239 246 241 235 247 225 221 238 253 251 252 252 250 253 
255 254 252 237 232 239 222 214 235 230 224 238 218 214 229 247 245 250 
244 236 251 244 239 246 228 220 241 218 213 236 206 198 221 191 186 216 
186 182 215 179 177 214 158 162 209 1   66  160 1   61  149 0   59  147 
0   57  144 0   56  143 2   53  142 2   54  140 
176 173 200 236 230 244 224 222 225 170 171 201 180 180 214 175 170 200 
193 185 208 213 209 226 212 205 221 189 190 211 176 176 214 82  120 185 
29  76  148 99  129 189 90  116 175 75  104 162 87  114 169 76  107 162 
74  105 160 81  106 162 84  110 167 76  105 165 72  104 165 59  95  157 
77  106 162 67  99  156 60  94  155 61  93  152 69  99  159 82  108 169 
137 149 201 149 147 184 140 141 185 128 134 184 122 129 183 169 169 207 
177 168 197 255 253 252 235 231 232 240 235 239 254 252 255 252 250 253 
255 252 253 238 232 242 244 239 246 248 239 255 230 223 239 248 245 252 
244 237 245 242 234 247 219 211 234 211 206 228 193 190 219 180 179 211 
163 163 199 157 158 204 113 124 180 4   67  160 1   62  153 1   62  151 
0   59  149 0   57  147 1   56  147 1   55  143 
201 197 211 227 221 231 235 229 241 226 219 235 226 220 234 205 202 219 
183 179 204 196 191 214 213 209 224 205 200 223 181 178 207 184 183 201 
178 179 210 54  92  155 92  118 175 84  111 166 82  109 164 83  108 164 
79  105 162 78  105 160 84  111 166 80  109 165 60  95  159 56  91  157 
78  105 160 68  102 163 57  93  155 57  91  152 55  87  148 172 170 194 
142 144 183 90  111 166 102 120 170 106 122 171 113 127 176 110 127 179 
166 168 206 168 165 194 253 249 250 254 252 255 252 247 253 249 247 250 
255 253 255 247 245 250 253 251 252 253 245 255 232 224 237 252 246 255 
242 235 243 235 227 242 219 211 234 195 190 220 174 172 209 159 158 200 
149 152 197 165 176 206 87  120 197 1   68  159 2   65  158 0   64  154 
1   62  153 0   60  149 0   61  148 1   58  147 
225 219 229 220 217 228 245 239 241 241 232 235 240 234 234 231 225 237 
234 223 237 198 195 212 190 187 198 180 178 202 200 194 220 177 174 205 
175 178 213 189 179 204 182 169 197 103 120 172 97  115 165 75  104 160 
79  108 164 71  100 158 78  107 163 76  102 161 59  98  157 52  87  153 
46  84  147 61  95  156 60  91  156 52  90  155 187 184 215 151 142 187 
187 174 204 89  113 161 88  108 158 96  119 169 109 122 174 133 134 162 
230 218 232 174 171 202 207 197 221 240 232 243 254 248 252 245 243 248 
255 255 253 254 255 249 255 251 255 245 235 246 235 228 235 217 209 233 
240 232 243 238 227 235 196 190 216 182 185 218 162 162 200 141 149 196 
129 138 203 7   82  173 0   73  165 1   72  164 0   69  160 0   67  158 
1   66  156 2   63  154 0   64  152 2   61  151 
216 210 220 215 212 223 218 211 219 233 223 232 223 216 224 252 248 247 
250 244 244 251 245 245 247 237 246 247 237 245 235 229 229 193 192 210 
205 196 223 168 162 196 177 175 199 165 169 198 112 124 176 77  106 162 
75  104 160 75  104 162 68  97  153 73  105 162 56  95  154 50  89  154 
40  84  149 41  80  145 48  86  149 53  87  150 56  92  152 125 135 188 
61  96  150 59  93  154 63  98  156 112 126 173 127 131 179 159 157 194 
144 146 187 166 162 195 238 231 238 240 232 243 255 251 255 250 248 253 
252 244 255 239 233 235 220 211 228 245 235 246 227 219 234 234 228 242 
244 236 247 231 224 242 253 253 255 232 230 243 168 172 197 131 138 192 
133 138 202 31  91  179 5   78  170 4   75  167 2   71  162 2   69  160 
2   67  157 0   67  156 1   65  153 0   65  152 
194 186 197 226 219 227 215 207 218 223 219 236 233 223 231 235 225 233 
238 228 236 238 228 236 251 242 247 253 244 245 245 235 243 221 217 231 
147 148 194 147 149 187 174 168 196 195 187 208 132 136 184 97  117 167 
85  115 169 68  100 159 65  99  160 59  95  157 55  93  156 46  85  150 
42  81  146 43  82  147 40  81  145 31  81  144 55  87  146 61  96  152 
55  89  150 62  92  156 83  115 172 196 192 207 169 174 212 121 135 184 
141 143 181 173 170 199 232 223 240 254 249 253 254 250 251 255 249 255 
249 242 249 254 248 252 253 246 253 229 221 236 243 232 246 225 217 232 
240 238 241 254 255 255 247 239 252 233 228 235 246 239 246 138 144 202 
76  102 163 16  83  172 6   79  171 5   78  170 1   75  164 2   73  163 
2   72  160 0   69  157 2   69  158 0   66  153 
211 208 217 247 238 243 230 220 228 226 217 222 242 232 240 251 245 245 
208 202 214 209 203 217 219 209 220 235 225 233 251 245 245 238 226 240 
197 197 225 136 140 187 140 140 178 157 157 195 132 139 185 130 136 184 
94  115 168 75  106 163 61  99  161 55  93  156 53  91  156 49  87  152 
47  86  151 45  84  149 37  81  142 33  81  145 41  80  145 51  87  149 
46  84  147 57  93  153 200 203 234 174 168 196 204 202 224 213 214 242 
142 145 188 179 175 198 255 251 255 251 249 250 228 219 236 228 217 233 
249 242 249 243 236 244 241 234 242 220 212 227 225 216 233 221 212 229 
255 250 255 254 248 252 230 222 233 229 223 235 255 250 252 153 157 204 
147 149 197 18  87  178 12  83  173 16  82  168 7   81  170 4   78  165 
5   77  162 2   74  159 0   72  157 0   70  156 
205 200 207 218 213 220 189 186 193 221 214 222 204 199 205 227 218 221 
213 204 209 210 204 218 220 213 221 213 210 219 225 215 224 227 216 224 
195 191 192 191 190 206 138 136 186 123 136 191 130 137 183 123 124 178 
105 125 178 89  115 166 71  101 163 55  93  156 49  87  152 45  84  149 
46  85  150 43  84  148 39  83  146 30  81  144 29  80  143 32  79  147 
27  85  148 51  89  136 132 128 151 195 182 212 201 191 216 227 217 226 
148 145 176 196 191 214 234 227 235 200 193 209 165 164 198 227 217 226 
255 247 255 252 243 248 232 220 240 223 212 226 242 233 238 224 213 230 
226 217 234 244 234 242 245 235 246 240 230 241 212 201 218 140 151 205 
125 149 209 29  88  182 19  91  175 68  88  125 91  117 144 17  83  167 
13  79  165 8   76  159 5   76  164 3   73  158 
214 203 209 224 213 219 223 213 214 195 182 189 214 209 215 222 212 220 
170 160 171 184 173 179 218 211 219 189 184 207 214 204 213 223 211 223 
199 191 206 195 189 203 216 202 219 217 207 216 68  105 158 103 119 171 
96  119 169 108 106 143 181 179 200 54  92  155 51  89  154 40  84  147 
39  83  146 38  84  146 36  80  143 29  80  143 27  78  141 30  81  144 
37  77  138 113 113 163 208 205 216 180 177 196 224 215 232 199 195 218 
162 159 190 180 175 198 216 207 224 206 194 214 224 214 225 224 214 223 
234 223 237 237 227 236 192 187 209 227 216 230 237 228 233 231 220 234 
205 196 213 222 210 230 233 223 234 231 221 232 216 205 221 214 206 217 
211 202 223 43  100 177 69  96  143 230 223 231 228 221 229 213 203 214 
24  87  167 18  83  163 13  81  164 8   78  163 
179 171 182 225 219 223 213 203 204 233 224 229 217 209 232 200 190 198 
193 184 185 180 173 180 179 170 187 170 166 181 180 176 191 175 165 190 
208 198 209 234 223 229 231 221 230 211 210 218 174 159 178 165 165 193 
177 169 190 171 166 186 199 188 204 138 134 167 48  86  151 37  81  144 
30  81  146 27  78  141 30  82  142 30  81  144 28  79  142 23  79  140 
62  97  153 91  106 163 162 154 175 221 212 213 162 154 178 151 145 179 
212 207 213 149 146 173 236 225 233 183 175 198 224 214 223 237 227 236 
245 235 243 242 233 236 220 213 231 210 204 216 249 239 247 224 215 232 
205 196 213 220 212 227 182 173 190 188 180 204 174 170 193 213 205 218 
199 193 205 218 208 232 213 207 219 226 218 229 253 242 250 223 213 222 
202 180 192 216 200 203 25  87  164 21  88  166 
205 196 199 183 180 189 192 183 184 219 209 218 193 184 185 205 193 203 
166 160 172 171 162 179 165 154 170 177 172 194 164 160 183 199 189 198 
224 211 218 212 206 208 223 213 224 181 175 189 166 157 176 173 165 180 
152 146 182 131 132 152 169 161 185 56  92  152 47  87  149 49  87  150 
34  82  146 27  81  145 18  77  143 36  82  142 45  87  147 35  79  142 
51  88  143 60  91  145 164 160 187 215 205 214 168 164 181 141 137 174 
186 177 194 164 160 185 232 222 231 203 199 214 238 227 235 221 210 224 
213 207 219 246 234 238 183 175 198 229 219 230 217 209 222 204 195 214 
180 172 187 170 165 187 179 175 192 206 195 209 152 150 174 180 175 198 
173 164 183 206 198 213 169 165 182 194 185 204 141 139 163 199 193 207 
197 186 200 212 203 206 150 155 185 181 174 192 
166 155 163 186 177 178 164 166 181 196 192 193 178 182 191 172 162 170 
132 130 154 145 136 155 183 171 191 173 171 185 175 170 177 219 214 211 
222 209 219 228 222 222 199 187 207 159 150 171 129 132 151 181 175 187 
141 142 173 115 123 159 45  89  152 85  113 163 52  91  146 52  87  143 
40  80  142 152 154 177 65  97  146 54  88  149 53  87  148 47  82  146 
53  87  148 53  90  145 92  101 140 191 189 194 138 133 165 105 114 147 
146 132 155 141 137 160 164 163 177 166 163 182 201 200 218 197 195 208 
190 175 196 217 212 216 178 169 186 166 168 181 159 153 179 182 172 183 
156 146 173 173 166 184 155 144 178 130 126 151 123 127 156 132 132 156 
150 138 158 134 135 166 144 146 169 149 141 162 167 158 175 208 197 211 
196 185 201 187 178 195 155 148 166 159 154 177 
118 116 137 122 123 141 122 130 153 99  114 145 110 114 143 123 125 146 
126 123 150 133 132 150 153 138 157 139 131 155 168 153 172 148 145 166 
162 154 169 168 155 172 140 137 164 135 130 160 120 126 158 113 118 158 
105 109 144 106 118 158 109 120 165 71  99  149 45  83  145 32  82  143 
85  100 143 126 132 166 69  82  126 45  84  143 30  83  137 145 142 171 
46  88  146 32  72  133 38  75  130 89  108 148 73  96  138 14  67  117 
16  69  119 19  70  125 55  78  120 99  113 150 125 131 165 139 136 163 
141 138 167 149 140 169 109 118 151 141 136 159 120 126 158 82  96  131 
71  89  125 70  87  131 89  102 136 148 145 172 192 185 201 184 180 194 
116 117 147 138 133 163 119 119 153 138 136 158 162 152 176 175 164 181 
148 142 168 173 164 181 160 152 176 144 140 165 
105 117 143 89  105 138 98  105 121 61  90  132 66  94  133 86  105 137 
101 111 138 127 119 140 155 143 155 128 123 146 108 118 145 114 121 150 
114 120 154 89  107 147 69  96  141 94  109 148 76  100 146 68  90  139 
52  88  140 60  95  149 56  88  145 42  84  144 29  84  141 53  89  147 
48  83  137 31  80  138 34  76  134 17  78  135 12  72  135 31  79  141 
11  70  128 4   66  123 22  75  129 18  71  125 11  67  118 3   63  117 
1   61  115 0   61  115 0   60  115 7   60  114 12  65  115 24  66  114 
19  67  113 30  71  117 36  74  123 41  76  118 69  92  126 104 115 143 
201 188 182 144 129 150 110 114 149 101 109 145 186 176 185 188 175 184 
183 170 177 161 150 167 171 159 173 107 119 141 118 122 157 112 116 151 
135 132 149 184 172 186 125 123 147 129 125 148 
74  95  126 70  98  135 65  89  125 57  86  126 72  94  133 77  93  126 
72  95  127 52  85  128 46  80  128 35  78  129 37  75  122 54  85  131 
54  88  133 74  96  133 93  93  119 55  91  141 55  91  143 38  85  139 
35  81  140 32  82  141 27  81  143 29  80  143 28  79  142 50  83  136 
61  89  136 31  81  134 18  77  133 11  71  131 7   69  128 5   67  124 
4   66  123 4   66  123 3   65  122 5   66  121 6   66  120 1   62  116 
1   61  115 2   59  114 2   59  112 2   59  112 4   59  113 6   59  109 
10  62  110 12  65  109 21  65  110 33  71  116 44  77  118 46  84  123 
42  75  110 56  80  118 74  90  124 79  100 131 76  99  131 82  101 141 
78  98  135 84  97  132 102 115 147 115 118 149 119 118 150 125 126 147 
128 125 146 101 110 139 74  97  131 64  89  130 
71  88  131 47  81  118 23  77  124 30  73  124 33  77  122 56  80  116 
83  97  124 96  98  123 102 99  126 104 108 135 74  100 137 68  96  135 
74  90  123 64  92  139 74  105 134 111 115 140 45  82  135 35  83  132 
22  81  137 38  85  137 42  81  136 46  83  136 45  80  134 35  72  127 
40  81  135 23  79  136 17  76  132 10  72  129 5   67  124 2   64  121 
2   64  121 1   63  120 2   63  118 3   64  119 5   66  121 3   63  117 
4   61  116 2   59  112 1   58  111 2   57  111 2   57  111 2   55  107 
1   57  108 4   57  107 7   60  112 15  64  107 24  71  115 24  69  110 
33  77  116 67  89  126 73  93  130 57  89  128 51  84  127 49  80  127 
51  82  129 54  82  129 46  79  130 49  79  129 46  80  126 46  79  122 
44  76  125 37  71  116 34  76  116 21  76  115 
99  110 130 86  94  117 90  90  118 99  100 120 86  94  115 91  99  122 
91  98  124 96  104 123 59  88  130 49  81  128 48  85  130 48  85  130 
68  93  134 44  81  126 38  79  135 31  77  129 29  78  136 28  80  137 
29  81  139 28  80  137 31  80  138 28  80  138 30  79  138 20  76  135 
11  72  129 10  70  132 8   70  131 5   67  124 3   65  122 1   63  120 
1   63  120 1   63  120 1   62  117 1   62  117 2   63  118 2   62  116 
2   59  114 1   58  111 1   58  111 3   58  112 0   55  109 1   54  106 
1   57  108 3   56  106 4   58  104 9   60  105 7   60  104 9   60  107 
9   65  112 30  74  121 40  79  122 38  81  124 39  79  128 45  86  130 
52  86  132 47  83  133 46  84  133 51  83  130 48  85  130 52  87  129 
47  84  128 46  79  120 50  80  118 45  80  120 
76  92  117 71  92  123 90  101 123 105 100 123 112 110 124 114 110 124 
107 104 121 116 108 119 120 104 117 60  83  124 24  74  125 24  73  129 
13  74  129 11  74  127 12  73  130 12  73  130 18  77  135 15  74  132 
26  78  136 26  81  138 22  78  135 22  76  136 15  76  133 8   70  129 
6   68  127 5   67  124 5   67  124 1   63  120 2   63  120 1   62  119 
1   62  119 0   59  117 0   59  115 2   61  117 1   61  115 1   61  115 
2   59  112 1   58  111 2   57  111 3   56  108 0   53  105 0   56  107 
1   57  108 3   57  104 10  63  107 22  67  106 30  72  112 34  77  120 
36  79  124 37  83  132 43  84  130 45  86  132 47  87  136 46  86  135 
47  87  136 46  87  133 45  86  132 45  86  132 46  87  131 43  84  130 
39  82  127 34  81  127 36  79  122 32  79  121 
33  78  119 37  81  120 41  84  119 48  80  118 50  83  124 72  91  124 
100 103 120 62  87  127 70  88  124 52  81  123 33  77  126 14  74  128 
10  73  127 9   72  126 8   71  125 10  73  127 14  73  129 19  75  132 
22  77  134 19  78  136 18  77  135 15  76  133 9   71  128 8   69  126 
5   67  124 2   67  123 3   65  122 2   63  120 2   61  119 0   59  117 
2   58  115 2   58  115 1   57  114 2   59  114 1   61  113 3   60  113 
2   60  110 2   58  109 2   58  107 2   55  105 2   55  107 2   55  105 
1   57  106 3   59  106 12  63  106 27  69  109 33  75  115 41  82  126 
42  83  127 45  86  130 45  86  130 47  88  134 47  88  134 47  88  132 
47  89  131 46  87  131 47  85  130 45  86  130 43  85  127 40  82  124 
38  81  124 37  80  123 35  78  121 35  78  121 
10  73  117 9   71  118 8   71  115 13  75  122 13  74  121 16  74  120 
22  79  124 22  78  125 19  77  127 15  77  126 11  73  124 9   72  125 
8   71  125 7   70  124 6   69  123 11  73  130 11  72  127 16  75  131 
17  78  133 17  78  133 16  77  132 12  73  128 9   70  125 6   68  125 
6   69  123 4   66  123 2   63  118 0   59  115 2   58  115 0   60  114 
1   58  113 1   58  113 1   58  111 1   58  111 3   60  113 3   61  109 
3   59  108 2   58  107 5   59  106 3   56  106 2   55  105 3   57  104 
5   59  105 11  62  105 33  68  106 36  74  111 41  79  118 42  84  122 
45  82  124 47  86  127 48  85  129 51  86  126 49  88  129 48  87  128 
47  84  126 47  84  126 48  85  127 44  83  122 42  81  122 44  82  121 
41  79  118 40  79  120 36  80  119 34  78  117 
6   69  113 5   67  114 7   70  114 8   70  117 10  71  118 9   72  116 
11  72  119 13  73  123 10  72  121 9   71  120 8   70  121 7   70  123 
4   67  121 6   69  123 6   69  123 9   72  123 10  71  126 16  75  131 
15  76  131 14  75  130 16  77  132 9   70  125 8   69  124 6   69  120 
5   68  122 3   66  117 2   63  118 1   60  116 1   57  114 0   59  113 
1   58  113 0   57  112 0   57  110 0   57  110 1   59  107 2   60  108 
3   59  108 3   59  108 5   59  106 3   56  106 1   54  104 3   57  104 
4   58  104 11  64  108 29  68  107 41  75  113 46  80  115 49  82  117 
50  84  121 50  86  122 47  85  122 50  85  125 49  85  121 48  84  120 
49  83  120 46  84  120 47  81  118 43  79  113 45  81  117 44  78  113 
44  78  113 42  76  113 38  76  112 37  75  111 
4   67  110 3   66  109 4   67  110 6   69  112 5   66  110 7   68  112 
7   68  112 7   68  112 8   69  114 8   71  115 7   70  113 3   67  115 
5   69  117 5   68  119 6   68  117 8   70  119 11  71  121 14  74  124 
15  75  127 12  72  122 11  71  123 6   66  116 7   67  117 8   68  118 
7   67  117 2   63  117 2   62  116 1   58  111 1   58  111 1   58  111 
1   56  110 0   56  107 0   55  106 2   55  107 1   57  106 2   56  103 
3   57  103 5   59  105 5   59  103 2   56  102 1   55  101 1   55  101 
4   58  104 20  64  101 32  70  107 40  74  111 44  78  113 46  80  115 
47  81  118 47  81  116 46  80  115 47  81  119 44  82  118 44  80  116 
41  78  120 43  75  114 40  74  112 46  75  115 51  75  101 48  75  102 
41  70  100 50  76  103 45  72  99  40  71  100 
8   45  71  5   41  65  12  40  64  10  38  62  8   38  64  8   49  71  
5   43  64  5   36  64  5   38  57  11  44  63  26  59  78  28  56  78  
32  59  80  32  56  68  30  59  77  11  43  66  32  57  79  42  61  78  
30  61  79  23  52  70  44  67  85  33  65  88  31  67  79  37  70  85  
36  72  86  43  70  89  40  67  86  45  71  94  35  64  82  46  64  86  
49  67  89  38  65  86  35  67  90  40  62  86  40  66  83  36  64  78  
36  64  78  35  64  78  34  67  84  38  66  77  36  63  74  36  63  80  
40  58  80  41  63  77  22  44  57  24  51  62  36  55  61  36  59  65  
36  53  60  39  53  62  23  46  54  12  33  50  2   37  41  4   41  49  
2   37  43  24  54  64  19  41  54  14  30  29  24  40  55  21  41  50  
7   36  42  13  38  45  14  45  50  12  42  50  
13  33  22  20  36  26  21  33  21  19  37  25  37  40  19  43  50  32  
21  42  23  69  66  47  57  52  33  36  48  28  39  50  33  39  51  31  
36  48  34  44  40  28  28  55  38  27  49  46  34  54  42  27  48  31  
27  55  43  37  58  49  5   10  16  21  31  32  25  50  47  35  51  38  
19  44  38  37  48  44  46  53  46  43  52  49  43  53  55  38  47  46  
39  48  47  35  47  47  32  43  45  27  40  46  23  41  41  27  37  39  
24  34  35  23  32  37  26  37  43  28  39  45  17  30  36  30  37  45  
30  37  43  28  35  41  29  36  42  24  35  41  24  35  41  24  35  39  
28  35  43  30  37  45  37  41  50  29  36  44  31  35  44  29  36  44  
29  36  44  26  33  41  24  31  41  19  28  37  16  29  37  15  25  34  
12  25  33  9   22  30  11  21  31  11  21  30  
31  35  18  30  37  21  35  38  21  33  37  23  14  28  11  32  39  21  
37  48  32  37  45  30  26  42  31  18  35  27  9   27  15  18  31  14  
28  35  19  44  54  30  40  50  26  47  51  26  51  59  38  48  55  37  
48  56  32  46  53  35  61  57  32  56  54  33  54  59  39  45  53  32  
46  55  36  53  52  31  50  53  32  51  54  33  53  52  32  45  48  27  
47  50  29  36  44  20  47  55  32  36  40  26  47  53  39  55  46  37  
52  43  38  52  43  38  52  44  41  52  44  41  47  42  38  42  39  34  
39  35  34  37  33  32  36  32  31  32  28  27  38  30  27  39  35  34  
39  35  34  37  33  32  31  30  28  30  30  28  31  30  28  28  28  28  
30  30  30  27  27  27  24  24  26  23  23  25  16  19  24  15  16  21  
12  15  20  12  15  20  10  15  21  9   14  18  
7   26  22  12  30  14  11  33  12  30  45  26  39  49  25  22  34  12  
17  26  7   25  37  15  38  43  20  38  48  24  39  45  31  35  43  28  
41  53  33  34  47  27  38  51  33  37  49  29  39  46  30  37  45  24  
43  46  27  39  46  30  41  47  33  39  46  28  42  47  27  41  44  27  
46  54  33  45  48  27  54  58  33  47  52  30  47  50  29  53  58  36  
52  57  35  43  48  26  45  50  28  56  60  35  46  51  29  45  55  31  
47  51  26  42  50  26  39  41  19  50  54  29  46  48  26  52  49  30  
50  49  31  46  47  31  31  37  27  23  31  16  22  30  19  18  25  17  
18  28  17  14  24  15  19  24  17  23  23  15  26  29  20  39  47  36  
40  51  35  41  47  33  42  49  31  46  49  30  33  42  25  33  44  28  
16  29  11  6   19  9   12  22  14  13  22  17  
29  33  16  34  42  19  26  35  16  38  42  25  18  33  14  27  34  16  
27  36  19  26  35  14  24  35  21  17  29  15  27  38  22  28  42  25  
22  35  17  23  31  16  31  39  24  44  52  37  37  46  29  52  61  44  
40  47  31  34  40  26  32  36  21  35  44  25  25  34  15  31  40  19  
32  44  20  40  48  24  47  51  28  43  49  23  40  45  22  48  54  26  
58  57  29  47  51  24  57  53  28  61  57  28  62  55  29  72  60  36  
75  65  40  75  65  38  54  46  23  74  58  33  73  59  33  74  62  40  
58  52  26  66  55  35  63  55  34  54  42  26  52  44  25  55  47  28  
44  41  22  53  48  28  46  37  20  49  48  27  44  41  24  48  47  27  
42  40  25  39  40  22  43  44  26  44  48  31  48  53  33  31  37  23  
38  49  33  12  26  11  21  35  22  13  29  18  
