P3
64 64
255
1   3   60  1   3   60  0   4   62  0   4   67  1   5   68  0   5   69  
0   5   71  0   5   73  0   6   74  0   7   75  0   7   77  0   9   78  
1   10  79  0   10  81  0   10  81  0   10  82  0   9   84  0   11  85  
0   12  86  1   13  87  1   12  91  0   14  87  1   15  88  0   13  91  
0   13  92  1   14  93  2   15  94  0   17  95  0   17  95  0   17  97  
0   17  97  0   17  97  0   17  99  0   17  99  0   17  99  1   18  100 
1   17  102 1   17  102 0   16  101 0   18  102 1   19  103 0   21  104 
0   20  103 0   20  103 0   21  104 0   21  104 0   21  104 0   21  104 
0   21  104 0   21  104 0   20  106 0   20  106 0   21  104 0   20  103 
1   19  103 0   18  102 0   18  104 1   17  102 1   18  100 0   17  99  
0   16  96  1   13  95  1   14  93  1   12  92  
1   3   60  1   3   60  0   5   63  1   5   68  1   5   68  0   5   69  
0   5   71  0   5   73  0   6   74  0   7   75  0   7   77  0   9   78  
1   10  79  0   10  81  0   10  81  1   11  83  1   10  85  0   11  85  
0   12  86  1   13  87  1   12  91  1   15  88  0   14  87  1   14  92  
1   14  93  1   14  93  2   15  94  0   16  94  0   17  95  0   17  97  
0   17  97  0   17  97  0   17  99  0   17  99  1   18  100 0   17  99  
0   16  101 1   17  102 1   17  102 0   18  102 1   19  103 0   20  103 
0   21  104 0   21  104 0   21  104 1   22  105 0   21  104 1   22  105 
1   22  105 0   21  104 1   21  107 0   20  106 0   21  104 0   21  104 
1   19  103 1   19  103 0   18  104 0   16  101 1   18  100 0   17  99  
0   16  96  1   13  95  1   14  93  1   12  92  
1   3   62  0   4   62  0   4   67  1   6   64  0   5   69  0   5   71  
0   5   73  0   6   74  0   7   77  0   7   77  0   9   78  0   9   78  
0   10  81  1   11  82  0   10  82  1   10  85  0   11  85  0   12  86  
0   12  86  0   14  87  1   14  92  0   13  91  1   14  92  1   14  93  
1   14  93  2   15  94  0   16  94  1   18  96  0   17  95  1   18  98  
0   17  97  1   18  100 0   17  99  0   17  99  1   18  100 0   17  101 
0   17  101 1   19  103 1   19  103 0   20  103 0   21  104 0   21  104 
0   22  102 0   22  105 0   22  105 2   24  107 1   23  106 1   23  106 
1   23  106 0   22  105 0   22  105 0   21  104 0   21  104 1   22  105 
0   21  104 0   20  103 2   20  104 0   18  104 1   17  102 0   17  99  
0   17  97  2   14  96  1   14  93  0   13  92  
0   5   63  0   4   67  1   5   68  0   5   69  0   5   71  0   5   73  
0   6   74  0   7   77  1   10  79  0   9   78  0   9   78  0   10  81  
0   10  82  0   10  82  1   10  85  0   11  85  0   12  86  1   13  87  
0   13  91  1   14  92  1   14  92  1   14  92  2   15  94  0   16  94  
0   16  94  0   17  95  0   17  95  0   17  97  0   16  96  0   17  99  
0   17  99  1   18  100 1   17  102 0   18  102 0   18  102 0   20  103 
0   20  103 0   20  101 0   21  104 0   23  103 0   23  103 1   23  106 
1   24  104 0   24  106 0   24  106 0   25  107 0   25  107 0   25  107 
0   25  107 0   25  107 1   23  106 0   24  106 0   24  106 0   24  106 
1   23  106 0   22  105 0   21  104 0   20  103 0   18  102 1   17  102 
0   17  99  0   17  97  0   16  96  2   15  94  
0   5   63  1   5   68  1   5   68  0   5   69  0   5   71  0   7   75  
0   7   75  2   9   79  0   9   78  2   11  80  1   10  79  0   10  81  
1   11  83  1   11  83  1   10  85  0   12  86  0   12  86  1   13  87  
1   14  92  1   14  92  1   14  92  2   15  93  2   15  94  1   18  96  
0   17  95  1   18  96  0   17  95  0   17  97  0   17  97  0   17  99  
1   18  100 1   18  100 1   17  102 0   18  102 1   19  103 0   21  104 
0   21  104 0   21  102 0   22  105 1   24  104 1   24  104 2   24  107 
2   25  105 0   25  107 0   25  107 0   25  107 0   25  107 1   26  108 
1   26  108 3   28  110 2   24  107 0   25  107 0   25  107 0   25  107 
2   24  107 2   24  107 0   21  104 2   23  106 1   19  103 1   17  102 
0   17  99  1   18  98  0   17  97  2   15  94  
0   5   71  0   5   69  0   5   71  0   6   76  0   7   75  0   7   75  
1   10  79  1   10  79  1   9   81  1   11  82  0   10  82  1   11  83  
0   12  86  0   12  86  1   13  87  1   13  87  1   14  92  1   14  92  
2   15  93  0   17  95  0   17  95  0   17  95  0   17  95  0   17  97  
0   19  98  0   18  97  1   20  99  1   19  101 1   19  101 1   19  101 
1   19  103 1   19  103 0   20  103 0   21  104 0   22  105 1   24  104 
1   24  104 1   24  104 0   24  104 0   25  107 0   25  107 0   25  107 
0   27  108 1   26  108 0   27  108 0   27  108 0   27  108 1   27  111 
1   28  109 0   27  108 0   27  108 1   27  112 0   27  108 0   27  108 
1   26  108 1   26  108 1   26  108 1   23  106 1   22  105 2   20  104 
0   18  102 1   18  100 0   16  101 0   17  97  
0   5   73  0   5   73  0   6   74  0   7   77  0   9   78  0   8   80  
0   10  81  0   10  81  0   10  82  1   10  85  0   11  85  0   12  86  
0   14  87  2   14  88  0   13  91  1   14  92  1   14  92  0   16  94  
0   16  94  0   18  95  2   19  97  1   20  99  0   19  98  1   20  99  
0   21  102 0   21  102 0   22  102 0   23  103 0   23  103 1   22  105 
0   21  104 0   21  104 0   22  105 0   22  105 1   23  106 0   24  104 
0   25  107 0   25  107 0   25  107 0   25  107 0   27  108 0   27  108 
0   26  110 0   26  110 1   27  111 0   26  110 1   27  112 1   27  112 
1   27  112 1   27  112 1   27  112 1   27  111 1   27  112 1   27  111 
1   27  111 1   27  111 0   27  108 0   25  107 1   23  106 0   21  104 
0   20  103 0   18  102 0   16  101 1   18  100 
0   7   77  0   7   76  0   9   78  0   8   80  0   10  81  1   11  83  
0   10  82  0   12  86  0   12  86  1   13  87  0   13  91  1   14  92  
1   14  92  0   17  93  0   16  92  0   17  95  0   18  95  0   18  95  
0   19  98  0   20  99  2   19  99  1   20  99  2   20  102 2   20  102 
1   24  104 0   23  103 0   24  104 0   24  106 0   24  106 0   23  105 
0   23  105 0   23  105 0   24  106 0   25  107 0   25  107 0   25  107 
0   26  107 0   26  110 0   26  110 0   26  110 1   27  112 1   27  112 
1   27  112 1   27  112 1   27  112 0   28  112 0   28  112 0   28  112 
0   28  112 0   28  112 0   28  112 0   28  112 0   28  112 0   28  112 
0   28  112 1   27  112 1   27  111 1   27  111 0   25  109 0   24  106 
0   22  105 2   18  103 0   18  102 0   18  102 
1   8   78  0   9   78  1   10  79  1   9   81  1   11  82  3   13  85  
2   12  84  0   12  86  1   13  87  2   14  88  1   14  92  3   16  94  
2   15  93  0   18  94  0   18  94  1   18  96  0   19  96  1   20  97  
1   20  99  1   22  101 0   23  101 0   26  103 0   24  104 0   24  104 
1   24  104 0   25  105 0   25  105 1   26  108 0   25  107 1   26  108 
0   25  107 0   25  107 0   25  107 1   26  108 1   26  108 2   27  109 
0   27  108 2   28  112 1   27  111 1   27  111 1   27  112 1   27  112 
1   27  112 1   27  112 1   27  112 0   28  112 0   28  112 0   28  112 
0   28  112 1   29  113 1   29  113 2   30  114 1   29  113 0   28  112 
0   28  112 1   27  112 1   27  111 1   27  111 1   26  110 0   25  107 
1   23  106 0   22  105 1   19  103 1   19  103 
0   10  81  1   11  82  2   12  84  2   12  84  1   13  85  1   13  87  
1   15  88  2   16  89  2   15  93  0   17  93  0   18  94  0   17  95  
0   19  96  1   20  97  0   19  96  0   20  99  0   20  99  0   21  100 
1   24  104 2   25  103 0   25  105 1   26  106 1   26  106 1   26  108 
1   26  108 0   27  108 0   27  108 0   27  108 1   27  111 1   27  111 
1   27  111 1   27  111 0   26  110 1   27  111 1   27  111 1   27  111 
0   28  111 0   28  112 1   29  113 1   29  113 1   29  113 2   30  114 
2   30  114 2   30  114 2   30  114 2   30  114 2   30  114 2   30  114 
2   30  114 2   30  114 0   31  114 0   31  114 2   30  114 2   30  114 
1   29  113 1   29  113 0   28  112 1   27  112 1   27  111 0   26  110 
1   26  110 3   25  110 0   22  105 1   21  107 
1   13  87  0   12  86  0   14  87  0   14  87  1   15  88  1   17  94  
0   17  93  0   17  95  0   19  96  0   19  96  1   18  96  0   21  97  
2   21  100 1   22  101 2   23  102 2   23  104 0   25  105 0   24  104 
0   25  107 1   26  108 0   27  108 0   27  108 0   26  107 0   26  110 
1   27  111 1   27  111 1   27  111 0   28  112 0   28  112 1   29  113 
1   29  113 0   28  112 0   28  112 0   28  112 1   29  113 1   29  113 
1   29  113 2   30  114 1   29  113 2   30  114 2   29  116 0   31  114 
0   31  114 0   31  114 0   31  114 3   31  115 2   29  116 2   29  116 
2   29  116 2   29  116 2   30  114 2   29  116 0   30  116 0   30  116 
0   31  114 2   30  114 1   29  113 1   29  113 1   29  113 1   27  112 
0   26  110 1   26  110 1   26  110 1   23  108 
1   13  87  1   15  88  0   17  93  1   14  93  0   16  94  2   18  96  
0   17  95  1   19  95  2   19  99  1   20  99  2   20  102 0   22  102 
0   23  103 0   26  101 0   26  101 0   25  107 0   26  107 0   26  110 
0   26  110 0   26  110 0   28  111 0   28  112 1   29  113 0   28  112 
0   28  112 2   28  113 1   29  113 1   29  113 2   30  114 0   31  114 
2   30  114 2   30  114 2   29  116 2   30  114 2   30  114 0   30  116 
2   29  116 0   31  114 2   30  114 2   29  116 0   30  116 0   30  116 
0   30  120 0   30  116 0   30  120 0   30  120 0   30  120 0   30  120 
0   30  116 0   30  120 0   30  120 0   30  120 0   30  120 0   30  116 
0   30  116 0   30  116 2   29  116 2   30  114 0   29  112 0   28  112 
1   29  113 0   28  112 0   26  111 0   26  111 
0   16  94  0   18  95  0   18  94  0   19  96  0   21  97  0   21  97  
0   22  98  0   23  103 0   23  101 0   25  102 0   24  104 0   26  105 
0   27  106 0   28  108 0   29  109 0   29  109 1   28  109 1   27  111 
1   27  111 1   27  111 0   28  111 1   29  113 1   29  113 1   29  113 
2   30  114 0   31  114 2   30  114 2   30  114 2   30  114 0   31  114 
2   30  114 2   30  114 2   29  116 2   30  114 2   29  120 0   30  116 
2   29  116 0   30  120 2   29  120 2   29  116 0   29  121 0   29  121 
0   30  120 0   29  121 0   30  120 0   30  120 0   30  120 1   31  121 
1   30  122 0   30  120 1   31  121 1   31  121 1   31  121 0   29  121 
0   29  121 0   30  116 2   29  116 2   30  114 0   31  114 2   30  114 
2   30  114 1   29  113 1   27  112 1   27  112 
0   19  96  1   20  97  0   21  97  0   22  100 0   23  101 0   25  102 
0   24  104 0   25  105 0   27  105 0   28  108 0   28  108 0   30  110 
0   30  112 1   29  112 2   30  113 0   30  112 2   30  114 1   29  113 
2   30  114 2   30  114 2   29  116 1   28  115 1   28  115 0   29  115 
2   29  116 0   30  116 1   31  117 1   31  117 1   31  121 1   31  121 
1   31  121 1   31  121 1   31  121 0   30  120 1   31  121 1   30  122 
1   30  122 1   30  122 1   30  122 1   30  122 1   30  122 1   30  122 
1   30  122 1   30  122 1   30  122 1   30  122 1   30  122 1   30  124 
1   30  124 1   30  124 1   30  124 1   30  124 2   31  125 1   30  122 
1   30  122 1   30  122 1   30  122 1   31  121 0   30  120 2   29  116 
2   29  116 2   30  114 2   30  114 1   29  113 
1   25  99  1   24  102 1   24  102 0   25  105 0   27  106 1   28  109 
1   28  109 1   30  110 2   29  110 0   30  112 0   31  113 1   32  114 
1   32  115 1   32  114 0   33  115 0   33  115 0   33  115 1   32  115 
1   31  117 1   31  117 1   31  117 1   31  117 1   31  117 0   32  119 
0   32  122 0   32  122 0   32  119 1   30  122 0   32  119 0   32  122 
0   32  122 0   31  124 0   31  124 0   31  124 0   31  124 0   31  124 
0   32  125 0   31  124 0   32  121 0   32  127 0   32  127 0   32  127 
0   32  125 0   32  127 0   32  127 0   31  126 0   32  127 0   32  125 
0   32  127 0   32  127 0   32  127 0   32  125 0   32  127 0   32  127 
0   32  125 0   32  125 0   31  124 1   30  124 1   31  119 0   29  121 
0   30  116 2   30  114 2   29  116 2   29  116 
0   28  106 0   28  108 0   29  109 0   30  113 0   31  114 0   32  117 
0   32  117 3   30  117 0   32  117 2   32  120 1   31  119 1   31  119 
2   32  122 0   34  120 0   33  122 0   33  122 0   33  122 0   34  122 
0   33  123 0   33  123 0   33  123 0   34  124 0   34  124 0   33  126 
0   33  123 0   34  124 0   32  125 0   34  124 0   33  126 0   34  124 
0   34  124 1   34  127 0   32  125 1   34  127 0   32  125 0   32  125 
0   32  129 0   32  125 0   32  127 0   33  128 0   32  127 0   33  128 
0   32  125 0   32  127 0   32  127 0   32  127 0   32  127 0   33  130 
0   32  127 0   33  128 0   32  127 0   33  130 0   33  128 0   32  127 
0   32  125 0   32  125 0   32  125 3   32  126 1   30  124 1   30  122 
1   30  122 2   29  120 2   29  116 2   29  116 
0   31  114 0   30  113 0   32  115 1   32  123 0   33  123 0   34  123 
0   35  123 0   34  123 0   34  123 0   34  123 1   34  127 0   35  127 
0   35  127 0   35  127 0   35  127 0   35  127 0   35  129 0   35  129 
0   35  129 0   35  129 0   35  129 0   35  129 0   35  129 0   35  129 
0   34  131 0   34  131 0   34  131 0   35  131 0   35  129 0   35  129 
0   35  129 0   34  131 0   34  132 0   34  132 0   34  132 0   35  132 
0   34  132 0   34  131 0   34  132 0   34  132 1   33  132 1   33  132 
1   33  132 0   34  131 0   33  130 1   34  131 0   32  131 0   33  130 
1   34  131 1   34  131 1   34  131 0   34  134 0   32  133 1   34  131 
0   33  130 0   33  130 0   33  130 0   33  130 0   32  127 0   32  127 
1   30  124 1   30  122 1   30  122 1   31  121 
1   33  118 1   33  120 1   36  117 3   34  140 1   37  134 1   37  133 
2   38  132 1   37  131 0   36  132 1   37  133 0   36  132 1   37  133 
2   38  134 1   37  133 1   37  134 1   37  134 1   37  134 1   37  134 
1   37  134 1   37  134 1   37  134 1   37  134 0   36  133 1   37  134 
1   37  134 1   36  136 0   35  135 1   36  136 2   37  137 1   36  136 
0   35  135 0   35  135 1   36  136 1   36  138 0   35  135 1   36  136 
0   35  137 1   36  138 1   36  138 1   36  138 0   35  135 0   34  136 
0   34  136 0   35  135 0   34  136 1   36  138 0   34  136 0   34  136 
0   35  135 0   34  134 0   34  134 0   34  134 0   35  137 2   34  135 
1   33  134 0   34  134 0   34  134 0   34  132 0   33  131 1   34  131 
0   33  128 0   32  127 0   32  122 0   32  122 
0   32  119 0   34  126 4   33  137 218 238 247 134 170 244 49  85  207 
0   30  160 1   39  140 0   37  141 0   38  139 1   39  140 0   39  140 
0   38  141 0   38  141 1   39  140 0   37  141 0   39  142 0   37  141 
1   38  142 0   38  139 0   38  139 0   37  141 0   37  141 0   37  140 
1   36  140 0   37  143 0   37  143 0   37  143 0   37  143 0   37  143 
0   37  143 0   37  143 0   37  143 0   37  143 0   37  143 0   37  143 
0   37  143 0   37  143 0   37  143 0   36  142 0   37  143 0   36  142 
0   37  143 0   36  142 0   36  142 0   37  143 0   36  142 0   36  142 
0   36  142 0   36  140 0   37  143 0   36  140 0   36  140 0   37  141 
0   35  139 0   35  139 0   37  138 0   35  137 1   35  135 0   35  132 
0   33  131 0   33  130 0   33  127 0   31  126 
67  107 203 86  119 222 71  93  212 171 204 245 190 228 255 229 248 244 
197 235 255 0   41  157 0   41  155 0   42  154 0   41  153 3   40  154 
0   41  154 3   40  155 0   42  154 0   41  149 1   39  148 0   41  149 
0   40  148 1   39  146 1   39  146 0   41  149 0   40  148 1   39  148 
0   40  148 0   40  150 0   41  151 0   40  150 1   37  149 2   38  150 
1   37  149 1   37  149 2   38  150 1   37  149 2   38  150 3   39  151 
1   37  149 2   38  150 1   37  149 1   37  149 0   36  148 1   37  149 
1   37  149 1   37  149 1   37  149 1   37  149 1   37  149 1   37  149 
0   36  148 1   37  147 1   37  149 1   37  147 0   36  146 0   36  146 
0   36  146 0   36  146 0   37  144 2   36  144 0   37  143 2   37  141 
1   34  139 1   34  137 0   34  134 0   32  133 
6   30  162 160 193 247 185 217 255 180 219 252 190 226 252 195 225 249 
228 247 255 6   52  190 2   45  176 1   42  166 0   41  165 1   39  172 
2   39  180 0   41  181 0   42  172 0   42  162 0   42  162 0   41  161 
1   42  160 0   42  157 0   41  159 1   42  158 0   41  157 2   41  160 
0   39  160 0   39  158 1   40  159 0   40  158 0   40  158 0   41  159 
1   40  157 1   40  159 0   39  158 0   41  159 1   40  159 0   39  157 
0   39  157 0   38  157 0   38  155 2   38  158 0   39  155 1   38  155 
2   39  156 1   38  155 1   38  155 1   38  155 1   38  155 2   38  158 
0   37  154 0   37  154 1   38  155 0   37  154 0   38  155 0   39  156 
1   37  157 1   38  155 0   38  157 0   38  152 1   37  151 1   37  149 
0   36  145 1   35  142 0   35  139 1   36  140 
25  51  174 137 179 251 185 220 250 154 193 252 163 201 246 182 221 250 
170 207 249 210 241 235 172 217 255 3   47  182 0   46  181 3   46  176 
2   35  174 12  47  201 0   46  183 2   47  176 1   46  173 2   46  171 
1   45  168 1   45  168 1   45  168 0   44  167 2   43  167 2   43  167 
2   43  167 2   43  167 1   42  168 2   43  169 1   42  166 1   42  168 
1   42  166 1   43  164 1   42  168 3   41  166 3   41  168 3   41  168 
1   39  164 0   40  164 0   40  164 0   40  164 0   40  162 0   40  164 
0   40  164 1   41  165 2   40  165 2   40  165 2   40  165 0   40  162 
0   38  161 1   39  164 0   38  163 0   40  164 1   39  164 1   39  164 
0   38  163 1   39  164 1   39  164 0   38  161 0   38  159 0   39  156 
0   37  152 2   38  148 1   37  147 1   38  145 
12  47  175 136 182 242 143 181 254 120 164 251 117 161 250 133 170 251 
153 190 255 176 210 238 206 232 255 0   48  192 2   47  190 17  37  196 
175 208 249 175 218 234 3   46  200 0   49  198 1   46  189 1   47  184 
0   46  181 0   46  181 0   46  181 1   45  180 1   45  180 0   44  179 
0   44  179 1   43  181 1   43  179 1   44  175 1   43  179 0   43  174 
0   42  176 0   42  176 0   43  176 2   42  176 3   43  177 1   41  175 
0   42  175 2   42  176 2   40  173 1   39  172 1   39  172 0   40  172 
2   40  173 1   41  173 1   39  172 1   39  172 1   41  173 0   40  174 
1   41  172 0   38  175 0   38  175 0   39  176 1   39  176 0   39  171 
0   39  178 0   39  176 0   39  178 1   38  178 0   38  171 0   38  167 
0   38  163 0   39  160 0   39  153 0   37  154 
6   34  180 100 146 240 130 174 249 130 181 255 132 178 255 151 190 255 
148 184 255 123 164 243 102 149 239 7   53  209 1   50  204 14  50  209 
196 220 254 232 249 255 8   53  208 3   52  207 2   50  210 1   52  197 
0   50  193 1   52  195 0   51  194 2   50  194 0   48  192 1   49  193 
1   49  193 1   48  190 1   48  188 1   48  190 0   47  187 0   47  189 
0   47  185 0   47  185 3   46  185 0   45  183 0   45  183 0   45  183 
2   45  184 0   45  183 0   43  181 0   43  181 1   44  182 2   41  180 
0   43  181 2   41  180 0   43  181 0   43  181 3   42  181 2   41  181 
3   41  184 4   40  188 4   42  189 3   41  188 2   39  182 2   40  185 
3   40  190 3   41  188 2   40  185 0   41  185 4   40  186 1   38  179 
3   39  177 2   39  171 0   38  165 2   38  161 
38  79  195 145 189 238 105 149 246 98  140 248 110 157 249 156 198 255 
120 159 255 114 152 253 82  120 231 0   55  207 5   55  212 3   52  207 
45  81  217 153 186 255 217 236 251 89  119 171 3   57  215 3   53  212 
2   53  207 0   54  206 0   53  205 1   52  205 1   50  204 1   50  204 
0   49  203 0   50  201 0   50  201 2   49  197 1   48  196 1   48  196 
0   48  194 0   48  194 1   47  194 0   46  193 0   46  193 0   46  193 
0   46  191 0   45  190 0   45  190 0   45  190 0   45  190 0   44  187 
0   44  187 0   44  187 0   44  187 0   44  187 0   45  188 0   42  188 
0   41  191 1   40  193 19  49  199 8   43  195 0   41  191 0   42  190 
0   41  193 46  72  167 58  75  193 3   44  198 0   41  191 1   39  184 
4   42  185 4   40  186 0   37  180 2   38  174 
109 158 250 124 170 255 105 150 251 101 143 251 96  140 247 83  124 232 
81  123 235 93  137 255 54  96  230 23  67  224 11  57  215 7   61  219 
27  64  197 122 155 248 185 218 253 154 192 254 19  65  210 13  61  219 
3   57  217 3   55  216 3   56  214 3   55  216 3   55  216 2   54  215 
1   54  212 1   54  210 2   52  209 1   52  206 1   52  206 1   50  204 
1   50  204 1   50  204 1   50  204 0   49  203 2   49  199 2   49  199 
1   48  198 1   48  198 2   47  198 2   47  198 1   46  197 0   47  197 
0   46  194 0   46  194 0   46  194 0   45  193 0   46  194 0   45  196 
4   45  197 13  44  187 203 224 243 21  46  190 2   43  197 7   44  194 
16  51  195 166 203 248 131 169 250 79  96  212 1   44  201 24  50  209 
62  91  209 18  51  192 3   40  191 1   39  182 
119 165 253 103 144 252 101 145 240 81  127 239 76  120 227 59  93  219 
49  87  214 13  63  224 12  61  224 12  66  226 13  64  215 30  66  222 
178 208 246 130 168 233 219 237 255 183 213 251 65  113 255 19  69  226 
16  64  226 11  63  224 13  63  224 12  62  223 11  61  222 11  61  222 
10  60  221 7   59  220 7   57  218 7   57  218 6   56  217 7   55  215 
5   53  213 5   53  213 5   53  213 6   52  210 6   52  210 6   52  210 
7   51  210 5   51  209 4   50  206 8   54  201 7   49  209 2   48  206 
0   50  207 2   46  205 1   47  203 1   47  203 2   46  203 3   46  200 
3   49  196 66  116 179 85  124 255 51  77  226 6   49  203 16  48  209 
22  45  201 117 156 247 165 197 255 156 195 255 38  75  205 184 224 250 
196 230 255 187 217 251 12  53  207 0   41  193 
102 146 245 94  134 247 112 156 251 81  127 239 71  106 226 35  74  205 
40  81  225 17  67  228 16  65  228 17  67  228 28  68  192 120 158 255 
146 176 248 221 243 255 106 137 228 131 170 255 31  76  237 22  72  233 
23  71  233 24  69  232 19  69  230 20  70  231 19  69  230 17  67  228 
18  68  229 14  66  227 14  64  225 13  63  224 11  61  222 12  60  220 
10  58  218 10  58  218 10  58  218 11  57  215 11  57  215 11  57  215 
12  56  215 13  55  215 9   55  211 11  51  209 10  52  212 9   51  211 
7   51  210 7   51  210 5   51  207 5   51  207 6   50  207 9   48  203 
10  52  200 57  96  227 102 129 242 51  72  213 27  61  212 12  49  192 
177 206 255 109 142 247 166 196 248 149 185 245 140 170 255 143 177 251 
91  132 238 16  51  203 7   48  202 2   42  199 
92  141 246 87  127 240 81  118 232 75  116 230 61  93  212 59  95  235 
23  71  233 21  69  229 23  75  221 40  84  215 145 186 252 124 161 250 
126 159 255 151 189 255 130 169 248 42  83  225 31  80  235 24  77  233 
30  75  226 28  77  232 28  76  236 27  77  236 24  77  235 24  77  235 
24  72  232 21  70  235 20  68  230 20  68  230 19  67  229 18  66  226 
17  65  225 17  65  225 18  64  222 17  63  221 16  62  220 18  62  221 
20  62  224 31  71  220 19  58  224 113 154 220 24  61  211 13  56  213 
12  55  212 12  55  212 11  54  211 12  55  212 13  54  208 14  53  208 
21  55  215 48  82  218 64  92  227 30  61  214 21  54  211 20  63  193 
83  118 246 84  120 243 135 160 253 208 231 247 135 165 251 80  109 247 
24  59  213 17  53  209 8   48  206 6   45  200 
131 177 239 89  126 230 66  106 220 67  101 225 56  85  203 43  80  221 
23  77  229 26  78  224 31  76  231 158 192 240 133 171 254 122 159 250 
111 147 243 103 136 231 101 140 241 42  88  233 34  85  238 36  73  239 
244 251 255 195 218 255 49  83  206 88  130 255 35  86  214 215 233 255 
44  88  221 40  87  237 30  81  234 27  75  235 26  74  232 28  74  232 
26  72  230 25  71  227 25  69  226 24  70  228 24  70  228 22  66  223 
25  58  211 199 219 255 83  120 235 98  129 245 24  64  222 23  63  221 
19  59  217 22  58  217 18  58  216 21  57  216 19  59  217 21  62  216 
40  70  218 55  81  217 58  86  221 29  64  216 26  61  217 26  63  204 
69  111 245 56  86  218 114 150 238 158 190 255 69  106 239 23  58  214 
19  53  213 19  53  212 13  53  203 17  53  211 
102 144 230 62  98  208 62  96  206 57  82  200 35  76  216 41  85  234 
34  78  235 94  138 247 62  108 245 118 160 242 125 162 251 104 140 237 
97  131 238 118 156 239 65  112 242 47  93  238 38  90  236 41  81  205 
151 176 216 226 233 255 236 249 232 224 234 225 204 211 255 129 145 223 
103 127 223 215 236 253 43  90  238 37  86  240 35  85  236 34  80  238 
31  77  235 30  76  232 32  76  233 29  75  233 28  74  232 30  74  235 
59  102 215 210 220 255 81  111 223 33  68  222 29  69  227 28  68  226 
28  69  221 33  70  223 27  67  225 21  64  221 27  61  220 68  98  254 
78  113 229 65  86  213 45  78  217 30  65  217 31  66  218 115 149 246 
86  135 255 53  73  194 70  94  230 85  113 246 29  61  222 27  63  213 
27  62  216 25  60  212 24  57  214 33  65  212 
56  92  212 50  82  203 48  81  197 47  77  197 43  86  190 113 144 255 
77  115 226 88  124 220 105 140 230 103 142 233 117 151 251 96  129 234 
94  128 225 108 143 237 158 192 255 204 222 255 194 223 255 69  97  223 
104 139 239 162 192 255 166 197 243 105 139 226 110 137 218 121 150 252 
207 220 255 145 173 213 156 190 238 72  106 214 93  124 207 100 140 212 
42  88  233 45  85  234 60  101 229 39  85  233 39  83  231 39  81  229 
62  92  214 105 139 249 48  89  229 40  80  214 35  75  222 36  78  226 
38  78  227 44  80  226 59  90  215 30  72  210 92  111 240 90  126 238 
89  118 212 86  112 233 37  74  215 35  72  215 39  71  214 84  114 202 
225 245 254 209 233 243 69  102 235 53  86  217 35  67  212 33  65  210 
35  64  204 153 175 255 36  67  207 71  113 187 
50  87  217 88  133 224 47  92  221 40  85  214 61  94  209 96  130 230 
84  119 223 98  134 230 91  125 222 103 138 230 82  116 216 90  125 227 
101 134 237 86  114 221 88  128 224 151 194 236 138 170 253 103 135 238 
79  111 222 98  130 217 127 161 224 121 154 221 149 179 249 167 201 255 
125 161 249 198 230 255 148 178 240 100 123 235 207 229 253 190 216 249 
49  94  239 128 161 230 181 219 255 95  131 243 58  100 236 71  102 210 
128 165 233 74  101 214 136 172 250 134 167 244 93  132 235 55  93  220 
53  91  226 172 208 242 109 138 242 57  91  214 71  94  222 147 178 243 
154 182 255 76  106 226 48  83  225 110 143 250 159 189 253 194 221 251 
199 223 251 138 160 255 69  85  206 56  86  206 45  73  206 43  74  216 
46  74  197 181 216 255 217 230 249 203 226 255 
84  114 212 70  105 205 63  98  218 101 139 238 65  98  213 104 139 243 
75  107 216 86  126 213 87  120 227 82  116 223 80  116 212 76  112 200 
70  103 208 88  122 222 74  107 210 73  108 210 99  133 223 93  120 223 
95  128 223 102 128 225 96  129 224 93  121 220 100 126 221 154 187 254 
156 186 246 153 181 255 95  127 228 120 148 247 94  123 227 60  78  212 
170 203 244 96  122 217 141 172 252 130 159 251 117 143 202 166 188 246 
80  108 207 102 127 230 105 140 222 97  133 221 129 163 227 103 134 216 
100 129 229 101 127 240 99  123 231 105 138 233 78  112 236 67  99  220 
88  121 224 51  85  209 149 181 255 101 127 220 136 166 238 90  117 224 
88  113 231 123 144 255 53  77  187 81  107 217 104 128 236 88  117 221 
61  88  203 84  116 227 109 138 242 95  117 237 
63  91  200 66  93  210 106 139 242 94  128 225 67  101 211 81  116 218 
138 175 255 79  116 223 88  120 231 99  137 220 128 166 251 98  132 230 
86  120 220 107 141 239 118 155 236 92  126 233 130 166 242 107 142 232 
89  121 222 107 141 231 110 144 233 96  130 228 133 167 254 113 146 241 
137 172 238 89  118 196 215 238 255 136 165 233 173 208 255 153 186 237 
137 166 236 106 139 236 120 150 240 128 160 237 137 172 238 139 167 241 
140 175 255 111 138 225 110 145 226 118 147 239 102 132 222 77  104 211 
68  96  206 73  100 205 80  105 208 93  117 225 73  105 214 57  89  212 
60  86  199 92  120 219 98  133 225 108 134 229 94  119 220 106 127 236 
58  78  190 73  91  203 82  106 216 61  87  197 101 126 227 90  121 212 
107 138 231 108 135 242 100 123 225 68  92  202 
56  86  196 58  88  200 58  88  200 63  96  199 66  99  206 75  109 219 
78  112 222 72  110 211 95  129 236 74  108 215 84  119 223 82  119 225 
68  102 210 83  118 218 79  113 211 87  121 221 82  116 216 73  108 208 
73  105 218 75  107 216 76  109 212 75  107 206 80  113 210 87  115 212 
115 151 229 119 153 225 162 191 247 118 151 228 116 146 234 98  130 213 
118 149 242 120 152 237 100 130 220 97  126 218 102 129 218 116 144 227 
101 130 200 104 131 222 138 168 240 117 144 231 88  115 218 83  115 214 
104 135 228 85  113 213 72  100 199 103 129 224 110 141 223 81  107 220 
93  120 211 91  120 214 79  107 207 84  108 218 75  102 209 113 139 232 
86  111 214 96  122 219 88  113 216 84  108 214 88  115 220 73  100 207 
78  106 206 86  112 209 90  115 218 75  100 203 
49  87  196 49  92  196 54  83  211 56  84  217 55  88  203 54  89  209 
62  96  203 67  101 224 72  110 235 70  108 231 72  107 233 74  110 233 
67  105 232 74  108 231 75  125 238 71  109 236 80  112 231 75  111 221 
80  114 212 76  107 213 82  121 226 77  115 216 74  109 213 87  122 224 
85  124 227 87  124 228 87  123 220 89  123 221 90  125 225 83  122 223 
83  117 217 76  107 213 87  119 222 86  116 214 106 134 218 77  109 210 
90  122 221 81  117 214 89  119 217 84  117 214 84  117 214 80  108 208 
84  109 210 77  106 206 69  101 204 86  114 214 76  103 208 73  98  201 
84  109 212 73  97  203 79  104 207 79  103 209 79  104 207 78  99  208 
77  104 207 83  111 211 82  109 214 71  98  203 74  100 210 68  96  205 
71  98  205 73  99  210 60  87  204 60  86  205 
0   36  61  11  46  84  5   40  68  4   38  76  4   36  75  7   39  80  
4   38  75  8   30  67  5   28  72  6   29  70  1   28  71  0   26  69  
0   20  65  0   21  66  0   19  66  3   21  69  0   16  64  7   21  68  
28  45  97  8   23  66  0   7   54  2   14  62  9   21  71  8   19  65  
20  30  83  13  22  65  0   9   54  0   11  63  0   10  75  4   18  89  
0   12  81  0   16  88  8   25  94  9   24  89  0   24  83  24  55  120 
17  57  127 30  73  142 45  90  157 25  62  150 36  72  160 57  95  194 
59  91  190 56  86  198 66  94  204 60  91  207 49  82  185 48  78  192 
58  85  200 57  84  199 55  85  199 71  91  204 64  92  189 62  80  188 
49  89  210 47  92  209 46  90  189 58  95  210 45  82  199 55  91  214 
52  91  222 56  81  207 45  81  193 61  82  197 
10  82  97  0   71  91  0   68  82  0   77  99  11  97  114 4   88  116 
0   79  105 1   82  112 1   79  101 0   78  101 0   76  98  4   82  104 
4   81  107 6   84  106 2   80  103 1   77  101 6   82  106 7   83  106 
0   75  103 0   79  109 2   77  106 0   73  101 0   75  107 9   84  115 
3   77  114 9   82  117 0   65  97  4   73  112 0   62  104 0   65  107 
0   59  100 0   56  84  0   60  101 0   68  105 3   57  104 16  70  116 
7   65  113 8   69  116 7   67  119 5   65  99  5   60  117 5   58  98  
5   54  97  11  58  112 0   44  101 4   46  104 2   47  89  5   45  106 
4   44  105 2   47  106 8   48  109 1   57  108 0   46  87  0   54  87  
5   44  99  172 207 255 19  58  115 0   37  90  3   40  93  7   43  101 
0   29  71  0   45  78  6   36  90  0   39  87  
118 77  45  132 88  59  195 154 124 186 141 118 186 140 106 145 113 72  
118 97  44  136 110 77  138 114 76  160 121 78  197 145 108 166 109 82  
172 142 80  118 64  17  166 131 77  184 133 86  221 168 118 183 117 67  
238 194 155 214 173 145 169 136 117 144 129 106 117 101 78  113 109 84  
83  107 81  44  105 72  39  106 97  37  101 100 45  115 117 31  94  101 
38  105 114 31  98  107 47  98  117 114 150 166 255 252 255 243 244 248 
251 254 255 251 251 251 255 252 255 94  123 137 93  145 156 252 249 242 
49  97  137 15  90  122 10  96  121 5   81  113 6   82  106 126 154 175 
0   78  105 7   82  105 0   94  112 17  83  117 0   81  111 0   69  96  
0   64  84  0   67  96  0   72  104 0   78  115 9   78  119 0   68  97  
4   75  107 41  118 148 2   70  109 0   66  105 
94  92  165 111 84  37  148 96  75  174 132 110 208 149 115 200 152 116 
219 172 144 188 142 108 228 172 145 219 164 134 222 163 133 245 192 160 
228 164 137 255 192 161 232 184 148 235 182 148 226 169 140 255 202 174 
236 184 147 245 189 156 235 149 126 206 155 128 236 174 149 223 152 134 
252 187 159 235 170 142 233 168 140 242 176 150 243 182 154 244 179 151 
252 187 159 228 168 140 246 177 148 233 167 141 247 181 155 239 174 146 
230 168 143 244 183 155 249 187 162 239 179 153 229 167 144 244 187 160 
244 183 164 255 198 177 252 187 169 251 199 177 239 187 163 238 186 164 
229 179 152 231 175 158 243 200 181 255 204 189 208 156 134 207 155 134 
219 158 140 201 155 139 237 177 153 246 217 211 239 237 248 214 213 221 
255 251 255 213 240 249 190 233 239 196 244 255 
72  81  110 99  106 116 96  126 178 95  106 168 81  97  156 94  84  137 
106 78  74  130 103 76  131 97  62  115 75  40  126 68  44  132 93  62  
182 139 107 185 138 108 190 140 115 172 128 101 189 131 107 217 157 129 
212 144 121 202 146 119 232 191 161 155 106 47  166 122 97  190 133 122 
201 136 114 220 158 137 228 155 136 245 173 149 239 167 143 238 166 141 
236 164 139 222 156 130 226 155 133 236 170 144 244 178 152 234 169 141 
251 179 154 243 177 153 239 174 146 243 179 151 238 172 150 237 172 144 
243 180 147 255 187 158 255 180 160 255 195 171 245 180 150 237 171 145 
241 171 146 253 181 166 245 183 160 255 201 180 230 168 147 255 193 175 
255 188 173 252 191 173 224 161 144 220 161 143 183 123 95  255 205 194 
255 184 170 244 190 164 204 170 145 192 144 82  
69  80  112 55  68  112 79  93  130 72  87  120 83  97  132 74  89  120 
72  86  121 73  88  121 64  82  120 83  85  144 82  95  150 87  105 155 
93  119 170 117 146 186 127 142 199 106 120 159 115 121 147 118 114 147 
144 133 150 133 109 107 141 110 81  145 105 79  116 70  44  175 130 91  
166 115 84  159 115 76  134 85  52  213 164 131 228 178 145 178 125 93  
185 129 102 216 159 130 200 135 113 230 166 141 233 162 142 216 156 132 
217 155 132 224 159 137 218 150 127 226 155 135 231 163 142 230 157 138 
221 151 126 227 154 135 236 169 150 237 168 152 235 174 155 250 177 158 
229 162 143 226 161 141 236 175 154 246 187 171 255 202 182 245 187 165 
225 167 147 175 117 95  203 153 130 197 154 122 136 82  56  187 132 102 
189 131 93  201 142 112 178 144 119 149 137 139 
63  76  108 78  97  129 55  74  104 83  105 155 81  103 144 82  101 143 
81  94  136 76  88  126 74  94  131 70  88  128 69  89  126 93  112 144 
91  113 150 86  108 147 96  117 148 98  113 144 84  100 126 69  84  117 
72  88  113 90  109 142 82  102 135 101 119 155 101 111 138 108 129 158 
138 152 181 141 156 185 113 126 160 99  114 153 86  107 136 118 134 147 
102 116 161 100 114 153 113 123 158 109 112 143 103 103 131 91  91  115 
108 104 121 137 134 145 118 106 116 139 127 129 105 87  85  102 87  94  
112 97  92  123 104 100 132 117 112 125 109 109 127 107 106 140 126 126 
133 121 121 123 115 113 107 95  95  136 125 129 112 107 111 109 110 112 
118 124 136 115 119 130 108 119 115 97  109 105 91  112 107 97  107 116 
96  109 117 98  113 120 89  108 112 88  105 121 
84  96  120 60  74  103 66  84  130 78  97  130 81  102 131 73  94  125 
80  100 135 65  81  130 74  93  136 69  89  124 76  101 141 68  93  133 
89  113 159 105 130 171 80  106 143 73  97  141 80  98  146 80  102 149 
105 125 162 95  118 159 77  101 139 91  110 152 92  111 144 82  101 133 
89  110 141 101 121 146 86  110 138 101 119 157 92  113 144 82  106 132 
85  105 140 82  102 137 86  103 129 82  99  127 86  101 132 80  96  122 
78  94  119 94  112 134 99  115 141 83  100 126 86  101 124 84  94  129 
86  98  124 83  98  117 77  92  115 80  92  114 74  87  106 68  84  100 
81  94  111 85  99  112 74  92  94  73  92  98  76  95  99  70  90  101 
77  97  104 77  96  103 75  93  103 75  93  103 80  97  113 72  88  111 
67  84  104 63  79  104 70  86  112 63  80  110 
68  99  154 72  98  155 78  105 174 64  85  140 59  89  143 60  90  140 
65  89  133 62  82  145 70  89  129 81  98  150 85  109 153 67  90  142 
116 143 198 90  117 170 96  122 181 80  104 152 68  85  139 63  84  137 
96  121 161 93  116 160 80  102 152 83  101 147 88  103 136 86  100 137 
90  110 145 84  102 140 86  102 136 62  73  101 74  91  107 80  94  107 
80  88  107 69  80  98  72  86  112 66  77  97  73  81  104 71  82  88  
76  86  95  60  74  75  68  82  83  72  88  85  66  76  88  71  80  87  
72  85  101 65  77  75  74  86  86  70  86  83  69  86  78  71  83  79  
69  86  76  68  83  86  71  91  80  66  79  88  71  90  94  80  99  95  
69  86  94  68  86  98  69  88  94  69  86  102 70  86  111 57  75  87  
66  80  115 66  81  114 54  68  103 61  76  115 
69  90  135 64  87  137 85  108 160 74  96  153 58  84  135 65  88  142 
74  94  147 94  111 155 76  91  132 60  74  111 51  67  100 76  92  125 
67  82  111 64  83  115 87  106 138 108 124 149 77  89  111 76  90  101 
82  94  106 88  102 115 39  52  58  59  85  102 77  89  103 79  88  93  
72  82  92  77  84  90  70  77  87  73  82  91  60  73  66  62  71  80  
55  65  67  69  79  80  58  65  71  63  70  76  61  69  72  59  61  73  
58  66  68  61  68  76  65  73  76  59  65  81  61  68  74  62  69  77  
64  75  77  67  76  83  57  68  74  60  69  76  65  76  80  72  83  89  
62  73  79  59  72  80  53  65  79  69  82  91  54  68  81  44  60  76  
64  80  95  66  82  107 70  85  116 67  80  114 68  80  118 64  78  113 
47  61  100 56  70  115 56  73  119 57  74  128 
95  105 132 65  76  82  70  83  102 71  90  122 62  79  97  49  62  78  
79  91  103 82  94  108 54  69  92  36  46  55  48  57  72  57  66  73  
80  83  100 94  102 115 90  97  107 65  70  76  75  82  98  71  79  81  
68  75  68  67  71  72  73  78  82  61  66  70  68  75  68  87  89  88  
65  72  78  63  69  67  65  71  61  57  64  70  62  70  73  58  66  68  
60  69  66  63  71  73  68  75  81  60  66  64  61  69  71  61  69  72  
67  77  79  59  64  70  62  69  79  60  70  71  68  73  79  60  69  78  
63  70  80  58  67  74  56  64  67  59  68  75  58  67  74  61  70  79  
67  77  86  57  66  81  65  73  92  68  78  88  66  75  90  64  77  96  
61  75  101 65  79  108 73  87  116 74  89  122 66  83  126 65  82  136 
52  75  117 55  72  124 36  48  98  40  52  102 
63  73  100 85  94  111 68  89  116 76  102 129 86  109 115 70  80  90  
50  66  82  61  68  74  75  85  94  69  81  77  50  56  44  74  76  73  
62  63  68  54  63  62  73  78  81  87  91  100 59  64  68  62  74  70  
72  77  81  61  66  69  54  57  64  68  73  76  52  58  56  56  58  57  
62  63  57  71  73  72  65  65  67  61  63  58  63  64  58  64  66  65  
57  59  58  61  63  60  59  65  65  60  60  68  53  56  63  72  75  80  
59  65  65  55  64  71  49  58  67  68  72  81  60  63  72  71  74  89  
64  68  77  64  68  79  59  62  79  60  64  75  57  61  73  59  63  74  
61  65  77  61  67  81  64  70  86  64  72  93  63  71  90  70  81  101 
71  84  103 82  97  128 77  92  123 91  100 141 55  66  111 47  54  98  
42  49  93  51  58  102 36  53  97  36  44  90  
78  77  59  63  77  86  49  59  68  39  50  56  56  60  63  60  70  82  
99  108 123 54  64  65  50  61  67  59  68  67  58  68  69  57  64  74  
64  66  61  51  54  47  50  54  55  80  79  84  49  53  56  48  50  63  
53  58  54  66  65  61  63  68  64  62  61  67  58  57  62  47  49  48  
64  64  66  63  64  66  57  57  57  62  64  61  61  60  65  56  58  57  
59  61  60  62  63  68  61  61  63  59  60  62  58  62  63  65  68  73  
64  69  75  73  73  75  54  57  62  63  67  76  66  69  78  60  65  71  
60  65  71  67  71  82  65  70  74  65  69  80  58  63  69  60  65  69  
63  68  74  62  69  77  60  66  78  61  71  80  60  70  82  67  79  95  
62  74  98  67  83  108 77  92  121 66  76  111 51  61  97  58  66  103 
60  68  105 52  60  97  19  20  64  36  40  85  
150 117 66  131 96  54  146 113 62  152 125 78  162 143 101 145 120 89  
57  67  66  54  72  74  55  69  72  57  67  69  67  77  78  47  55  57  
58  68  69  57  68  74  64  68  69  53  59  47  62  63  58  67  63  52  
68  71  64  56  57  51  65  68  61  64  65  59  62  63  57  60  62  57  
69  71  68  66  67  71  64  66  63  58  60  57  66  69  62  63  65  64  
58  64  62  53  57  58  63  67  68  65  70  64  64  68  71  53  58  54  
63  69  67  68  76  79  66  74  77  66  70  79  74  78  89  61  68  74  
65  74  83  53  59  71  67  76  83  67  76  85  62  69  79  55  66  72  
73  82  91  61  68  78  61  74  67  52  59  69  72  83  89  67  77  87  
62  72  84  57  70  86  60  73  92  76  84  107 59  66  94  41  45  74  
44  47  82  34  40  74  33  39  73  17  22  60  
142 112 62  145 112 58  150 118 71  160 126 78  157 124 73  156 123 72  
128 96  45  161 121 70  154 121 70  163 131 74  139 108 54  155 135 85  
144 133 88  148 139 106 84  84  76  76  79  52  65  81  80  55  63  65  
61  71  62  78  81  70  76  78  64  81  82  68  82  81  61  79  78  60  
71  79  56  72  79  63  72  80  57  69  75  63  67  72  66  64  69  63  
59  64  60  67  77  76  67  80  71  64  75  71  61  70  69  63  72  71  
60  74  77  60  71  73  53  67  67  56  67  69  57  68  70  54  68  71  
53  67  70  60  70  79  54  68  69  53  63  73  60  72  72  53  64  66  
56  69  77  64  78  87  55  67  81  55  66  72  52  67  70  60  70  80  
69  82  91  66  76  86  68  82  85  53  62  77  57  61  72  56  60  72  
50  52  73  39  41  64  21  25  52  27  30  63  
142 111 64  135 106 46  143 115 68  147 114 63  135 103 44  160 124 76  
147 118 62  146 103 50  156 119 67  163 141 91  152 112 60  158 117 63  
152 113 54  162 115 63  148 112 54  164 121 52  161 120 68  140 97  42  
148 102 53  164 127 74  177 144 90  164 132 75  165 135 75  156 117 62  
153 120 66  164 128 68  165 132 78  160 139 86  184 156 93  102 88  62  
90  94  77  62  75  65  61  75  58  78  77  56  79  88  69  59  86  79  
61  86  83  76  85  80  66  77  43  80  89  88  63  75  61  62  87  92  
63  81  81  80  87  80  55  73  77  55  79  81  61  80  78  54  71  78  
58  70  70  63  73  75  62  75  84  63  75  91  77  70  86  80  99  95  
142 157 255 78  80  103 46  72  109 52  73  74  54  59  81  47  47  59  
48  61  93  52  49  70  47  46  51  45  34  50  
124 87  42  131 94  49  134 102 53  137 103 55  146 113 60  152 120 71  
145 106 51  150 118 67  162 134 86  179 129 78  164 131 78  170 128 80  
187 144 89  195 153 93  167 132 78  155 114 60  159 119 60  159 123 61  
154 117 64  176 130 78  183 143 82  194 148 88  122 83  24  155 109 49  
169 130 73  156 117 58  162 122 63  159 117 57  199 160 103 172 129 61  
167 117 54  164 118 68  152 104 40  160 111 53  184 137 81  193 157 99  
197 152 93  199 159 100 187 148 89  154 111 60  165 123 75  196 153 98  
139 98  42  161 121 69  143 101 53  189 147 99  169 122 68  139 99  50  
143 110 59  117 86  55  153 113 77  86  48  3   138 90  52  122 111 81  
25  5   0   22  0   21  54  58  105 40  14  0   87  72  101 80  44  22  
64  24  14  63  28  8   60  24  12  55  22  15  
127 96  49  140 109 62  143 111 62  133 102 55  147 114 63  163 123 71  
152 116 66  169 136 85  142 105 50  146 103 50  140 100 49  150 110 58  
164 123 69  169 130 73  150 107 56  173 136 83  153 111 53  153 107 47  
157 115 55  157 120 65  156 106 45  175 138 83  181 143 94  200 154 94  
157 117 58  177 136 74  175 133 75  189 153 95  170 126 63  160 118 60  
174 128 78  168 130 68  190 142 80  168 118 65  156 111 56  192 156 106 
167 125 75  192 156 98  142 98  37  183 139 92  191 143 94  163 114 56  
153 106 52  161 118 65  155 114 68  171 123 74  122 81  35  127 86  42  
118 78  42  96  57  26  83  49  21  83  46  17  88  58  24  97  63  38  
81  44  18  66  30  8   73  41  16  69  36  17  67  32  13  72  39  24  
61  29  16  70  36  27  50  16  4   49  16  9   
143 109 63  125 95  45  142 110 59  121 84  29  128 93  39  143 103 51  
142 106 56  143 113 61  148 113 55  151 117 54  135 102 51  162 126 68  
146 107 50  184 146 84  152 113 54  154 109 50  150 115 57  161 126 68  
148 109 52  164 126 64  168 123 64  171 139 80  162 118 53  152 117 61  
182 141 87  179 139 78  184 150 86  180 138 80  159 127 68  166 137 77  
165 120 63  187 150 98  168 123 58  159 117 57  149 105 44  164 118 59  
167 124 69  165 122 67  176 136 77  164 128 70  148 105 50  156 111 56  
159 119 67  144 110 65  116 81  43  95  59  25  92  55  26  98  69  35  
91  60  31  105 74  45  92  63  31  78  44  16  62  30  5   64  29  9   
57  22  0   52  17  0   54  22  9   54  22  9   54  26  14  62  29  14  
53  19  10  45  11  2   48  15  8   47  14  9   
131 94  49  141 111 61  144 112 61  140 109 55  133 103 53  142 113 57  
144 108 60  146 116 64  147 110 57  150 105 48  154 121 70  142 102 50  
170 128 70  172 134 72  156 116 57  159 113 53  160 111 55  146 99  53  
184 145 88  147 109 60  173 139 76  172 131 65  165 129 71  183 142 88  
169 124 65  177 126 63  154 104 45  143 100 45  146 117 51  174 139 75  
189 138 83  157 117 66  184 148 98  161 120 66  162 128 67  139 93  41  
176 138 89  168 122 60  143 103 44  173 129 68  167 131 73  153 113 54  
154 103 56  126 92  44  127 91  41  128 92  42  105 65  30  111 82  40  
89  59  23  104 73  44  70  41  9   70  42  18  65  34  6   61  35  12  
66  38  17  46  17  3   55  23  10  44  12  0   45  17  5   42  8   0   
44  10  1   52  18  9   49  16  9   46  13  8   
124 95  51  140 113 68  129 96  51  150 118 71  127 95  48  147 121 72  
125 91  43  154 123 69  128 96  47  137 96  44  149 112 59  143 113 59  
146 108 59  153 117 65  151 113 66  156 120 68  169 129 77  149 107 57  
153 112 56  182 139 84  163 121 61  174 138 86  154 112 54  167 134 81  
154 110 63  151 110 58  171 134 82  173 127 68  149 106 51  159 115 54  
166 131 75  173 121 64  155 113 53  169 122 68  180 141 82  165 116 58  
182 137 80  179 140 83  171 124 70  131 94  41  168 127 83  137 95  55  
133 94  53  141 102 63  114 82  44  102 66  30  93  57  21  83  44  13  
68  36  13  66  34  11  66  35  14  66  38  17  62  29  10  50  17  2   
43  11  0   63  30  13  44  16  2   52  20  7   46  14  3   50  20  10  
42  9   2   51  16  10  37  6   1   53  22  17  
131 98  55  138 109 65  115 91  45  115 87  39  130 97  46  130 102 55  
123 96  43  148 117 70  149 119 69  137 110 55  134 101 48  139 111 61  
153 117 69  146 115 60  135 110 56  141 106 50  146 113 59  133 102 48  
121 81  32  104 68  20  128 90  41  174 138 86  158 123 69  154 114 62  
149 104 47  160 119 65  148 111 56  153 113 61  157 122 68  162 122 63  
171 129 71  164 118 68  144 104 52  149 108 54  165 120 65  166 129 76  
136 99  54  113 75  28  133 93  44  147 103 54  114 77  35  101 71  37  
92  59  26  69  34  4   79  44  12  91  56  28  75  43  18  73  37  13  
78  46  25  67  32  13  70  37  18  46  16  6   49  16  1   49  16  0   
44  11  4   59  27  14  57  24  15  45  15  5   43  12  7   52  3   6   
47  1   3   42  16  15  43  8   4   31  8   2   
55  49  35  64  42  31  106 77  35  148 122 71  124 96  48  128 96  49  
126 95  40  134 106 56  136 103 58  121 90  43  105 76  36  123 90  47  
110 79  35  141 110 55  127 94  40  137 99  52  126 90  40  125 94  48  
119 87  38  111 74  22  83  51  12  95  57  18  89  52  10  128 90  43  
129 89  53  106 67  24  113 75  28  91  60  14  111 77  32  113 75  26  
120 93  46  168 130 67  139 107 58  131 99  50  158 125 74  146 110 62  
144 108 48  123 93  41  149 115 67  124 97  52  115 82  41  89  56  25  
76  41  9   71  37  12  71  37  12  71  36  14  58  26  3   56  25  4   
54  22  7   39  8   0   59  33  16  63  29  17  55  23  8   51  18  9   
45  12  3   44  10  1   51  14  5   41  11  3   44  17  6   14  0   0   
11  0   0   23  0   1   9   0   0   15  4   0   
73  59  48  54  36  32  71  68  75  102 80  39  112 88  52  110 87  55  
104 87  44  90  63  18  95  66  26  83  50  15  82  51  23  79  49  15  
80  53  24  98  64  26  119 85  37  96  63  22  93  63  27  89  57  18  
97  73  27  116 83  40  106 74  35  94  61  26  94  62  24  95  62  21  
97  65  16  104 70  32  94  61  18  112 77  23  106 72  24  150 112 63  
132 95  43  146 110 62  165 134 79  149 113 65  140 113 58  156 111 56  
132 106 55  115 78  36  86  50  16  66  39  12  89  54  22  72  39  8   
79  48  20  74  37  19  58  30  9   71  42  24  58  25  6   52  20  5   
63  34  18  57  25  14  51  25  10  48  14  2   54  28  11  48  15  6   
44  11  2   43  15  4   54  28  15  37  7   0   51  20  17  3   1   2   
51  1   2   44  3   1   38  2   4   10  0   5   
36  8   5   62  36  23  53  33  26  49  25  21  89  64  33  79  58  31  
77  52  22  72  47  25  64  35  17  62  36  9   76  48  24  66  36  12  
85  56  26  87  58  24  24  6   0   34  11  5   36  7   3   67  38  6   
93  65  26  79  51  14  89  56  13  91  62  18  131 100 56  129 93  43  
120 89  42  127 96  52  116 87  45  118 82  32  158 124 60  117 85  36  
155 120 62  146 105 49  134 101 50  135 98  46  130 88  38  88  51  9   
96  62  16  84  52  27  69  38  9   66  35  6   70  42  21  62  30  7   
46  16  0   36  3   0   74  38  14  65  28  22  51  19  4   42  8   0   
58  31  12  47  13  1   55  23  8   59  26  17  51  18  9   43  10  1   
49  16  9   44  15  1   47  14  7   45  15  7   0   12  65  28  0   0   
32  0   1   10  1   0   32  0   5   28  0   1   
72  57  26  13  0   0   54  34  23  68  45  27  72  50  26  51  25  2   
70  48  27  65  39  16  63  35  14  62  34  13  65  39  14  62  34  10  
59  38  11  17  3   2   22  6   6   15  0   0   19  1   0   17  2   0   
105 71  26  113 85  37  106 76  22  120 95  41  117 87  37  100 70  16  
121 94  39  145 118 65  139 110 50  138 109 51  92  64  14  112 82  32  
119 84  28  85  56  14  107 75  34  73  43  9   62  37  7   75  46  14  
66  35  7   67  39  18  61  27  2   55  20  1   56  25  5   68  37  17  
51  20  2   45  13  0   42  12  1   58  32  9   49  15  5   52  22  12  
60  28  17  57  25  12  40  10  0   44  11  2   47  19  8   46  14  0   
52  25  16  40  9   4   60  6   0   11  18  73  52  8   7   35  1   0   
2   1   0   2   0   1   5   0   3   31  0   0   
83  57  24  92  65  35  71  50  21  78  51  24  62  35  8   72  45  24  
65  38  9   68  44  18  67  43  9   73  47  20  60  32  11  71  40  20  
59  36  5   8   1   0   10  0   1   13  3   4   4   0   0   11  1   0   
109 83  34  108 80  33  96  62  24  122 85  33  109 81  31  124 98  41  
104 78  29  101 69  20  94  64  10  122 89  35  90  57  16  63  33  0   
83  53  17  70  40  6   57  29  7   73  41  20  60  29  8   64  37  18  
67  32  10  60  31  15  16  0   0   63  32  12  57  24  9   70  38  25  
41  13  0   65  28  12  43  13  3   54  16  7   48  15  6   39  11  0   
38  5   0   48  15  6   46  13  0   48  18  10  41  8   0   53  20  13  
35  7   3   35  5   0   20  13  20  39  7   0   26  4   6   2   1   0   
26  2   0   4   0   0   0   2   0   2   2   2   
