P3
64 64
255
246 151 186 246 151 186 246 151 186 246 151 186 246 151 186 246 151 186 
246 151 186 246 151 186 246 151 186 246 151 186 246 151 186 246 151 186 
246 151 186 246 151 186 246 151 186 246 151 186 246 151 186 246 151 186 
246 151 186 246 151 186 246 151 186 246 151 186 246 151 186 246 151 186 
246 151 186 246 151 186 246 151 186 246 151 186 246 151 186 246 151 186 
246 151 186 246 151 186 246 151 186 246 151 186 246 151 186 246 151 186 
246 151 186 246 151 186 246 151 186 246 151 186 246 151 186 246 151 186 
246 151 186 246 151 186 246 151 186 246 151 186 246 151 186 246 151 186 
246 151 186 246 151 186 246 151 186 246 151 186 246 151 186 246 151 186 
246 151 186 246 151 186 246 151 186 246 151 186 246 151 186 246 151 186 
246 151 186 246 151 186 246 151 186 246 151 186 
246 151 186 246 151 186 246 151 186 246 151 186 246 151 186 246 151 186 
246 151 186 246 151 186 246 151 186 246 151 186 246 151 186 246 151 186 
246 151 186 246 151 186 246 151 186 246 151 186 246 151 186 246 151 186 
246 151 186 246 151 186 246 151 186 246 151 186 246 151 186 246 151 186 
246 151 186 246 151 186 246 151 186 246 151 186 246 151 186 246 151 186 
246 151 186 246 151 186 246 151 186 246 151 186 246 151 186 246 151 186 
246 151 186 246 151 186 246 151 186 246 151 186 246 151 186 246 151 186 
246 151 186 246 151 186 246 151 186 246 151 186 246 151 186 246 151 186 
246 151 186 246 151 186 246 151 186 246 151 186 246 151 186 246 151 186 
246 151 186 246 151 186 246 151 186 246 151 186 246 151 186 246 151 186 
246 151 186 246 151 186 246 151 186 246 151 186 
246 151 186 246 151 186 246 151 186 246 151 186 246 151 186 246 151 186 
246 151 186 246 151 186 246 151 186 246 151 186 246 151 186 246 151 186 
246 151 186 246 151 186 246 151 186 246 151 186 246 151 186 246 151 186 
246 151 186 246 151 186 246 151 186 246 151 186 246 151 186 246 151 186 
246 151 186 246 151 186 246 151 186 246 151 186 246 151 186 246 151 186 
246 151 186 246 151 186 246 151 186 246 151 186 246 151 186 246 151 186 
246 151 186 246 151 186 246 151 186 246 151 186 246 151 186 246 151 186 
246 151 186 246 151 186 246 151 186 246 151 186 246 151 186 246 151 186 
246 151 186 246 151 186 246 151 186 246 151 186 246 151 186 246 151 186 
246 151 186 246 151 186 246 151 186 246 151 186 246 151 186 246 151 186 
246 151 186 246 151 186 246 151 186 246 151 186 
246 151 186 246 151 186 246 151 186 246 151 186 246 151 186 246 151 186 
246 151 186 246 151 186 246 151 186 246 151 186 246 151 186 246 151 186 
246 151 186 246 151 186 246 151 186 246 151 186 246 151 186 246 151 186 
246 151 186 246 151 186 246 151 186 246 151 186 246 151 186 246 151 186 
246 151 186 246 151 186 246 151 186 246 151 186 246 151 186 246 151 186 
246 151 186 246 151 186 246 151 186 246 151 186 246 151 186 246 151 186 
246 151 186 246 151 186 246 151 186 246 151 186 246 151 186 246 151 186 
246 151 186 246 151 186 246 151 186 246 151 186 246 151 186 246 151 186 
246 151 186 246 151 186 246 151 186 246 151 186 246 151 186 246 151 186 
246 151 186 246 151 186 246 151 186 246 151 186 246 151 186 246 151 186 
246 151 186 246 151 186 246 151 186 246 151 186 
246 151 186 246 151 186 246 151 186 246 151 186 246 151 186 246 151 186 
246 151 186 246 151 186 246 151 186 246 151 186 246 151 186 246 151 186 
246 151 186 246 151 186 246 151 186 246 151 186 246 151 186 246 151 186 
246 151 186 246 151 186 246 151 186 246 151 186 246 151 186 246 151 186 
246 151 186 246 151 186 246 151 186 246 151 186 246 151 186 246 151 186 
246 151 186 246 151 186 246 151 186 246 151 186 246 151 186 246 151 186 
246 151 186 246 151 186 246 151 186 246 151 186 246 151 186 246 151 186 
246 151 186 246 151 186 246 151 186 246 151 186 246 151 186 246 151 186 
246 151 186 246 151 186 246 151 186 246 151 186 246 151 186 246 151 186 
246 151 186 246 151 186 246 151 186 246 151 186 246 151 186 246 151 186 
246 151 186 246 151 186 246 151 186 246 151 186 
246 151 186 246 151 186 246 151 186 246 151 186 246 151 186 246 151 186 
246 151 186 246 151 186 246 151 186 246 151 186 246 151 186 246 151 186 
246 151 186 246 151 186 246 151 186 246 151 186 246 151 186 246 151 186 
246 151 186 246 151 186 246 151 186 246 151 186 246 151 186 246 151 186 
246 151 186 246 151 186 246 151 186 246 151 186 246 151 186 246 151 186 
246 151 186 246 151 186 246 151 186 246 151 186 246 151 186 246 151 186 
246 151 186 246 151 186 246 151 186 246 151 186 246 151 186 246 151 186 
246 151 186 246 151 186 246 151 186 246 151 186 246 151 186 246 151 186 
246 151 186 246 151 186 246 151 186 246 151 186 246 151 186 246 151 186 
246 151 186 246 151 186 246 151 186 246 151 186 246 151 186 246 151 186 
246 151 186 246 151 186 246 151 186 246 151 186 
246 151 186 246 151 186 246 151 186 246 151 186 246 151 186 246 151 186 
246 151 186 246 151 186 246 151 186 246 151 186 246 151 186 246 151 186 
246 151 186 246 151 186 246 151 186 246 151 186 246 151 186 246 151 186 
246 151 186 246 151 186 246 151 186 246 151 186 246 151 186 246 151 186 
246 151 186 246 151 186 246 151 186 246 151 186 246 151 186 246 151 186 
246 151 186 246 151 186 246 151 186 246 151 186 246 151 186 246 151 186 
246 151 186 246 151 186 246 151 186 246 151 186 246 151 186 246 151 186 
246 151 186 246 151 186 246 151 186 246 151 186 246 151 186 246 151 186 
246 151 186 246 151 186 246 151 186 246 151 186 246 151 186 246 151 186 
246 151 186 246 151 186 246 151 186 246 151 186 246 151 186 246 151 186 
246 151 186 246 151 186 246 151 186 246 151 186 
246 151 186 246 151 186 246 151 186 246 151 186 246 151 186 246 151 186 
246 151 186 246 151 186 246 151 186 246 151 186 246 151 186 246 151 186 
246 151 186 246 151 186 246 151 186 246 151 186 246 151 186 246 151 186 
246 151 186 246 151 186 246 151 186 246 151 186 246 151 186 246 151 186 
246 151 186 246 151 186 246 151 186 246 151 186 246 151 186 246 151 186 
246 151 186 246 151 186 246 151 186 246 151 186 246 151 186 246 151 186 
246 151 186 246 151 186 246 151 186 246 151 186 246 151 186 246 151 186 
246 151 186 246 151 186 246 151 186 246 151 186 246 151 186 246 151 186 
246 151 186 246 151 186 246 151 186 246 151 186 246 151 186 246 151 186 
246 151 186 246 151 186 246 151 186 246 151 186 246 151 186 246 151 186 
246 151 186 246 151 186 246 151 186 246 151 186 
246 151 186 246 151 186 246 151 186 246 151 186 246 151 186 246 151 186 
246 151 186 246 151 186 246 151 186 246 151 186 246 151 186 246 151 186 
246 151 186 246 151 186 246 151 186 246 151 186 246 151 186 246 151 186 
246 151 186 246 151 186 246 151 186 246 151 186 246 151 186 246 151 186 
246 151 186 246 151 186 246 151 186 246 151 186 246 151 186 246 151 186 
246 151 186 246 151 186 246 151 186 246 151 186 246 151 186 246 151 186 
246 151 186 246 151 186 246 151 186 246 151 186 246 151 186 246 151 186 
246 151 186 246 151 186 246 151 186 246 151 186 246 151 186 246 151 186 
246 151 186 246 151 186 246 151 186 246 151 186 246 151 186 246 151 186 
246 151 186 246 151 186 246 151 186 246 151 186 246 151 186 246 151 186 
246 151 186 246 151 186 246 151 186 246 151 186 
246 151 186 246 151 186 246 151 186 246 151 186 246 151 186 246 151 186 
246 151 186 246 151 186 246 151 186 246 151 186 246 151 186 246 151 186 
246 151 186 246 151 186 246 151 186 246 151 186 246 151 186 246 151 186 
246 151 186 246 151 186 246 151 186 246 151 186 246 151 186 246 151 186 
246 151 186 246 151 186 246 151 186 246 151 186 246 151 186 246 151 186 
246 151 186 246 151 186 246 151 186 246 151 186 246 151 186 246 151 186 
246 151 186 246 151 186 246 151 186 246 151 186 246 151 186 246 151 186 
246 151 186 246 151 186 246 151 186 246 151 186 246 151 186 246 151 186 
246 151 186 246 151 186 246 151 186 246 151 186 246 151 186 246 151 186 
246 151 186 246 151 186 246 151 186 246 151 186 246 151 186 246 151 186 
246 151 186 246 151 186 246 151 186 246 151 186 
246 151 186 246 151 186 246 151 186 246 151 186 246 151 186 246 151 186 
246 151 186 246 151 186 246 151 186 246 151 186 246 151 186 246 151 186 
246 151 186 246 151 186 246 151 186 246 151 186 246 151 186 246 151 186 
246 151 186 246 151 186 246 151 186 246 151 186 246 151 186 246 151 186 
246 151 186 246 151 186 246 151 186 246 151 186 246 151 186 246 151 186 
246 151 186 246 151 186 246 151 186 246 151 186 246 151 186 246 151 186 
246 151 186 246 151 186 246 151 186 246 151 186 246 151 186 246 151 186 
246 151 186 246 151 186 246 151 186 246 151 186 246 151 186 246 151 186 
246 151 186 246 151 186 246 151 186 246 151 186 246 151 186 246 151 186 
246 151 186 246 151 186 246 151 186 246 151 186 246 151 186 246 151 186 
246 151 186 246 151 186 246 151 186 246 151 186 
246 151 186 246 151 186 246 151 186 246 151 186 246 151 186 246 151 186 
246 151 186 246 151 186 246 151 186 246 151 186 246 151 186 246 151 186 
246 151 186 246 151 186 246 151 186 246 151 186 246 151 186 246 151 186 
246 151 186 246 151 186 246 151 186 246 151 186 246 151 186 246 151 186 
246 151 186 246 151 186 246 151 186 246 151 186 246 151 186 246 151 186 
246 151 186 246 151 186 246 151 186 246 151 186 246 151 186 246 151 186 
246 151 186 246 151 186 246 151 186 246 151 186 246 151 186 246 151 186 
246 151 186 246 151 186 246 151 186 246 151 186 246 151 186 246 151 186 
246 151 186 246 151 186 246 151 186 246 151 186 246 151 186 246 151 186 
246 151 186 246 151 186 246 151 186 246 151 186 246 151 186 246 151 186 
246 151 186 246 151 186 246 151 186 246 151 186 
246 151 186 246 151 186 246 151 186 246 151 186 246 151 186 246 151 186 
246 151 186 246 151 186 246 151 186 246 151 186 246 151 186 246 151 186 
246 151 186 246 151 186 246 151 186 246 151 186 246 151 186 246 151 186 
246 151 186 246 151 186 246 151 186 246 151 186 246 151 186 246 151 186 
246 151 186 246 151 186 246 151 186 246 151 186 246 151 186 246 151 186 
246 151 186 246 151 186 246 151 186 246 151 186 246 151 186 246 151 186 
246 151 186 246 151 186 246 151 186 246 151 186 246 151 186 246 151 186 
246 151 186 246 151 186 246 151 186 246 151 186 246 151 186 246 151 186 
246 151 186 246 151 186 246 151 186 246 151 186 246 151 186 246 151 186 
246 151 186 246 151 186 246 151 186 246 151 186 246 151 186 246 151 186 
246 151 186 246 151 186 246 151 186 246 151 186 
246 151 186 246 151 186 246 151 186 246 151 186 246 151 186 246 151 186 
246 151 186 246 151 186 246 151 186 246 151 186 246 151 186 246 151 186 
246 151 186 246 151 186 246 151 186 246 151 186 246 151 186 246 151 186 
246 151 186 246 151 186 246 151 186 246 151 186 246 151 186 246 151 186 
246 151 186 246 151 186 246 151 186 246 151 186 246 151 186 246 151 186 
246 151 186 246 151 186 246 151 186 246 151 186 246 151 186 246 151 186 
246 151 186 246 151 186 246 151 186 246 151 186 246 151 186 246 151 186 
246 151 186 246 151 186 246 151 186 246 151 186 246 151 186 246 151 186 
246 151 186 246 151 186 246 151 186 246 151 186 246 151 186 246 151 186 
246 151 186 246 151 186 246 151 186 246 151 186 246 151 186 246 151 186 
246 151 186 246 151 186 246 151 186 246 151 186 
246 151 186 246 151 186 246 151 186 246 151 186 246 151 186 246 151 186 
246 151 186 246 151 186 246 151 186 246 151 186 246 151 186 246 151 186 
246 151 186 246 151 186 246 151 186 246 151 186 246 151 186 246 151 186 
246 151 186 246 151 187 247 152 188 245 150 186 247 152 188 246 151 186 
246 151 187 246 151 186 246 151 186 246 151 186 246 151 186 246 151 186 
246 151 186 246 151 186 246 151 186 246 151 186 246 151 187 247 152 188 
247 154 191 247 152 188 247 154 191 247 154 191 247 152 188 247 154 191 
247 154 191 245 153 189 247 152 188 247 154 191 247 152 188 247 154 191 
247 154 191 245 153 189 246 151 187 246 151 186 246 151 186 246 151 186 
246 151 186 246 151 186 246 151 186 246 151 186 246 151 186 246 151 186 
246 151 186 246 151 186 246 151 186 246 151 186 
246 151 186 246 151 186 246 151 186 246 151 186 246 151 186 246 151 186 
246 151 186 246 151 186 246 151 186 246 151 186 246 151 186 246 151 186 
246 151 186 247 152 188 247 152 188 246 151 186 247 152 188 247 152 188 
247 152 188 247 152 188 245 153 189 245 153 189 247 152 188 245 153 189 
247 152 188 247 152 188 247 152 188 245 153 189 247 152 188 246 151 186 
246 151 186 246 151 186 246 151 186 246 151 186 246 151 187 247 154 191 
247 154 191 247 154 191 245 153 189 247 154 191 247 154 191 245 153 189 
247 154 191 247 156 195 247 156 195 247 156 195 247 154 191 247 156 195 
247 154 191 245 152 192 247 154 191 247 152 188 246 151 186 246 151 186 
246 151 186 246 151 186 246 151 186 246 151 186 246 151 186 246 151 186 
246 151 186 246 151 186 246 151 186 246 151 186 
246 151 186 246 151 186 246 151 186 246 151 186 246 151 186 246 151 186 
246 151 186 246 151 186 246 151 186 246 151 186 246 151 186 246 151 187 
245 153 189 247 154 191 247 154 191 245 153 189 247 154 191 247 154 191 
247 154 191 247 154 191 247 156 195 247 156 195 247 154 191 245 153 189 
247 154 191 250 161 201 247 154 191 246 151 186 246 151 186 246 151 186 
246 151 186 246 151 186 246 151 186 246 151 186 246 151 186 246 151 186 
247 154 191 253 167 209 250 161 201 253 167 209 253 167 209 253 167 209 
250 161 201 250 161 201 253 167 209 253 167 209 250 161 201 250 161 201 
250 161 201 250 161 201 250 161 201 247 156 195 247 152 188 245 153 189 
246 151 186 246 151 186 246 151 186 246 151 186 246 151 186 246 151 186 
246 151 186 246 151 186 246 151 186 246 151 186 
246 151 186 246 151 186 246 151 186 246 151 186 246 151 186 246 151 186 
246 151 186 246 151 186 246 151 186 246 151 186 246 151 186 247 152 188 
247 156 195 253 167 209 253 167 209 253 167 209 253 167 209 253 167 209 
253 167 209 253 167 209 254 174 216 253 167 209 247 154 191 196 120 152 
167 103 131 184 116 146 247 154 191 246 151 186 246 151 186 246 151 186 
246 151 186 246 151 186 246 151 186 246 151 186 246 151 186 246 151 186 
250 161 201 144 89  113 144 89  113 184 116 146 96  57  75  96  57  75  
196 120 152 184 116 146 167 103 131 184 116 146 184 116 146 205 129 162 
243 149 186 205 129 162 196 120 152 196 120 152 247 154 191 245 153 189 
246 151 186 246 151 186 246 151 186 246 151 186 246 151 186 246 151 186 
246 151 186 246 151 186 246 151 186 246 151 186 
246 151 186 246 151 186 246 151 186 246 151 186 246 151 186 246 151 186 
246 151 186 246 151 186 246 151 186 246 151 186 246 151 186 247 156 195 
116 71  92  144 89  113 144 89  113 167 103 131 116 71  92  144 89  113 
184 116 146 167 103 131 205 129 162 225 143 178 237 146 185 253 167 209 
253 167 209 247 154 191 246 151 187 246 151 186 246 151 186 246 151 186 
246 151 186 246 151 186 246 151 186 246 151 186 246 151 186 246 151 186 
247 151 186 247 154 191 247 154 191 245 153 189 247 156 195 247 156 195 
242 151 191 247 156 195 247 154 191 247 154 191 238 155 195 247 154 191 
247 154 191 247 154 191 245 150 187 245 152 192 245 152 192 245 153 189 
246 151 186 246 151 186 246 151 186 246 151 186 246 151 186 246 151 186 
246 151 186 246 151 186 246 151 186 246 151 186 
246 151 186 246 151 186 246 151 186 246 151 186 246 151 186 246 151 186 
246 151 186 246 151 186 246 151 186 246 151 186 246 151 186 245 153 189 
247 156 195 247 156 195 247 156 195 247 156 195 247 156 195 247 156 195 
247 156 195 247 156 195 245 153 189 247 156 195 247 154 191 247 156 195 
247 154 191 247 152 188 246 151 186 246 151 186 246 151 186 246 151 186 
246 151 186 246 151 186 246 151 186 246 151 186 246 151 186 246 151 186 
246 151 186 246 151 186 246 151 186 247 154 191 247 154 191 247 154 191 
247 156 195 247 156 195 245 153 189 245 153 189 247 154 191 247 156 195 
245 152 192 245 153 189 247 152 188 247 152 188 246 151 187 247 152 188 
246 151 186 246 151 186 246 151 186 246 151 186 246 151 186 246 151 186 
246 151 186 246 151 186 246 151 186 246 151 186 
246 151 186 246 151 186 246 151 186 246 151 186 246 151 186 246 151 186 
246 151 186 246 151 186 246 151 186 246 151 186 246 151 186 246 151 186 
247 154 191 247 156 195 250 161 201 247 156 195 247 156 195 247 156 195 
247 156 195 247 156 195 247 156 195 247 156 195 247 156 195 247 156 195 
245 153 189 246 151 186 246 151 186 246 151 186 246 151 186 246 151 186 
246 151 186 246 151 186 246 151 186 246 151 186 246 151 186 246 151 186 
246 151 186 246 151 186 246 151 186 245 153 189 247 156 195 247 156 195 
253 167 209 253 167 209 250 161 201 247 156 195 242 151 191 242 151 191 
247 154 191 247 152 188 246 151 186 246 151 186 246 151 186 246 151 186 
246 151 186 246 151 186 246 151 186 246 151 186 246 151 186 246 151 186 
246 151 186 246 151 186 246 151 186 246 151 186 
246 151 186 246 151 186 246 151 186 246 151 186 246 151 186 246 151 186 
246 151 186 246 151 186 246 151 186 246 151 186 246 151 186 246 151 186 
245 153 189 247 156 195 247 154 191 247 156 195 254 174 216 254 174 216 
254 174 216 253 167 209 253 167 209 253 167 209 253 167 209 247 156 195 
247 152 188 246 151 186 246 151 186 246 151 186 246 151 186 246 151 186 
246 151 186 246 151 186 246 151 186 246 151 186 246 151 186 246 151 186 
246 151 186 247 152 188 247 152 188 247 156 195 247 156 195 225 143 178 
45  27  36  58  36  49  58  36  49  58  36  49  184 116 146 250 161 201 
247 154 191 247 152 188 247 152 188 246 151 186 246 151 186 246 151 186 
246 151 186 246 151 186 246 151 186 246 151 186 246 151 186 246 151 186 
246 151 186 246 151 186 246 151 186 246 151 186 
246 151 186 246 151 186 246 151 186 246 151 186 246 151 186 246 151 186 
246 151 186 246 151 186 246 151 186 246 151 186 246 151 186 246 151 187 
247 154 191 253 167 209 167 103 131 96  57  75  8   4   7   8   4   7   
8   4   7   76  47  61  96  57  75  45  27  36  76  47  61  245 153 189 
247 154 191 246 151 186 246 151 186 246 151 186 246 151 186 246 151 186 
246 151 186 246 151 186 246 151 186 246 151 186 246 151 186 246 151 186 
246 151 186 246 151 186 247 152 188 247 152 188 96  57  75  45  27  36  
76  47  61  8   4   7   144 89  113 116 71  92  8   4   7   196 120 152 
167 103 131 250 161 201 245 153 189 245 153 189 247 152 188 246 151 186 
246 151 186 246 151 186 246 151 186 246 151 186 246 151 186 246 151 186 
246 151 186 246 151 186 246 151 186 246 151 186 
246 151 186 246 151 186 246 151 186 246 151 186 246 151 186 246 151 186 
246 151 186 246 151 186 246 151 186 246 151 186 246 151 186 247 152 188 
247 154 191 34  16  22  76  47  61  34  16  22  8   4   7   116 71  92  
45  27  36  144 89  113 96  57  75  144 89  113 58  36  49  250 161 201 
247 152 188 246 151 186 246 151 186 246 151 186 246 151 186 246 151 186 
246 151 186 246 151 186 246 151 186 246 151 186 246 151 186 246 151 186 
246 151 186 246 151 186 246 151 186 247 152 188 237 146 185 96  57  75  
34  16  22  167 103 131 58  36  49  8   4   7   8   4   7   8   4   7   
144 89  113 96  57  75  238 155 195 245 153 189 247 152 188 246 151 186 
246 151 186 246 151 186 246 151 186 246 151 186 246 151 186 246 151 186 
246 151 186 246 151 186 246 151 186 246 151 186 
246 151 186 246 151 186 246 151 186 246 151 186 246 151 186 246 151 186 
246 151 186 246 151 186 246 151 186 246 151 186 246 151 186 247 152 188 
247 156 195 167 103 131 144 89  113 96  57  75  45  27  36  58  36  49  
8   4   7   34  16  22  45  27  36  8   4   7   215 137 172 247 152 188 
246 151 186 246 151 186 246 151 186 246 151 186 246 151 186 246 151 186 
246 151 186 246 151 186 246 151 187 246 151 187 246 151 186 246 151 186 
246 151 186 246 151 186 246 151 186 246 151 186 246 151 187 250 161 201 
254 174 216 225 143 178 184 116 146 116 71  92  8   4   7   116 71  92  
8   4   7   196 120 152 247 156 195 245 153 189 245 153 189 246 151 186 
246 151 186 246 151 186 246 151 186 246 151 186 246 151 186 246 151 186 
246 151 186 246 151 186 246 151 186 246 151 186 
246 151 186 246 151 186 246 151 186 246 151 186 246 151 186 246 151 186 
246 151 186 246 151 186 246 151 186 246 151 186 246 151 186 247 152 188 
245 153 189 254 178 223 76  47  61  116 71  92  58  36  49  8   4   7   
8   4   7   96  57  75  215 137 172 253 167 209 245 152 192 246 151 186 
246 151 186 246 151 186 246 151 186 246 151 186 246 151 186 247 152 188 
247 152 188 247 154 191 247 154 191 245 153 189 245 153 189 247 152 188 
246 151 186 246 151 186 246 151 186 246 151 186 246 151 186 246 151 187 
247 154 191 242 151 191 243 151 185 245 153 189 253 167 209 253 167 209 
253 167 209 238 155 195 242 151 191 242 151 191 246 151 186 246 151 186 
246 151 186 246 151 186 246 151 186 246 151 186 246 151 186 246 151 186 
246 151 186 246 151 186 246 151 186 246 151 186 
246 151 186 246 151 186 246 151 186 246 151 186 246 151 186 246 151 186 
246 151 186 246 151 186 246 151 186 246 151 186 246 151 186 246 151 187 
245 152 192 245 153 189 253 167 209 230 148 185 253 167 209 254 178 223 
254 178 223 253 167 209 242 151 191 247 152 188 246 151 186 246 151 186 
246 151 186 246 151 186 246 151 186 246 151 187 247 152 188 245 152 192 
250 161 201 253 167 209 253 167 209 247 156 195 245 152 192 247 154 191 
247 152 188 246 151 186 246 151 186 246 151 186 246 151 186 246 151 186 
246 151 187 245 153 189 242 151 191 245 152 192 242 151 191 247 156 195 
242 151 191 247 156 195 245 152 192 247 152 188 246 151 186 246 151 186 
246 151 186 246 151 186 246 151 186 246 151 186 246 151 186 246 151 186 
246 151 186 246 151 186 246 151 186 246 151 186 
246 151 186 246 151 186 246 151 186 246 151 186 246 151 186 246 151 186 
246 151 186 246 151 186 246 151 186 246 151 186 246 151 186 246 151 186 
247 152 188 246 151 187 247 152 188 246 151 187 247 151 186 246 151 186 
247 151 186 247 152 188 247 152 188 246 151 186 246 151 186 246 151 186 
246 151 186 246 151 186 247 152 188 243 149 186 253 167 209 144 89  113 
96  57  75  76  47  61  54  80  119 116 71  92  247 154 191 247 156 195 
247 154 191 247 152 188 247 152 188 246 151 186 246 151 186 246 151 186 
246 151 186 246 151 186 246 151 186 246 151 186 246 151 186 246 151 186 
245 153 189 243 150 189 242 151 191 245 153 189 246 151 186 246 151 186 
246 151 186 246 151 186 246 151 186 246 151 186 246 151 186 246 151 186 
246 151 186 246 151 186 246 151 186 246 151 186 
246 151 186 246 151 186 246 151 186 246 151 186 246 151 186 246 151 186 
246 151 186 246 151 186 246 151 186 246 151 186 246 151 186 246 151 186 
246 151 186 246 151 186 246 151 186 246 151 186 246 151 186 246 151 186 
246 151 186 246 151 186 246 151 186 246 151 186 246 151 186 246 151 186 
246 151 186 247 152 188 250 161 201 167 103 131 112 148 183 116 178 238 
103 164 225 103 164 225 103 164 225 103 164 225 103 164 225 116 71  92  
238 155 195 245 153 189 247 154 191 246 151 187 246 151 186 246 151 186 
246 151 186 246 151 186 246 151 186 246 151 186 246 151 186 246 151 186 
246 151 186 246 151 186 246 151 186 246 151 186 246 151 186 246 151 186 
246 151 186 246 151 186 246 151 186 246 151 186 246 151 186 246 151 186 
246 151 186 246 151 186 246 151 186 246 151 186 
246 151 186 246 151 186 246 151 186 246 151 186 246 151 186 246 151 186 
246 151 186 246 151 186 246 151 186 246 151 186 246 151 186 246 151 186 
246 151 186 246 151 186 246 151 186 246 151 186 246 151 186 246 151 186 
246 151 186 246 151 186 246 151 186 246 151 186 246 151 186 246 151 186 
245 153 189 242 151 191 58  36  49  116 178 238 103 164 225 62  134 204 
62  134 204 58  108 161 58  108 161 62  134 204 62  134 204 62  134 204 
238 143 178 238 155 195 242 151 191 245 152 192 246 151 186 246 151 186 
246 151 186 246 151 186 246 151 186 246 151 186 246 151 186 246 151 186 
246 151 186 246 151 186 246 151 186 246 151 186 246 151 186 246 151 186 
246 151 186 246 151 186 246 151 186 246 151 186 246 151 186 246 151 186 
246 151 186 246 151 186 246 151 186 246 151 186 
246 151 186 246 151 186 246 151 186 246 151 186 246 151 186 246 151 186 
246 151 186 246 151 186 246 151 186 246 151 186 246 151 186 246 151 186 
246 151 186 246 151 186 246 151 186 246 151 186 246 151 186 246 151 186 
246 151 186 246 151 186 246 151 186 246 151 186 246 151 186 245 153 189 
242 151 191 253 167 209 116 178 238 54  80  119 18  50  94  58  108 161 
112 148 183 103 164 225 103 164 225 62  134 204 62  134 204 18  50  94  
250 161 201 247 154 191 247 156 195 247 152 188 246 151 186 246 151 186 
246 151 186 246 151 186 246 151 186 246 151 186 246 151 186 246 151 186 
246 151 186 246 151 186 246 151 186 246 151 186 246 151 186 246 151 186 
246 151 186 246 151 186 246 151 186 246 151 186 246 151 186 246 151 186 
246 151 186 246 151 186 246 151 186 246 151 186 
246 151 186 246 151 186 246 151 186 246 151 186 246 151 186 246 151 186 
246 151 186 246 151 186 246 151 186 246 151 186 246 151 186 246 151 186 
246 151 186 246 151 186 246 151 186 246 151 186 246 151 186 246 151 186 
246 151 186 246 151 186 246 151 186 246 151 186 246 151 187 245 153 189 
247 156 195 242 151 191 184 116 146 58  108 161 116 178 238 103 164 225 
103 164 225 103 164 225 116 178 238 62  134 204 115 40  60  240 110 180 
242 151 191 242 151 191 247 156 195 246 151 187 246 151 186 246 151 186 
246 151 186 246 151 186 246 151 186 246 151 186 246 151 186 246 151 186 
246 151 186 246 151 186 246 151 186 246 151 186 246 151 186 246 151 186 
246 151 186 246 151 186 246 151 186 246 151 186 246 151 186 246 151 186 
246 151 186 246 151 186 246 151 186 246 151 186 
246 151 186 246 151 186 246 151 186 246 151 186 246 151 186 246 151 186 
246 151 186 246 151 186 246 151 186 246 151 186 246 151 186 246 151 186 
246 151 186 246 151 186 246 151 186 246 151 186 246 151 186 246 151 186 
246 151 186 246 151 186 246 151 186 246 151 186 245 153 189 245 152 192 
242 151 191 242 151 191 242 151 191 250 161 201 247 137 191 144 89  113 
54  80  119 96  57  75  140 52  87  240 110 180 247 137 191 238 155 195 
245 152 192 245 153 189 238 155 195 246 151 187 246 151 186 246 151 186 
246 151 186 246 151 186 246 151 186 246 151 186 246 151 186 246 151 186 
246 151 186 246 151 186 246 151 186 246 151 186 246 151 186 246 151 186 
246 151 186 246 151 186 246 151 186 246 151 186 246 151 186 246 151 186 
246 151 186 246 151 186 246 151 186 246 151 186 
246 151 186 246 151 186 246 151 186 246 151 186 246 151 186 246 151 186 
246 151 186 246 151 186 246 151 186 246 151 186 246 151 186 246 151 186 
246 151 186 246 151 186 246 151 186 246 151 186 246 151 186 246 151 186 
246 151 186 246 151 186 246 151 186 246 151 186 246 151 186 246 151 187 
246 151 186 246 151 187 246 151 186 246 151 186 247 151 186 246 151 186 
246 151 186 246 151 187 245 150 187 245 150 186 246 151 186 246 151 186 
246 151 186 246 151 186 246 151 186 246 151 186 246 151 186 246 151 186 
246 151 186 246 151 186 246 151 186 246 151 186 246 151 186 246 151 186 
246 151 186 246 151 186 246 151 186 246 151 186 246 151 186 246 151 186 
246 151 186 246 151 186 246 151 186 246 151 186 246 151 186 246 151 186 
246 151 186 246 151 186 246 151 186 246 151 186 
246 151 186 246 151 186 246 151 186 246 151 186 246 151 186 246 151 186 
246 151 186 246 151 186 246 151 186 246 151 186 246 151 186 246 151 186 
246 151 186 246 151 186 246 151 186 246 151 186 246 151 186 246 151 186 
246 151 186 246 151 186 246 151 186 246 151 186 246 151 186 246 151 186 
246 151 186 246 151 186 246 151 186 246 151 186 246 151 186 246 151 186 
246 151 186 246 151 186 246 151 186 246 151 186 246 151 186 246 151 186 
246 151 186 246 151 186 246 151 186 246 151 186 246 151 186 246 151 186 
246 151 186 246 151 186 246 151 186 246 151 186 246 151 186 246 151 186 
246 151 186 246 151 186 246 151 186 246 151 186 246 151 186 246 151 186 
246 151 186 246 151 186 246 151 186 246 151 186 246 151 186 246 151 186 
246 151 186 246 151 186 246 151 186 246 151 186 
246 151 186 246 151 186 246 151 186 246 151 186 246 151 186 246 151 186 
246 151 186 246 151 186 246 151 186 246 151 186 246 151 186 246 151 186 
246 151 186 246 151 186 246 151 186 246 151 186 246 151 186 246 151 186 
246 151 186 246 151 186 246 151 186 246 151 186 246 151 186 246 151 186 
246 151 186 246 151 186 246 151 186 246 151 186 246 151 186 246 151 186 
246 151 186 246 151 186 246 151 186 246 151 186 246 151 186 246 151 186 
246 151 186 246 151 186 246 151 186 246 151 186 246 151 186 246 151 186 
246 151 186 246 151 186 246 151 186 246 151 186 246 151 186 246 151 186 
246 151 186 246 151 186 246 151 186 246 151 186 246 151 186 246 151 186 
246 151 186 246 151 186 246 151 186 246 151 186 246 151 186 246 151 186 
246 151 186 246 151 186 246 151 186 246 151 186 
246 151 186 246 151 186 246 151 186 246 151 186 246 151 186 246 151 186 
246 151 186 246 151 186 246 151 186 246 151 186 246 151 186 246 151 186 
246 151 186 246 151 186 246 151 186 246 151 186 246 151 186 246 151 186 
246 151 186 246 151 186 246 151 187 246 151 186 246 151 186 246 151 187 
246 151 187 246 151 186 246 151 187 246 151 187 246 151 187 246 151 187 
246 151 186 246 151 186 246 151 186 246 151 187 246 151 186 246 151 186 
246 151 186 246 151 187 246 151 187 246 151 187 246 151 186 246 151 186 
246 151 186 246 151 186 246 151 186 246 151 186 246 151 186 246 151 186 
246 151 186 246 151 186 246 151 186 246 151 186 246 151 186 246 151 186 
246 151 186 246 151 186 246 151 186 246 151 186 246 151 186 246 151 186 
246 151 186 246 151 186 246 151 186 246 151 186 
246 151 186 246 151 186 246 151 186 246 151 186 246 151 186 246 151 186 
246 151 186 246 151 186 246 151 186 246 151 186 246 151 186 246 151 186 
246 151 186 246 151 186 246 151 186 246 151 186 246 151 186 246 151 186 
246 151 186 246 151 186 245 153 189 242 151 191 243 150 189 241 149 187 
242 151 191 245 153 189 247 154 191 247 156 195 250 161 201 250 161 201 
250 161 201 247 156 195 250 161 201 250 161 201 250 161 201 250 161 201 
247 156 195 247 154 191 247 154 191 245 152 192 241 149 187 246 151 187 
246 151 187 246 151 186 246 151 186 246 151 186 246 151 186 246 151 186 
246 151 186 246 151 186 246 151 186 246 151 186 246 151 186 246 151 186 
246 151 186 246 151 186 246 151 186 246 151 186 246 151 186 246 151 186 
246 151 186 246 151 186 246 151 186 246 151 186 
246 151 186 246 151 186 246 151 186 246 151 186 246 151 186 246 151 186 
246 151 186 246 151 186 246 151 186 246 151 186 246 151 186 247 151 186 
246 151 187 246 151 186 246 151 186 246 151 186 246 151 186 246 151 186 
246 151 186 246 151 186 246 151 186 243 151 185 242 151 191 224 138 173 
167 103 131 116 71  92  102 28  39  102 28  39  131 24  35  184 44  58  
184 44  58  212 54  71  184 44  58  156 32  45  184 44  58  156 32  45  
115 40  60  102 28  39  102 28  39  115 40  60  196 120 152 247 152 188 
246 151 186 246 151 186 246 151 186 246 151 186 246 151 186 246 151 187 
246 151 187 246 151 186 246 151 186 246 151 186 246 151 186 246 151 186 
246 151 186 246 151 186 246 151 186 246 151 186 246 151 186 246 151 186 
246 151 186 246 151 186 246 151 186 246 151 186 
246 151 186 246 151 186 246 151 186 246 151 186 246 151 186 246 151 186 
246 151 186 246 151 186 246 151 186 246 151 186 246 151 186 246 151 187 
246 151 187 246 151 186 246 151 186 246 151 186 246 151 186 246 151 186 
246 151 186 246 151 186 246 151 186 246 151 186 243 150 189 116 71  92  
102 28  39  131 24  35  212 54  71  225 60  77  225 60  77  212 54  71  
212 54  71  212 54  71  212 54  71  212 54  71  212 54  71  212 54  71  
212 54  71  212 54  71  212 54  71  237 67  86  205 129 162 246 151 186 
246 151 186 246 151 186 246 151 186 246 151 186 246 151 186 246 151 187 
246 151 186 246 151 186 246 151 186 246 151 186 246 151 186 243 150 189 
247 151 186 246 151 186 246 151 186 246 151 186 246 151 186 246 151 186 
246 151 186 246 151 186 246 151 186 246 151 186 
246 151 186 246 151 186 246 151 186 246 151 186 246 151 186 246 151 186 
246 151 186 246 151 186 246 151 186 246 151 186 246 151 186 246 151 186 
246 151 186 246 151 186 246 151 186 246 151 186 246 151 186 246 151 186 
246 151 186 246 151 186 246 151 186 246 151 186 246 151 186 243 150 189 
247 156 195 253 167 209 238 155 195 167 103 131 76  47  61  85  17  25  
156 32  45  212 54  71  225 60  77  212 54  71  212 54  71  212 54  71  
212 54  71  212 54  71  237 67  86  225 143 178 247 151 186 246 151 186 
246 151 186 246 151 186 246 151 186 246 151 186 246 151 186 246 151 186 
246 151 186 246 151 186 246 151 186 246 151 186 246 151 187 245 153 189 
247 151 186 246 151 186 246 151 186 246 151 186 246 151 186 246 151 186 
246 151 186 246 151 186 246 151 186 246 151 186 
246 151 186 246 151 186 246 151 186 246 151 186 246 151 186 246 151 186 
246 151 186 246 151 186 246 151 186 246 151 186 246 151 186 246 151 186 
246 151 186 246 151 186 246 151 186 246 151 186 246 151 186 246 151 186 
246 151 186 246 151 186 246 151 186 246 151 186 246 151 186 246 151 186 
242 151 191 241 149 187 243 151 185 241 149 187 242 148 188 247 156 195 
253 167 209 215 137 172 8   4   7   225 60  77  212 54  71  212 54  71  
212 54  71  212 54  71  144 89  113 244 150 187 246 151 186 246 151 186 
246 151 186 246 151 186 246 151 186 246 151 186 246 151 186 246 151 186 
246 151 186 246 151 186 246 151 186 246 151 186 243 150 189 242 151 191 
247 151 186 246 151 186 246 151 186 246 151 186 246 151 186 246 151 186 
246 151 186 246 151 186 246 151 186 246 151 186 
246 151 186 246 151 186 246 151 186 246 151 186 246 151 186 246 151 186 
246 151 186 246 151 186 246 151 186 246 151 186 246 151 186 246 151 186 
246 151 186 246 151 186 246 151 186 246 151 186 246 151 186 246 151 186 
246 151 186 246 151 186 246 151 186 246 151 186 246 151 186 246 151 186 
244 150 187 241 149 187 246 151 187 244 150 187 243 150 189 242 148 188 
237 146 185 230 148 185 237 67  86  212 54  71  212 54  71  212 54  71  
131 24  35  184 116 146 243 150 189 246 151 186 246 151 186 246 151 186 
246 151 186 246 151 186 246 151 186 246 151 186 246 151 186 246 151 186 
246 151 186 246 151 186 246 151 186 246 151 186 243 151 185 242 148 188 
247 151 186 246 151 186 246 151 186 246 151 186 246 151 186 246 151 186 
246 151 186 246 151 186 246 151 186 246 151 186 
246 151 186 246 151 186 246 151 186 246 151 186 246 151 186 246 151 186 
246 151 186 246 151 186 246 151 186 246 151 186 246 151 186 246 151 186 
246 151 186 246 151 186 246 151 186 246 151 186 246 151 186 246 151 186 
246 151 186 246 151 186 246 151 186 246 151 186 246 151 186 246 151 186 
246 151 186 244 150 187 246 151 186 246 151 186 243 150 189 239 147 189 
230 148 185 131 24  35  212 54  71  212 54  71  212 54  71  212 54  71  
253 167 209 241 149 187 246 151 187 246 151 186 246 151 186 246 151 186 
246 151 186 246 151 186 246 151 186 246 151 186 246 151 186 246 151 186 
246 151 186 246 151 186 246 151 186 246 151 186 243 150 189 244 150 187 
247 151 186 246 151 186 246 151 186 246 151 186 246 151 186 246 151 186 
246 151 186 246 151 186 246 151 186 246 151 186 
246 151 186 246 151 186 246 151 186 246 151 186 246 151 186 246 151 186 
246 151 186 246 151 186 246 151 186 246 151 186 246 151 186 246 151 186 
246 151 186 246 151 186 246 151 186 246 151 186 246 151 186 246 151 186 
246 151 186 246 151 186 246 151 186 246 151 186 246 151 186 246 151 186 
246 151 186 246 151 186 246 151 186 246 151 186 244 150 187 184 116 146 
156 32  45  212 54  71  212 54  71  212 54  71  184 44  58  144 89  113 
239 147 189 244 150 187 246 151 186 246 151 186 246 151 186 246 151 186 
246 151 186 246 151 186 246 151 186 246 151 186 246 151 186 246 151 186 
246 151 186 246 151 186 246 151 186 246 151 186 246 151 186 241 149 187 
247 151 186 246 151 186 246 151 186 246 151 186 246 151 186 246 151 186 
246 151 186 246 151 186 246 151 186 246 151 186 
246 151 186 246 151 186 246 151 186 246 151 186 246 151 186 246 151 186 
246 151 186 246 151 186 246 151 186 246 151 186 246 151 186 246 151 186 
246 151 186 246 151 186 246 151 186 246 151 186 246 151 186 246 151 186 
246 151 186 246 151 186 246 151 186 246 151 186 246 151 186 246 151 186 
246 151 186 246 151 186 246 151 186 244 150 187 253 167 209 156 32  45  
212 54  71  212 54  71  212 54  71  156 32  45  184 116 146 242 151 191 
245 150 186 246 151 186 246 151 186 246 151 186 246 151 186 246 151 186 
246 151 186 246 151 186 246 151 186 246 151 186 246 151 186 246 151 186 
246 151 186 246 151 186 246 151 186 246 151 186 247 151 186 243 150 189 
247 151 186 246 151 186 246 151 186 246 151 186 246 151 186 246 151 186 
246 151 186 246 151 186 246 151 186 246 151 186 
246 151 186 246 151 186 246 151 186 246 151 186 246 151 186 246 151 186 
246 151 186 246 151 186 246 151 186 246 151 186 246 151 186 246 151 186 
246 151 186 246 151 186 246 151 186 246 151 186 246 151 186 246 151 186 
246 151 186 246 151 186 246 151 186 246 151 186 246 151 186 246 151 186 
246 151 186 246 151 186 246 151 186 250 161 201 71  25  37  212 54  71  
212 54  71  212 54  71  131 24  35  205 129 162 239 147 189 243 150 189 
246 151 186 246 151 186 246 151 186 246 151 186 246 151 186 246 151 186 
246 151 186 246 151 187 246 151 186 246 151 186 246 151 186 246 151 186 
246 151 186 246 151 186 246 151 186 246 151 186 246 151 186 246 149 186 
247 151 186 246 151 186 246 151 186 246 151 186 246 151 186 246 151 186 
246 151 186 246 151 186 246 151 186 246 151 186 
246 151 186 246 151 186 246 151 186 246 151 186 246 151 186 246 151 186 
246 151 186 246 151 186 246 151 186 246 151 186 246 151 186 246 151 186 
246 151 186 246 151 186 246 151 186 246 151 186 246 151 186 246 151 186 
246 151 186 246 151 186 246 151 186 246 151 186 246 151 186 246 151 186 
246 151 186 246 151 186 247 156 195 71  25  37  237 67  86  212 54  71  
212 54  71  237 67  86  215 137 172 237 146 185 243 150 189 243 150 189 
246 151 186 246 151 186 244 150 187 244 150 187 246 151 186 246 151 186 
246 151 186 246 151 186 246 151 186 246 151 186 246 151 187 246 151 186 
246 151 186 246 151 186 246 151 186 246 151 186 246 151 186 246 149 186 
247 151 186 246 151 186 246 151 186 246 151 186 246 151 186 246 151 186 
246 151 186 246 151 186 246 151 186 246 151 186 
246 151 186 246 151 186 246 151 186 246 151 186 246 151 186 246 151 186 
246 151 186 246 151 186 246 151 186 246 151 186 246 151 186 246 151 186 
246 151 186 246 151 186 246 151 186 246 151 186 246 151 186 246 151 186 
246 151 186 246 151 186 246 151 186 246 151 186 246 151 186 246 151 186 
246 151 186 243 149 186 76  47  61  237 67  86  212 54  71  212 54  71  
212 54  71  184 44  58  116 71  92  215 137 172 253 167 209 250 161 201 
241 149 187 243 150 189 239 147 189 243 149 186 243 150 189 244 150 187 
246 151 186 246 151 186 246 151 186 246 151 186 246 151 186 243 151 185 
246 151 186 246 151 186 246 151 186 246 151 186 246 151 186 243 151 185 
247 151 186 246 151 186 246 151 186 246 151 186 246 151 186 246 151 186 
246 151 186 246 151 186 246 151 186 246 151 186 
246 151 186 246 151 186 246 151 186 246 151 186 246 151 186 246 151 186 
246 151 186 246 151 186 246 151 186 246 151 186 246 151 186 246 151 186 
246 151 186 246 151 186 246 151 186 246 151 186 246 151 186 246 151 186 
246 151 186 246 151 186 246 151 186 246 151 186 246 151 186 246 151 186 
244 150 187 250 161 201 237 67  86  212 54  71  212 54  71  212 54  71  
212 54  71  212 54  71  212 54  71  225 60  77  156 32  45  85  17  25  
167 103 131 254 174 216 247 156 195 237 146 185 239 147 189 243 151 185 
245 150 186 246 151 186 246 151 186 246 151 186 246 151 186 246 151 186 
247 151 186 246 151 186 246 151 186 246 151 186 246 151 186 244 150 187 
247 151 186 246 151 186 246 151 186 246 151 186 246 151 186 246 151 186 
246 151 186 246 151 186 246 151 186 246 151 186 
246 151 186 246 151 186 246 151 186 246 151 186 246 151 186 246 151 186 
246 151 186 246 151 186 246 151 186 246 151 186 246 151 186 246 151 186 
246 151 186 246 151 186 246 151 186 246 151 186 246 151 186 246 151 186 
246 151 186 246 151 186 246 151 186 246 151 186 246 151 186 246 151 187 
250 161 201 102 28  39  212 54  71  212 54  71  212 54  71  212 54  71  
212 54  71  212 54  71  212 54  71  212 54  71  212 54  71  212 54  71  
225 60  77  156 32  45  34  16  22  167 103 131 253 167 209 239 147 189 
239 147 189 244 150 187 246 151 186 246 151 186 246 151 186 246 151 186 
246 151 186 246 151 186 246 151 186 246 151 186 246 151 186 244 150 187 
247 151 186 246 151 186 246 151 186 246 151 186 246 151 186 246 151 186 
246 151 186 246 151 186 246 151 186 246 151 186 
246 151 186 246 151 186 246 151 186 246 151 186 246 151 186 246 151 186 
246 151 186 246 151 186 246 151 186 246 151 186 246 151 186 246 151 186 
246 151 186 246 151 186 246 151 186 246 151 186 246 151 186 246 151 186 
246 151 186 246 151 186 246 151 186 246 151 186 246 151 186 247 154 191 
76  47  61  225 60  77  212 54  71  212 54  71  212 54  71  225 60  77  
237 67  86  237 67  86  237 67  86  237 67  86  237 67  86  225 60  77  
225 60  77  225 60  77  225 60  77  237 67  86  131 24  35  76  47  61  
250 161 201 242 148 188 245 150 185 246 151 186 246 151 186 246 151 186 
246 151 186 246 151 186 246 151 186 246 151 186 246 151 186 244 150 187 
247 151 186 246 151 186 246 151 186 246 151 186 246 151 186 246 151 186 
246 151 186 246 151 186 246 151 186 246 151 186 
246 151 186 246 151 186 246 151 186 246 151 186 246 151 186 246 151 186 
246 151 186 246 151 186 246 151 186 246 151 186 246 151 186 246 151 186 
246 151 186 246 151 186 246 151 186 246 151 186 246 151 186 246 151 186 
246 151 186 246 151 186 246 151 186 246 151 186 246 151 186 167 103 131 
184 44  58  115 40  60  115 40  60  115 40  60  115 40  60  76  47  61  
96  57  75  96  57  75  116 71  92  116 71  92  116 71  92  96  57  75  
96  57  75  115 40  60  96  57  75  116 71  92  115 40  60  115 40  60  
196 120 152 237 146 185 243 150 189 246 151 186 246 151 186 246 151 186 
246 151 186 246 151 186 246 151 186 246 151 186 246 151 186 244 150 187 
247 151 186 246 151 186 246 151 186 246 151 186 246 151 186 246 151 186 
246 151 186 246 151 186 246 151 186 246 151 186 
246 151 186 246 151 186 246 151 186 246 151 186 246 151 186 246 151 186 
246 151 186 246 151 186 246 151 186 246 151 186 246 151 186 246 151 186 
246 151 186 246 151 186 246 151 186 246 151 186 246 151 186 246 151 186 
246 151 186 246 151 186 246 151 186 246 151 186 246 151 186 243 150 189 
238 155 195 250 161 201 247 156 195 247 156 195 247 154 191 245 153 189 
239 147 189 242 151 191 239 147 189 239 147 189 237 146 185 245 152 192 
243 150 189 245 152 192 245 152 192 243 150 189 243 150 189 247 156 195 
242 151 191 242 148 188 241 149 187 245 150 186 246 151 186 246 151 186 
246 151 186 246 151 186 246 151 186 246 151 186 246 151 186 243 149 186 
247 151 186 246 151 186 246 151 186 246 151 186 246 151 186 246 151 186 
246 151 186 246 151 186 246 151 186 246 151 186 
246 151 186 246 151 186 246 151 186 246 151 186 246 151 186 246 151 186 
246 151 186 246 151 186 246 151 186 246 151 186 246 151 186 246 151 186 
246 151 186 246 151 186 246 151 186 246 151 186 246 151 186 246 151 186 
246 151 186 246 151 186 246 151 186 246 151 186 246 151 186 246 151 187 
246 151 186 246 151 186 246 151 186 246 151 186 246 151 186 246 151 186 
245 150 186 245 150 186 243 151 185 245 150 185 244 150 187 243 151 185 
246 151 187 243 151 185 244 150 187 244 150 187 243 150 189 243 150 189 
245 150 187 245 150 187 244 150 187 246 151 186 247 151 186 246 151 186 
246 151 186 246 151 186 246 151 186 246 151 186 245 150 186 243 149 186 
247 151 186 246 151 186 246 151 186 246 151 186 246 151 186 246 151 186 
246 151 186 246 151 186 246 151 186 246 151 186 
246 151 186 246 151 186 246 151 186 246 151 186 246 151 186 246 151 186 
246 151 186 246 151 186 246 151 186 246 151 186 246 151 186 246 151 186 
246 151 186 246 151 186 246 151 186 246 151 186 246 151 186 246 151 186 
246 151 186 246 151 186 246 151 186 246 151 186 246 151 186 246 151 186 
246 151 186 246 151 186 246 151 186 246 151 186 246 151 186 246 151 186 
246 151 186 246 151 186 246 151 186 246 151 186 246 151 186 246 151 186 
246 151 186 246 151 186 246 151 186 246 151 186 246 151 186 246 151 186 
247 151 186 246 151 186 246 151 186 246 151 186 246 151 186 246 151 186 
246 151 186 246 151 186 246 151 186 246 151 186 246 151 186 247 151 186 
246 151 186 246 151 186 246 151 186 246 151 186 246 151 186 246 151 186 
246 151 186 246 151 186 246 151 186 246 151 186 
246 151 186 246 151 186 246 151 186 246 151 186 246 151 186 246 151 186 
246 151 186 246 151 186 246 151 186 246 151 186 246 151 186 246 151 186 
246 151 186 246 151 186 246 151 186 246 151 186 246 151 186 246 151 186 
246 151 186 246 151 186 246 151 186 246 151 186 246 151 186 246 151 186 
246 151 186 246 151 186 246 151 186 246 151 186 246 151 186 246 151 186 
246 151 186 246 151 186 246 151 186 246 151 186 246 151 186 246 151 186 
246 151 186 246 151 186 246 151 186 246 151 186 246 151 186 246 151 186 
246 151 186 246 151 186 246 151 186 246 151 186 246 151 186 246 151 186 
246 151 186 246 151 186 246 151 186 246 151 186 246 151 186 246 151 186 
246 151 186 246 151 186 246 151 186 246 151 186 246 151 186 246 151 186 
246 151 186 246 151 186 246 151 186 246 151 186 
246 151 186 246 151 186 246 151 186 246 151 186 246 151 186 246 151 186 
246 151 186 246 151 186 246 151 186 246 151 186 246 151 186 246 151 186 
246 151 186 246 151 186 246 151 186 246 151 186 246 151 186 246 151 186 
246 151 186 246 151 186 246 151 186 246 151 186 246 151 186 246 151 186 
246 151 186 246 151 186 246 151 186 246 151 186 246 151 186 246 151 186 
246 151 186 246 151 186 246 151 186 246 151 186 246 151 186 246 151 186 
246 151 186 246 151 186 246 151 186 246 151 186 246 151 186 246 151 186 
246 151 186 246 151 186 246 151 186 246 151 186 246 151 186 246 151 186 
246 151 186 246 151 186 246 151 186 246 151 186 246 151 186 246 151 186 
246 151 186 246 151 186 246 151 186 246 151 186 246 151 186 246 151 186 
246 151 186 246 151 186 246 151 186 246 151 186 
246 151 186 246 151 186 246 151 186 246 151 186 246 151 186 246 151 186 
246 151 186 246 151 186 246 151 186 246 151 186 246 151 186 246 151 186 
246 151 186 246 151 186 246 151 186 246 151 186 246 151 186 246 151 186 
246 151 186 246 151 186 246 151 186 246 151 186 246 151 186 246 151 186 
246 151 186 246 151 186 246 151 186 246 151 186 246 151 186 246 151 186 
246 151 186 246 151 186 246 151 186 246 151 186 246 151 186 246 151 186 
246 151 186 246 151 186 246 151 186 246 151 186 246 151 186 246 151 186 
246 151 186 246 151 186 246 151 186 246 151 186 246 151 186 246 151 186 
246 151 186 246 151 186 246 151 186 246 151 186 246 151 186 246 151 186 
246 151 186 246 151 186 246 151 186 246 151 186 246 151 186 246 151 186 
246 151 186 246 151 186 246 151 186 246 151 186 
246 151 186 246 151 186 246 151 186 246 151 186 246 151 186 246 151 186 
246 151 186 246 151 186 246 151 186 246 151 186 246 151 186 246 151 186 
246 151 186 246 151 186 246 151 186 246 151 186 246 151 186 246 151 186 
246 151 186 246 151 186 246 151 186 246 151 186 246 151 186 246 151 186 
246 151 186 246 151 186 246 151 186 246 151 186 246 151 186 246 151 186 
246 151 186 246 151 186 246 151 186 246 151 186 246 151 186 246 151 186 
246 151 186 246 151 186 246 151 186 246 151 186 246 151 186 246 151 186 
246 151 186 246 151 186 246 151 186 246 151 186 246 151 186 246 151 186 
246 151 186 246 151 186 246 151 186 246 151 186 246 151 186 246 151 186 
246 151 186 246 151 186 246 151 186 246 151 186 246 151 186 246 151 186 
246 151 186 246 151 186 246 151 186 246 151 186 
246 151 186 246 151 186 246 151 186 246 151 186 246 151 186 246 151 186 
246 151 186 246 151 186 246 151 186 246 151 186 246 151 186 246 151 186 
246 151 186 246 151 186 246 151 186 246 151 186 246 151 186 246 151 186 
246 151 186 246 151 186 246 151 186 246 151 186 246 151 186 246 151 186 
246 151 186 246 151 186 246 151 186 246 151 186 246 151 186 246 151 186 
246 151 186 246 151 186 246 151 186 246 151 186 246 151 186 246 151 186 
246 151 186 246 151 186 246 151 186 246 151 186 246 151 186 246 151 186 
246 151 186 246 151 186 246 151 186 246 151 186 246 151 186 246 151 186 
246 151 186 246 151 186 246 151 186 246 151 186 246 151 186 246 151 186 
246 151 186 246 151 186 246 151 186 246 151 186 246 151 186 246 151 186 
246 151 186 246 151 186 246 151 186 246 151 186 
246 151 186 246 151 186 246 151 186 246 151 186 246 151 186 246 151 186 
246 151 186 246 151 186 246 151 186 246 151 186 246 151 186 246 151 186 
246 151 186 246 151 186 246 151 186 246 151 186 246 151 186 246 151 186 
246 151 186 246 151 186 246 151 186 246 151 186 246 151 186 246 151 186 
246 151 186 246 151 186 246 151 186 246 151 186 246 151 186 246 151 186 
246 151 186 246 151 186 246 151 186 246 151 186 246 151 186 246 151 186 
246 151 186 246 151 186 246 151 186 246 151 186 246 151 186 246 151 186 
246 151 186 246 151 186 246 151 186 246 151 186 246 151 186 246 151 186 
246 151 186 246 151 186 246 151 186 246 151 186 246 151 186 246 151 186 
246 151 186 246 151 186 246 151 186 246 151 186 246 151 186 246 151 186 
246 151 186 246 151 186 246 151 186 246 151 186 
246 151 186 246 151 186 246 151 186 246 151 186 246 151 186 246 151 186 
246 151 186 246 151 186 246 151 186 246 151 186 246 151 186 246 151 186 
246 151 186 246 151 186 246 151 186 246 151 186 246 151 186 246 151 186 
246 151 186 246 151 186 246 151 186 246 151 186 246 151 186 246 151 186 
246 151 186 246 151 186 246 151 186 246 151 186 246 151 186 246 151 186 
246 151 186 246 151 186 246 151 186 246 151 186 246 151 186 246 151 186 
246 151 186 246 151 186 246 151 186 246 151 186 246 151 186 246 151 186 
246 151 186 246 151 186 246 151 186 246 151 186 246 151 186 246 151 186 
246 151 186 246 151 186 246 151 186 246 151 186 246 151 186 246 151 186 
246 151 186 246 151 186 246 151 186 246 151 186 246 151 186 246 151 186 
246 151 186 246 151 186 246 151 186 246 151 186 
246 151 186 246 151 186 246 151 186 246 151 186 246 151 186 246 151 186 
246 151 186 246 151 186 246 151 186 246 151 186 246 151 186 246 151 186 
246 151 186 246 151 186 246 151 186 246 151 186 246 151 186 246 151 186 
246 151 186 246 151 186 246 151 186 246 151 186 246 151 186 246 151 186 
246 151 186 246 151 186 246 151 186 246 151 186 246 151 186 246 151 186 
246 151 186 246 151 186 246 151 186 246 151 186 246 151 186 246 151 186 
246 151 186 246 151 186 246 151 186 246 151 186 246 151 186 246 151 186 
246 151 186 246 151 186 246 151 186 246 151 186 246 151 186 246 151 186 
246 151 186 246 151 186 246 151 186 246 151 186 246 151 186 246 151 186 
246 151 186 246 151 186 246 151 186 246 151 186 246 151 186 246 151 186 
246 151 186 246 151 186 246 151 186 246 151 186 
